<svg viewBox="0 0 27 26" fill="none" xmlns="http://www.w3.org/2000/svg">
<path d="M5.91667 22.75C5.32083 22.75 4.81094 22.538 4.387 22.1141C3.96306 21.6901 3.75072 21.1799 3.75 20.5833V5.41667C3.75 4.82084 3.96233 4.31095 4.387 3.887C4.81167 3.46306 5.32156 3.25073 5.91667 3.25H14.5833C14.8903 3.25 15.1477 3.354 15.3557 3.562C15.5637 3.77 15.6674 4.02711 15.6667 4.33334C15.6659 4.63956 15.5619 4.89703 15.3547 5.10575C15.1474 5.31448 14.8903 5.41811 14.5833 5.41667H5.91667V20.5833H21.0833V11.9167C21.0833 11.6097 21.1873 11.3526 21.3953 11.1453C21.6033 10.9381 21.8604 10.8341 22.1667 10.8333C22.4729 10.8326 22.7304 10.9366 22.9391 11.1453C23.1478 11.3541 23.2514 11.6112 23.25 11.9167V20.5833C23.25 21.1792 23.038 21.6894 22.6141 22.1141C22.1901 22.5388 21.6799 22.7507 21.0833 22.75H5.91667ZM10.25 18.4167C9.94305 18.4167 9.68594 18.3127 9.47867 18.1047C9.27139 17.8967 9.16739 17.6396 9.16667 17.3333C9.16594 17.0271 9.26994 16.77 9.47867 16.562C9.68739 16.354 9.9445 16.25 10.25 16.25H16.75C17.0569 16.25 17.3144 16.354 17.5224 16.562C17.7304 16.77 17.8341 17.0271 17.8333 17.3333C17.8326 17.6396 17.7286 17.897 17.5213 18.1058C17.3141 18.3145 17.0569 18.4181 16.75 18.4167H10.25ZM10.25 15.1667C9.94305 15.1667 9.68594 15.0627 9.47867 14.8547C9.27139 14.6467 9.16739 14.3896 9.16667 14.0833C9.16594 13.7771 9.26994 13.52 9.47867 13.312C9.68739 13.104 9.9445 13 10.25 13H16.75C17.0569 13 17.3144 13.104 17.5224 13.312C17.7304 13.52 17.8341 13.7771 17.8333 14.0833C17.8326 14.3896 17.7286 14.647 17.5213 14.8558C17.3141 15.0645 17.0569 15.1681 16.75 15.1667H10.25ZM10.25 11.9167C9.94305 11.9167 9.68594 11.8127 9.47867 11.6047C9.27139 11.3967 9.16739 11.1396 9.16667 10.8333C9.16594 10.5271 9.26994 10.27 9.47867 10.062C9.68739 9.854 9.9445 9.75 10.25 9.75H16.75C17.0569 9.75 17.3144 9.854 17.5224 10.062C17.7304 10.27 17.8341 10.5271 17.8333 10.8333C17.8326 11.1396 17.7286 11.397 17.5213 11.6058C17.3141 11.8145 17.0569 11.9181 16.75 11.9167H10.25ZM20 9.75C19.6931 9.75 19.4359 9.646 19.2287 9.438C19.0214 9.23 18.9174 8.97289 18.9167 8.66667V7.58334H17.8333C17.5264 7.58334 17.2693 7.47934 17.062 7.27134C16.8547 7.06334 16.7507 6.80623 16.75 6.5C16.7493 6.19378 16.8533 5.93667 17.062 5.72867C17.2707 5.52067 17.5278 5.41667 17.8333 5.41667H18.9167V4.33334C18.9167 4.02639 19.0207 3.76928 19.2287 3.562C19.4367 3.35473 19.6938 3.25073 20 3.25C20.3062 3.24928 20.5637 3.35328 20.7724 3.562C20.9811 3.77073 21.0848 4.02784 21.0833 4.33334V5.41667H22.1667C22.4736 5.41667 22.7311 5.52067 22.9391 5.72867C23.1471 5.93667 23.2507 6.19378 23.25 6.5C23.2493 6.80623 23.1453 7.0637 22.938 7.27242C22.7307 7.48114 22.4736 7.58478 22.1667 7.58334H21.0833V8.66667C21.0833 8.97362 20.9793 9.23109 20.7713 9.43909C20.5633 9.64709 20.3062 9.75073 20 9.75Z" fill="currentColor"/>
</svg>
