<svg  width="27" height="26" viewBox="0 0 27 26" fill="none" xmlns="http://www.w3.org/2000/svg">
<path d="M15.6667 22.75C15.3793 22.75 15.1038 22.6359 14.9006 22.4327C14.6975 22.2295 14.5833 21.954 14.5833 21.6667V13C14.5833 12.7127 14.6975 12.4371 14.9006 12.234C15.1038 12.0308 15.3793 11.9167 15.6667 11.9167H22.1667C22.454 11.9167 22.7295 12.0308 22.9327 12.234C23.1359 12.4371 23.25 12.7127 23.25 13V21.6667C23.25 21.954 23.1359 22.2295 22.9327 22.4327C22.7295 22.6359 22.454 22.75 22.1667 22.75H15.6667ZM4.83333 14.0833C4.54602 14.0833 4.27047 13.9692 4.0673 13.766C3.86414 13.5629 3.75 13.2873 3.75 13V4.33333C3.75 4.04602 3.86414 3.77047 4.0673 3.5673C4.27047 3.36414 4.54602 3.25 4.83333 3.25H11.3333C11.6207 3.25 11.8962 3.36414 12.0994 3.5673C12.3025 3.77047 12.4167 4.04602 12.4167 4.33333V13C12.4167 13.2873 12.3025 13.5629 12.0994 13.766C11.8962 13.9692 11.6207 14.0833 11.3333 14.0833H4.83333ZM10.25 11.9167V5.41667H5.91667V11.9167H10.25ZM4.83333 22.75C4.54602 22.75 4.27047 22.6359 4.0673 22.4327C3.86414 22.2295 3.75 21.954 3.75 21.6667V17.3333C3.75 17.046 3.86414 16.7705 4.0673 16.5673C4.27047 16.3641 4.54602 16.25 4.83333 16.25H11.3333C11.6207 16.25 11.8962 16.3641 12.0994 16.5673C12.3025 16.7705 12.4167 17.046 12.4167 17.3333V21.6667C12.4167 21.954 12.3025 22.2295 12.0994 22.4327C11.8962 22.6359 11.6207 22.75 11.3333 22.75H4.83333ZM5.91667 20.5833H10.25V18.4167H5.91667V20.5833ZM16.75 20.5833H21.0833V14.0833H16.75V20.5833ZM14.5833 4.33333C14.5833 4.04602 14.6975 3.77047 14.9006 3.5673C15.1038 3.36414 15.3793 3.25 15.6667 3.25H22.1667C22.454 3.25 22.7295 3.36414 22.9327 3.5673C23.1359 3.77047 23.25 4.04602 23.25 4.33333V8.66667C23.25 8.95398 23.1359 9.22953 22.9327 9.4327C22.7295 9.63586 22.454 9.75 22.1667 9.75H15.6667C15.3793 9.75 15.1038 9.63586 14.9006 9.4327C14.6975 9.22953 14.5833 8.95398 14.5833 8.66667V4.33333ZM16.75 5.41667V7.58333H21.0833V5.41667H16.75Z" fill="currentColor"/>
</svg>
