<svg viewBox="0 0 29 28" fill="none" xmlns="http://www.w3.org/2000/svg">
<path d="M2.5 12.798C2.5 11.2678 3.20072 9.8218 4.40178 8.8736L11.2768 3.44597C13.0933 2.01185 15.6567 2.01185 17.4732 3.44596L24.3482 8.87359C25.5493 9.8218 26.25 11.2678 26.25 12.798V21C26.25 23.7614 24.0114 26 21.25 26H19.375C18.6846 26 18.125 25.4404 18.125 24.75V21C18.125 19.6193 17.0057 18.5 15.625 18.5H13.125C11.7443 18.5 10.625 19.6193 10.625 21V24.75C10.625 25.4404 10.0654 26 9.375 26H7.5C4.73858 26 2.5 23.7614 2.5 21L2.5 12.798Z" fill="currentColor"/>
</svg>
