<svg width="24" height="24" viewBox="0 0 24 24" fill="none" xmlns="http://www.w3.org/2000/svg">
<g id="Icons">
<path id="Vector" d="M12.3072 5.80683C12.0676 5.81117 11.8361 5.7198 11.6642 5.55294C11.5296 5.42244 11.4002 5.29739 11.2744 5.17592C11.0546 4.96357 10.8461 4.76212 10.6415 4.56147C9.00072 2.95369 6.74236 2.49849 4.93299 3.27973L4.93283 3.2798C3.11907 4.06251 1.85702 6.05597 1.90111 8.2878L1.90111 8.28786C1.93442 9.97971 2.64327 11.4799 3.67634 12.9641L3.67663 12.9645C5.93146 16.2078 8.99036 18.6439 12.2533 21.0299C14.6308 19.2989 16.895 17.5126 18.8503 15.3974L19.5111 16.0083L18.8503 15.3974C20.5094 13.6026 21.8746 11.7872 22.4325 9.53915L22.4326 9.53892C23.0207 7.1723 22.0148 4.70673 20.1001 3.55457L12.3072 5.80683ZM12.3072 5.80683C12.5468 5.80248 12.7747 5.70276 12.9405 5.52977M12.3072 5.80683L12.9405 5.52977M12.9405 5.52977C13.0847 5.37941 13.212 5.24131 13.3317 5.11147C13.5615 4.86227 13.7633 4.64348 14.0019 4.42673L14.0023 4.42642M12.9405 5.52977L14.0023 4.42642M14.0023 4.42642C15.8653 2.73247 18.2782 2.45896 20.1 3.55448L14.0023 4.42642ZM12.0873 21.1506C12.0875 21.1504 12.0877 21.1502 12.088 21.15C12.0878 21.1502 12.0875 21.1504 12.0873 21.1505L12.0873 21.1506ZM12.1764 21.1003L12.1835 21.1C12.1896 21.0998 12.2038 21.0998 12.225 21.1022C12.2453 21.1046 12.2813 21.1103 12.3278 21.1254C12.3732 21.1402 12.444 21.1691 12.5215 21.2255L12.1764 21.1003Z" stroke="black" stroke-width="1.8" stroke-linejoin="round"/>
</g>
</svg>
