<svg width="27" height="26" viewBox="0 0 27 26" fill="none" xmlns="http://www.w3.org/2000/svg">
<path fill-rule="evenodd" clip-rule="evenodd" d="M22.1663 4.33268H4.83301C4.54569 4.33268 4.27014 4.44682 4.06698 4.64998C3.86381 4.85315 3.74967 5.1287 3.74967 5.41602V20.5827C3.74967 20.87 3.86381 21.1456 4.06698 21.3487C4.27014 21.5519 4.54569 21.666 4.83301 21.666H22.1663C22.4537 21.666 22.7292 21.5519 22.9324 21.3487C23.1355 21.1456 23.2497 20.87 23.2497 20.5827V5.41602C23.2497 5.1287 23.1355 4.85315 22.9324 4.64998C22.7292 4.44682 22.4537 4.33268 22.1663 4.33268ZM4.83301 2.16602C3.97105 2.16602 3.1444 2.50843 2.53491 3.11792C1.92542 3.72741 1.58301 4.55406 1.58301 5.41602V20.5827C1.58301 21.4446 1.92542 22.2713 2.53491 22.8808C3.1444 23.4903 3.97105 23.8327 4.83301 23.8327H22.1663C23.0283 23.8327 23.8549 23.4903 24.4644 22.8808C25.0739 22.2713 25.4163 21.4446 25.4163 20.5827V5.41602C25.4163 4.55406 25.0739 3.72741 24.4644 3.11792C23.8549 2.50843 23.0283 2.16602 22.1663 2.16602H4.83301ZM6.99967 7.58268H9.16634V9.74935H6.99967V7.58268ZM12.4163 7.58268C12.129 7.58268 11.8535 7.69682 11.6503 7.89998C11.4471 8.10315 11.333 8.3787 11.333 8.66602C11.333 8.95333 11.4471 9.22888 11.6503 9.43205C11.8535 9.63521 12.129 9.74935 12.4163 9.74935H18.9163C19.2037 9.74935 19.4792 9.63521 19.6824 9.43205C19.8855 9.22888 19.9997 8.95333 19.9997 8.66602C19.9997 8.3787 19.8855 8.10315 19.6824 7.89998C19.4792 7.69682 19.2037 7.58268 18.9163 7.58268H12.4163ZM9.16634 11.916H6.99967V14.0827H9.16634V11.916ZM11.333 12.9993C11.333 12.712 11.4471 12.4365 11.6503 12.2333C11.8535 12.0302 12.129 11.916 12.4163 11.916H18.9163C19.2037 11.916 19.4792 12.0302 19.6824 12.2333C19.8855 12.4365 19.9997 12.712 19.9997 12.9993C19.9997 13.2867 19.8855 13.5622 19.6824 13.7654C19.4792 13.9685 19.2037 14.0827 18.9163 14.0827H12.4163C12.129 14.0827 11.8535 13.9685 11.6503 13.7654C11.4471 13.5622 11.333 13.2867 11.333 12.9993ZM9.16634 16.2493H6.99967V18.416H9.16634V16.2493ZM11.333 17.3327C11.333 17.0454 11.4471 16.7698 11.6503 16.5667C11.8535 16.3635 12.129 16.2493 12.4163 16.2493H18.9163C19.2037 16.2493 19.4792 16.3635 19.6824 16.5667C19.8855 16.7698 19.9997 17.0454 19.9997 17.3327C19.9997 17.62 19.8855 17.8956 19.6824 18.0987C19.4792 18.3019 19.2037 18.416 18.9163 18.416H12.4163C12.129 18.416 11.8535 18.3019 11.6503 18.0987C11.4471 17.8956 11.333 17.62 11.333 17.3327Z" fill="currentColor"/>
</svg>
