<svg width="36" height="36" viewBox="0 0 36 36" fill="none" xmlns="http://www.w3.org/2000/svg">
<g id="Frame 271">
<path id="Union" fill-rule="evenodd" clip-rule="evenodd" d="M19.9834 5C19.9834 3.89543 19.088 3 17.9834 3C16.8788 3 15.9834 3.89543 15.9834 5V15.9844H5C3.89543 15.9844 3 16.8798 3 17.9844C3 19.0889 3.89543 19.9844 5 19.9844H15.9834V30.9677C15.9834 32.0723 16.8788 32.9677 17.9834 32.9677C19.088 32.9677 19.9834 32.0723 19.9834 30.9677V19.9844H30.9677C32.0723 19.9844 32.9677 19.0889 32.9677 17.9844C32.9677 16.8798 32.0723 15.9844 30.9677 15.9844H19.9834V5Z" fill="#4964FF" fill-opacity="0.76"/>
</g>
</svg>
