<svg width="200" height="100" viewBox="0 0 200 100" fill="none" xmlns="http://www.w3.org/2000/svg">
<path opacity="0.95" d="M143 41.5C141.8 37.9 147.167 32 150 29.5C149 28.5 146.8 25.8 146 23C145.2 20.2 147.667 17.8333 149 17L155 15C158 12 163 14.5 165.5 18.5C167.5 20.5 169.667 26.6667 170.5 29.5C172.167 32 175.8 37.3 177 38.5C178.5 40 179.5 47.5 180.5 50.5C181.3 52.9 178.5 62.8333 177 67.5L174 73L171.5 74.5C171.833 75.5 172.3 77.7 171.5 78.5C170.7 79.3 166.167 79.1666 164 79L158.5 78.5L153.5 76L150.5 77.5C151.667 76.1667 154.1 73.1 154.5 71.5C155 69.5 154.5 69.5 153 69C151.5 68.5 149 72 148 72C148 72 148 65.5 149 64.5C147 60.1 148.167 50.3333 149 46L147 46.5C146.167 46.3333 144.2 45.1 143 41.5Z" fill="white"/>
<path d="M127.812 81.5312C128.013 82.5187 128.127 83.5734 128.199 84.5802C128.262 85.4489 128.269 86.3377 128.302 87.2082C128.341 88.2555 128.017 89.2788 128.017 90.314M128.119 90.0065C128.248 89.4909 128.74 88.9275 129.007 88.482C129.619 87.4577 130.235 86.3939 131.089 85.5468C131.552 85.087 132.603 84.1776 133.353 84.4888C134.132 84.8127 133.71 86.033 133.535 86.5309C133.183 87.5336 132.642 88.4327 131.714 88.9712C130.771 89.519 129.708 90.2253 128.592 90.308C128.264 90.3322 127.279 90.3137 127.607 90.3137M127.607 90.2114C125.687 89.8658 124.07 89.2827 122.659 87.8508C122.055 87.2386 119.591 85.0506 120.861 84.1704C123.136 82.5937 125.701 85.1201 127.078 86.7131C127.66 87.3858 128.017 87.8831 128.017 88.778M144.809 86.1161C144.809 87.3641 144.924 88.6023 144.991 89.8476C145.021 90.3943 144.846 91.4068 145.548 91.5826C146.472 91.8134 147.61 91.8924 148.558 91.9409C148.607 91.9435 149.286 92.0395 149.308 91.8727C149.366 91.4375 149.317 90.9483 149.273 90.5128L149.269 90.4733C149.156 89.365 149.11 88.2619 149.03 87.1513C148.966 86.262 148.695 85.3109 149.525 84.6997C150.242 84.1707 151.196 83.9306 151.999 83.5563C153.339 82.9319 154.588 82.3155 155.594 81.2013C156.308 80.4108 157.526 78.9521 156.709 77.8452C155.993 76.8755 154.525 76.2345 153.336 76.224C152.596 76.2176 152.001 76.8083 151.487 77.265C151.184 77.5341 150.875 77.7976 150.588 78.0841C150.496 78.1763 150.405 78.4884 150.332 78.3799C150.234 78.2331 150.624 77.6384 150.645 77.6006C151.176 76.636 151.814 75.7963 152.545 74.9783C153.394 74.0288 154.335 72.869 154.57 71.5767C154.738 70.6533 154.36 69.1161 153.233 69.0397C151.661 68.9331 150.302 69.8714 149.257 70.9396C148.79 71.4169 148.353 71.9237 147.881 72.3958C147.765 72.5114 147.822 72.0682 147.847 71.9066C148.138 69.9988 148.363 68.2513 148.017 66.3263C147.873 65.5223 147.674 64.747 147.204 64.0681L147.197 64.0581C146.987 63.7553 146.341 62.8214 145.867 62.9645C144.869 63.2658 144.454 65.5882 144.24 66.3775C144.005 67.2444 143.818 68.1413 143.956 69.0397C144.128 70.1654 144.334 71.233 144.405 72.373C144.409 72.4305 144.51 72.7044 144.473 72.6119C144.303 72.186 143.939 71.779 143.671 71.4174C143.201 70.7829 142.7 70.1317 141.931 69.8474C141.226 69.587 139.837 69.4925 139.325 70.2228C139.099 70.5468 139.177 71.1726 139.2 71.5312C139.257 72.4142 139.523 73.2451 139.917 74.034C140.564 75.3271 141.481 76.0823 142.534 77.0033C142.691 77.1408 143.34 77.597 142.659 77.3219C141.845 76.9934 141.024 76.5385 140.145 76.4118C139.308 76.2913 138.295 76.6754 137.932 77.4812C137.455 78.539 138.59 79.8729 139.121 80.7121C139.897 81.9403 140.874 82.5889 142.255 83.0045C142.985 83.2244 143.721 83.4494 144.462 83.6303C144.544 83.6502 144.692 83.6437 144.752 83.7213C144.885 83.8916 144.809 84.272 144.809 84.4778V85.9113M105.798 82.737C105.798 79 113.135 79.0207 114.581 78.4423C115.063 78.2497 115.823 78.1116 116.015 77.5379C116.146 77.1442 115.911 76.5744 115.787 76.2182C115.472 75.3085 115.101 74.3227 114.479 73.5731C113.24 72.0811 111.753 72.4176 110.11 73.1635C110.061 73.1858 107.647 74.5284 107.641 74.5003C107.332 72.8005 108.02 70.9078 109.325 69.7903C110.147 69.0869 111.077 68.6176 112.067 68.1976C112.566 67.986 113.069 67.7842 113.574 67.5889C114.043 67.408 114.905 67.2411 115.087 66.6845C115.376 65.8058 114.733 64.3692 114.029 63.8233C113.189 63.1714 111.98 63.3189 111.009 63.4876C109.422 63.7632 107.698 64.4634 106.64 65.7175C106.498 65.8856 105.706 66.9898 106.071 66.1043C106.558 64.9249 107.394 63.8822 108.193 62.9074C109.151 61.7387 110.176 60.5186 111.515 59.7732C112.332 59.3182 114.755 58.4093 113.796 57.0143C112.61 55.2886 110.098 55.6665 108.529 56.4512C107.262 57.0845 106.088 57.8148 105.07 58.8061C104.572 59.2914 104.19 59.908 103.677 60.3704C103.519 60.5121 103.411 60.0677 103.335 59.9495C102.852 59.1947 101.921 58.7936 101.157 58.3909C99.2223 57.3721 97.0164 57.0975 95.0873 58.2202C94.2879 58.6855 93.5974 59.0186 93.8472 60.0178C94.0443 60.8063 94.4004 61.2884 95.1953 61.4398C96.9746 61.7787 98.4014 62.5488 99.7346 63.7948C100.499 64.5093 101.173 65.2933 101.817 66.1157C101.935 66.2673 102.072 66.4235 101.794 66.1953C101.28 65.7739 100.79 65.3258 100.258 64.9268C98.9239 63.9263 97.3591 63.1805 95.6618 63.1805C94.3654 63.1805 92.993 63.8729 92.7038 65.2681C92.5128 66.1902 92.6418 68.071 93.7789 68.3398C94.2752 68.4571 94.8263 68.5806 95.3376 68.6015C97.6337 68.6952 99.4262 69.3811 100.941 71.1669C101.408 71.7177 101.94 72.499 102.112 73.2147C102.198 73.5692 101.354 73.3037 101.02 73.1578C100.173 72.788 96.5 71.5 94.3535 71.9064C93.5023 72.3583 92.3057 72.7265 92.3057 74.3524C93 77.5 97.1563 78.2644 98.068 78.6471C99.3842 79.1996 100.496 79.9005 101.682 80.6487L101.782 80.7119C102.086 80.9033 102.296 81.2124 102.397 81.5538C102.786 82.8731 102.968 84.2683 103.244 85.6153C103.497 86.8456 103.632 88.1101 103.955 89.3241C104.14 90.0162 105.632 89.3946 106.083 89.3127C107.04 89.1386 106.264 87.3339 106.14 86.7302C105.956 85.838 105.853 85.6613 105.798 84.7668C105.771 84.3144 105.798 83.1522 105.798 82.737Z" stroke="black" stroke-linecap="round"/>
<path d="M149.616 16.7123C149.656 16.3657 149.621 15.9986 149.621 15.6486C149.621 14.9586 149.666 14.2299 149.985 13.6008C150.3 12.9818 151.247 10.968 152.306 11.5985C152.764 11.8706 153.151 12.3116 153.461 12.7361C153.747 13.1278 154.379 14.5687 154.912 14.6247C155.231 14.6583 155.7 14.3146 155.992 14.2037C156.977 13.8301 158.307 13.9972 159.337 14.0786C159.973 14.1288 160.405 12.9648 160.759 12.52C161.309 11.8298 161.639 10.9654 162.238 10.3243C162.763 9.76315 162.87 9.97934 163.512 10.5973C164.548 11.5935 165.024 12.5886 165.23 13.9762C165.387 15.0313 165.402 16.9947 165 18M126.686 64.7162C126.767 64.1508 127.244 63.6915 127.608 63.2827M129.144 61.6447C129.447 61.0963 129.79 60.6655 130.372 60.416M132.625 58.88C133.068 58.4734 133.529 58.2229 134.058 57.9585M131.089 64.4089C131.259 63.7037 131.733 63.2129 132.01 62.5659M133.854 60.6207L134.775 59.6992M136.618 60.5186C136.066 61.1847 135.578 61.862 135.082 62.5664M134.058 64.9214C133.86 65.4463 133.756 65.9174 133.648 66.4572M149.519 17.105C148.497 17.1415 147.844 17.991 147.312 18.7887C146.545 19.9384 146.218 21.1825 146.163 22.5544C146.11 23.8733 146.519 24.9955 147.073 26.1836C147.465 27.0248 147.854 27.9761 148.597 28.5727C149.033 28.9226 149.489 29.2666 149.929 29.5966M149.826 29.9038C149.268 30.0963 148.705 30.3312 148.245 30.7116C147.378 31.4273 146.661 32.3622 145.964 33.2315C145.223 34.1546 144.419 35.1037 143.944 36.2008C143.29 37.7119 142.881 39.3536 143.114 41.0075C143.37 42.8261 144.604 44.8547 146.1 45.8937C146.597 46.2391 147.226 46.5954 147.829 46.2805C148.306 46.0318 148.432 45.4058 148.927 45.2055C149.405 45.0121 150.135 45.1 150.645 45.0007C151.843 44.7678 153.167 44.0385 153.933 43.078C154.16 42.7936 154.218 42.5474 154.024 42.1963C153.297 40.8795 151.815 39.7973 150.56 39.0222C149.99 38.6704 149.439 38.7094 148.802 38.7094M168.563 38.0951C167.661 38.064 166.816 37.5372 165.901 37.7538C164.199 38.1569 162.549 39.3303 161.203 40.4045C160.695 40.81 160.275 41.3401 159.94 41.8949C159.351 42.8693 159.058 43.803 159.166 44.9438C159.252 45.8419 159.776 47.2336 160.913 47.0713C161.803 46.9441 162.523 46.1399 163.012 45.4444C163.055 45.3824 163.37 44.5684 163.501 44.5684C163.677 44.5684 164.006 44.8754 164.161 44.9552C164.519 45.1394 164.88 45.3561 165.253 45.507C166.304 45.9319 167.601 45.5672 168.677 45.416C169.056 45.3626 170.611 45.1781 170.611 44.648M137.13 56.3205C136.952 56.543 138.229 57.4996 138.586 57.2989C138.887 57.1298 139.162 56.8395 139.433 56.6277C140.18 56.0451 140.958 55.7705 141.885 55.5355C143.978 55.0049 146.057 54.3753 148.063 55.3194C149.258 55.8818 150.23 56.6223 151.157 57.5492M137.027 56.3204C136.904 56.1349 138.142 55.3629 138.268 55.2624C139.347 54.4005 140.473 53.5781 141.783 53.1065C142.787 52.7451 143.805 52.5202 144.86 52.3784C146.861 52.1097 148.81 52.5742 150.748 53.0439M150.953 52.7366C151.29 51.7252 151.157 50.5847 151.157 49.5284C151.157 49.4526 151.082 49.3099 151.157 49.3009C151.863 49.2162 152.634 49.3524 153.353 49.2895C154.919 49.1526 156.398 48.6261 157.926 48.3054C158.542 48.1762 159.181 48.2107 159.792 48.0779C159.987 48.0355 160.232 47.9662 160.395 48.1291C160.609 48.3424 160.71 48.7204 160.81 48.9823C161.318 50.3035 161.859 51.6113 162.358 52.9357C163.158 55.0622 164.071 57.2472 164.65 59.4489C164.777 59.9303 162.389 59.8858 162.068 59.904C158.686 60.0945 155.332 61.1511 151.971 61.5593C151.514 61.6148 150.829 61.7516 150.355 61.6332C150.072 61.5624 150.25 60.4535 150.281 60.2578L150.281 60.2566C150.334 59.9303 150.757 57.4466 150.543 57.4466M148.393 46.0815C148.162 47.5221 147.88 48.9757 147.733 50.4274C147.662 51.1251 147.556 51.7632 147.778 52.4297M147.983 55.5015C147.983 57.428 148.29 59.3358 148.29 61.2694C148.29 62.5218 148.523 64.0175 148.802 65.2285M159.86 69.7333C159.86 70.7642 159.823 71.7874 160.014 72.805C160.093 73.2244 160.496 74.1006 160.02 74.284C159.015 74.6703 158.311 75.726 158.063 76.73C157.709 78.1594 158.667 78.2912 159.815 78.3853C161.079 78.4889 162.331 78.7363 163.592 78.8233C165.307 78.9415 167.193 79.2369 168.893 79.0508C169.669 78.9659 171.615 78.88 172.045 78.0042C172.25 77.5857 172.139 76.8501 172.096 76.4057C172.034 75.7618 171.927 75.1622 171.692 74.557C171.56 74.2164 172.503 73.9711 172.739 73.7834C174.861 72.0965 175.98 69.2231 177.244 66.9119C178.348 64.8925 179.724 62.6533 179.724 60.2736C179.724 59.6878 180.542 59.5467 180.953 59.244C182.138 58.371 182.949 57.3655 183.717 56.1154C185.878 52.602 186.223 48.9936 186 45C185.835 42.0563 185.5 38 182.801 35.6089C181.5 35 180.442 35.1132 180 35.5C178.034 37.2201 180.05 40.4008 180.646 42.3837C181.047 43.7194 181.363 45.0157 181.51 46.4054C181.645 47.6757 181.316 48.5213 180.856 49.6705C180.814 49.7761 180.556 50.7158 180.395 50.6944C180.101 50.6551 179.531 48.0774 179.451 47.8104C178.856 45.8216 178.348 43.801 177.779 41.8035C177.432 40.5879 177.169 39.1878 176.59 38.0549C175.786 36.4832 174.829 35.0146 173.802 33.5725C172.513 31.7612 170.555 30.0046 169.974 27.7988C169.569 26.2626 169.242 24.882 168.512 23.4586C167.757 21.985 166.889 20.5468 165.85 19.2549C165.389 18.6819 164.649 18.3722 164.775 17.6167M151.669 23.3506C151.067 23.5512 151.542 25.0995 152.318 24.6589C152.576 24.5119 152.485 24.0893 152.363 23.8853C152.186 23.5882 151.975 23.8193 151.772 23.9649M159.246 22.7363C159.223 22.7641 159.198 22.7969 159.172 22.8337M159.172 22.8337C159.171 22.8353 159.17 22.837 159.168 22.8386M159.172 22.8337C159.221 22.8348 159.273 22.8364 159.326 22.8387C159.598 22.8508 159.676 23.0411 159.633 23.2938C159.591 23.5426 159.357 24.1235 159.007 23.8171C158.737 23.5806 158.978 23.1075 159.168 22.8386M159.172 22.8337C158.911 22.8279 158.746 22.8376 159.168 22.8386M159.168 22.8386C159.192 22.8387 159.218 22.8387 159.246 22.8387M152.5 27.0935C153 27.8558 154.254 27.698 154.9 27.0935C155.111 26.8965 155.731 25.4893 155.605 26.2403C155.526 26.7166 155.706 27.0643 156 27.5C156.198 27.7931 157 27.5 157 27.5C157.5 27.5 157.872 27.0935 158 27M152.079 49.153C151.681 48.9764 151.87 47.5978 151.874 47.2304C151.882 46.6137 152.284 45.6189 152.284 45.2622M154.5 41.9998C155.5 41.5 156.198 41.5759 156.63 41.5759C157.601 41.5759 158.074 42.1001 158.837 42.7022M162.522 46.0815C162.902 46.6128 163.382 47.0471 163.694 47.6288C164.181 48.5357 164.334 49.5172 164.36 50.5355C164.386 51.5667 164.077 52.2578 163.728 53.2034C163.656 53.4003 163.266 54.4509 163.342 54.3751" stroke="black" stroke-linecap="round"/>
<path d="M179 63C174 61.0002 172 48 178.5 46L180.5 51C180.833 50.3333 181.5 48.6 181.5 47C181.5 45 180.5 41.5 179.5 39C178.5 36.5 179.5 35 181.5 35C183.5 35 186 41.5 186.5 45.5C187 49.5 185 55 183.5 57C182.3 58.6 180.333 59.3333 179.5 59.5C179.5 60.1667 179.8 62.2 179 63Z" fill="black"/>
<path d="M138.5 57.5L137 56.5C138 54.5003 140.999 53.5007 143.998 52.5009L144 52.5002C146.4 51.7002 149.333 52.5002 150.5 53.0002C150.667 52.5002 151 51.1002 151 49.5002C151.8 49.9002 157.667 48.3335 160.5 47.5002L165 59.5002L160 60.0002L152.5 61.0002L150.5 61.5002L151 57.0002C150.5 56.5001 148.6 55.4 145 55C141.4 54.6 139.167 56.5 138.5 57.5Z" fill="black"/>
<path d="M166 19.5C160 23.5 155.333 18 155 14.5L159.5 14L163 10C163.667 10.8333 165.1 12.8 165.5 14C165.9 15.2 165.333 17.1667 165 18C165.167 18 165.6 18.3 166 19.5Z" fill="black"/>
<path d="M29 54.5002C30.5 51.5002 32 50.5002 32.5 50.0002C33 50.0002 37 48.5002 38 50.0002C40.5 52.0002 49 56.0002 51.5 56.5002C54 57.0002 58.5 56.0002 58.5 57.0002C58.5 58.0002 55.5 60.5002 52 61.5002C49 64.0002 42 64.5002 41 65.0002C40 65.5002 38 70.0002 38 73.5002C38 77.0002 44 83.5002 45.5 84.5002C47 85.5002 47 87.5002 45.6628 88.5002C44.3256 89.5002 38.5 85.5002 34.5 83.0002C34 87.5002 28.5 89.5002 27.5 90.0002C26.5 90.5002 25.5 90.0002 25 88.5002C26.5 87.5002 29.5 82.5002 30 80.5002C28.5 82.0002 24.5 83.0002 19.5 84.0002C14.5 85.0002 10 82.0002 7.5 81.5002C5.5 81.1002 1.66667 80.6668 0 80.5002V63.0002C0.5 63.1668 3 63.6002 9 64.0002C16.5 64.5002 19.5 62.0002 22.5 61.0002C25.5 60.0002 27.5 57.5002 29 54.5002Z" fill="white"/>
<path d="M35.7169 49.3012C34.6902 49.1265 33.7379 49.4777 32.8176 49.9063C32.2397 50.1753 31.5597 50.4683 31.0683 50.8707C30.0893 51.6725 29.3882 52.849 28.78 53.9438C28.6257 54.2215 28.4241 54.4693 28.2708 54.7465C28.0991 55.057 28.0103 55.4141 27.8754 55.741C27.6371 56.3186 27.4162 56.9002 27.1805 57.4782C27.002 57.9161 26.8224 58.3382 26.5695 58.7422C25.877 59.8485 25.0734 60.8923 24.2752 61.9231C23.8966 62.4119 23.5237 62.8671 23.0621 63.2739C22.5123 63.7585 21.8843 64.2862 21.7173 65.0381C21.4636 66.1797 21.9184 67.2997 22.52 68.246C22.8962 68.8377 23.3314 69.3816 23.8918 69.8095C25.0992 70.7314 26.7434 70.4018 28.127 70.148C29.521 69.8923 30.9725 69.5632 32.1167 68.6863C32.6449 68.2814 33.1206 67.8404 33.5514 67.3325C34.4506 66.272 35.311 65.0967 35.8397 63.8041C36.2903 62.7028 36.5315 61.5455 36.7922 60.3895C37.0394 59.2936 37.2251 58.0986 37.0258 56.981C36.9353 56.4734 36.8515 55.7733 36.4717 55.3935M39.7066 55.6627C39.6433 56.3809 40.5154 57.5488 41.2701 57.5137C41.8363 57.4874 42.1427 56.9421 42.1447 56.4235C42.1473 55.7702 41.8597 55.3914 41.3241 55.1235M35.7709 49.1392C35.7358 49.1508 35.8403 49.1646 35.8757 49.1751C36.1043 49.2431 36.3179 49.3405 36.5347 49.4387C37.279 49.776 38.0696 49.9931 38.7961 50.3732C39.897 50.9493 40.8881 51.7211 41.977 52.3261C43.9349 53.4138 45.8825 54.4957 47.9255 55.4231C50.1795 56.4464 52.4561 56.5806 54.8864 56.7171C55.7277 56.7643 56.5865 56.789 57.4293 56.789C57.7103 56.789 58.0453 56.6903 58.3069 56.7949M58.6843 57.1187C58.6496 58.3855 57.8131 58.967 56.8273 59.6227C55.4926 60.5104 54.0353 61.199 52.4243 61.3958C51.6542 61.4899 50.8672 61.4665 50.0941 61.4497C49.3947 61.4346 48.6718 61.434 47.9794 61.312C47.3064 61.1933 46.6508 60.9358 45.9966 60.7429C45.7193 60.6611 44.6885 60.4028 45.0441 59.9761M55.126 57.0107C55.2597 57.8132 55.7786 58.6569 56.36 59.2092C57.0227 59.8388 56.5523 58.7413 56.4341 58.4656L56.4319 58.4604C56.29 58.1292 56.0614 57.8425 55.9047 57.5199C55.8522 57.4118 56.0115 57.4214 56.0815 57.4271C56.4579 57.4576 56.6924 57.944 56.9171 58.1909C57.0269 58.3115 57.4508 58.8274 57.6899 58.5742C57.8717 58.3817 57.41 57.8946 57.3604 57.7236C57.33 57.6188 57.8151 57.6255 57.8756 57.6367C57.9511 57.6507 57.9699 57.7348 58.0373 57.7536C58.0658 57.7615 58.3395 56.9819 57.9295 57.1186M51.7294 61.9707C51.6553 61.9707 51.594 61.9814 51.5228 62.0066C50.5688 62.3452 49.6315 62.7297 48.6743 63.061C47.4094 63.4987 46.0639 63.9234 44.7386 64.1273C43.7037 64.2865 42.623 64.3635 41.5756 64.3399C40.7764 64.322 40.0689 64.0856 39.3292 63.8038M41.0544 64.7744C40.6676 65.2938 40.3282 65.8261 39.9162 66.3319C39.4819 66.8651 39.1632 67.4449 38.8439 68.0512C38.654 68.4117 38.4368 68.772 38.3048 69.1594C37.9812 70.1089 37.8908 71.1518 37.7836 72.1427C37.6983 72.9309 37.6584 73.6367 37.9394 74.3831C38.7029 76.4113 40.1005 78.1914 41.4737 79.8404C42.6553 81.2592 43.8558 82.6743 44.9542 84.1595C45.4537 84.8349 45.9158 85.5612 46.1223 86.3819C46.2204 86.7718 46.465 87.2918 46.3559 87.6998C46.1971 88.2941 45.9119 88.574 45.3016 88.4966C44.4181 88.3845 43.6658 87.9896 42.8849 87.5796L42.8515 87.5621C42.5087 87.3821 42.1471 87.2905 41.7972 87.1248C40.4974 86.509 39.3031 85.6309 38.0711 84.8963C36.4121 83.907 34.9179 82.7888 33.5184 81.4578C33.5123 81.452 32.8055 80.8166 32.8055 80.8408M1.21204 63.6424C2.16495 63.8445 3.08519 64.0295 4.06349 64.0737C5.57837 64.1421 6.985 64.0807 8.5 64.0737C9.84374 64.0674 11.2744 64.1285 12.6178 64.0437C14.0859 63.9511 15.4791 63.6363 16.901 63.2679C18.6537 62.8139 20.3214 62.1378 21.933 61.3181C22.2461 61.1588 22.4804 60.9343 22.7177 60.6801C22.8059 60.5856 22.81 60.4614 22.8855 60.4614M33.8839 78.0913C31.3556 79.8487 28.6669 81.2246 25.7908 82.3265C23.1968 83.3204 20.2894 83.8875 17.5 83.7044C16.1714 83.6171 14.84 83.3538 13.5613 82.9885C11.1983 82.3133 8.82277 81.715 6.42968 81.1524C4.84025 80.7788 3.20356 80.3048 1.56544 80.191C1.12217 80.1601 1.12369 80.1778 0.741758 80.188C0.698841 80.1891 0.640447 80.2209 0.612963 80.188C0.539373 80.0997 0.834407 80.1254 0.942437 80.0861M29.8403 82.1348C29.1269 83.4098 28.4613 84.7151 27.6897 85.9567C27.0979 86.9091 26.4197 87.7001 25.647 88.5026C25.5099 88.645 25.1654 88.9411 25.1798 89.1795C25.1955 89.4423 25.7984 89.6871 25.9825 89.7726C27.3001 90.3848 28.7239 89.3852 29.7984 88.6853C30.386 88.3026 30.8933 87.824 31.3978 87.3405C32.1803 86.5906 32.6718 85.7524 33.2369 84.8305M47.578 88.9279C48.1793 87.2315 49.6169 85.8646 50.8668 84.6147M50.0581 88.9817C50.7991 88.0061 51.4916 86.8749 52.4303 86.0703M54.8025 47.0368C55.1637 45.8191 55.9242 44.7179 57.1658 44.2363C57.7216 44.0206 58.1901 44.1267 58.277 44.7844C58.3602 45.4141 58.081 46.0546 57.7558 46.5755C57.4172 47.118 56.9755 47.5005 56.4589 47.8695C56.3744 47.9298 56.2861 47.9851 56.2043 48.0492C56.1147 48.1194 56.0818 48.1546 56.2163 48.133C56.4838 48.0901 56.7469 47.9954 57.01 47.9324C58.0964 47.6721 59.5431 48.0028 59.8884 49.2113C60.1922 50.2746 59.168 51.0494 58.2021 51.0893C57.478 51.1192 56.8074 50.9176 56.2402 50.4633C56.1476 50.3891 56.0635 50.3047 55.9767 50.2237C55.8969 50.1493 55.8163 49.9469 55.7281 50.011C55.6852 50.0422 55.8095 50.4834 55.8149 50.5172C55.9427 51.3196 55.912 52.5877 55.15 53.1081C54.371 53.6401 53.4239 52.2623 53.29 51.6524C53.2097 51.2873 53.2168 50.9764 53.2271 50.6011C53.2286 50.546 53.3313 49.8668 53.281 49.7325C53.2462 49.6399 53.1462 49.8772 53.0773 49.9481C52.6259 50.4128 52.3443 50.9016 51.7264 51.2031C51.3361 51.3937 50.834 51.5235 50.4834 51.1642C49.8544 50.5195 50.3291 49.0557 51.1484 48.774C51.5559 48.6339 52.8652 48.7707 52.4393 48.7051C51.4696 48.5559 50.7898 47.9915 50.5733 46.9949C50.4064 46.2267 50.6521 45.2201 51.1813 44.6286C51.4915 44.2819 52.129 44.3043 52.5322 44.4369C53.3389 44.7023 53.7521 45.4198 54.1496 46.1099L54.1556 46.1203C54.3403 46.4409 54.8602 47.4217 54.6947 47.0907M52.9155 51.2417C52.5096 51.5597 52.3052 51.9397 52.0409 52.3739C51.718 52.9044 51.3717 53.4182 51.0316 53.9374C50.6591 54.5059 50.3041 55.0839 50.0581 55.7166M47.2006 61.8628C46.4687 62.6612 46.0925 63.8241 45.6371 64.7861C45.2528 65.5979 44.931 66.43 44.5977 67.2632C44.3987 67.7607 44.1921 68.2631 44.0736 68.7877C43.7724 70.1208 43.7893 71.5592 43.6962 72.9152" stroke="black" stroke-linecap="round"/>
<path d="M8 69C12 69.4 14.5 64 14.5 64C14.5 64 6 64.3333 2.5 64C2.66667 65.5 4 68.6 8 69Z" fill="black"/>
<path d="M150 14C149.6 15.2 149.5 17 149.5 17.5C151 17.5 153 16.5 155 15L154.5 14L153 12.5L151.5 11.5C151.167 11.8333 150.4 12.8 150 14Z" fill="black"/>
<path d="M123.875 67.4882C123.938 68.0544 125.93 71.1302 126.172 70.9959C126.96 70.5582 127.476 69.3285 127.862 68.587C127.958 68.4026 128.025 67.9953 128.243 68.263C128.503 68.5828 128.716 68.95 128.947 69.2914C129.284 69.7912 129.635 70.2459 129.905 70.7846C130.092 71.159 130.106 71.5074 130.412 71.1298C130.855 70.5832 131.879 69.6124 131.983 68.8828C131.997 68.7859 132.027 68.5165 132.187 68.5165C132.474 68.5165 132.955 69.084 133.131 69.2632C133.738 69.8807 134.477 70.817 134.526 71.7285C134.589 72.9215 134.188 74.2892 133.906 75.4124C133.561 76.7877 133.25 78.4363 132.18 79.4625C131.34 80.2684 130.446 80.9431 129.327 81.3009C127.267 81.9602 125.139 81.1287 123.692 79.5752C122.452 78.2432 121.565 76.6615 121.678 74.7855C121.785 73.0057 122.471 71.2643 123.058 69.6013C123.202 69.1941 123.321 68.6762 123.622 68.3757" stroke="black" stroke-linecap="round"/>
<path d="M125.115 34.7599C125.032 33.5916 125.165 30.9989 126.758 30.7219C127.872 30.5281 128.678 30.9399 128.981 32.0536C129.44 33.7443 128.418 35.054 127.413 36.3279C127.322 36.4434 128.481 36.8652 128.744 37.0796C129.528 37.7173 130.688 39.806 129.131 40.28C128.012 40.6206 126.668 38.8261 125.984 38.1428C125.422 37.5808 125.518 38.2 125.458 38.712C125.322 39.8864 125.232 40.8068 124.545 41.7942C123.309 43.5712 122.618 40.9009 122.537 39.8719C122.499 39.3878 122.722 38.4133 122.687 38.4328C122.359 38.6202 121.934 38.8298 121.549 38.8194C120.384 38.7879 119.118 37.5747 118.478 36.7037C116.875 34.5242 120.535 33.3795 122.215 33.9867C122.63 34.1368 123.976 35.5114 124.341 35.1465" stroke="black" stroke-linecap="round"/>
<path d="M124.341 34.18C124.17 32.465 123.022 30.8267 122.215 29.3472" stroke="black" stroke-linecap="round"/>
<path d="M124.148 35.1465C123.732 33.7481 122.826 32.5711 121.85 31.5059C121.676 31.3163 121.055 30.8867 121.055 30.7004" stroke="black" stroke-linecap="round"/>
<path d="M81.649 89.4882C81.7749 88.1658 82.8747 86.7122 84.0835 88.0762C84.2094 88.2183 85.809 90.6326 85.9824 90.2186C86.2125 89.6687 85.9398 88.9161 86.3962 88.4292C87.0511 87.7307 88.0888 88.71 88.1977 89.3908C88.2302 89.5938 88.2221 90.7989 88.2221 90.5837" stroke="black" stroke-linecap="round"/>
<path d="M91.5087 90.3646C92.632 89.2413 93.3887 90.6855 94.357 91.4601" stroke="black" stroke-linecap="round"/>
<path d="M112.104 91.4601C112.067 90.9403 111.708 89.8945 112.25 89.5369C112.966 89.0651 114.037 89.4598 114.247 90.2672C114.353 90.6761 114.269 91.2196 114.295 90.389C114.328 89.3544 114.727 88.7604 115.829 89.2083C116.357 89.4228 116.91 90.8106 117.156 90.8515C117.408 90.8935 118.326 90.1294 118.702 90.0847C120.295 89.895 120.265 91.3641 121.526 91.6792" stroke="black" stroke-linecap="round"/>
<path d="M158.773 89.9264C158.823 88.9747 159.426 88.2347 160.258 87.7841C161.39 87.1709 162.555 88.3395 163.228 89.1352C163.476 89.4281 162.614 88.3728 163.301 87.8814C165.135 86.5715 166.096 89.766 166.442 90.8028" stroke="black" stroke-linecap="round"/>
<path d="M169.948 89.4882C169.948 88.6284 170.405 87.5436 171.433 87.6136C172.57 87.6912 173.397 90.2579 173.453 90.1455" stroke="black" stroke-linecap="round"/>
</svg>
