<svg width="80" height="60" viewBox="0 0 80 60" fill="none" xmlns="http://www.w3.org/2000/svg">
<path opacity="0.95" d="M17.5 15.2013C19.9 13.2013 23.8333 14.7013 25.5 15.7013C26.1667 15.8679 27.9 16.4012 29.5 17.2012C31.5 18.2012 32 20.2013 33 23.2012C34 20.2011 52.5 17.2012 56.5 16.7012C60.5 16.2012 66 10.2012 66.5 8.70127C67 7.20136 65.5 4.20127 67 3.20127C68.5 2.20127 71.5 5.20127 72.5 6.20127C73.3 7.00127 72.5 8.20127 72 8.70127C72.6667 8.86793 74.1 9.60127 74.5 11.2013C74.9 12.8013 73.3333 13.8679 72.5 14.2013L73.5 17.7013L69.5 19.2013L67 18.7013L66.5 20.7013L65 20.2013L62 24.2013H64L63.5 25.7013L61.5 27.2013L63 29.7013C63.6667 29.5346 65.3 29.3013 66.5 29.7013C67.7 30.1013 67 33.5346 66.5 35.2013L68 39.7013L62.5 41.2013C62.3333 41.2013 61.8 40.8013 61 39.2013C60.2 37.6013 62 37.5346 63 37.7013L62 35.2013L59 35.7013L58.5 38.7013L58 43.2013H55.5C55 42.8679 54 42.1013 54 41.7013C54 41.2013 55 40.7013 55.5 40.2013C56 39.7013 56 36.7013 55 36.7013C51.8 37.5013 46.3333 41.3679 44 43.2013L44.5 49.7013L40 50.2013L39.5 48.7013L41 47.7013C40.8333 46.8679 40.4 44.8667 40 43.5283C39.2 43.79 37.3333 43.6374 36.5 43.5283V52.2013C36.1667 52.7013 34.9 53.7013 32.5 53.7013C29.5 53.7013 29 50.7013 29 49.7013C29 48.9013 31.3333 49.3679 32.5 49.7013C32.3333 48.7013 31.8 46.3013 31 44.7013C29 44.7013 26.8333 41.0346 26 39.2013L22.7857 32.7013C22.1905 32.7013 20.3 32.9013 17.5 33.7013C14.7 34.5013 13 33.0346 12.5 32.2013C12.1667 32.3679 11.2 32.7013 10 32.7013C8.5 32.7013 8.5 30.7013 8.5 29.7013C7 29.7013 5 27.7013 4.5 26.2013C4.1 25.0013 4.66667 24.3679 5 24.2013L14 20.7013C14.1667 19.7013 15.1 17.2013 17.5 15.2013Z" fill="white"/>
<path d="M25 18.7012C24.5054 16.7225 25 16.2012 26 16.2012L29 17.2012C30.2 17.6012 31.8333 19.7012 32.5 20.7012L33 23.2012V25.7012L33.5 27.2012C34 28.7012 33.7 29.3012 32.5 29.7012C31 30.2012 27.5 27.2012 27 25.2012C27 21.2012 25.5 20.7012 25 18.7012Z" fill="black"/>
<path d="M54.2637 16.522C53.4541 16.6559 52.3111 16.8142 51.6593 17.3574M48.6126 18.9295C48.8413 18.5114 49.0254 18.0717 49.2514 17.6519M45.959 19.5683C45.9937 18.2321 46.0141 16.9474 46.707 15.7654C46.8649 15.496 47.0332 15.2278 47.2858 15.0474M42.9614 19.4702C42.2327 19.6537 41.5074 19.8491 40.7801 20.0381C39.2116 20.4456 37.7636 21.0542 36.3002 21.7525C35.3441 22.2087 34.3816 22.6734 33.4609 23.1994C33.4454 23.2083 33.4586 23.2049 33.4282 23.2049M31.8557 53.6718C30.4259 54.0713 28.9545 54.3567 27.4658 54.3598C26.6556 54.3615 25.8456 54.3393 25.0361 54.3106C24.3763 54.2872 23.6941 54.2191 23.035 54.297C22.7406 54.3318 22.2429 54.4354 22.0385 54.6928C21.8895 54.8805 22.0401 55.2925 22.2023 55.419C22.2791 55.479 22.3631 55.5329 22.4526 55.5815M22.4526 55.5815C22.5265 55.6216 22.6041 55.6581 22.6845 55.6914M22.4526 55.5815C22.4812 55.6268 22.5344 55.6511 22.5927 55.6675C22.6233 55.6761 22.6539 55.6841 22.6845 55.6914M22.4526 55.5815C22.4361 55.5552 22.4278 55.522 22.4316 55.4791C22.4437 55.3434 22.6623 55.2753 22.751 55.2361C23.229 55.0249 23.7269 54.8723 24.2389 54.7693C24.7341 54.6696 25.2108 54.6363 25.7131 54.6655C26.153 54.6911 26.5776 54.829 27.0153 54.8485C27.2872 54.8605 27.5561 54.7884 27.8262 54.813C28.2456 54.8511 28.6611 54.964 29.082 55.0095C29.141 55.0159 29.2002 55.0222 29.2597 55.0282M22.6845 55.6914C23.2168 55.912 23.8723 55.993 24.3819 56.056L24.3972 56.0579C25.3752 56.1787 26.3703 56.2094 27.3539 56.238C28.314 56.266 29.3011 56.3272 30.2395 56.0824C30.6864 55.9658 31.1474 55.8694 31.5772 55.6975C31.8106 55.6042 31.8888 55.4728 32.085 55.3317C32.523 55.0166 33.1343 54.9775 33.652 54.873C34.8258 54.6362 35.9435 54.4299 37.0864 54.0567C40.8183 52.8382 44.5036 51.5252 48.1813 50.1501C50.2958 49.3594 52.4675 48.7359 54.5723 47.9196C56.2825 47.2563 57.9746 46.5443 59.6829 45.8748C61.2158 45.2741 62.6398 44.5037 64.1028 43.7563C66.6058 42.4776 69.1075 41.1719 71.6568 39.9889C72.411 39.6389 73.0837 39.2374 73.7999 38.8205C74.1494 38.6169 74.5004 38.4248 74.7936 38.1407C75.0766 37.8664 75.2329 37.5283 75.4215 37.1906C75.6905 36.709 76.0298 36.2799 76.2787 35.7847C76.4259 35.4918 76.5916 35.192 76.6664 34.8701C76.743 34.5403 76.8249 33.7393 76.3934 33.5733C75.9655 33.4088 75.1749 34.3806 74.9356 34.6326C74.3382 35.2614 73.7648 35.8937 73.0955 36.4508C72.6232 36.8439 72.0843 37.1806 71.5094 37.4008C69.9707 37.9901 68.4957 38.7315 66.9966 39.4156C65.5579 40.0722 64.1535 40.7624 62.7432 41.4768C61.6486 42.0313 60.5335 42.5192 59.4672 43.1284C56.8908 44.6007 54.1206 45.7369 51.3972 46.9013C48.957 47.9447 46.5364 49.0318 44.1026 50.09C42.9862 50.5754 41.7866 51.0901 40.6 51.3868C39.4477 51.6748 38.4004 52.2281 37.2721 52.5935C35.5924 53.1374 33.8081 53.3113 32.1478 53.9448C31.6291 54.1428 31.1056 54.3232 30.5944 54.54C30.1573 54.7253 29.7108 54.8831 29.2597 55.0282M22.6845 55.6914C23.072 55.785 23.4597 55.7849 23.8579 55.7849L23.8949 55.7849C24.7101 55.7849 25.5361 55.8226 26.3492 55.7548C27.1407 55.6889 27.9228 55.4365 28.6779 55.2088C28.8725 55.1502 29.0665 55.0904 29.2597 55.0282M29.2597 55.0282C30.1319 55.117 31.041 55.1596 31.8775 54.8703C32.4555 54.6704 33.0124 54.4126 33.5865 54.2014C34.8988 53.7187 36.2622 53.3341 37.5451 52.7764C39.7755 51.8066 42.102 51.1357 44.3865 50.3139C44.5772 50.2453 44.734 50.206 44.9271 50.1774C45.8429 50.0417 46.7862 49.7581 47.6598 49.4594C48.9028 49.0343 50.1116 48.5083 51.3536 48.0752C52.4985 47.676 53.6541 47.2827 54.7606 46.7839L54.7622 46.7832C56.2007 46.1349 57.5959 45.5061 59.1014 45.0067C61.4713 44.2206 63.9335 43.6267 66.1585 42.465C67.4887 41.7705 68.8786 41.0614 70.1252 40.2237C71.1446 39.5387 72.0835 38.7486 72.9754 37.9059C73.6392 37.2786 74.378 36.6157 74.7581 35.7655C74.81 35.6494 75.6876 34.1616 75.7873 34.2613M76.1804 34.7036C75.4547 36.0776 74.4061 37.2833 73.388 38.4495M73.388 38.4495C73.3833 38.4549 73.3786 38.4602 73.3739 38.4656C73.3412 38.5031 73.2832 38.5652 73.2257 38.6245M73.388 38.4495C73.4045 38.4463 73.4076 38.4552 73.3903 38.482C73.3528 38.5403 73.2892 38.5819 73.2257 38.6245M73.388 38.4495C73.3294 38.461 73.1021 38.623 73.0027 38.6758C72.547 38.9179 72.0842 39.1352 71.6022 39.3201C71.1688 39.4863 70.7264 39.6218 70.289 39.776C68.8939 40.268 67.5924 40.9606 66.254 41.5833M73.2257 38.6245C73.1227 38.7308 73.0217 38.8276 73.0736 38.755C73.1115 38.702 73.1686 38.6628 73.2257 38.6245ZM72.1018 37.3081C70.6868 38.4711 69.0702 39.2727 67.3515 39.8798C66.1906 40.2899 65.0475 40.7439 63.8899 41.1629C62.812 41.553 61.7044 41.8845 60.6712 42.386C58.1197 43.6242 55.6349 44.9872 53.1226 46.3008C52.3836 46.6872 51.714 47.1303 51.0314 47.6058C50.8395 47.7394 50.6006 47.8597 50.4308 48.0235C50.3143 48.1358 50.6274 48.0699 50.6274 48.0699M50.9714 47.7752C54.8357 45.7685 58.7908 43.9903 62.8388 42.3916C64.4703 41.7472 66.1791 41.0466 67.6573 40.0956C68.5248 39.5376 69.3664 38.9395 70.2563 38.4166C70.7074 38.1516 71.2383 37.8052 71.7797 37.756C72.2023 37.7175 72.4361 37.4363 72.7898 37.2263C73.1069 37.0381 72.3082 37.7852 72.0581 38.0563C71.7116 38.4318 71.3705 38.7676 70.8869 38.949C70.7301 39.0078 70.5957 39.0731 70.4611 39.1729C69.911 39.5803 69.2951 39.9028 68.7111 40.2567M66.4506 41.6328C65.3904 41.9862 64.4163 42.5452 63.3875 42.976L63.3705 42.9831C62.6275 43.2942 61.8745 43.6095 61.1926 44.0434C60.1661 44.6967 59.1644 45.3642 58.1077 45.9736C57.3488 46.4111 56.5948 46.8629 55.8062 47.2458C55.4842 47.4021 55.1623 47.5461 54.8535 47.7262M24.0424 55.3918C24.4693 55.3308 24.9165 55.3761 25.3419 55.43C26.3615 55.5593 27.3998 55.4603 28.4213 55.4136C28.9991 55.3872 29.5519 55.376 30.1249 55.2935C30.7961 55.1969 31.458 54.9622 32.1014 54.753C33.7862 54.2051 35.4773 53.6954 37.2011 53.2787C37.9522 53.0972 38.7213 53.0124 39.4452 52.7355C39.9288 52.5504 40.4073 52.3538 40.9085 52.2195C42.9005 51.6857 44.7402 50.7572 46.647 49.9863M59.0304 44.5318C59.8363 44.2296 60.6349 43.9071 61.4383 43.5981M38.6371 54.3602C38.3007 54.4106 37.9413 54.6614 37.6758 54.8996M37.6758 54.8996C37.6415 54.9304 37.6088 54.9609 37.5779 54.9908C37.4301 55.1337 37.3489 55.302 37.3131 55.4828M37.6758 54.8996C38.1691 54.2441 38.8534 53.7821 39.6936 53.5576C41.4221 53.0956 42.6798 54.7269 42.2899 56.3531C41.9292 57.8571 40.1929 58.1892 38.8883 58.1167C38.0881 58.0723 37.796 57.5166 37.5369 56.7954C37.3949 56.4 37.2292 55.907 37.3131 55.4828M37.6758 54.8996C37.5402 55.0797 37.4191 55.2744 37.3131 55.4828M37.3131 55.4828C37.2954 55.5177 37.2781 55.553 37.2612 55.5887M34.6567 54.9004C34.2625 55.1257 33.9243 55.3674 33.6684 55.7522C33.1765 56.492 33.4708 57.1192 34.0151 57.756C34.5375 58.367 35.0114 58.7326 35.7869 58.4876C36.4004 58.2939 36.7744 57.8906 37.1137 57.3574M69.2025 42.0749C69.1545 42.101 69.1069 42.128 69.0599 42.1561M69.0599 42.1561C67.9625 42.8102 67.1562 43.9844 67.862 45.2663C68.3791 46.2054 70.0154 46.0624 70.8323 45.6621C71.4404 45.3642 71.9797 44.8404 72.2164 44.1988C72.5186 43.3797 72.6584 42.3724 71.9653 41.7254C71.0627 40.8831 69.899 41.6169 69.0599 42.1561ZM69.0599 42.1561C69.0249 42.1785 68.9905 42.2007 68.9568 42.2223M65.5 43.2012C64.6796 43.6074 64.1323 44.8802 64.5232 45.5503C64.8956 46.1888 65.8461 46.8757 66.6253 46.7215C67.1777 46.6123 67.5421 46.3577 67.6791 45.8097M67.0894 42.7627C67.3936 42.9746 67.693 43.1258 67.5808 43.4998" stroke="black" stroke-linecap="round"/>
<path d="M25.2922 15.6315C23.7922 14.9648 20.0922 14.0315 17.2922 15.6315C13.7922 17.6315 14.2922 20.1313 13.7922 20.6313C13.2922 21.1313 5.29223 23.6313 4.79223 24.1313C4.29223 24.6313 3.29223 25.6313 4.79223 27.6313C6.29223 29.6313 7.29224 30.1313 8.29224 30.1313C8.29224 31.6313 8.79224 32.6313 10.2922 32.6313C10.8981 32.6313 11.8303 32.5498 12.7922 32.3537M16.2922 28.1313C16.6256 28.4647 17.0922 29.4313 16.2922 30.6313C15.6962 31.5255 14.2118 32.0643 12.7922 32.3537M12.7922 32.3537C12.9589 33.1129 13.8922 34.5313 16.2922 34.1313C18.6922 33.7313 21.6256 32.7796 22.7922 32.3537C23.6256 34.2796 25.4922 38.3313 26.2922 39.1313M17.4084 12.5415C17.3686 12.6211 17.4994 12.713 17.5394 12.7654C17.7686 13.065 17.9542 13.4016 18.1018 13.7482C18.2551 14.1081 18.4124 14.5148 18.4895 14.9002M14.2142 14.6543C14.8442 14.8406 15.8638 15.0777 16.229 15.6862M12.1012 16.8658C13.0325 16.7887 13.8857 16.8218 14.7548 17.1115M15.9833 20.355C15.7242 20.505 15.5734 20.8013 15.4646 21.0702C15.4459 21.1165 15.2392 21.7288 15.4455 21.679C15.9916 21.5472 16.1798 21.0353 16.1798 20.5515M19.7671 19.1753C19.2335 19.4421 18.951 20.1711 18.8853 20.7341C18.8536 21.0061 19.3958 20.8901 19.5214 20.8133C20.0877 20.4672 19.917 20.0724 19.8162 19.5684M26.352 39.0283C26.042 39.5782 25.7941 40.1615 25.5248 40.7319C25.4547 40.8803 25.3856 41.0291 25.32 41.1796C25.254 41.3311 25.247 41.2888 25.32 41.2888M28.3176 41.5342C28.0274 42.2596 27.6479 42.9398 27.3457 43.6581C27.2586 43.8651 27.0399 44.2559 27.0399 44.4335M29.5952 43.1069C29.6164 43.8782 29.6835 44.6475 29.7426 45.4165M31.4134 44.3844C31.344 46.1189 31.8873 47.7065 32.388 49.3339C32.4106 49.4074 32.4744 49.5831 32.4453 49.6643C32.3391 49.9609 31.5068 49.7724 31.3206 49.7516C30.6859 49.6806 29.9849 49.5422 29.3659 49.7898C28.7069 50.0534 29.6156 51.3919 29.8627 51.6654C30.3339 52.1868 30.908 52.5303 31.4434 52.9621C31.6691 53.1441 31.9293 53.278 32.2024 53.3744C32.8238 53.5937 33.4268 53.4223 34.0233 53.2133C34.5507 53.0285 35.099 52.8674 35.6013 52.6209C35.8148 52.5161 36.112 52.4213 36.2537 52.2141C36.4775 51.887 36.3116 51.292 36.2674 50.9364C36.0756 49.3945 36.0872 47.831 36.0817 46.279C36.0781 45.2378 36.1309 42.1147 36.1309 43.1559M37.5068 43.8931C37.519 43.9905 37.7121 44.1455 37.7607 44.2098C37.9428 44.4501 38.0945 44.7127 38.2439 44.9742M39.8164 41.9767C40.0526 43.3445 40.3193 44.6969 40.6873 46.0362C40.8005 46.448 41.0143 46.9493 41.0395 47.3876C41.0495 47.5622 40.8599 47.574 40.7392 47.6087C40.3663 47.7161 39.6987 47.8333 39.4233 48.1411C39.215 48.374 39.3595 48.709 39.4561 48.9574C39.5979 49.3221 39.7474 49.7499 40.1495 49.8883C41.0231 50.1889 41.9132 50.1346 42.7731 49.861C43.1211 49.7503 43.4741 49.6549 43.8187 49.5334C44.0713 49.4443 44.4378 49.3548 44.6322 49.1512C44.7384 49.0399 44.6302 48.7484 44.6104 48.6461C44.4111 47.619 44.2146 46.5906 44.0425 45.5585C43.9554 45.0359 43.8479 44.5153 43.7695 43.9914C43.6769 43.3724 43.6612 42.7549 43.502 42.1459C43.3079 41.4037 43.0181 40.6853 42.7649 39.9619M45.8116 41.0919C47.2908 40.343 48.777 39.6285 50.2705 38.9104L50.3325 38.8806C52.4859 37.8453 54.48 36.4908 56.7972 35.8448C57.2468 35.7195 57.6563 35.5129 58.0967 35.3753C58.6301 35.2086 59.2209 35.3377 59.7675 35.236C60.1055 35.1731 60.4305 35.0591 60.7694 34.9985C61.1935 34.9227 61.7824 34.767 62.2081 34.8975C62.4619 34.9753 62.4587 35.8062 62.5221 36.0359C62.6376 36.4546 62.7096 36.879 62.8033 37.3027C62.8851 37.6723 62.8297 37.6849 62.4593 37.7395C61.6432 37.8597 60.808 38.2929 60.8459 39.2164C60.8683 39.765 61.1108 40.4005 61.5366 40.7671C62.279 41.4064 63.4577 40.4442 64.1028 40.0709C64.8627 39.6312 65.844 39.2375 66.3687 38.4984M55.8854 36.7678C55.8551 37.8697 55.6943 38.9988 55.4923 40.082C55.4821 40.1366 55.438 40.5358 55.3449 40.568C55.2994 40.5837 55.2642 40.5143 55.2193 40.497C55.0653 40.4378 54.9504 40.4452 54.7934 40.5298C54.4161 40.7329 54.0114 41.1934 54.1218 41.6545C54.203 41.9938 54.485 42.3444 54.717 42.5937C55.2246 43.1392 55.9103 43.4543 56.6607 43.3444C57.1325 43.2754 57.593 43.039 57.9275 42.6974C58.3659 42.2497 58.3338 41.3834 58.3779 40.8192C58.4363 40.0722 58.4635 39.3226 58.5144 38.5751C58.5761 37.671 58.7659 36.6365 58.6373 35.7358M62.2245 28.9546C62.3274 29.334 62.5877 29.8136 62.9726 29.9756C63.0903 30.0252 63.3583 29.7091 63.4421 29.6535C63.9255 29.3326 64.5273 29.2277 65.0993 29.2877C66.0314 29.3853 66.3934 29.9189 66.4452 30.8383C66.5296 32.3378 66.1651 33.8695 66.3032 35.3647C66.3596 35.9753 66.6098 36.5262 66.74 37.1201C66.7933 37.3631 66.8312 37.6273 66.942 37.849M61.1926 22.124C61.4003 22.5122 61.6273 22.898 61.755 23.3225C61.8891 23.7687 61.8805 24.235 61.8805 24.6957C61.8805 25.3777 61.7524 26.0019 61.6567 26.6723C61.6259 26.8876 61.5883 27.0321 61.8177 27.1282C62.1729 27.2768 62.3306 26.9047 62.5412 26.6941C63.155 26.0802 63.9138 25.7254 63.9444 24.7339C63.9548 24.3988 63.5853 24.4882 63.3111 24.4637C62.9961 24.4355 62.5374 24.4 62.2737 24.5319M64.2884 21.6818C64.4314 21.3571 64.5706 21.031 64.7088 20.7044C64.8131 20.458 64.8433 20.1927 65.162 20.2812C65.4724 20.3675 65.9625 20.6929 66.2786 20.4696C66.7997 20.1014 66.5625 18.8819 67.4116 19.0609C68.0106 19.1872 68.5556 19.5129 69.1697 19.596C69.5731 19.6506 69.9624 19.5349 70.33 19.3803C70.9887 19.1033 71.6476 18.8055 72.2929 18.4985C72.7991 18.2577 73.3242 17.9797 73.3712 17.3574C73.4231 16.6717 73.0381 15.9957 72.7515 15.4027C72.5879 15.0643 72.2358 14.5803 72.211 14.1742C72.2014 14.0182 72.4381 13.9124 72.5386 13.8466L72.5981 13.8076C73.0982 13.4802 73.6146 13.1422 74.01 12.689C74.7197 11.8758 74.4602 10.5378 73.6961 9.83342C73.3347 9.50029 72.7999 9.32525 72.3693 9.10997L72.339 9.09485C72.2058 9.02839 71.9316 8.89151 71.8014 8.81239C71.6828 8.74028 71.7588 8.70762 71.8233 8.61037C72.2842 7.91549 72.4981 7.05286 72.2028 6.24617C71.8474 5.27529 71.0903 4.8656 70.3218 4.26416C69.5108 3.62946 68.3894 3.17687 67.3433 3.20218C66.3598 3.22598 65.9696 4.38445 66.052 5.23878C66.1555 6.31154 66.7087 7.2757 66.5653 8.38105C66.4296 9.42618 65.8217 10.5234 65.1047 11.2721C63.3983 13.0542 61.4639 14.7126 59.2324 15.7903C58.4399 16.1731 57.567 16.4768 56.7208 16.7186M25.8401 16.0859C25.4088 16.2644 25.1846 16.4334 24.9141 16.8053C24.5494 17.3068 24.7669 17.9225 24.9945 18.4352C25.3909 19.3284 25.8846 20.1757 26.2514 21.083C26.5274 21.7658 26.6383 22.4787 26.7431 23.2027C26.8645 24.0421 26.9233 24.9905 27.2405 25.7835C27.9469 27.5495 29.4941 28.8443 31.2045 29.5887C31.9536 29.9148 32.5933 29.9121 33.2132 29.3955C33.7064 28.9845 33.8136 28.489 33.6839 27.8592C33.5786 27.3486 33.3832 26.86 33.2783 26.3498C32.9927 24.9611 33.0965 23.5167 32.7809 22.1314C32.6245 21.4451 32.4652 20.7127 32.0998 20.1016C31.7455 19.5091 31.2509 19.0304 30.7644 18.55C29.8166 17.6139 28.644 17.0767 27.4165 16.5776C27.0312 16.421 26.6269 16.3917 26.2418 16.2581C26.1742 16.2347 26.1359 16.2237 26.0639 16.2237C26.0318 16.2237 25.9898 16.2282 25.9623 16.2318M25.9623 16.2318C25.9303 16.236 25.9177 16.2389 25.9623 16.2318ZM25.9623 16.2318C25.9744 16.2299 25.9908 16.2273 26.0123 16.2237" stroke="black" stroke-linecap="round"/>
</svg>
