<svg width="74" height="70" viewBox="0 0 74 70" fill="none" xmlns="http://www.w3.org/2000/svg">
<path opacity="0.95" d="M28.5 7.49977C28.9 5.09977 30.6667 2.8331 31.5 1.99977C32.7 1.59977 34 4.8331 34.5 6.49977H41C41.5 4.99977 44.5 1.99977 45.5 1.99977C46.5 1.99977 47.5 5.99977 49 7.49977C50.5 8.99977 51 12.9998 51 14.9998C51 16.9998 48.5 20.4998 46 22.4998C48 22.9998 59.5 22.9998 61 22.9998C62.5 22.9998 61.5 24.9998 61 25.9998C60.5 26.9998 58.5 27.4998 55.5 28.9998C58.5 28.9998 62 33.9998 63 37.4998C63.8 40.2998 59.6667 44.6664 57.5 46.4998C49.8333 50.8331 32.6 60.4998 25 64.4998C15.5 69.4998 12.5 68.9998 8.5 68.4998C4.50004 67.9998 4.00007 66.4998 1.50007 61.9998C-0.999928 57.4998 5.00007 52.9998 7.00007 51.4998C9.00007 49.9998 20.5001 41.9998 22.5001 40.4998C21.0001 36.9998 21.5001 29.9998 23.0001 26.9998C20.5001 25.9998 13 18.9998 12.5 17.4998C12 15.9998 15 15.4998 16.5 15.4998C18 15.4998 23.5 17.4998 27 18.9998C25 14.9998 27.5 9.49977 28.5 7.49977Z" fill="white"/>
<path d="M5.81082 52.0001L5.62512 51.5358L5.81082 52.0001ZM56.8108 46.5001L56.5124 46.0989V46.0989L56.8108 46.5001ZM55.0497 28.5025C54.7749 28.475 54.5299 28.6755 54.5025 28.9503C54.475 29.2251 54.6755 29.4701 54.9503 29.4975L55.0497 28.5025ZM45.3109 2L45.469 1.52566L45.2725 1.46017L45.0872 1.55279L45.3109 2ZM41.3109 6.5L41.2656 6.99795L41.5856 7.02704L41.745 6.74807L41.3109 6.5ZM34.8109 6L34.4573 6.35355L34.6037 6.5H34.8109V6ZM31.3109 2L31.469 1.52566L31.237 1.44833L31.0335 1.58397L31.3109 2ZM28.3109 6.5L28.7581 6.72361L28.7826 6.67451L28.7959 6.62127L28.3109 6.5ZM26.8109 19L26.341 19.1709L26.8109 19ZM26.5979 19.9524C26.8478 20.07 27.1457 19.9628 27.2632 19.7129C27.3808 19.463 27.2736 19.1652 27.0237 19.0476L26.5979 19.9524ZM22.8109 27L23.2581 27.2236L23.4817 26.7764L23.0345 26.5528L22.8109 27ZM15.3109 53L15.6644 53.3536L15.8109 53.2071V53H15.3109ZM30.3109 49V48.5H29.9205L29.8258 48.8787L30.3109 49ZM36.3109 48L36.4439 48.482L36.3109 48ZM42.3109 44.5L42.7269 44.2226L42.3109 43.5986L41.8948 44.2226L42.3109 44.5ZM49.8109 43.5L49.3636 43.2764L49.1566 43.6905L49.5536 43.9287L49.8109 43.5ZM49 35C48.7239 35 48.5 35.2239 48.5 35.5C48.5 35.7761 48.7239 36 49 36V35ZM47.8364 37.8419C47.7491 38.1039 47.8907 38.3871 48.1527 38.4744C48.4146 38.5617 48.6978 38.4201 48.7851 38.1582L47.8364 37.8419ZM48.8108 32.0001L48.3364 31.8419L48.2591 32.0739L48.3948 32.2774L48.8108 32.0001ZM46.3108 22.5001C46.0346 22.5001 45.8108 22.7239 45.8108 23.0001C45.8108 23.2762 46.0346 23.5001 46.3108 23.5001V22.5001ZM22.0108 40.1001C19.6798 41.8484 16.0584 44.5207 12.7713 46.8549C11.1274 48.0223 9.5702 49.1029 8.30102 49.9406C7.01302 50.7907 6.06837 51.3585 5.62512 51.5358L5.99651 52.4643C6.55327 52.2416 7.58779 51.6095 8.85186 50.7752C10.1348 49.9285 11.7025 48.8404 13.3503 47.6702C16.6465 45.3295 20.2752 42.6518 22.6108 40.9001L22.0108 40.1001ZM5.62512 51.5358C4.24009 52.0899 2.27374 53.8183 1.22689 56.2391C0.162161 58.7013 0.0461085 61.885 2.39972 65.2847L3.22191 64.7155C1.07553 61.6151 1.20947 58.7989 2.14475 56.636C3.0979 54.4319 4.88154 52.9103 5.99651 52.4643L5.62512 51.5358ZM2.39972 65.2847C4.78177 68.7254 8.60475 69.7516 12.1947 69.6875C15.7793 69.6235 19.2364 68.4756 21.0589 67.4342L20.5627 66.566C18.8851 67.5246 15.5923 68.6267 12.1769 68.6877C8.76687 68.7486 5.33986 67.7747 3.22191 64.7155L2.39972 65.2847ZM21.0589 67.4342C22.8077 66.4348 31.3775 61.629 39.7309 56.9102C43.906 54.5517 48.0258 52.2156 51.2087 50.3897C52.7999 49.4769 54.1582 48.6909 55.1726 48.0931C56.1724 47.504 56.8694 47.0797 57.1092 46.9013L56.5124 46.0989C56.3267 46.237 55.6889 46.6282 54.6649 47.2316C53.6556 47.8264 52.3012 48.6102 50.7111 49.5223C47.5312 51.3465 43.4137 53.6812 39.2391 56.0395C30.893 60.7542 22.3138 65.5653 20.5627 66.566L21.0589 67.4342ZM57.1092 46.9013C58.4864 45.877 60.2765 44.216 61.6017 42.3523C62.9086 40.5145 63.8579 38.345 63.2916 36.3627L62.33 36.6374C62.7637 38.1552 62.0576 39.9857 60.7868 41.7728C59.5343 43.5341 57.8244 45.1231 56.5124 46.0989L57.1092 46.9013ZM63.2916 36.3627C62.76 34.5022 61.4484 32.6238 59.9288 31.1803C58.4198 29.7468 56.6169 28.659 55.0497 28.5025L54.9503 29.4975C56.1939 29.6217 57.7964 30.5339 59.2401 31.9053C60.6732 33.2667 61.8616 34.998 62.33 36.6374L63.2916 36.3627ZM38.3109 25C39.3365 25 40.969 24.898 42.5559 24.5909C43.3498 24.4372 44.1438 24.23 44.8498 23.9529C45.5506 23.6779 46.1962 23.3217 46.6644 22.8536L45.9573 22.1464C45.6255 22.4783 45.1211 22.7721 44.4844 23.0221C43.8529 23.27 43.1219 23.4628 42.3658 23.6091C40.8527 23.902 39.2852 24 38.3109 24V25ZM46.6644 22.8536C48.678 20.8399 51.3109 17.7141 51.3109 13.5H50.3109C50.3109 17.2859 47.9437 20.1601 45.9573 22.1464L46.6644 22.8536ZM51.3109 13.5C51.3109 9.36891 49.7592 7.24128 49.1644 6.64645L48.4573 7.35355C48.8625 7.75872 50.3109 9.63109 50.3109 13.5H51.3109ZM49.1644 6.64645C49.1652 6.6472 49.1502 6.63145 49.1186 6.58511C49.0891 6.54191 49.0534 6.48438 49.0109 6.41117C48.9257 6.26432 48.825 6.07446 48.7081 5.84841C48.4778 5.40317 48.1902 4.82834 47.8729 4.25718C47.5557 3.68621 47.1965 3.09602 46.812 2.61118C46.4398 2.14193 45.9887 1.6989 45.469 1.52566L45.1527 2.47434C45.383 2.5511 45.6819 2.79557 46.0285 3.23257C46.3627 3.65398 46.691 4.18879 46.9988 4.74282C47.3065 5.29666 47.5814 5.84683 47.8199 6.30784C47.9373 6.53492 48.0476 6.74349 48.146 6.91305C48.2362 7.06856 48.3431 7.23931 48.4573 7.35355L49.1644 6.64645ZM45.0872 1.55279C44.1876 2.00259 43.2989 2.90651 42.5733 3.79658C41.8373 4.6995 41.222 5.64765 40.8767 6.25193L41.745 6.74807C42.0663 6.18568 42.6511 5.28383 43.3484 4.42842C44.0562 3.56015 44.8341 2.79741 45.5345 2.44721L45.0872 1.55279ZM41.3561 6.00205C39.5398 5.83694 35.6403 5.5 34.8109 5.5V6.5C35.5814 6.5 39.4152 6.82973 41.2656 6.99795L41.3561 6.00205ZM35.1644 5.64645C34.9513 5.43336 34.7242 5.12484 34.4678 4.74414C34.2261 4.38535 33.9386 3.93104 33.6595 3.52789C33.3721 3.11277 33.0552 2.69353 32.7035 2.34176C32.3528 1.99104 31.9446 1.68421 31.469 1.52566L31.1527 2.47434C31.4271 2.56579 31.7065 2.75896 31.9964 3.04887C32.2852 3.33772 32.5622 3.69973 32.8373 4.09711C33.1207 4.50646 33.3643 4.8959 33.6383 5.30274C33.8976 5.68766 34.1704 6.06664 34.4573 6.35355L35.1644 5.64645ZM31.0335 1.58397C29.4151 2.66289 28.3513 4.27661 27.8258 6.37873L28.7959 6.62127C29.2704 4.72339 30.2066 3.33711 31.5882 2.41603L31.0335 1.58397ZM27.8636 6.27639C26.8668 8.27006 24.2608 13.4504 26.341 19.1709L27.2807 18.8291C25.3609 13.5496 27.7549 8.72994 28.7581 6.72361L27.8636 6.27639ZM26.341 19.1709C27.0225 21.0452 28.7872 22.4982 30.9412 23.476C33.108 24.4595 35.7463 25 38.3109 25V24C35.8754 24 33.3798 23.4847 31.3546 22.5654C29.3167 21.6403 27.8314 20.3433 27.2807 18.8291L26.341 19.1709ZM27.0237 19.0476C25.5994 18.3773 23.3385 17.3724 21.1793 16.5339C20.1001 16.1148 19.0397 15.7347 18.1184 15.4585C17.2132 15.1872 16.3908 15 15.8108 15V16C16.2308 16 16.9293 16.1461 17.8313 16.4165C18.7174 16.682 19.7507 17.0519 20.8173 17.4661C22.9498 18.2942 25.1889 19.2893 26.5979 19.9524L27.0237 19.0476ZM15.8108 15C14.5181 15 13.2669 15.2546 12.4542 15.8456C12.0368 16.1492 11.7158 16.5571 11.5969 17.0758C11.4785 17.5927 11.5767 18.1498 11.8636 18.7236L12.758 18.2764C12.5449 17.8502 12.5182 17.5323 12.5716 17.2992C12.6246 17.0679 12.7723 16.8508 13.0424 16.6544C13.6047 16.2454 14.6036 16 15.8108 16V15ZM11.8636 18.7236C12.0215 19.0393 12.3037 19.3941 12.6412 19.7587C12.9859 20.1309 13.4165 20.5428 13.8996 20.9744C14.8662 21.8381 16.065 22.7999 17.2575 23.71C18.4511 24.6209 19.6445 25.4845 20.6031 26.1524C21.5455 26.809 22.2976 27.3024 22.5872 27.4472L23.0345 26.5528C22.8241 26.4476 22.1387 26.0035 21.1748 25.3319C20.2272 24.6717 19.0456 23.8166 17.8642 22.915C16.6817 22.0126 15.5055 21.0682 14.5658 20.2287C14.0958 19.8088 13.6904 19.4199 13.375 19.0792C13.0524 18.7309 12.8502 18.4607 12.758 18.2764L11.8636 18.7236ZM22.3636 26.7764C22.0914 27.3208 21.8312 28.1084 21.641 28.8059C21.5448 29.1587 21.4638 29.4982 21.4065 29.7848C21.3518 30.0584 21.3109 30.3205 21.3109 30.5H22.3109C22.3109 30.4295 22.3324 30.2541 22.3871 29.9809C22.4391 29.7206 22.5145 29.4038 22.6057 29.0691C22.7905 28.3916 23.0303 27.6792 23.2581 27.2236L22.3636 26.7764ZM21.3109 30.5C21.3109 30.6039 21.2819 31.0105 21.2415 31.6481C21.2024 32.267 21.1552 33.0688 21.1237 33.919C21.0922 34.7682 21.0762 35.671 21.1001 36.4911C21.1237 37.3022 21.187 38.0661 21.3258 38.6213L22.2959 38.3787C22.1847 37.9339 22.123 37.2603 22.0997 36.462C22.0767 35.6727 22.092 34.7943 22.123 33.956C22.154 33.1187 22.2006 32.3268 22.2395 31.7113C22.2773 31.1145 22.3109 30.6461 22.3109 30.5H21.3109ZM21.3258 38.6213C21.4516 39.1246 21.581 39.5786 21.6791 39.9485C21.7806 40.3312 21.8497 40.6272 21.8764 40.8677C21.9031 41.1083 21.8808 41.2416 21.8454 41.3221C21.8164 41.388 21.7574 41.4677 21.5872 41.5528L22.0345 42.4472C22.3643 42.2823 22.6178 42.0495 22.7607 41.7248C22.8972 41.4146 22.9061 41.0792 22.8703 40.7573C22.8345 40.4353 22.7473 40.0751 22.6457 39.6921C22.5407 39.2964 22.4201 38.8754 22.2959 38.3787L21.3258 38.6213ZM21.5872 41.5528C21.2313 41.7308 20.8926 42.0896 20.5977 42.4642C20.2902 42.8547 19.9811 43.3278 19.6946 43.8053C19.121 44.7612 18.6133 45.7772 18.3636 46.2764L19.2581 46.7236C19.5085 46.2228 20.0007 45.2388 20.5521 44.3197C20.8281 43.8597 21.1127 43.4265 21.3834 43.0827C21.6667 42.7229 21.8904 42.5192 22.0345 42.4472L21.5872 41.5528ZM18.3636 46.2764C18.2776 46.4485 18.0568 46.702 17.6848 47.1071C17.3366 47.4863 16.8986 47.9563 16.4762 48.5088C15.6287 49.617 14.8109 51.0974 14.8109 53H15.8109C15.8109 51.4026 16.493 50.133 17.2705 49.1162C17.6606 48.6062 18.0664 48.17 18.4213 47.7835C18.7524 47.423 19.0941 47.0515 19.2581 46.7236L18.3636 46.2764ZM14.9573 52.6464C14.6209 52.9829 14.2507 53.241 13.8795 53.4759C13.5285 53.6979 13.1231 53.9293 12.8164 54.1678C12.4968 54.4164 12.1894 54.7402 12.0815 55.2079C11.9743 55.6722 12.0879 56.1722 12.3636 56.7236L13.2581 56.2764C13.0338 55.8278 13.0224 55.5778 13.0559 55.4327C13.0886 55.291 13.1874 55.1461 13.4303 54.9572C13.6861 54.7582 13.9994 54.5833 14.4141 54.321C14.8085 54.0715 15.2508 53.7671 15.6644 53.3536L14.9573 52.6464ZM12.3636 56.7236C12.9167 57.8298 13.6508 58.4474 14.6359 58.6747C15.5654 58.8892 16.6634 58.7394 17.9089 58.4903L17.7128 57.5097C16.4583 57.7606 15.5563 57.8608 14.8608 57.7003C14.2209 57.5526 13.705 57.1702 13.2581 56.2764L12.3636 56.7236ZM17.9089 58.4903C19.2805 58.216 20.7335 57.2769 21.8678 56.3947C23.0182 55.4999 23.911 54.6069 24.1644 54.3536L23.4573 53.6464C23.2107 53.8931 22.3535 54.7501 21.2539 55.6053C20.1382 56.4731 18.8412 57.284 17.7128 57.5097L17.9089 58.4903ZM24.1644 54.3536C24.161 54.357 24.1794 54.3395 24.2424 54.2966C24.2993 54.2578 24.3754 54.2097 24.4714 54.1518C24.6635 54.036 24.915 53.893 25.2133 53.7242C25.8051 53.3894 26.5649 52.9621 27.3259 52.4865C28.0848 52.0122 28.8614 51.4797 29.4853 50.9297C30.0903 50.3964 30.6315 49.7789 30.7959 49.1213L29.8258 48.8787C29.7402 49.2211 29.4064 49.6661 28.824 50.1796C28.2603 50.6765 27.5369 51.1753 26.7959 51.6385C26.0568 52.1004 25.3166 52.5168 24.7209 52.8539C24.4254 53.021 24.1613 53.1711 23.955 53.2954C23.769 53.4076 23.5712 53.5325 23.4573 53.6464L24.1644 54.3536ZM30.3109 49.5C32.5727 49.5 34.6287 48.9832 36.4439 48.482L36.1778 47.518C34.3713 48.0168 32.4273 48.5 30.3109 48.5V49.5ZM36.4439 48.482C37.5594 48.174 38.8462 47.659 39.9866 47.0266C41.1132 46.4018 42.1596 45.6283 42.7269 44.7774L41.8948 44.2226C41.4621 44.8717 40.5862 45.5506 39.5016 46.1521C38.4309 46.7458 37.2177 47.2309 36.1778 47.518L36.4439 48.482ZM41.8948 44.7774C42.1304 45.1308 42.3032 45.4539 42.4732 45.7638C42.6375 46.0636 42.8098 46.3719 43.0298 46.634C43.2604 46.9086 43.5437 47.1346 43.931 47.286C44.3084 47.4336 44.7585 47.5 45.3109 47.5V46.5C44.8324 46.5 44.5171 46.4414 44.2951 46.3546C44.0828 46.2716 43.9325 46.1539 43.7957 45.991C43.6485 45.8156 43.5198 45.5927 43.35 45.283C43.1858 44.9836 42.9913 44.6192 42.7269 44.2226L41.8948 44.7774ZM45.3109 47.5C46.3074 47.5 47.5728 47.5002 48.6527 47.4366C49.1917 47.4049 49.6996 47.3566 50.1121 47.2808C50.3181 47.243 50.5128 47.1961 50.6814 47.1358C50.8398 47.0792 51.024 46.994 51.1644 46.8536L50.4573 46.1464C50.4727 46.131 50.4537 46.1552 50.3446 46.1942C50.2456 46.2297 50.1083 46.2648 49.9315 46.2973C49.5784 46.3621 49.1175 46.4076 48.594 46.4384C47.5489 46.4998 46.3143 46.5 45.3109 46.5V47.5ZM51.1644 46.8536C51.3857 46.6322 51.9359 46.1145 51.9359 45.375C51.9359 44.5948 51.3496 43.8401 50.0681 43.0713L49.5536 43.9287C50.7721 44.6599 50.9359 45.1552 50.9359 45.375C50.9359 45.6355 50.736 45.8678 50.4573 46.1464L51.1644 46.8536ZM50.2581 43.7236C50.3768 43.4862 50.5449 43.1854 50.7457 42.8258C50.944 42.4708 51.1696 42.0664 51.3932 41.6373C51.8374 40.7847 52.2906 39.8033 52.5165 38.8673C52.7387 37.9464 52.7698 36.9477 52.2018 36.1731C51.6265 35.3885 50.5617 35 49 35V36C50.4383 36 51.0999 36.3615 51.3954 36.7644C51.6981 37.1773 51.7444 37.8036 51.5444 38.6327C51.348 39.4467 50.9414 40.3403 50.5064 41.1752C50.2903 41.5898 50.0715 41.9823 49.8727 42.3382C49.6764 42.6896 49.495 43.0138 49.3636 43.2764L50.2581 43.7236ZM48.7851 38.1582C49.0423 37.3868 49.3758 36.1565 49.5435 34.9568C49.6273 34.3572 49.6719 33.7497 49.6396 33.2033C49.6079 32.6685 49.4996 32.1318 49.2268 31.7227L48.3948 32.2774C48.522 32.4683 48.6136 32.7941 48.6414 33.2624C48.6684 33.7191 48.6318 34.2554 48.5531 34.8183C48.3958 35.9436 48.0793 37.1133 47.8364 37.8419L48.7851 38.1582ZM49.2851 32.1582C49.2839 32.1619 49.2961 32.127 49.3659 32.0545C49.4326 31.9853 49.5325 31.9019 49.6714 31.8058C49.9497 31.6133 50.34 31.4001 50.8226 31.1702C51.7861 30.7115 53.0489 30.2182 54.3638 29.7173C55.6696 29.2198 57.0259 28.7152 58.146 28.2419C58.7068 28.0049 59.2181 27.7718 59.6411 27.5471C60.0542 27.3276 60.4218 27.0961 60.6643 26.8536L59.9572 26.1465C59.8248 26.279 59.5674 26.4538 59.1719 26.664C58.7863 26.8689 58.3054 27.0889 57.7568 27.3207C56.6582 27.7849 55.327 28.2803 54.0078 28.7828C52.6977 29.2819 51.398 29.7887 50.3927 30.2674C49.891 30.5063 49.4453 30.7462 49.1025 30.9834C48.9308 31.1021 48.7739 31.2277 48.6458 31.3606C48.5208 31.4903 48.4002 31.6507 48.3364 31.8419L49.2851 32.1582ZM60.6643 26.8536C61.4662 26.0518 61.9182 25.2006 61.9958 24.4248C62.0756 23.6266 61.7481 22.9097 61.0344 22.5528L60.5872 23.4473C60.8734 23.5904 61.046 23.8735 61.0008 24.3253C60.9533 24.7995 60.6554 25.4483 59.9572 26.1465L60.6643 26.8536ZM61.0344 22.5528C60.8995 22.4854 60.7293 22.449 60.5816 22.4244C60.419 22.3974 60.2225 22.3758 60.0021 22.3581C59.5602 22.3227 58.9918 22.301 58.3433 22.2892C57.0448 22.2656 55.3967 22.2814 53.7389 22.3126C50.4031 22.3756 47.0581 22.5001 46.3108 22.5001V23.5001C47.0635 23.5001 50.4684 23.3745 53.7577 23.3125C55.4124 23.2812 57.0456 23.2658 58.3251 23.289C58.9657 23.3007 59.5106 23.3219 59.9222 23.3549C60.1285 23.3714 60.2939 23.3903 60.4176 23.4109C60.5563 23.4339 60.597 23.4522 60.5872 23.4473L61.0344 22.5528Z" fill="black"/>
<path d="M37.8108 16.0002C39.1441 14.6668 42.6108 12.6002 45.8108 15.0002C44.3108 17 40.3108 20.0003 37.8108 16.0002Z" fill="black"/>
<path d="M33.8108 16.0002C33.8108 14.8334 32.4108 12.6 26.8108 13C27.3108 16.0002 31.3108 19.5003 33.8108 16.0002Z" fill="black"/>
<path d="M33.8108 16.0002C33.8108 14.8334 32.4108 12.6 26.8108 13C27.3108 16.0002 31.3108 19.5003 33.8108 16.0002ZM33.8108 16.0002L38 16M37.8108 16.0002C39.1441 14.6668 42.6108 12.6002 45.8108 15.0002C44.3108 17 40.3108 20.0003 37.8108 16.0002Z" stroke="black"/>
</svg>
