<svg width="60" height="80" viewBox="0 0 60 80" fill="none" xmlns="http://www.w3.org/2000/svg">
<g clip-path="url(#clip0_89_2469)">
<path opacity="0.95" d="M5.49998 62C4.29998 59.6 4.99998 57.3333 5.49998 56.5C5.49998 57.5 6.5 60.5 8.5 60.5C10.1 60.5 12.1667 59.5 13 59C17.1667 56 25.6 49.9 26 49.5C26.4 49.1 27.1667 48 27.5 47.5L25.5 44.5C25.1667 44.8333 24.2 45.6 23 46C21.5 46.5 18 46 17 45.5C16 45 13 43.5 12.5 41C12 38.5 13 38 13.5 38C14 38 17.5 40 19 41C20.5 42 22.5 43 24 43C25.2 43 25.5 42.3333 25.5 42L26 40C25 39.8333 22.5 39.3 20.5 38.5C18 37.5 16 35 15 33C14 31 14.5 30.5 15.5 29.5C16.5 28.5 17.5 29.5 19 30.5C20.5 31.5 23 36 24 37C25 38 27 37.5 28 38C29.5 37 34 35.5 36 35C38 34.5 38.5 31 40 28.5C41.5 26 43 24.5 45 24.5C47 24.5 47.5 27 47.5 28C47.5 29 46 36 45 37.5C44 39 42 38 41 39.5C40 41 41 41.5 42.5 42C44 42.5 44.5 41.5 45 41.5C44.5 42.5 40 50.5 40 52.5C40 54.5 42 60.5 41 63.5C40.2 65.9 39.3333 66.5 39 66.5H38V63.5L37 61L34 63.5V67.5L33.5 70L32 71H31V69L30.5 65.5L28 68.5L24.5 70C24.6667 70.6667 25 72.4 25 74C25 75.6 23.6667 77 23 77.5C22.6667 77.6667 22 77.8 22 77C22 75 21.3333 73.1667 21 72.5C20.6667 72.6667 19.8 73 19 73C19.5 74 19.5 76 18.5 78C17.5 80 16.5 79.5 16 78.5C16 73.5 15.5 74 13 71.5C10.5 69 6.99998 65 5.49998 62Z" fill="white"/>
<path d="M48.3092 4.91198C47.5244 5.32746 47.3756 6.5408 47.4352 7.3186C47.5879 9.31073 48.4867 11.0093 50.4245 11.6758C52.9199 12.5343 54.412 9.52111 54.1674 7.48326C53.9076 5.3185 52.4031 4 50.2472 4C49.0432 4 48.4376 4.29387 47.6252 5.25397M5.50813 56.2005C4.8056 56.3566 5.0163 59.0035 5.07747 59.5064C5.19338 60.4595 5.56713 61.3684 5.91345 62.255C6.52598 63.8231 7.3786 65.6099 8.5354 66.8593C9.78002 68.2034 10.935 69.6199 12.2277 70.9125C13.331 72.0159 14.6444 73.0288 15.3373 74.4401C15.7697 75.321 15.7864 76.1255 15.9959 77.062C16.0882 77.4745 16.0291 79.0261 16.5342 79.114C17.2967 79.2466 18.0591 79.0598 18.4342 78.3097C19.1095 76.9591 19.586 74.6219 19.0865 73.1735C18.949 72.7748 19.911 72.6735 20.2138 72.5275C21.0615 72.1187 21.8854 71.6521 22.7091 71.1975C24.2227 70.3621 25.8367 69.6679 27.2817 68.7149C28.2787 68.0573 29.0638 67.2061 29.834 66.3019C29.8931 66.2325 30.7016 64.8945 30.7016 65.561C30.7016 66.6275 30.7826 67.6818 30.8093 68.7466C30.8252 69.3847 30.5512 70.6839 30.8789 71.2925C31.2681 72.0152 32.896 70.6979 33.1209 70.3742C34.0334 69.0605 34.1866 67.8526 34.0645 66.3146C33.9978 65.4737 33.9616 64.6005 33.7795 63.775C33.6263 63.0802 35.2001 62.9877 35.7048 62.483C35.9913 62.1965 36.8186 60.7451 37.0348 61.3937C37.2571 62.0606 37.688 62.619 37.8581 63.319C38.0812 64.237 37.9456 65.175 38.0038 66.1056C38.0601 67.007 38.9954 66.7037 39.4731 66.2259C41.2624 64.4366 41.3201 61.4561 41.3034 59.1264C41.2849 56.5514 40.2014 54.1425 40.1191 51.5899C40.0722 50.1383 41.0942 48.6478 41.696 47.372C42.242 46.2145 42.9633 45.1733 43.4947 44.0027C43.8946 43.1216 44.638 42.3564 44.9956 41.4821C45.2198 40.9341 42.3717 42.8903 41.3034 42C40.7102 41.5057 40.3414 40.5947 40.5687 39.8228C41.0644 38.1402 42.7914 38.2135 44.147 37.7899C45.4851 37.3717 45.7041 35.4872 46.0913 34.3256C46.4433 33.2696 46.8773 32.2444 47.0919 31.1463C47.3377 29.8889 47.4515 28.1289 47.0919 26.8904C46.7464 25.7003 45.1342 25.0629 44.0457 24.8955C43.0822 24.7472 42.3593 25.3758 41.734 26.0164C41.4961 26.2602 41.2771 26.5183 41.0731 26.7876M41.0731 26.7876C39.6774 28.6306 38.9862 31.0019 37.7758 32.9386C36.5298 34.9323 34.1299 35.2095 32.1076 35.9786C29.8085 36.8529 26.2194 38.0121 25.5717 40.6715C25.1911 42.2341 25.0172 43.6088 25.806 45.0287C26.1578 45.6618 26.5854 46.2325 27.0283 46.802C28.1203 48.206 25.3285 50.1066 24.4317 50.7856C22.5204 52.2328 20.6808 53.7275 18.6812 55.0605C17.5538 55.8121 16.6504 56.8806 15.4893 57.5685C13.8764 58.5239 12.1986 59.383 10.562 60.2981C10.1714 60.5164 9.90353 60.6082 9.47271 60.6717C8.31502 60.8425 6.71339 60.4799 6.19844 59.2784C5.84895 58.4629 5.50813 57.2756 5.50813 56.4285M41.0731 26.7876C41.0729 26.7507 41.0736 26.7132 41.0752 26.6753M41.0731 26.7876C41.0845 29.0829 44.5158 29.5 45.4999 29.5C45.9669 29.5 46.5 29 47 28M41.5314 31.1211C41.7234 31.1211 41.8215 31.1522 41.9874 31.2351M44.0393 32.147C44.222 32.1546 44.2553 32.1768 44.3682 32.2522L44.3813 32.261M40.8474 33.1733H41.6453M30.9296 38.189C31.3701 38.189 31.7661 38.2917 32.1835 38.417M30.4736 40.9248C30.9999 41 31.5456 41 31.9999 41M27.0537 37.8469C26.3959 38.0493 25.7112 37.764 25.0524 37.6442C24.6988 37.5799 24.3941 37.5198 24.1024 37.2896C22.5092 36.0318 21.3865 34.0076 20.3025 32.3307C19.5699 31.1975 18.6785 29.7424 17.2752 29.3477C16.2771 29.067 15.3889 29.6153 15.0966 30.6017C14.5156 32.5624 14.9724 34.0847 16.2999 35.5163C17.5463 36.8604 18.9402 37.7648 20.5305 38.6195C21.9684 39.3924 23.7293 39.5569 25.3437 39.5569M25.1157 42.4071C24.6104 42.9124 23.8502 42.863 23.1777 42.863C21.5196 42.863 20.5972 41.8598 19.2385 41.0137C17.575 39.978 15.7477 38.5612 13.8299 38.0498C13.1247 37.8617 12.4598 38.9263 12.3543 39.5064C12.0959 40.9278 12.3097 42.2123 13.4119 43.243C15.5137 45.2084 18.4925 46.283 21.3411 46.283C22.4326 46.283 23.2356 46.1614 23.9757 45.3203C24.1156 45.1613 24.8492 44.459 25.0017 44.459M21.1258 72.3883C21.1551 72.6516 21.4347 72.9408 21.5185 73.1989C21.8651 74.2672 21.9238 75.3018 21.9238 76.4098C21.9238 76.9428 21.6711 77.851 22.4304 77.7208C24.6464 77.3409 24.7895 73.6445 24.8117 72.0209C24.8159 71.7145 24.8135 71.5034 24.6091 71.2989L24.6051 71.295C24.5413 71.2312 24.4443 71.1343 24.5457 71.1343" stroke="black" stroke-linecap="round"/>
<path d="M26 40L27 38C26.5 38.5 24.5 37.5 23.5 37C22.5 36.5 18.5 29.5 18 29.5C17.5 29.5 16 28 15 31C14 34 18 37 20.5 38.5C22.5 39.7 25 40 26 40Z" fill="black"/>
<path d="M25.5 44.5V42.5C25 42.6667 23.6999 43 22.4999 43C20.9999 43 14.5 38 13.5 38.5C12.5 39 12 40.5 13 43C14 45.5 21.5 46.5 23 46C24.2 45.6 25.1666 44.8333 25.5 44.5Z" fill="black"/>
<path opacity="0.95" d="M47.5 8.99993C46.3 7.39993 47.3333 5.33326 48 4.49993C50.9999 2.49993 53 4.99993 54 6.49993C55 7.99993 53.5 10.4999 52 11.4999C50.5 12.4999 49 10.9999 47.5 8.99993Z" fill="black"/>
</g>
<defs>
<clipPath id="clip0_89_2469">
<rect width="60" height="80" fill="white"/>
</clipPath>
</defs>
</svg>
