<svg width="24" height="24" viewBox="0 0 24 24" fill="none" xmlns="http://www.w3.org/2000/svg">
<path d="M14.0622 23V11.2029M14.0622 23L18.5467 20.107C18.8322 19.9228 19.0046 19.6064 19.0046 19.2667V19.1739M14.0622 23C14.3725 23 15.0465 22.9453 15.8977 22.8278M14.0622 23H2C1.44772 23 1 22.5523 1 22V11.5527C1 11.3262 1.07688 11.1065 1.21807 10.9294L7.35458 3.23188M14.0622 11.2029H1.70606M14.0622 11.2029L7.35458 3.23188M14.0622 11.2029L14.5864 11M7.35458 3.23188L7.86808 3M19.0046 9.28986L12.7825 1.60003C12.4965 1.24653 12.008 1.13052 11.5936 1.31766L11.571 1.32786M19.0046 9.28986V19.1739M19.0046 9.28986L18.4359 9.51001M19.0046 19.1739C19.3949 19.1739 19.8479 19.1876 20.3057 19.2207M15.8977 22.8278L20.3057 19.2207M15.8977 22.8278C16.3853 22.7604 16.9311 22.6725 17.5 22.5625M20.3057 19.2207C20.5384 19.2375 20.7724 19.2593 21 19.2869M21 19.2869L17.5 22.5625M21 19.2869C21.3055 19.3239 21.5996 19.3713 21.8639 19.4308M17.5 22.5625C17.9918 22.4674 18.5009 22.3557 19.0046 22.2266M19.0046 22.2266L21.8639 19.4308M19.0046 22.2266C19.5659 22.0827 20.1204 21.9171 20.637 21.7284M21.8639 19.4308C22.1216 19.4889 22.351 19.5585 22.535 19.6414M22.535 19.6414C23.0793 19.8866 23.2264 20.2477 22.535 20.7681C22.0428 21.1385 21.3792 21.4573 20.637 21.7284M22.535 19.6414L20.637 21.7284M7.86808 3L14.5864 11M7.86808 3L8.38064 2.76854M14.5864 11L15.1611 10.7776M15.1611 10.7776L8.38064 2.76854M15.1611 10.7776L15.7864 10.5355M8.38064 2.76854L8.97532 2.5M8.97532 2.5L15.7864 10.5355M8.97532 2.5L9.62466 2.20677M15.7864 10.5355L16.5 10.2593M16.5 10.2593L9.62466 2.20677M16.5 10.2593L17.1699 10M9.62466 2.20677L10.2356 1.93089M10.2356 1.93089L17.1699 10M10.2356 1.93089L10.845 1.65571M17.1699 10L17.8671 9.73016M17.8671 9.73016L10.845 1.65571M17.8671 9.73016L18.4359 9.51001M10.845 1.65571L11.571 1.32786M11.571 1.32786L18.4359 9.51001" stroke="black" stroke-linecap="round"/>
</svg>
