<svg width="16" height="14" viewBox="0 0 16 14" fill="none" xmlns="http://www.w3.org/2000/svg">
<path d="M14.3604 6.51851C14.5628 6.6901 14.9358 6.98442 14.9796 7.25139C15.0096 7.43416 15.012 7.68661 14.9495 7.86369C14.8295 8.20346 14.671 8.43126 14.3767 8.67038C14.2014 8.8128 13.7394 9.24123 13.3267 9.34609C12.986 9.43265 12.6302 9.48583 12.3724 9.20159C12.091 8.8913 12.0331 8.39658 12.1499 8.00715C12.3079 7.48049 12.7185 7.06731 13.1729 6.77736C13.4902 6.57484 14.3424 6.20344 14.5471 6.73578C14.685 7.09407 14.5737 7.51887 14.3767 7.83354C14.2478 8.03933 14.0814 8.22034 13.8922 8.37203C13.746 8.48926 13.6157 8.53634 13.4307 8.44272C13.3886 8.42142 13.3466 8.39624 13.3063 8.3676M13.3063 8.3676C13.1186 8.23426 12.9673 8.02606 13.0117 7.78676C13.0919 7.35563 13.6398 7.2123 14.0055 7.16927C14.0403 7.16518 14.1147 7.10719 14.1438 7.12041C14.1913 7.14202 13.7894 7.72622 13.7612 7.76909C13.6307 7.96832 13.5021 8.16278 13.3361 8.33461C13.3262 8.34482 13.3163 8.35587 13.3063 8.3676ZM13.3063 8.3676C13.1684 8.52929 13.0148 8.81903 12.7841 8.78577C12.7103 8.77514 12.6646 8.7315 12.6323 8.67038C12.6042 8.6172 12.6416 8.62728 12.651 8.58618C12.6658 8.52127 12.5993 8.1536 12.6323 8.13709M11.9212 2.2216C12.2331 2.44237 12.7402 2.72815 12.8506 3.10982C12.9548 3.46993 12.9553 3.86519 12.861 4.2263C12.7179 4.77416 12.3275 5.24158 11.9212 5.62242C11.7705 5.76374 11.6112 5.90799 11.4087 5.96755C11.1582 6.04123 10.9136 5.97449 10.6738 5.89374C10.5025 5.83606 10.3341 5.73714 10.1873 5.63177C10.0267 5.51651 9.92013 5.29549 9.88785 5.112C9.83784 4.82776 9.84375 4.52393 9.8962 4.2367C9.97505 3.80484 10.2395 3.42386 10.4877 3.07448C10.6754 2.81029 10.964 2.33626 11.2944 2.20021C11.4525 2.1351 11.6951 2.09791 11.8547 2.17942C12.0074 2.25738 12.0863 2.41408 12.1323 2.57133C12.2125 2.84566 12.2571 3.12536 12.256 3.41129C12.2538 3.99719 12.1006 4.4983 11.7175 4.94567C11.4562 5.25086 11.0764 5.41692 10.7507 5.112C10.4405 4.82155 10.5459 4.48386 10.6842 4.12442C10.827 3.75313 11.0033 3.37682 11.204 3.0329C11.2523 2.94997 11.4816 2.70427 11.5865 2.84578C11.7371 3.04889 11.6534 3.46725 11.6083 3.70237C11.5619 3.94472 11.429 4.15938 11.3297 4.38119C11.2954 4.45797 11.2487 4.52942 11.2092 4.60366C11.1964 4.62757 11.1496 4.68162 11.1707 4.68162M6.73599 1.09336C6.91409 1.05873 7.31381 0.893198 7.58634 1.10869C7.85887 1.32418 8.02693 1.63112 8.11651 1.96424C8.24897 2.4568 8.21745 3.13518 7.96786 3.5849C7.68459 4.09528 7.17512 4.7603 6.50417 4.67747C6.10981 4.62878 5.8047 4.32747 5.62575 3.9924C5.38308 3.53805 5.366 3.02266 5.46774 2.52352C5.58081 1.96875 5.84872 1.57194 6.33056 1.27918C6.51115 1.16945 6.77392 1.03092 6.99692 1.08374C7.08768 1.10524 7.1368 1.19667 7.18507 1.26774C7.28344 1.41256 7.34672 1.55008 7.39091 1.72098C7.50308 2.15485 7.51725 2.61865 7.38675 3.04953C7.28781 3.37619 7.10187 3.88275 6.73599 3.99552C6.52955 4.05915 6.3378 3.92432 6.21413 3.7689C6.04458 3.55581 6.02791 3.25268 6.03741 2.99132C6.05096 2.61868 6.21064 2.13563 6.526 1.90602C6.57703 1.86887 6.71192 1.76659 6.77757 1.82494C6.8973 1.93137 6.91335 2.16312 6.91479 2.30937C6.91774 2.60864 6.8336 2.86958 6.76925 3.15557C6.74864 3.24716 6.72291 3.33729 6.69856 3.42793C6.694 3.44493 6.66121 3.50278 6.67985 3.50278M2.51379 3.61282C3.14018 3.5849 3.89723 4.27172 4.06642 4.81988C4.14276 5.06723 4.16438 5.3524 4.15166 5.60994C4.14406 5.76397 4.11595 5.92704 4.05187 6.06838C3.94197 6.31075 3.66435 6.41697 3.43749 6.51851C3.21651 6.61741 2.96215 6.74783 2.71604 6.6682C2.55437 6.6159 2.39217 6.52331 2.24929 6.43223C1.83716 6.16953 1.6343 5.8311 1.53823 5.35525C1.44541 4.89547 1.34625 4.35542 1.64635 3.9477C1.86787 3.64673 2.2748 3.52283 2.62352 3.64207C2.96733 3.75963 3.11208 4.03184 3.27428 4.34377C3.41742 4.61902 3.47426 4.96429 3.45932 5.27417C3.44898 5.48872 3.40041 5.94254 3.14018 6.01225C2.79083 6.10582 2.52227 5.67368 2.39066 5.42802C2.24166 5.14988 2.15639 4.82243 2.23473 4.50906C2.27598 4.34407 2.37233 4.05924 2.56947 4.27828C2.77223 4.50357 2.8738 4.89239 2.91876 5.18684C2.95571 5.42891 2.97489 5.67183 2.97489 5.91661M8.11651 6.42312C8.49917 6.58256 9.4065 7.0843 9.69033 7.37822C10.1035 7.8061 10.4038 8.31041 10.6446 8.8523C10.7996 9.20098 10.845 9.54932 10.9066 9.92096C10.9832 10.383 10.993 10.8401 10.9534 11.3067C10.9142 11.7687 10.7642 12.2482 10.4908 12.6259C10.3372 12.8381 10.1302 13.0584 9.88265 13.1592C9.6719 13.2449 9.45183 13.1939 9.24125 13.1394C9.02725 13.0841 8.81515 13.0233 8.60712 12.9481C8.37221 12.8633 8.16523 12.7291 7.95428 12.5978C7.62046 12.3901 7.30178 12.1637 6.96255 11.9647C6.76222 11.8472 6.57276 11.7326 6.36585 11.6279C6.15311 11.5202 5.86155 11.599 5.64752 11.6601C5.37429 11.7382 5.09227 11.7715 4.8086 11.7734C4.66141 11.7745 4.48568 11.7872 4.34496 11.736C4.10814 11.6499 3.76851 11.4674 3.58674 11.3067C3.39345 11.1358 3.20823 10.8837 3.15571 10.6071C3.08585 10.2391 3.1113 9.85784 3.20769 9.49682C3.27058 9.2613 3.37283 9.04077 3.45718 8.8128C3.5798 8.48146 3.71781 8.16811 3.93746 7.8876C4.09397 7.68772 4.27547 7.51285 4.45099 7.3304C4.59994 7.17558 4.74351 7.02208 4.91671 6.89379C5.08052 6.77245 5.24895 6.65098 5.43025 6.55697C5.65036 6.44284 5.88632 6.39274 6.12779 6.34698C6.61259 6.25513 7.10329 6.25239 7.59148 6.31788C7.74393 6.33833 7.90014 6.34733 8.0468 6.39688C8.27976 6.47558 8.46003 6.62478 8.63623 6.79191C8.98757 7.12519 9.27277 7.51165 9.53232 7.91879C9.74798 8.25707 9.97225 8.62777 10.077 9.01863C10.1146 9.15854 10.1274 9.30549 10.1602 9.44693C10.2038 9.6344 10.2567 9.82159 10.2683 10.0145C10.2921 10.4084 10.337 10.8146 10.3276 11.209C10.3197 11.54 10.1967 11.9129 10.0105 12.1872C9.93217 12.3026 9.81302 12.4093 9.70073 12.4907C9.52168 12.6205 9.27044 12.5801 9.0718 12.524C8.78056 12.4417 8.52569 12.2827 8.25783 12.1477C7.81908 11.9265 7.38039 11.7031 6.93344 11.499C6.52201 11.3111 6.16282 11.1559 5.71197 11.1559C5.50779 11.1559 5.31464 11.185 5.11215 11.2038C4.80661 11.2322 4.43804 11.2031 4.22749 10.9512C3.95848 10.6293 3.9041 10.2697 3.91043 9.86483C3.91335 9.67759 3.9551 9.49166 4.0123 9.31386C4.09856 9.04577 4.26905 8.82865 4.3855 8.57578C4.52828 8.26576 4.73309 7.97274 4.94374 7.70464C5.17738 7.40728 5.41989 7.10454 5.80137 7.00502C6.26907 6.88301 6.75207 7.0123 7.2266 7.0123C7.57097 7.0123 7.85146 6.97541 8.15803 7.16407C8.50569 7.37801 8.75807 7.74189 9.00111 8.06017C9.45126 8.64965 9.82231 9.31752 9.88785 10.0665C9.91158 10.3377 9.89824 10.6135 9.89824 10.8857C9.89824 11.1953 9.89495 11.59 9.64875 11.8233C9.52675 11.939 9.29205 11.8717 9.15704 11.8472C8.93581 11.8071 8.71629 11.7517 8.50317 11.6799C8.24333 11.5923 7.98704 11.4871 7.73494 11.3795C7.3638 11.221 7.01463 11.0349 6.61534 10.9543C6.3556 10.9018 6.08932 10.894 5.82736 10.8566C5.59256 10.823 5.37693 10.7457 5.15373 10.6694C5.01585 10.6224 4.8716 10.5766 4.74831 10.4969C4.57757 10.3865 4.56868 10.2457 4.57678 10.053C4.6011 9.47424 4.74993 8.95296 5.11839 8.49678C5.26632 8.31362 5.45902 8.17232 5.61529 7.99571C5.75841 7.83397 5.91357 7.70902 6.10804 7.61316C6.42269 7.45805 6.83129 7.65538 7.15591 7.7088C7.46926 7.76036 7.80033 7.80101 8.05928 8.00299C8.18884 8.10405 8.28944 8.25244 8.39297 8.37827C8.52598 8.53992 8.66762 8.6955 8.79632 8.86062C9.10733 9.25965 9.27573 9.76224 9.39302 10.2474C9.43679 10.4284 9.5063 10.6081 9.53024 10.7931C9.54602 10.9151 9.56839 11.0964 9.50217 11.209C9.42083 11.3472 9.15381 11.2867 9.03749 11.2495C8.73215 11.1519 8.49768 10.9131 8.18922 10.8212C7.90739 10.7373 7.61203 10.671 7.32639 10.5987C6.98638 10.5128 6.63789 10.4455 6.28892 10.4096C6.15688 10.396 6.01128 10.4079 5.88142 10.3846C5.66455 10.3458 5.53166 10.1869 5.43025 10.001C5.39991 9.94539 5.37284 9.88791 5.35165 9.82906M5.35165 9.82906C5.30364 9.69577 5.28579 9.55544 5.32838 9.41366C5.37138 9.27052 5.45461 9.12669 5.51134 8.98744C5.52014 8.96583 5.52932 8.94478 5.53887 8.92427M5.35165 9.82906C5.43259 9.88076 5.52044 9.97003 5.56331 9.99997C5.68138 10.0824 5.82428 10.1907 5.97498 10.2016C6.05699 10.2076 6.06838 10.1551 6.03319 10.0956C5.99077 10.0239 5.85241 9.92016 5.86063 9.8274C5.86636 9.76266 6.0579 9.80413 6.06854 9.80557C6.54091 9.86981 6.91711 10.1679 7.32743 10.3856C7.34228 10.3935 7.67953 10.604 7.65177 10.4283C7.63758 10.3384 7.57286 10.26 7.51143 10.1975C7.29368 9.97582 7.0176 9.76837 6.76088 9.59454C6.5449 9.4483 6.28838 9.33268 6.11012 9.13714C6.09177 9.11701 5.99603 9.00429 6.0675 8.97497C6.21099 8.9161 6.48407 8.97858 6.62054 9.03215C6.92567 9.15192 7.19821 9.36736 7.46881 9.54776C7.81465 9.77832 8.18498 9.97389 8.51044 10.2339C8.68107 10.3702 8.83274 10.5342 9.01047 10.6611C9.07016 10.7038 9.04263 10.646 9.0271 10.6112C8.91566 10.3614 8.7448 10.1472 8.58009 9.93136C8.38335 9.67348 8.20184 9.40261 7.98963 9.15689C7.83093 8.97313 7.63746 8.85301 7.44074 8.71508C7.1133 8.4855 6.77016 8.24588 6.35129 8.32005C6.24246 8.33933 6.14294 8.36846 6.05253 8.40821M5.35165 9.82906C5.31441 9.80528 5.27863 9.78945 5.24937 9.79102C5.14848 9.79642 5.1121 10.1059 5.0924 10.1736C5.08376 10.2032 5.07663 10.2336 5.06433 10.2619C5.04505 10.3064 5.03451 10.2755 5.02899 10.2453C5.0044 10.1111 5.01825 9.96967 5.05705 9.83988C5.14415 9.54856 5.30715 9.26472 5.47599 9.01447C5.49661 8.98392 5.51755 8.95383 5.53887 8.92427M5.53887 8.92427C5.6543 8.67642 5.82442 8.5085 6.05253 8.40821M5.53887 8.92427C5.68578 8.72058 5.8509 8.54177 6.05253 8.40821M6.05253 8.40821C6.16302 8.33501 6.28447 8.2754 6.41991 8.23273C6.61375 8.17165 6.82532 8.15218 7.027 8.13709C7.13132 8.12929 7.24428 8.11672 7.34718 8.14541C7.614 8.21979 7.8421 8.43144 8.03433 8.61944C8.22237 8.80335 8.36949 9.00177 8.52188 9.21511C8.58194 9.29919 8.64581 9.37982 8.709 9.46148C8.71149 9.46471 8.7381 9.51748 8.7381 9.49059M3.64848 10.1455C3.63805 10.2366 3.63322 10.247 3.63763 10.3208M3.63763 10.3208C3.63828 10.3316 3.63912 10.3437 3.64016 10.3576C3.64255 10.3893 3.64907 10.4206 3.65264 10.4522C3.65707 10.4914 3.6555 10.5239 3.64016 10.4283C3.63408 10.3904 3.63346 10.3546 3.63763 10.3208ZM3.63763 10.3208C3.68663 9.92453 4.39641 9.80374 4.69739 9.74632C5.07822 9.67367 5.46455 9.62696 5.84609 9.55712C5.9784 9.5329 6.06652 9.50447 5.91262 9.45317" stroke="white" stroke-width="0.81" stroke-linecap="round"/>
</svg>
