<svg width="24" height="24" viewBox="0 0 24 24" fill="none" xmlns="http://www.w3.org/2000/svg">
<path d="M14.791 14.0954C14.8019 13.6381 14.4367 13.2548 13.9793 13.2584C11.2019 13.2804 7.12194 12.9141 6.29004 14.5186C6.12836 14.8304 6.036 15.1339 5.99997 15.4272M14.791 14.0954C13.2909 13.7989 6.83457 13.2069 5.99997 15.4272M14.791 14.0954C14.7872 14.2546 14.7844 14.4182 14.7828 14.5837M5.99997 15.4272C5.94916 15.8408 6.01037 16.2342 6.14717 16.6024M14.7828 14.5837C14.7675 16.2192 14.8703 18.8822 15.3635 18.3817C16.1607 17.5726 23.3354 12.7181 22.5383 11.5045C21.7411 10.2909 15.7621 2.23537 15.3635 3.85353C15.1132 4.86953 14.9498 6.80923 14.8672 7.89025C14.8349 8.31454 14.484 8.64745 14.0584 8.64745C14.0584 8.64745 9.5 8 6.53358 8.64745C3.56715 9.29489 0.503536 11.7366 2.76478 16.8247C4.16974 19.9861 8.08129 20.4143 8.43916 19.7061C8.48542 19.6146 8.43348 19.5108 8.36175 19.4381C6.99997 18.5 6.34725 17.141 6.14717 16.6024M14.7828 14.5837C13.2503 14.2413 6.77952 13.7224 6.14717 16.6024" stroke="black" stroke-width="0.8" stroke-linecap="round"/>
</svg>
