<svg width="25" height="24" viewBox="0 0 25 24" fill="none" xmlns="http://www.w3.org/2000/svg">
<path d="M15.2897 14.0954C15.3005 13.6381 14.9354 13.2548 14.4779 13.2584C11.7005 13.2804 7.62059 12.9141 6.78869 14.5186C6.62702 14.8304 6.53466 15.1339 6.49863 15.4272M15.2897 14.0954C13.7896 13.7989 7.33323 13.2069 6.49863 15.4272M15.2897 14.0954C15.2859 14.2546 15.283 14.4182 15.2815 14.5837M6.49863 15.4272C6.44782 15.8408 6.50903 16.2342 6.64582 16.6024M15.2815 14.5837C15.2661 16.2192 15.369 18.8822 15.8622 18.3817C16.6594 17.5726 23.8341 12.7181 23.0369 11.5045C22.2397 10.2909 16.2608 2.23537 15.8622 3.85353C15.6119 4.86953 15.4484 6.80923 15.3659 7.89025C15.3335 8.31454 14.9826 8.64745 14.5571 8.64745C14.5571 8.64745 9.99866 8 7.03223 8.64745C4.06581 9.29489 1.00219 11.7366 3.26344 16.8247C4.6684 19.9861 8.57994 20.4143 8.93782 19.7061C8.98407 19.6146 8.93213 19.5108 8.86041 19.4381C7.49863 18.5 6.84591 17.141 6.64582 16.6024M15.2815 14.5837C13.749 14.2413 7.27818 13.7224 6.64582 16.6024" stroke="white" stroke-width="0.8" stroke-linecap="round"/>
</svg>
