<svg width="25" height="24" viewBox="0 0 25 24" fill="none" xmlns="http://www.w3.org/2000/svg">
<g id="icon_pen">
<g id="Icon">
<path d="M14.0798 1.08181C13.4842 0.986663 12.9805 0.981138 12.5599 1.03127C12.1052 1.08547 11.7476 1.20472 11.4764 1.3461C11.2463 1.46599 11.0783 1.6018 10.9657 1.72734C10.9101 1.78929 10.868 1.84874 10.8386 1.90255L10.6865 2.18727L10.5409 2.45971L10.3954 2.73216L10.205 3.08851L9.95457 3.55718L9.74244 3.95421L9.60212 4.21685C9.58075 4.25685 9.61088 4.30426 9.65775 4.30341C11.3429 4.27285 14.787 4.87253 15.8604 7.11838C15.8823 7.16428 15.9511 7.16688 15.9747 7.12173L16.1908 6.70728L16.2813 6.53386L16.4122 6.2765L16.6529 5.80355L16.8582 5.4L16.9701 5.18022L17.0819 4.96045L17.1848 4.75815L17.2878 4.55585L17.4937 4.15125C17.5005 4.13777 17.502 4.12289 17.4972 4.10861C17.3992 3.81456 17.2147 3.41889 16.9377 3.00935C16.3786 2.18269 15.4426 1.29956 14.0798 1.08181Z" fill="white"/>
<path d="M3.5 19.8413V22.7983C3.69569 23.2673 4.15535 22.7983 4.4173 22.5966L6.80228 21.0138M9.06495 19.4312L3.98523 22.9095C3.78213 23.0486 3.5 22.9094 3.5 22.6701V16.2655M8.80096 5.8644L3.6822 15.8557C3.65896 15.9011 3.70233 15.9525 3.75396 15.9421C4.52102 15.7864 5.83465 15.8685 5.94071 17.2724C5.94419 17.3185 5.99832 17.3464 6.03951 17.3224C6.71494 16.9288 7.87191 16.6435 7.84685 18.2405C7.84604 18.2918 7.90917 18.3234 7.9519 18.2925C8.54951 17.8603 9.53555 17.4894 9.61223 18.8087C9.61589 18.8718 9.71053 18.894 9.73959 18.8373L14.8955 9.02385M8.80096 5.8644L9.49313 4.48202M8.80096 5.8644C8.78154 5.90319 8.81212 5.94824 8.857 5.94908C12.8307 6.02348 14.4474 7.93745 14.7727 9.00986C14.7889 9.06327 14.8683 9.07296 14.8955 9.02385M14.8955 9.02385L15.8531 7.29598M10.8386 1.90255L10.6865 2.18727M10.8386 1.90255C10.868 1.84874 10.9101 1.78929 10.9657 1.72734M10.8386 1.90255C12.1823 1.94047 15.3327 2.56467 17.1848 4.75815M17.4972 4.10861C17.502 4.12289 17.5005 4.13777 17.4937 4.15125L17.2878 4.55585M17.4972 4.10861C15.7385 2.02967 12.7505 1.40071 11.4764 1.3461M17.4972 4.10861C17.3992 3.81456 17.2147 3.41889 16.9377 3.00935M9.74244 3.95421L9.60212 4.21685C9.58075 4.25685 9.61088 4.30426 9.65775 4.30341C11.3429 4.27285 14.787 4.87253 15.8604 7.11838C15.8823 7.16428 15.9511 7.16688 15.9747 7.12173L16.1908 6.70728M9.74244 3.95421C11.2611 3.84099 14.6768 4.2331 16.1908 6.70728M9.74244 3.95421L9.95457 3.55718M16.1908 6.70728L16.2813 6.53386L16.4122 6.2765M9.95457 3.55718C11.3556 3.47245 14.6087 3.89769 16.4122 6.2765M9.95457 3.55718L10.205 3.08851M16.4122 6.2765L16.6529 5.80355M10.205 3.08851C11.4886 3.02804 14.5752 3.48639 16.6529 5.80355M10.205 3.08851L10.3954 2.73216M16.6529 5.80355L16.8582 5.4M10.3954 2.73216C11.7524 2.70477 14.9448 3.2 16.8582 5.4M10.3954 2.73216L10.5409 2.45971M16.8582 5.4L16.9701 5.18022M10.6865 2.18727C12.0956 2.23181 15.3474 2.84881 17.0819 4.96045M10.6865 2.18727L10.5409 2.45971M17.0819 4.96045L16.9701 5.18022M17.0819 4.96045L17.1848 4.75815M10.9657 1.72734C12.419 1.77627 15.718 2.41047 17.2878 4.55585M10.9657 1.72734C11.0783 1.6018 11.2463 1.46599 11.4764 1.3461M17.2878 4.55585L17.1848 4.75815M11.4764 1.3461C11.7476 1.20472 12.1052 1.08547 12.5599 1.03127M12.5599 1.03127C12.9805 0.981138 13.4842 0.986663 14.0798 1.08181C15.4426 1.29956 16.3786 2.18269 16.9377 3.00935M12.5599 1.03127C13.51 1.17513 15.7158 1.77215 16.9377 3.00935M10.5409 2.45971C11.8407 2.42662 14.9461 2.9244 16.9701 5.18022" stroke="white" stroke-linecap="round"/>
</g>
<path id="Icon_2" d="M6.80078 22.9094H21.4985" stroke="white" stroke-linecap="round"/>
</g>
</svg>
