<svg width="90" height="60" viewBox="0 0 90 60" fill="none" xmlns="http://www.w3.org/2000/svg">
<path d="M59.935 5.77728L87.0242 2.01874C88.4166 1.82554 89.2766 3.17223 88.2462 3.93235L76.8188 12.3616C76.7141 12.4389 76.5979 12.5073 76.4574 12.531C75.6149 12.6727 73.7575 12.2484 71.8594 11.6895M59 6.45585C59.9136 7.02098 61.8632 8.07045 63.5851 8.5726C64.2668 8.77139 64.8006 9.26334 64.7995 9.83415C64.7967 11.2352 62.9574 18.8569 63.2686 19.8521C63.4307 20.3705 64.008 20.2599 64.2391 19.7579C64.2957 19.6351 64.7378 18.2243 64.7995 18.0861M68.475 9.08613C71.7493 7.8728 79.0945 6.04892 86.0333 3.60021M63.975 20.0861L71.8594 11.6895M71.8594 11.6895C71.3641 11.5437 70.866 11.3887 70.3824 11.2322M64.975 7.58613L72.975 5.77728M64.7995 18.0861L71.0938 11.4929L70.3824 11.2322M64.7995 18.0861C64.8838 17.8972 65.0216 17.6244 65.7406 15.4912M70.3824 11.2322L65.7406 15.4912M70.3824 11.2322C70.1095 11.1439 69.8412 11.055 69.5806 10.9671M65.7406 15.4912C65.8351 15.2699 66.3426 13.7943 66.4408 13.5522M66.4408 13.5522C66.526 13.3422 67.0684 11.7896 67.1538 11.5677C67.1741 11.5149 67.1987 11.4641 67.2273 11.4154M66.4408 13.5522L69.5806 10.9671M69.5806 10.9671C69.4455 10.9215 69.3124 10.8762 69.1818 10.8312C69.1087 10.8061 69.0344 10.786 68.9596 10.7707M68.9596 10.7707C68.266 10.6288 67.5286 10.9025 67.2273 11.4154M68.9596 10.7707L67.2273 11.4154" stroke="black" stroke-width="1.2" stroke-linecap="round"/>
<path d="M27 58.1721C27.2556 54.8495 29.1082 52.0285 30.9877 49.3565C33.6221 45.6113 36.7854 42.6283 40.7575 40.313C41.5785 39.8344 45.6076 37.7291 45.97 40.0709C46.098 40.8975 45.6115 41.7268 45.0443 42.2712C44.3337 42.9534 43.0861 43.5334 42.1105 43.0545C40.6888 42.3566 41.574 40.1247 42.0749 39.1736C44.0838 35.359 47.5109 31.8684 51 29.5C53.6042 27.7323 57 25.5 59.5 23.5" stroke="black" stroke-opacity="0.94" stroke-linecap="round"/>
</svg>
