<svg width="80" height="80" viewBox="0 0 80 80" fill="none" xmlns="http://www.w3.org/2000/svg">
<path d="M27.7344 62.9466C28.8715 63.1704 56.2617 68.9826 63.8237 44.271C64.5185 42.0005 64.9629 39.8684 65.1851 37.8714M27.7344 62.9466C42.404 67.0972 51.684 64.073 57.3366 58.5035M27.7344 62.9466C25.9087 62.5873 24.1277 61.9307 22.4581 61.0214M65.1851 37.8714C65.4633 35.3711 65.3933 33.0827 65.031 30.9998M65.1851 37.8714C65.2141 43.9744 63.2811 52.6465 57.3366 58.5035M65.031 30.9998C62.0605 13.9239 39.436 10.663 27.8495 17.7757C23.3018 20.57 13.1576 28.1504 11.9642 41.7114C11.216 50.2121 16.0036 57.5058 22.4581 61.0214M65.031 30.9998C66.5596 36.3778 67.4175 48.004 60.3866 55.7703M57.3366 58.5035C58.4883 57.6673 59.5002 56.7495 60.3866 55.7703M22.4581 61.0214C30.9428 65.8114 50.4072 71.4673 60.3866 55.7703" stroke="#EBFF00" stroke-width="2" stroke-linecap="round"/>
<path d="M50.6967 33.7604C48.0196 26.5527 41.8009 33.052 39.995 37.4491C37.8257 35.4606 32.7563 31.8753 30.3406 35.9463C26.9308 41.6925 32.6298 50.3414 39.1297 49.0617C45.6709 47.7738 53.4569 41.1917 50.6967 33.7604Z" fill="#EBFF00" stroke="#EBFF00" stroke-width="2" stroke-linecap="round"/>
</svg>
