<svg width="24" height="24" viewBox="0 0 24 24" fill="none" xmlns="http://www.w3.org/2000/svg">
<path d="M10.9585 20.8579C11.3058 20.8096 19.7162 19.7578 19.3659 12.4235C19.3337 11.7496 19.2441 11.1366 19.1047 10.5809M10.9585 20.8579C15.5682 20.5724 17.9107 18.8795 18.959 16.8506M10.9585 20.8579C10.4007 20.9356 9.82554 20.9294 9.25653 20.8449M19.1047 10.5809C18.9303 9.88519 18.6779 9.27932 18.363 8.7563M19.1047 10.5809C19.7327 12.2117 20.0615 14.7169 18.959 16.8506M18.363 8.7563C15.7808 4.46844 8.99023 5.74943 6.40441 8.7563C5.38976 9.93716 3.26325 12.9319 4.29955 16.6753C4.94917 19.0219 7.05672 20.5184 9.25653 20.8449M18.363 8.7563C19.3455 10.0503 20.771 13.0805 19.5523 15.8286M18.959 16.8506C19.2029 16.5171 19.3986 16.1751 19.5523 15.8286M9.25653 20.8449C12.1654 21.3193 18.297 20.9802 19.5523 15.8286" stroke="black" stroke-linecap="round"/>
<path d="M4.02206 15C2.02206 16.5 0.819904 17.4892 1.02206 18.5C1.52206 21 9.52206 17.5 13.5221 15C17.1694 12.7204 24.0221 9 23.0221 7C22.6494 6.25464 19.5221 7 18.0221 8.00001" stroke="black"/>
<path d="M2.04592 11.9381L1.87402 11.9521C1.66621 11.969 1.4475 11.9296 1.29678 11.785M2.04592 11.9381C2.41837 11.9078 2.73387 11.6769 2.86089 11.3417L3.4524 9.78072C3.57942 9.44553 3.49615 9.06354 3.23731 8.79403L3.17868 8.73299C2.99744 8.54428 2.74622 8.41972 2.48632 8.44746C1.69308 8.53215 1.18761 9.00675 0.947256 9.58955M2.04592 11.9381C1.51757 11.9138 0.55814 11.4101 0.947256 9.58955M1.29678 11.785C0.769133 11.2789 0.636269 10.3436 0.947256 9.58955M1.29678 11.785C0.908082 11.5524 0.293994 10.7877 0.947256 9.58955" stroke="black" stroke-linecap="round"/>
<path d="M5.07422 5.57612L4.90543 5.45335C4.70136 5.30492 4.53109 5.09625 4.50507 4.84478M5.07422 5.57612C5.43994 5.84214 5.90935 5.87928 6.28673 5.67207L8.04419 4.70706C8.42157 4.49984 8.64215 4.08383 8.61397 3.63247L8.60759 3.53025C8.58785 3.2142 8.45394 2.90179 8.1936 2.72222C7.399 2.17415 6.56552 2.21068 5.89144 2.55558M5.07422 5.57612C4.60772 5.13707 4.11806 3.91828 5.89144 2.55558M4.50507 4.84478C4.41397 3.96436 5.01927 3.00184 5.89144 2.55558M4.50507 4.84478C4.32887 4.32484 4.35947 3.13909 5.89144 2.55558" stroke="black" stroke-linecap="round"/>
<path d="M12.4874 3.53099L12.4372 3.36262C12.3766 3.15907 12.3742 2.93609 12.4988 2.76445M12.4874 3.53099C12.5962 3.8958 12.909 4.1734 13.2954 4.24805L15.0947 4.59571C15.4811 4.67036 15.8748 4.52926 16.1116 4.23123L16.1653 4.16373C16.3311 3.95505 16.4136 3.68677 16.3306 3.43322C16.0773 2.65935 15.4636 2.23064 14.7878 2.08149M12.4874 3.53099C12.4055 3.00318 12.7508 1.97435 14.7878 2.08149M12.4988 2.76445C12.935 2.16354 13.9134 1.88851 14.7878 2.08149M12.4988 2.76445C12.6694 2.34326 13.366 1.61701 14.7878 2.08149" stroke="black" stroke-linecap="round"/>
</svg>
