<svg width="90" height="74" viewBox="0 0 90 74" fill="none" xmlns="http://www.w3.org/2000/svg">
<g clip-path="url(#clip0_89_3089)">
<path d="M43.6602 41.2753C44.331 41.1819 60.5709 39.151 59.8945 24.9889C59.8323 23.6877 59.6592 22.504 59.3901 21.431M43.6602 41.2753C52.5614 40.7239 57.0845 37.455 59.1088 33.5374M43.6602 41.2753C42.5833 41.4252 41.4726 41.4133 40.3739 41.2502M59.3901 21.431C59.0533 20.0876 58.566 18.9177 57.9578 17.9078M59.3901 21.431C60.6028 24.58 61.2376 29.4174 59.1088 33.5374M57.9578 17.9078C52.972 9.62823 39.8597 12.1017 34.8666 17.9078C32.9074 20.188 28.8013 25.9706 30.8023 33.1989C32.0567 37.73 36.1262 40.6197 40.3739 41.2502M57.9578 17.9078C59.855 20.4064 62.6077 26.2576 60.2543 31.5641M59.1088 33.5374C59.5798 32.8935 59.9576 32.2331 60.2543 31.5641M40.3739 41.2502C45.9908 42.1662 57.8305 41.5114 60.2543 31.5641" stroke="white" stroke-width="1.93094" stroke-linecap="round"/>
<path d="M30.2663 29.964C26.4045 32.8604 24.0832 34.7706 24.4735 36.7223C25.439 41.5497 40.8865 34.7914 48.6102 29.964C55.6531 25.5623 68.8851 18.3784 66.9541 14.5165C66.2345 13.0773 60.1959 14.5165 57.2995 16.4475" stroke="white" stroke-width="1.93094"/>
<path d="M26.4507 24.0517L26.1187 24.0787C25.7175 24.1113 25.2952 24.0352 25.0041 23.7561M26.4507 24.0517C27.1698 23.9932 27.7791 23.5474 28.0243 22.9001L29.1665 19.8859C29.4118 19.2387 29.251 18.5011 28.7512 17.9807L28.638 17.8628C28.288 17.4984 27.8029 17.2579 27.3011 17.3115C25.7693 17.475 24.7933 18.3915 24.3292 19.5168M26.4507 24.0517C25.4305 24.0048 23.5779 23.0322 24.3292 19.5168M25.0041 23.7561C23.9853 22.7788 23.7287 20.9729 24.3292 19.5168M25.0041 23.7561C24.2536 23.307 23.0678 21.8303 24.3292 19.5168" stroke="white" stroke-width="1.93094" stroke-linecap="round"/>
<path d="M32.298 11.7671L31.9721 11.53C31.578 11.2434 31.2492 10.8405 31.199 10.3549M32.298 11.7671C33.0042 12.2807 33.9106 12.3525 34.6393 11.9523L38.0328 10.089C38.7615 9.68885 39.1875 8.88556 39.133 8.01401L39.1207 7.81662C39.0826 7.20637 38.824 6.60312 38.3213 6.25638C36.787 5.19809 35.1776 5.26863 33.876 5.93461M32.298 11.7671C31.3972 10.9193 30.4517 8.5659 33.876 5.93461M31.199 10.3549C31.0231 8.65488 32.1919 6.79631 33.876 5.93461M31.199 10.3549C30.8588 9.35093 30.9179 7.06133 33.876 5.93461" stroke="white" stroke-width="1.93094" stroke-linecap="round"/>
<path d="M46.6125 7.81818L46.5155 7.49306C46.3983 7.10002 46.3938 6.66946 46.6344 6.33803M46.6125 7.81818C46.8225 8.52259 47.4264 9.05861 48.1725 9.20277L51.647 9.87408C52.3931 10.0182 53.1532 9.74577 53.6106 9.17029L53.7141 9.03995C54.0343 8.63699 54.1937 8.11898 54.0334 7.62939C53.5443 6.13509 52.3593 5.30728 51.0544 5.01928M46.6125 7.81818C46.4542 6.79901 47.121 4.81239 51.0544 5.01928M46.6344 6.33803C47.4768 5.17771 49.366 4.64664 51.0544 5.01928M46.6344 6.33803C46.9637 5.52474 48.3088 4.12239 51.0544 5.01928" stroke="white" stroke-width="1.93094" stroke-linecap="round"/>
</g>
<path d="M71.0158 56.2385C70.8172 56.3047 70.6848 56.3709 70.6186 56.4371C70.5192 56.5695 70.4861 56.7019 70.4861 56.8674V59.4494L76.6431 59.1183C76.9741 59.1183 77.2389 59.1846 77.4375 59.317C77.603 59.4825 77.7023 59.7142 77.7023 59.979C77.7023 60.2769 77.603 60.5086 77.4375 60.641C77.2389 60.8065 77.0072 60.8727 76.6762 60.8727L70.4861 61.2038V63.223C70.4861 63.6202 70.5523 63.885 70.751 64.0174C70.8834 64.216 71.1482 64.2822 71.5454 64.2822C72.8695 64.2822 74.0611 64.216 75.1204 64.0836C76.1465 63.9512 77.0403 63.7526 77.8347 63.4547C78.0996 63.3223 78.3644 63.3223 78.5961 63.3885C78.7947 63.4878 78.9602 63.6533 79.0926 63.885C79.1919 64.1829 79.1919 64.4146 79.1257 64.5801C78.9933 64.7788 78.8278 64.9443 78.563 65.0105C77.6692 65.3746 76.6431 65.6394 75.4845 65.7718C74.2928 65.9704 73.0019 66.0366 71.5454 66.0366C70.5523 66.0366 69.8241 65.8049 69.3607 65.3415C68.8642 64.8781 68.6324 64.1829 68.6324 63.223V56.8674C68.6324 56.1392 68.7649 55.6096 69.0959 55.2123C69.3607 54.8482 69.8241 54.6165 70.4199 54.5503L76.6431 54.2193C76.9741 54.2193 77.2389 54.2855 77.4375 54.4179C77.603 54.5834 77.7023 54.8151 77.7023 55.0799C77.7023 55.3778 77.603 55.6096 77.4375 55.742C77.2389 55.9075 77.0072 55.9737 76.6762 55.9737L71.0158 56.2385ZM82.9986 53.3917C82.9986 53.0276 83.0648 52.7297 83.1972 52.498C83.3296 52.2994 83.5613 52.2001 83.8924 52.2001C84.1903 52.2001 84.422 52.2994 84.6206 52.498C84.753 52.7297 84.8523 53.0276 84.8523 53.3917V67.4269C84.8523 67.8241 84.753 68.122 84.6206 68.2875C84.422 68.4862 84.1903 68.5524 83.8924 68.5524C83.5613 68.5524 83.3296 68.4862 83.1972 68.2875C83.0648 68.122 82.9986 67.8241 82.9986 67.4269V60.5417L79.5891 60.7734C79.225 60.8396 78.9602 60.8065 78.8278 60.641C78.6623 60.5086 78.5961 60.2769 78.5961 59.979C78.5961 59.7142 78.6623 59.4825 78.8278 59.317C78.9602 59.1846 79.225 59.1183 79.556 59.0521L82.9986 58.8204V53.3917Z" fill="white"/>
<path d="M50.3363 54.8151C51.5941 54.8151 52.4879 55.0799 53.0506 55.6096C53.5802 56.1392 53.845 56.9336 53.845 57.9267C53.7788 58.9529 53.4809 59.6811 52.9182 60.1445C52.3224 60.6079 51.3293 61.0383 50.0052 61.4355L48.317 61.8658C47.7874 62.0313 47.324 62.263 46.9268 62.594C46.5295 62.9582 46.3309 63.3554 46.3971 63.8188C46.3971 64.3484 46.5958 64.7788 46.9599 65.0436C47.2909 65.3415 47.8205 65.4739 48.5819 65.4739C49.6411 65.4739 50.5349 65.4077 51.2962 65.2753C52.0244 65.176 52.8851 64.9112 53.8119 64.514C54.0768 64.3815 54.3085 64.3484 54.5402 64.4146C54.7388 64.514 54.9043 64.6795 55.0367 64.9443C55.1029 65.2091 55.1029 65.4408 55.0036 65.6394C54.8712 65.838 54.6395 66.0035 54.3747 66.1359C53.3816 66.5663 52.4548 66.8642 51.6272 66.9966C50.7666 67.1621 49.7404 67.2283 48.5819 67.2283C47.1916 67.2283 46.1985 66.9304 45.5696 66.2683C44.9076 65.6394 44.5434 64.8119 44.5434 63.8188C44.4772 62.7596 44.7421 61.9651 45.3048 61.4355C45.8344 60.939 46.6951 60.5417 47.8536 60.2107L49.5087 59.7804C50.3032 59.5818 50.899 59.317 51.3293 59.0522C51.7265 58.8204 51.9251 58.4563 51.9582 57.9267C51.9582 57.5295 51.8258 57.1985 51.6272 56.9336C51.3955 56.7019 50.9652 56.5695 50.3363 56.5695C49.4756 56.5695 48.6812 56.6357 47.9529 56.7681C47.2247 56.9005 46.5626 57.066 45.9668 57.2647C45.6358 57.3971 45.4041 57.4302 45.2386 57.3309C45.04 57.2647 44.9407 57.066 44.8745 56.8012C44.7421 56.5364 44.7421 56.3047 44.8745 56.073C45.0069 55.8744 45.2717 55.7089 45.6689 55.5434C46.2647 55.3448 46.9599 55.1792 47.7543 55.0137C48.5488 54.8813 49.4094 54.8151 50.3363 54.8151ZM58.5786 54.2524C58.5786 53.8883 58.6448 53.5904 58.8103 53.3586C58.9427 53.16 59.1413 53.0607 59.4723 53.0607C59.7703 53.0607 60.002 53.16 60.2006 53.3586C60.3661 53.5904 60.4654 53.8883 60.4654 54.2524V66.5994C60.4654 66.9966 60.3661 67.2945 60.2006 67.46C60.002 67.6586 59.7703 67.7248 59.4723 67.7248C59.1413 67.7248 58.9427 67.6586 58.8103 67.46C58.6448 67.2945 58.5786 66.9966 58.5786 66.5994V60.8397L55.0367 61.0714C54.7057 61.1376 54.5071 61.1045 54.3747 60.939C54.2423 60.8066 54.1761 60.5748 54.1761 60.2769C54.1761 60.0121 54.2423 59.7804 54.3747 59.6149C54.5071 59.4825 54.7057 59.4163 55.0036 59.3501L58.5786 59.1184V54.2524ZM63.279 53.9545C63.279 53.5904 63.3453 53.2924 63.4777 53.0607C63.6101 52.8621 63.8418 52.7628 64.1728 52.7628C64.4707 52.7628 64.7024 52.8621 64.901 53.0607C65.0334 53.2924 65.1327 53.5904 65.1327 53.9545V67.4269C65.1327 67.8241 65.0334 68.122 64.901 68.2876C64.7024 68.4862 64.4707 68.5524 64.1728 68.5524C63.8418 68.5524 63.6101 68.4862 63.4777 68.2876C63.3453 68.122 63.279 67.8241 63.279 67.4269V53.9545Z" fill="white"/>
<path d="M31.1347 54.0869C32.3926 54.0869 33.3525 54.3186 34.0145 54.7821C34.6766 55.2786 34.9745 56.073 34.9745 57.1985C34.9083 58.2247 34.5442 58.9529 33.8821 59.4163C33.1539 59.8797 32.1277 60.3101 30.8037 60.7073L29.1155 61.1376C28.5858 61.3031 28.1224 61.5348 27.7252 61.8659C27.328 62.23 27.1294 62.6272 27.1956 63.0906C27.1956 63.6202 27.3942 64.0506 27.7583 64.3154C28.0893 64.6133 28.6189 64.7457 29.3803 64.7457C30.4395 64.7457 31.4326 64.6795 32.4257 64.4809C33.3856 64.3485 34.3456 64.0506 35.2724 63.6533C35.5372 63.5209 35.7689 63.4878 36.0006 63.554C36.1993 63.6533 36.3648 63.8189 36.4972 64.0837C36.5634 64.3485 36.5634 64.5802 36.4641 64.7788C36.3317 64.9774 36.1 65.1429 35.8351 65.2753C34.8421 65.7057 33.8159 66.0036 32.7567 66.2022C31.6643 66.4008 30.5389 66.5001 29.3803 66.5001C27.99 66.5001 26.997 66.2022 26.368 65.5401C25.706 64.9112 25.3419 64.0837 25.3419 63.0906C25.2757 62.0314 25.5405 61.2369 26.1032 60.7073C26.6328 60.2108 27.4935 59.8135 28.6521 59.4825L30.3071 59.0522C31.1016 58.8536 31.7636 58.5888 32.2932 58.324C32.7898 58.0922 33.0546 57.7281 33.0877 57.1985C33.0877 56.6689 32.9222 56.3048 32.5912 56.1061C32.2601 55.9406 31.7636 55.8413 31.1347 55.8413C30.274 55.8413 29.4796 55.9075 28.7514 56.0399C28.0231 56.1723 27.3611 56.3379 26.7652 56.5365C26.4342 56.6689 26.2025 56.702 26.037 56.6027C25.8384 56.5365 25.7391 56.3379 25.6729 56.073C25.5405 55.8082 25.5405 55.5765 25.6729 55.3448C25.8053 55.1462 26.0701 54.9807 26.4673 54.8152C27.0632 54.6166 27.7583 54.4511 28.5527 54.2855C29.3472 54.1531 30.2078 54.0869 31.1347 54.0869ZM39.3108 53.6897C39.3108 53.3256 39.377 53.0277 39.5094 52.796C39.6418 52.5974 39.8736 52.498 40.2046 52.498C40.5025 52.498 40.7342 52.5974 40.9328 52.796C41.0652 53.0277 41.1645 53.3256 41.1645 53.6897V67.7249C41.1645 68.1221 41.0652 68.42 40.9328 68.5855C40.7342 68.7841 40.5025 68.8503 40.2046 68.8503C39.8736 68.8503 39.6418 68.7841 39.5094 68.5855C39.377 68.42 39.3108 68.1221 39.3108 67.7249V53.6897Z" fill="white"/>
<path d="M4.71539 54.0604C4.45918 54.0604 4.28838 54.0035 4.17451 53.8612C4.06064 53.7473 4.0037 53.5765 4.0037 53.3203C4.0037 53.0925 4.06064 52.8933 4.17451 52.7509C4.28838 52.637 4.45918 52.5516 4.71539 52.5516H9.04246C9.95342 52.5516 10.6651 52.7509 11.1491 53.0925C11.6045 53.4911 11.8607 54.032 11.8607 54.7721C11.8607 55.2276 11.7184 55.6546 11.4622 55.9962C11.1775 56.3663 10.8644 56.7079 10.4089 57.021L12.5724 58.5298C12.8002 58.7291 12.971 58.9284 13.0564 59.0992C13.1133 59.3269 13.0848 59.5262 12.914 59.697C12.7432 59.9247 12.5724 60.0671 12.3732 60.0671C12.1454 60.124 11.8892 60.0101 11.633 59.7824L9.01399 57.9889L5.96796 60.0671C5.68329 60.2663 5.42708 60.3518 5.22781 60.2948C5.00007 60.2663 4.82926 60.124 4.71539 59.8963C4.54459 59.697 4.51612 59.4977 4.62999 59.27C4.68692 59.0992 4.8862 58.8999 5.17087 58.7291L9.52641 55.74C9.75415 55.5977 9.92495 55.4269 10.0673 55.2561C10.1812 55.1137 10.2666 54.9429 10.2666 54.7721C10.2666 54.5444 10.1527 54.3736 9.95342 54.2312C9.72568 54.1174 9.441 54.0604 9.04246 54.0604H4.71539ZM13.1133 57.2488C12.8571 57.2488 12.6863 57.1919 12.5724 57.0495C12.4301 56.9356 12.3732 56.7648 12.3732 56.5086C12.3732 56.2809 12.4301 56.0816 12.5724 55.9393C12.6863 55.8254 12.8571 55.74 13.1133 55.74H15.3338L15.163 53.0356C15.106 52.7225 15.163 52.4662 15.2768 52.267C15.3907 52.0962 15.59 52.0108 15.8747 52.0108C16.1309 52.0108 16.3301 52.0962 16.501 52.267C16.6148 52.4662 16.7002 52.7225 16.7572 53.0071L17.1557 59.6401C17.1842 59.9817 17.1272 60.2379 17.0134 60.3802C16.871 60.551 16.6718 60.6364 16.4155 60.6364C16.1309 60.6364 15.9316 60.5795 15.8177 60.4087C15.6469 60.2663 15.59 60.0101 15.59 59.6685L15.4192 57.2488H13.1133ZM19.6324 52.7794C19.6324 52.4662 19.6893 52.21 19.8032 52.0108C19.9171 51.84 20.1163 51.7546 20.401 51.7546C20.6572 51.7546 20.8565 51.84 21.0273 52.0108C21.1412 52.21 21.2266 52.4662 21.2266 52.7794V59.8963C21.2266 60.2379 21.1412 60.4941 21.0273 60.6364C20.8565 60.8072 20.6572 60.8642 20.401 60.8642C20.1163 60.8642 19.9171 60.8072 19.8032 60.6364C19.6893 60.4941 19.6324 60.2379 19.6324 59.8963V52.7794ZM12.0885 68.2657C12.0885 68.6643 12.2308 68.9489 12.544 69.0628C12.8286 69.2336 13.2557 69.2621 13.7681 69.2052C14.679 69.1482 15.7039 69.0059 16.8426 68.7781C17.9243 68.5504 18.9207 68.3227 19.8317 68.0949C20.0594 68.038 20.2302 68.0665 20.401 68.1803C20.5433 68.3227 20.6572 68.4935 20.7141 68.6643C20.7426 68.8351 20.7426 69.0059 20.6857 69.1767C20.6003 69.376 20.4579 69.4898 20.2871 69.5468C19.8032 69.7176 19.2908 69.8599 18.7214 69.9738C18.1236 70.1161 17.5258 70.23 16.928 70.3439C16.3017 70.4577 15.6754 70.5716 15.0776 70.6285C14.4513 70.7424 13.9104 70.7993 13.398 70.7993C12.4301 70.8563 11.7184 70.657 11.2629 70.173C10.779 69.7176 10.5228 69.2336 10.4658 68.6643C10.352 67.6964 10.5512 66.9562 11.1206 66.4723C11.633 66.0168 12.2878 65.7321 13.0279 65.6467L16.2163 65.3051C16.928 65.2482 17.5258 65.1058 17.9813 64.8781C18.4083 64.6788 18.636 64.3941 18.636 64.0241C18.636 63.7394 18.4937 63.5116 18.2659 63.3408C18.0097 63.227 17.6681 63.1416 17.2126 63.1416L11.6615 63.5116C11.3768 63.5686 11.206 63.5401 11.0921 63.3978C10.9498 63.2839 10.8928 63.0846 10.8928 62.8284C10.8928 62.6007 10.9498 62.4014 11.0921 62.2591C11.206 62.1452 11.3768 62.0883 11.633 62.0313L17.1842 61.6613C18.1805 61.6043 18.9492 61.7751 19.49 62.1452C20.0025 62.5438 20.2587 63.17 20.2587 64.0241C20.2587 64.8781 19.9171 65.5328 19.2338 65.9599C18.5506 66.4153 17.5827 66.7 16.3871 66.8139L13.4549 67.127C13.0279 67.184 12.6863 67.2978 12.4586 67.4686C12.1739 67.6679 12.06 67.9241 12.0885 68.2657Z" fill="white"/>
<path fill-rule="evenodd" clip-rule="evenodd" d="M4.1251 52.7067L4.1277 52.7041C4.25479 52.577 4.44281 52.4854 4.71539 52.4854H9.04246C9.96204 52.4854 10.6886 52.6865 11.1872 53.0384L11.1901 53.0404L11.1926 53.0427C11.6636 53.4548 11.9269 54.0143 11.9269 54.7721C11.9269 55.2414 11.7803 55.6825 11.5152 56.0359L11.5147 56.0366C11.2438 56.3888 10.9456 56.7176 10.5243 57.0208L12.6133 58.4776L12.616 58.48C12.8466 58.6818 13.0247 58.8877 13.1156 59.0696L13.1188 59.0761L13.1206 59.0831C13.1507 59.2037 13.1594 59.3211 13.1353 59.4333C13.1114 59.545 13.0559 59.6476 12.9642 59.7404C12.7947 59.9656 12.6097 60.1294 12.3813 60.1332C12.124 60.1935 11.8494 60.0624 11.5922 59.8347L9.01392 58.0691L6.00593 60.1213C6.00582 60.1214 6.00572 60.1215 6.00561 60.1215C5.71944 60.3218 5.44308 60.4226 5.2146 60.3599C4.9649 60.3269 4.78037 60.17 4.65984 59.9331C4.57163 59.8285 4.51644 59.7195 4.50035 59.6028C4.48409 59.4849 4.50872 59.3661 4.56872 59.2445C4.60234 59.1471 4.67329 59.0477 4.76822 58.9527C4.86491 58.856 4.98982 58.7607 5.13507 58.6734L9.49128 55.6838C9.71101 55.5465 9.87661 55.3814 10.016 55.2142C10.1249 55.0779 10.2004 54.9216 10.2004 54.7721C10.2004 54.5733 10.1039 54.4213 9.91916 54.2881C9.70454 54.182 9.43222 54.1266 9.04246 54.1266H4.71539C4.45169 54.1266 4.2571 54.0682 4.12511 53.9054C3.9956 53.7741 3.9375 53.5836 3.9375 53.3203C3.9375 53.0824 3.99687 52.867 4.12281 52.7096L4.1251 52.7067ZM4.17451 53.8612C4.28838 54.0035 4.45918 54.0604 4.71539 54.0604H9.04246C9.441 54.0604 9.72568 54.1174 9.95342 54.2312C10.1527 54.3736 10.2666 54.5444 10.2666 54.7721C10.2666 54.9429 10.1812 55.1137 10.0673 55.2561C9.92495 55.4269 9.75415 55.5977 9.52641 55.74L5.17087 58.7291C4.8862 58.8999 4.68692 59.0992 4.62999 59.27C4.51612 59.4977 4.54459 59.697 4.71539 59.8963C4.82926 60.124 5.00007 60.2663 5.22781 60.2948C5.42708 60.3518 5.68329 60.2663 5.96796 60.0671L9.01399 57.9889L11.633 59.7824C11.8892 60.0101 12.1454 60.124 12.3732 60.0671C12.5724 60.0671 12.7432 59.9247 12.914 59.697C13.0848 59.5262 13.1133 59.3269 13.0564 59.0992C12.971 58.9284 12.8002 58.7291 12.5724 58.5298L10.4089 57.021C10.4284 57.0076 10.4477 56.9942 10.4667 56.9806C10.8912 56.6786 11.1897 56.3504 11.4622 55.9962C11.7184 55.6546 11.8607 55.2276 11.8607 54.7721C11.8607 54.032 11.6045 53.4911 11.1491 53.0925C10.6651 52.7509 9.95342 52.5516 9.04246 52.5516H4.71539C4.45918 52.5516 4.28838 52.637 4.17451 52.7509C4.06064 52.8933 4.0037 53.0925 4.0037 53.3203C4.0037 53.5765 4.06064 53.7473 4.17451 53.8612ZM15.2218 52.2303C15.3523 52.0344 15.5772 51.9446 15.8747 51.9446C16.1484 51.9446 16.3645 52.0369 16.5478 52.2202L16.554 52.2264L16.5584 52.2341C16.677 52.4416 16.7643 52.7052 16.8221 52.9941L16.823 52.9986L17.2217 59.6346C17.2217 59.6348 17.2217 59.6351 17.2217 59.6353C17.2506 59.983 17.1945 60.2597 17.0651 60.4216L17.0642 60.4226C16.9073 60.6109 16.6881 60.7026 16.4155 60.7026C16.1295 60.7026 15.902 60.6468 15.768 60.4533C15.5786 60.2896 15.524 60.0086 15.5238 59.6709L15.3575 57.315H13.1133C12.8512 57.315 12.6573 57.2573 12.5254 57.0966C12.3647 56.9646 12.307 56.7708 12.307 56.5086C12.307 56.2707 12.3665 56.0516 12.5256 55.8925C12.6527 55.7654 12.8407 55.6738 13.1133 55.6738H15.2633L15.0971 53.0436C15.0387 52.7173 15.098 52.4465 15.2194 52.2341L15.2218 52.2303ZM15.163 53.0356L15.3338 55.74H13.1133C12.8571 55.74 12.6863 55.8254 12.5724 55.9393C12.4301 56.0816 12.3732 56.2809 12.3732 56.5086C12.3732 56.7648 12.4301 56.9356 12.5724 57.0495C12.6863 57.1919 12.8571 57.2488 13.1133 57.2488H15.4192L15.59 59.6685C15.59 60.0101 15.6469 60.2663 15.8177 60.4087C15.9316 60.5795 16.1309 60.6364 16.4155 60.6364C16.6718 60.6364 16.871 60.551 17.0134 60.3802C17.1272 60.2379 17.1842 59.9817 17.1557 59.6401L16.7572 53.0071C16.7002 52.7225 16.6148 52.4662 16.501 52.267C16.3301 52.0962 16.1309 52.0108 15.8747 52.0108C15.59 52.0108 15.3907 52.0962 15.2768 52.267C15.163 52.4662 15.106 52.7225 15.163 53.0356ZM19.7481 51.974C19.8787 51.7782 20.1035 51.6884 20.401 51.6884C20.6747 51.6884 20.8909 51.7807 21.0741 51.964L21.0804 51.9702L21.0848 51.9779C21.2038 52.1863 21.2928 52.4537 21.2928 52.7794V59.8963C21.2928 60.2469 21.2054 60.5198 21.079 60.6778L21.0767 60.6806L21.0741 60.6832C20.8871 60.8703 20.6686 60.9304 20.401 60.9304C20.1122 60.9304 19.8831 60.8734 19.7497 60.6755C19.6222 60.5142 19.5662 60.2391 19.5662 59.8963V52.7794C19.5662 52.4587 19.6244 52.1902 19.7457 51.9779L19.7481 51.974ZM19.8032 60.6364C19.9171 60.8072 20.1163 60.8642 20.401 60.8642C20.6572 60.8642 20.8565 60.8072 21.0273 60.6364C21.1412 60.4941 21.2266 60.2379 21.2266 59.8963V52.7794C21.2266 52.4662 21.1412 52.21 21.0273 52.0108C20.8565 51.84 20.6572 51.7546 20.401 51.7546C20.1163 51.7546 19.9171 51.84 19.8032 52.0108C19.6893 52.21 19.6324 52.4662 19.6324 52.7794V59.8963C19.6324 60.2379 19.6893 60.4941 19.8032 60.6364ZM12.1547 68.263V68.2657C12.1547 68.4577 12.1891 68.6165 12.2567 68.739C12.3237 68.8601 12.4249 68.9491 12.5666 69.0006L12.5726 69.0028L12.578 69.006C12.8428 69.1649 13.2507 69.196 13.7608 69.1394L13.7639 69.139C14.6712 69.0823 15.6929 68.9405 16.8293 68.7133C17.9103 68.4857 18.9057 68.2582 19.8156 68.0307C20.0596 67.9697 20.2499 68 20.4377 68.1252L20.4432 68.1289L20.4478 68.1335C20.5958 68.2815 20.7161 68.4608 20.777 68.6433L20.7786 68.6483L20.7794 68.6534C20.8091 68.8313 20.8098 69.0136 20.7485 69.1976L20.7476 69.2002L20.7465 69.2028C20.6533 69.4204 20.4958 69.5468 20.3087 69.6094C19.8222 69.7811 19.3072 69.9241 18.7356 70.0385C18.1367 70.181 17.538 70.295 16.9411 70.4087L16.9404 70.4089L16.9398 70.409L16.9383 70.4093C16.3141 70.5228 15.6864 70.6369 15.0867 70.6942C14.4596 70.8081 13.916 70.8654 13.3999 70.8655C12.4247 70.9226 11.6905 70.7228 11.2161 70.2199C10.7236 69.7559 10.4589 69.2584 10.4 68.6714C10.2849 67.6919 10.4851 66.9259 11.0772 66.4223C11.6005 65.9573 12.268 65.6677 13.0203 65.5809L13.0209 65.5809L16.211 65.2391C16.9177 65.1826 17.5064 65.0415 17.9517 64.8189L17.9533 64.8181C18.3663 64.6253 18.5698 64.3595 18.5698 64.0241C18.5698 63.7672 18.4437 63.559 18.2322 63.3983C17.9862 63.2902 17.6565 63.208 17.2148 63.2078L11.6702 63.5774C11.5263 63.6059 11.404 63.6144 11.3002 63.5945C11.1951 63.5742 11.1114 63.5252 11.0451 63.4448C10.883 63.3111 10.8266 63.0878 10.8266 62.8284C10.8266 62.5905 10.8862 62.3714 11.0453 62.2123C11.1743 62.0833 11.3633 62.0235 11.6186 61.9667L11.6236 61.9656L17.1804 61.5952C18.1851 61.5378 18.9702 61.7093 19.5274 62.0906L19.5308 62.0929C20.0641 62.5077 20.3249 63.1566 20.3249 64.0241C20.3249 64.8984 19.9735 65.5753 19.2698 66.0155C18.5741 66.479 17.5945 66.7653 16.3938 66.8797C16.3936 66.8798 16.3935 66.8798 16.3934 66.8798L13.4628 67.1928C13.0414 67.249 12.7129 67.3606 12.4983 67.5216L12.4965 67.5229C12.362 67.6171 12.271 67.7224 12.2163 67.8414C12.1615 67.9606 12.141 68.0982 12.1545 68.2602L12.1547 68.263ZM13.4549 67.127L16.3871 66.8139C17.5827 66.7 18.5506 66.4153 19.2338 65.9599C19.9171 65.5328 20.2587 64.8781 20.2587 64.0241C20.2587 63.17 20.0025 62.5438 19.49 62.1452C18.9492 61.7751 18.1805 61.6043 17.1842 61.6613L11.633 62.0313C11.3768 62.0883 11.206 62.1452 11.0921 62.2591C10.9498 62.4014 10.8928 62.6007 10.8928 62.8284C10.8928 63.0846 10.9498 63.2839 11.0921 63.3978C11.206 63.5401 11.3768 63.5686 11.6615 63.5116L17.2126 63.1416C17.6681 63.1416 18.0097 63.227 18.2659 63.3408C18.4937 63.5116 18.636 63.7394 18.636 64.0241C18.636 64.3941 18.4083 64.6788 17.9813 64.8781C17.5258 65.1058 16.928 65.2482 16.2163 65.3051L13.0279 65.6467C12.2878 65.7321 11.633 66.0168 11.1206 66.4723C10.5512 66.9562 10.352 67.6964 10.4658 68.6643C10.5228 69.2336 10.779 69.7176 11.2629 70.173C11.7184 70.657 12.4301 70.8563 13.398 70.7993C13.9104 70.7993 14.4513 70.7424 15.0776 70.6285C15.6754 70.5716 16.3017 70.4577 16.928 70.3439C17.5258 70.23 18.1236 70.1161 18.7214 69.9738C19.2908 69.8599 19.8032 69.7176 20.2871 69.5468C20.4579 69.4898 20.6003 69.376 20.6857 69.1767C20.7426 69.0059 20.7426 68.8351 20.7141 68.6643C20.6572 68.4935 20.5433 68.3227 20.401 68.1803C20.2302 68.0665 20.0594 68.038 19.8317 68.0949C18.9207 68.3227 17.9243 68.5504 16.8426 68.7781C15.7039 69.0059 14.679 69.1482 13.7681 69.2052C13.2557 69.2621 12.8286 69.2336 12.544 69.0628C12.2308 68.9489 12.0885 68.6643 12.0885 68.2657C12.06 67.9241 12.1739 67.6679 12.4586 67.4686C12.6863 67.2978 13.0279 67.184 13.4549 67.127Z" fill="white"/>
<defs>
<clipPath id="clip0_89_3089">
<rect width="46.3425" height="46.3425" fill="white" transform="translate(22.5 1)"/>
</clipPath>
</defs>
</svg>
