<svg width="246" height="34" viewBox="0 0 246 34" fill="none" xmlns="http://www.w3.org/2000/svg">
<rect width="34" height="34" rx="17" fill="#EA98E0"/>
<path d="M16.5928 24.7507C16.8968 24.7084 24.2558 23.7881 23.9493 17.3705C23.9212 16.7809 23.8427 16.2445 23.7208 15.7583M16.5928 24.7507C20.6264 24.5008 22.676 23.0195 23.5933 21.2443M16.5928 24.7507C16.1048 24.8186 15.6015 24.8132 15.1036 24.7393M23.7208 15.7583C23.5681 15.1495 23.3473 14.6194 23.0717 14.1618M23.7208 15.7583C24.2703 17.1853 24.5579 19.3773 23.5933 21.2443M23.0717 14.1618C20.8124 10.4099 14.8706 11.5307 12.608 14.1618C11.7202 15.195 9.8595 17.8154 10.7663 21.0909C11.3347 23.1441 13.1788 24.4536 15.1036 24.7393M23.0717 14.1618C23.9315 15.294 25.1788 17.9455 24.1124 20.3501M23.5933 21.2443C23.8067 20.9525 23.978 20.6532 24.1124 20.3501M15.1036 24.7393C17.6489 25.1544 23.014 24.8577 24.1124 20.3501" stroke="white" stroke-width="0.875" stroke-linecap="round"/>
<path d="M10.5193 19.6249C8.7693 20.9374 7.71742 21.803 7.8943 22.6874C8.3318 24.8749 15.3318 21.8124 18.8318 19.6249C22.0233 17.6303 28.0193 14.3749 27.1443 12.6249C26.8182 11.9727 24.0818 12.6249 22.7693 13.4999" stroke="white" stroke-width="0.875"/>
<path d="M8.79332 16.9459L8.64291 16.9582C8.46107 16.9729 8.2697 16.9385 8.13782 16.812M8.79332 16.9459C9.11921 16.9194 9.39528 16.7174 9.50642 16.4241L10.024 15.0582C10.1351 14.7649 10.0623 14.4307 9.83578 14.1949L9.78448 14.1415C9.6259 13.9763 9.40608 13.8673 9.17867 13.8916C8.48458 13.9657 8.04229 14.381 7.83198 14.891M8.79332 16.9459C8.33101 16.9247 7.49151 16.4839 7.83198 14.891M8.13782 16.812C7.67613 16.3691 7.55987 15.5508 7.83198 14.891M8.13782 16.812C7.79771 16.6085 7.26038 15.9393 7.83198 14.891" stroke="white" stroke-width="0.875" stroke-linecap="round"/>
<path d="M11.443 11.3792L11.2953 11.2717C11.1167 11.1419 10.9677 10.9593 10.945 10.7392M11.443 11.3792C11.763 11.6119 12.1737 11.6444 12.5039 11.4631L14.0417 10.6187C14.3719 10.4374 14.5649 10.0734 14.5402 9.67847L14.5347 9.58902C14.5174 9.31249 14.4002 9.03913 14.1724 8.88201C13.4771 8.40244 12.7478 8.43441 12.158 8.73619M11.443 11.3792C11.0348 10.995 10.6063 9.92856 12.158 8.73619M10.945 10.7392C10.8652 9.96888 11.3949 9.12667 12.158 8.73619M10.945 10.7392C10.7908 10.2843 10.8176 9.24677 12.158 8.73619" stroke="white" stroke-width="0.875" stroke-linecap="round"/>
<path d="M17.9262 9.58957L17.8823 9.44224C17.8292 9.26414 17.8271 9.06903 17.9362 8.91884M17.9262 9.58957C18.0214 9.90877 18.2951 10.1517 18.6332 10.217L20.2076 10.5212C20.5457 10.5865 20.8902 10.4631 21.0974 10.2023L21.1443 10.1432C21.2894 9.96061 21.3617 9.72587 21.289 9.50402C21.0674 8.82688 20.5304 8.45176 19.9391 8.32126M17.9262 9.58957C17.8545 9.12773 18.1567 8.2275 19.9391 8.32126M17.9362 8.91884C18.3179 8.39305 19.174 8.15239 19.9391 8.32126M17.9362 8.91884C18.0854 8.5503 18.6949 7.91483 19.9391 8.32126" stroke="white" stroke-width="0.875" stroke-linecap="round"/>
<path d="M51.4041 18.923V21.881H57.9661V23.445H43.1421V21.881H49.7211V18.923H44.9611V13.653H54.4641V11.426H44.8761V9.896H56.1641V15.149H46.6611V17.427H56.4871V18.923H51.4041ZM70.4142 11.97V11.613H60.9112V10.066H72.1142V11.511C72.1142 13.925 71.7572 17.036 71.2472 19.858L69.5812 19.569C70.0742 16.866 70.4142 13.721 70.4142 11.97ZM59.2622 23.445V21.881H74.0862V23.445H59.2622ZM88.9143 20.657H87.2143V8.842H88.9143V20.657ZM80.2273 18.073C77.8813 18.073 75.9943 16.696 75.9943 13.84V13.517C75.9943 10.627 77.8813 9.267 80.2273 9.267C82.5563 9.267 84.4433 10.627 84.4433 13.517V13.84C84.4433 16.696 82.5563 18.073 80.2273 18.073ZM80.2273 16.577C81.6383 16.577 82.7433 15.659 82.7433 13.806V13.534C82.7433 11.664 81.6383 10.763 80.2273 10.763C78.7993 10.763 77.6943 11.664 77.6943 13.534V13.806C77.6943 15.659 78.7993 16.577 80.2273 16.577ZM89.5773 24.618H78.4763V19.501H80.1763V23.071H89.5773V24.618ZM103.606 14.775V8.842H105.255V24.618H103.606V16.322H101.6V24.295H99.9854V9.08H101.6V14.775H103.606ZM94.3754 8.859H96.0924V11.154H98.9314V12.684H91.5194V11.154H94.3754V8.859ZM95.2594 14.095C97.0614 14.095 98.3024 15.54 98.3024 17.818V18.736C98.3024 21.014 97.0614 22.476 95.2594 22.476C93.4234 22.476 92.1654 21.014 92.1654 18.736V17.818C92.1654 15.54 93.4234 14.095 95.2594 14.095ZM96.7384 18.634V17.937C96.7384 16.492 96.1264 15.625 95.2424 15.625C94.3584 15.625 93.7294 16.492 93.7294 17.937V18.634C93.7294 20.079 94.3584 20.963 95.2424 20.963C96.1264 20.963 96.7384 20.079 96.7384 18.634ZM113.524 17.138L112.912 15.676C116.72 14.333 118.454 12.786 118.454 11.086H113.762V9.59H124.642V11.086H120.154C120.154 11.715 120.035 12.293 119.763 12.854L125.492 15.71L124.744 17.138L118.862 14.18C117.808 15.302 116.057 16.288 113.524 17.138ZM111.79 18.651H126.614V20.198H120.052V24.805H118.369V20.198H111.79V18.651ZM140.014 24.618V8.842H141.663V24.618H140.014ZM134.081 14.282H136.597V9.08H138.212V24.295H136.597V15.829H134.081V14.282ZM132.483 9.76V11.851C132.483 13.177 132.364 14.435 132.109 15.642L135.628 21.337L134.268 22.306L131.514 17.818C130.936 19.45 130.103 20.997 128.981 22.476L127.689 21.456C129.831 18.6 130.868 15.557 130.868 11.851V9.76H132.483ZM152.683 18.107H150.218C147.379 18.107 145.56 16.288 145.56 13.857C145.56 11.477 147.379 9.658 150.218 9.658H152.683C155.522 9.658 157.341 11.477 157.341 13.857C157.341 16.288 155.522 18.107 152.683 18.107ZM152.377 11.171H150.507C148.467 11.171 147.26 12.293 147.26 13.874C147.26 15.472 148.467 16.594 150.507 16.594H152.377C154.434 16.594 155.658 15.472 155.658 13.874C155.658 12.293 154.434 11.171 152.377 11.171ZM155.08 19.008V21.881H158.854V23.428H144.03V21.881H147.821V19.008H149.487V21.881H153.431V19.008H155.08Z" fill="black" fill-opacity="0.8"/>
</svg>
