<svg width="25" height="24" viewBox="0 0 25 24" fill="none" xmlns="http://www.w3.org/2000/svg">
<g id="logo" clip-path="url(#clip0_175_8449)">
<path id="Icon" d="M11.4599 20.8579C11.8073 20.8096 20.2176 19.7578 19.8673 12.4235C19.8351 11.7496 19.7455 11.1366 19.6061 10.5809M11.4599 20.8579C16.0696 20.5724 18.4121 18.8795 19.4604 16.8506M11.4599 20.8579C10.9021 20.9356 10.3269 20.9294 9.75793 20.8449M19.6061 10.5809C19.4317 9.88519 19.1793 9.27932 18.8644 8.7563M19.6061 10.5809C20.2341 12.2117 20.5629 14.7169 19.4604 16.8506M18.8644 8.7563C16.2823 4.46844 9.49163 5.74943 6.90582 8.7563C5.89117 9.93716 3.76465 12.9319 4.80096 16.6753C5.45057 19.0219 7.55812 20.5184 9.75793 20.8449M18.8644 8.7563C19.8469 10.0503 21.2724 13.0805 20.0537 15.8286M19.4604 16.8506C19.7043 16.5171 19.9 16.1751 20.0537 15.8286M9.75793 20.8449C12.6668 21.3193 18.7984 20.9802 20.0537 15.8286" stroke="white" stroke-linecap="round"/>
<path id="Vector 291" d="M4.52206 15C2.52206 16.5 1.3199 17.4893 1.52206 18.5C2.02206 21 10.0221 17.5 14.0221 15C17.6694 12.7204 24.5221 9.00005 23.5221 7.00004C23.1494 6.25468 20.0221 7.00004 18.5221 8.00005" stroke="white"/>
<path id="Icon_2" d="M2.54672 11.938L2.37482 11.952C2.167 11.9689 1.94829 11.9295 1.79758 11.785M2.54672 11.938C2.91917 11.9077 3.23467 11.6769 3.36168 11.3417L3.9532 9.78068C4.08021 9.44548 3.99694 9.0635 3.7381 8.79399L3.67947 8.73295C3.49823 8.54423 3.24701 8.41967 2.98711 8.44742C2.19387 8.5321 1.6884 9.00671 1.44805 9.58951M2.54672 11.938C2.01836 11.9138 1.05893 11.4101 1.44805 9.58951M1.79758 11.785C1.26993 11.2788 1.13706 10.3436 1.44805 9.58951M1.79758 11.785C1.40888 11.5524 0.794787 10.7876 1.44805 9.58951" stroke="white" stroke-linecap="round"/>
<path id="Icon_3" d="M5.57544 5.57614L5.40665 5.45336C5.20258 5.30493 5.03231 5.09627 5.00629 4.84479M5.57544 5.57614C5.94116 5.84216 6.41057 5.8793 6.78795 5.67208L8.54541 4.70707C8.92279 4.49985 9.14337 4.08385 9.11519 3.63249L9.10881 3.53026C9.08907 3.21422 8.95516 2.90181 8.69482 2.72224C7.90022 2.17417 7.06674 2.2107 6.39266 2.5556M5.57544 5.57614C5.10894 5.13708 4.61928 3.9183 6.39266 2.5556M5.00629 4.84479C4.91519 3.96438 5.52049 3.00186 6.39266 2.5556M5.00629 4.84479C4.83009 4.32486 4.86069 3.13911 6.39266 2.5556" stroke="white" stroke-linecap="round"/>
<path id="Icon_4" d="M12.9877 3.53104L12.9375 3.36267C12.8768 3.15912 12.8744 2.93614 12.999 2.7645M12.9877 3.53104C13.0964 3.89584 13.4092 4.17344 13.7956 4.2481L15.595 4.59576C15.9814 4.67041 16.375 4.52931 16.6119 4.23127L16.6655 4.16377C16.8313 3.95509 16.9139 3.68682 16.8309 3.43327C16.5776 2.65939 15.9639 2.23069 15.2881 2.08154M12.9877 3.53104C12.9057 3.00323 13.251 1.97439 15.2881 2.08154M12.999 2.7645C13.4353 2.16359 14.4137 1.88856 15.2881 2.08154M12.999 2.7645C13.1696 2.34331 13.8662 1.61705 15.2881 2.08154" stroke="white" stroke-linecap="round"/>
</g>
<defs>
<clipPath id="clip0_175_8449">
<rect width="24" height="24" fill="white" transform="translate(0.5)"/>
</clipPath>
</defs>
</svg>
