<svg width="28" height="28" viewBox="0 0 28 28" fill="none" xmlns="http://www.w3.org/2000/svg">
<rect width="28" height="28" rx="14" fill="#EA98E0"/>
<g clip-path="url(#clip0_323_10838)">
<path d="M13.304 19.9053C13.5356 19.8731 19.1425 19.1719 18.9089 14.2823C18.8875 13.8331 18.8277 13.4244 18.7348 13.0539M13.304 19.9053C16.3772 19.7149 17.9388 18.5863 18.6377 17.2337M13.304 19.9053C12.9321 19.957 12.5487 19.9529 12.1694 19.8966M18.7348 13.0539C18.6185 12.5901 18.4503 12.1862 18.2403 11.8375M18.7348 13.0539C19.1535 14.1411 19.3726 15.8113 18.6377 17.2337M18.2403 11.8375C16.5189 8.97896 11.9918 9.83295 10.2679 11.8375C9.59151 12.6248 8.17383 14.6213 8.8647 17.1169C9.29778 18.6813 10.7028 19.6789 12.1694 19.8966M18.2403 11.8375C18.8953 12.7002 19.8457 14.7204 19.0332 16.5524M18.6377 17.2337C18.8003 17.0114 18.9307 16.7834 19.0332 16.5524M12.1694 19.8966C14.1086 20.2129 18.1963 19.9868 19.0332 16.5524" stroke="white" stroke-linecap="round"/>
<path d="M8.68267 16C7.34934 17 6.5479 17.6594 6.68267 18.3333C7.01601 20 12.3493 17.6666 15.016 15.9999C17.4476 14.4802 22.016 11.9999 21.3493 10.6666C21.1009 10.1697 19.016 10.6666 18.016 11.3333" stroke="white"/>
<path d="M7.36578 13.9587L7.25118 13.968C7.11264 13.9793 6.96683 13.953 6.86635 13.8566M7.36578 13.9587C7.61408 13.9385 7.82441 13.7846 7.90909 13.5611L8.30343 12.5205C8.38811 12.297 8.3326 12.0423 8.16003 11.8627L8.12095 11.822C8.00012 11.6962 7.83264 11.6131 7.65938 11.6316C7.13055 11.6881 6.79357 12.0045 6.63333 12.393M7.36578 13.9587C7.01354 13.9425 6.37392 13.6067 6.63333 12.393M6.86635 13.8566C6.51459 13.5192 6.42601 12.8957 6.63333 12.393M6.86635 13.8566C6.60722 13.7016 6.19783 13.1918 6.63333 12.393" stroke="white" stroke-linecap="round"/>
<path d="M9.38232 9.71743L9.2698 9.63558C9.13375 9.53662 9.02024 9.39751 9.00289 9.22986M9.38232 9.71743C9.62614 9.89477 9.93908 9.91953 10.1907 9.78139L11.3623 9.13805C11.6139 8.9999 11.7609 8.72256 11.7422 8.42166L11.7379 8.35351C11.7247 8.14281 11.6355 7.93454 11.4619 7.81483C10.9322 7.44945 10.3765 7.4738 9.92714 7.70373M9.38232 9.71743C9.07132 9.42472 8.74489 8.6122 9.92714 7.70373M9.00289 9.22986C8.94216 8.64292 9.34569 8.00124 9.92714 7.70373M9.00289 9.22986C8.88542 8.88324 8.90583 8.09274 9.92714 7.70373" stroke="white" stroke-linecap="round"/>
<path d="M14.3264 8.35394L14.293 8.2417C14.2525 8.106 14.2509 7.95734 14.334 7.84292M14.3264 8.35394C14.3989 8.59715 14.6074 8.78221 14.865 8.83198L16.0646 9.06376C16.3222 9.11353 16.5847 9.01946 16.7426 8.82077L16.7783 8.77577C16.8889 8.63665 16.9439 8.4578 16.8886 8.28876C16.7197 7.77285 16.3105 7.48705 15.86 7.38761M14.3264 8.35394C14.2718 8.00207 14.502 7.31618 15.86 7.38761M14.334 7.84292C14.6248 7.44231 15.2771 7.25896 15.86 7.38761M14.334 7.84292C14.4477 7.56212 14.9121 7.07795 15.86 7.38761" stroke="white" stroke-linecap="round"/>
</g>
<defs>
<clipPath id="clip0_323_10838">
<rect width="16" height="16" fill="white" transform="translate(6 6)"/>
</clipPath>
</defs>
</svg>
