<svg width="130" height="48" viewBox="0 0 130 48" fill="none" xmlns="http://www.w3.org/2000/svg">
<g id="Frame 261">
<g id="Group 48">
<path id="Union" fill-rule="evenodd" clip-rule="evenodd" d="M107.802 8.19797C107.46 6.17962 105.594 4.78491 103.561 5.02735L84.5326 7.29681C82.4265 7.548 80.9227 9.45904 81.1739 11.5652C81.4251 13.6714 83.3361 15.1752 85.4423 14.924L97.2689 13.5135C96.659 14.2981 95.784 15.2785 94.5824 16.4119C91.9606 18.8847 87.8557 22.0172 81.7426 25.376C76.2436 28.3974 70.0322 29.0926 64.3236 28.6239C58.601 28.1541 53.676 26.5359 51.0269 25.2744C49.1118 24.3625 46.8201 25.1757 45.9082 27.0908C44.9962 29.0058 45.8094 31.2976 47.7245 32.2095C51.1855 33.8576 57.0141 35.7309 63.695 36.2794C70.3898 36.829 78.2316 36.0695 85.4415 32.108C92.0374 28.4838 96.6903 24.9825 99.8527 21.9999C100.639 21.2578 101.351 20.5317 101.986 19.8287L103.372 27.9887C103.727 30.0799 105.71 31.4872 107.801 31.1321C109.892 30.777 111.3 28.7939 110.945 26.7027L107.802 8.19797Z" fill="url(#paint0_linear_60_2696)"/>
<g id="Group 29">
<path id="Vector" d="M24.4418 38.1653L19.4705 20.6943C19.1637 19.6305 19 18.5463 19 17.8302C19 15.4981 20.6775 13.9023 23.112 13.9023C25.3828 13.9023 26.6717 15.2935 27.3672 18.4644L30.1291 31.046H30.5177L33.566 18.2803C34.3229 15.1503 35.5299 13.9023 37.8007 13.9023C40.0715 13.9023 41.3604 15.2116 42.0969 18.2803L45.1451 31.046H45.5542L48.091 18.4644C48.7047 15.3548 50.0959 13.9023 52.4076 13.9023C54.8012 13.9023 56.4583 15.4776 56.4583 17.7484C56.4583 18.4849 56.3355 19.5282 56.1718 20.0806L51.1801 38.1653C50.4232 40.8862 48.7866 42.2364 46.2293 42.2364C43.5289 42.2364 41.7491 40.9271 40.9512 37.8789L37.9848 26.668H37.678L34.6298 38.1653C33.9342 40.7635 32.1339 42.2364 29.6381 42.2364C27.1218 42.2364 25.301 41.2135 24.4418 38.1653Z" fill="url(#paint1_linear_60_2696)"/>
<path id="Vector 3" d="M52.1689 17.6032C53.1665 16.0159 55.6405 13.7937 57.5558 17.6032C59.4711 21.4127 62.4438 33.2495 63.6908 38.6917C64.9377 30.2109 68.2995 13.6849 71.771 15.4264C75.2426 17.1678 79.0034 31.6622 80.4498 38.6917" stroke="url(#paint2_linear_60_2696)" stroke-width="8.37952" stroke-linecap="round" stroke-linejoin="round"/>
</g>
</g>
</g>
<defs>
<linearGradient id="paint0_linear_60_2696" x1="114.636" y1="-4.65916" x2="99.555" y2="50.7286" gradientUnits="userSpaceOnUse">
<stop stop-color="#006FFF"/>
<stop offset="1" stop-color="#CEADFF"/>
</linearGradient>
<linearGradient id="paint1_linear_60_2696" x1="58.5392" y1="5.19686" x2="39.1151" y2="50.4863" gradientUnits="userSpaceOnUse">
<stop stop-color="#006FFF"/>
<stop offset="1" stop-color="#CEADFF"/>
</linearGradient>
<linearGradient id="paint2_linear_60_2696" x1="58.279" y1="17.9174" x2="53.9147" y2="43.4051" gradientUnits="userSpaceOnUse">
<stop stop-color="#327FFF"/>
<stop offset="1" stop-color="#C5ABFF"/>
</linearGradient>
</defs>
</svg>
