<svg width="80" height="50" viewBox="0 0 80 50" fill="none" xmlns="http://www.w3.org/2000/svg">
<g clip-path="url(#clip0_112_13697)">
<rect opacity="0.2" width="80" height="50" fill="#D9D9D9"/>
<path d="M30 40.5C29.2 40.9 29 44 29 45.5C30.2 45.9 46.1667 45.6667 54 45.5C53.3333 44.1667 52 41.2 52 40C52 38.5 61 38 62.5 37.5C64 37 67.5 33.5 67 31.5C66.5 29.5 63 28.5 58.5 28.5C54.9 28.5 52.6667 29.1667 52 29.5C52.5 28.8333 53.7 27.3 54.5 26.5C55.3 25.7 55.5 23.1667 55.5 22C56.6667 22.1667 59.2 21.7 60 18.5C61 14.5 58.5 12.5 57 12C55.8 11.6 54.5 12.1667 54 12.5C54.1667 10.3333 54.3 6 53.5 6C52.5 6 48 11 47 11C46 11 41 10 38 10C35 10 32.5 12 30 13.5C29.6 11.9 25.5 8.66471 23.5 7.24707C23.3333 9.16471 23 13.2 23 14C21 14 19 17 18.5 19.5C18 22 19.5 23 22 25.5C22 27.5 23 30.3333 23.5 31.5H18C16 31.8333 12.1 33 12.5 35C13 37.5 16 38.5 17 38.5C18 38.5 28 39.5 30 40.5Z" fill="white"/>
<path d="M23.3207 13.7363C23.2153 13.0741 23.3043 12.391 23.3158 11.7241C23.3323 10.7664 23.3546 9.81153 23.3889 8.85423C23.4074 8.33765 23.4084 7.82158 23.4084 7.30481C23.4084 7.18788 23.3565 7.06293 23.5546 7.15864C24.2864 7.51238 24.9722 8.1308 25.6107 8.62035C27.1824 9.82547 28.3825 11.3255 29.7035 12.7814C29.7687 12.8532 30.1731 13.3863 30.3125 13.3124C31.0507 12.9217 31.6653 12.4054 32.4613 12.0797C33.6183 11.6064 34.8404 11.1589 36.0473 10.8324C38.5693 10.1502 41.2205 10.3758 43.7749 10.7301C44.7154 10.8605 45.6409 11.0993 46.5863 11.1881C47.0715 11.2337 47.2096 11.0227 47.5656 10.7544C48.2663 10.2264 48.9333 9.67811 49.5876 9.09297C50.6143 8.1749 51.67 7.28537 52.6718 6.34008C52.6946 6.31865 53.5968 5.32826 53.5586 5.63359C53.8719 6.34008 54 6.88011 54 7.5V12M22.0052 26.7167C22.0052 26.9694 21.9343 27.2017 21.9223 27.4524C21.8534 28.901 22.3234 30.1472 23.0381 31.3893C23.8173 32.7433 25.1116 33.3308 26.5511 33.845C28.4754 34.5322 30.3682 34.7918 32.3931 34.7853C34.8896 34.7773 37.3556 34.4641 39.8088 34.035C41.8908 33.6708 43.8989 33.2159 45.9334 32.6366C46.9051 32.36 47.9439 32.0849 48.8422 31.6085C50.6702 30.639 52.3563 28.9932 53.7389 27.4768C54.9709 26.1256 55.2445 24.0948 55.2445 22.3315M44.5447 19.6123C45.7311 20.773 46.9573 21.2226 48.618 20.5966C49.2845 20.3453 49.5647 19.7511 49.8945 19.1738M27.0042 23.7344C28.0262 23.7344 29.0715 24.0259 30.0884 23.8806C30.9965 23.7509 31.7098 23.1386 32.3686 22.5456C32.6496 22.2927 33.5214 21.7173 33.1433 21.7173M36.1252 26.1025C37.114 25.7982 38.1703 25.3927 38.7856 24.5092C39.0882 24.0747 39.1809 23.58 39.2825 23.0718C39.3001 22.9841 39.3542 22.4614 39.4141 22.5846C39.8883 23.5595 40.1084 25.0223 41.2802 25.4008C41.8441 25.583 42.2702 25.5705 42.7029 25.1377M22.7945 31.9785C22.3505 31.847 21.8847 31.8206 21.4253 31.7982C20.1334 31.7352 18.8904 31.5077 17.5908 31.7398C15.9889 32.0258 14.4607 32.9589 13.1959 33.9469C12.6173 34.399 12.1867 34.8556 12.4748 35.5889C12.9583 36.8196 14.1845 37.8114 15.3349 38.3711C16.5576 38.9659 17.785 38.9985 19.111 39.1214C22.5568 39.4408 25.9775 40.0341 29.4209 40.3785C29.4681 40.3832 29.8887 40.3567 29.8887 40.4516C29.8887 40.8233 29.6122 41.3416 29.5281 41.694C29.2878 42.7006 29.2385 43.7311 29.0262 44.7392C29.005 44.8401 28.9337 44.9442 28.9337 45.0462M52.438 29.8739C53.513 29.6589 54.4977 29.1946 55.5953 29.0359C57.6877 28.7334 59.8663 28.6755 61.9489 29.0554C63.3633 29.3134 65.5799 29.6823 66.5679 30.8679C67.0382 31.4323 67.122 32.2196 66.8554 32.8948C66.2838 34.342 64.9583 35.7864 63.6445 36.6075C60.7806 38.3975 57.5013 38.9499 54.2457 39.5261C53.5443 39.6502 51.9126 39.6275 52.0092 40.637C52.1485 42.0914 52.7889 43.5705 53.2273 44.9588M22.8822 14.3502C22.5454 14.3502 22.1727 14.2255 21.8688 14.3843C20.2263 15.2429 18.5787 16.4909 18.3217 18.404C17.9287 21.3294 19.1852 24.7073 22.3755 25.3618C24.3969 25.7764 24.7886 23.4209 24.9384 21.9657C25.0299 21.0765 25.0103 20.1526 24.9676 19.2616C24.9231 18.3337 24.7814 17.4262 24.5876 16.5184C24.4788 16.0091 24.3789 15.2948 24.0906 14.8277C23.9435 14.5894 23.5927 14.3691 23.3402 14.2625C23.2017 14.204 22.92 14.1748 23.233 14.1748M25.1625 8.21113C25.38 7.71962 25.6045 7.20628 25.9226 6.76891C26.4066 6.1034 27.1331 5.8167 27.8764 5.52646C33.0328 3.51301 38.6982 4.06016 44.1257 4.08911C45.4155 4.09599 46.705 4.18597 47.9944 4.15732L48.0424 4.15625C48.9529 4.13588 49.9252 4.11413 50.7619 4.53249C51.3936 4.84836 51.952 5.43759 52.1749 6.10627M55.4199 23.8221C55.0856 24.0371 55.9937 23.9658 56.0533 23.9586C56.8326 23.8634 57.5728 23.7394 58.3628 23.7344C58.7543 23.732 59.7998 23.8273 59.8927 23.7344M54.3674 25.752C55.2169 25.899 56.0733 26.0308 56.9011 26.2782C57.2424 26.3802 57.5731 26.5417 57.9243 26.6095C57.9879 26.6218 58.4176 26.629 58.3141 26.629M21.8298 28.3828C20.7799 28.6724 19.498 28.4741 18.4045 28.5582C17.7621 28.6076 16.7591 28.5502 16.2168 28.8213M21.5667 26.5409C20.5102 26.3342 19.5664 25.9163 18.541 25.6201C18.0587 25.4807 17.3383 25.1377 16.9185 25.1377M67.0842 12.6841C67.8439 12.1513 68.6098 11.6488 69.4132 11.1834C69.5732 11.0908 70.8706 10.1559 71.1575 10.3502C71.4423 10.5432 71.6598 11.2387 71.7909 11.505C72.216 12.3683 72.6697 13.2114 73.126 14.0581C73.2653 14.3167 73.7621 15.1409 73.6132 15.476C73.0661 16.707 70.8547 17.2397 71.2842 18.8915C71.5343 19.8532 72.8485 20.1356 73.6327 19.676C74.1349 19.3816 74.425 18.7413 74.6072 18.2094C74.769 17.7368 74.5594 17.2124 74.3002 16.811C74.2022 16.6592 73.4616 16.0796 73.6619 16.2799M71.3818 17.2446C71.6496 17.8274 71.9107 18.4126 72.1712 18.9987M72.3464 17.0693C72.5796 17.8244 72.8701 18.5551 73.2235 19.2619M73.1357 16.6309C73.3608 17.2512 73.5352 18.3459 74.0128 18.8234M73.662 16.7183C73.8671 17.1459 73.9913 17.5094 74.1005 17.9461M6.48177 9.17578C5.24214 9.3086 6.6014 13.3341 8.2212 11.7143C8.98091 10.9546 7.76773 10.2593 7.27109 9.89689C7.07825 9.75617 6.4193 9.36741 6.35508 9.78483C6.28201 10.2598 6.48598 10.9032 6.6523 11.344C6.66559 11.3792 6.88467 11.7939 6.90566 11.4999C6.92212 11.2695 6.65648 10.3393 7.02747 10.7544C7.11868 10.8565 7.51758 11.1219 7.44649 11.1929M8.49902 11.0178C8.67872 10.2827 9.08661 9.6112 9.46375 8.96168C9.58347 8.7555 9.93064 7.72084 10.2433 7.8118C10.8988 8.00248 11.4829 8.62305 12.0559 8.98117C12.1547 9.04296 12.5287 9.18071 12.4456 9.26377M12.4455 9.52686C11.9841 10.4662 11.5003 11.3298 10.9156 12.1969C10.6961 12.5224 10.4247 12.8668 10.2529 13.2104M9.02512 12.9473C8.66972 12.9553 8.14871 12.9401 8.03116 13.376C7.85955 14.0124 8.39038 14.7483 8.91793 15.0424C10.0215 15.6576 10.5483 14.2399 9.47338 13.7025C9.34472 13.6382 9.20835 13.5908 9.07042 13.547M9.07042 13.547C8.93482 13.5039 8.79772 13.4643 8.66497 13.4152M9.07042 13.547C9.24363 13.8568 9.33683 14.2109 8.92419 14.0015M9.07042 13.547C8.99016 13.4035 8.89272 13.2695 8.82048 13.2055C8.68613 13.0865 8.53508 13.0083 8.61584 13.2688C8.6311 13.3181 8.64753 13.3668 8.66497 13.4152M8.66497 13.4152C8.6436 13.4072 8.62234 13.3991 8.60122 13.3907C8.07875 13.1817 8.69844 13.8725 8.84971 13.9607C8.87619 13.9762 8.90099 13.9897 8.92419 14.0015M8.66497 13.4152C8.73756 13.6164 8.8277 13.8104 8.92419 14.0015M8.92419 14.0015C9.04286 14.2365 9.17115 14.4672 9.28823 14.7013M8.9375 13.0347C9.58351 13.2192 9.89537 13.3752 10.253 13.9117M54.5 12.5965C54.0364 12.7025 53.8803 12.6966 53.5245 13.0643C52.3623 14.2652 51.9491 15.9645 52.3698 17.5468C52.6275 18.5163 52.9862 19.2894 53.5781 20.0951C53.9753 20.6358 54.4887 21.7442 55.2152 21.9222C56.3315 22.1958 57.9796 20.9793 58.7936 20.3785L58.8013 20.3728C59.7122 19.7005 59.9812 18.9966 60.1461 17.9366C60.3724 16.4815 60.0146 14.8338 59.2983 13.5515C58.8872 12.8157 58.2957 12.1541 57.5247 11.8072C57.1829 11.6534 56.8665 11.5287 56.482 11.6123C56.0638 11.7032 55.6995 11.8806 55.3273 12.0898C54.5 12.5965 54.8547 12.2587 54.5 12.5965Z" stroke="black" stroke-linecap="round"/>
</g>
<defs>
<clipPath id="clip0_112_13697">
<rect width="80" height="50" fill="white"/>
</clipPath>
</defs>
</svg>
