<svg width="70" height="100" viewBox="0 0 70 100" fill="none" xmlns="http://www.w3.org/2000/svg">
<g id="illust">
<path id="Vector 528" opacity="0.95" d="M8.45105 76.4978C6.80746 74.3077 10.049 72.8476 11.8752 72.3913L21.4627 68.9692L26.2565 65.5471L30.3655 62.8094L28.311 59.3873C28.0827 57.7903 27.7632 54.0488 28.311 51.8586C28.8589 49.6685 31.2786 48.6646 32.42 48.4365L35.1593 42.9611L37.8986 47.7521C38.8117 47.7521 41.0488 47.889 42.6924 48.4365C44.7469 49.1209 44.0621 48.4365 46.8014 47.0677C49.5407 45.6988 54.3345 38.8546 57.7586 34.0636C61.1827 29.2726 63.9221 27.9038 70.0855 25.8505C76.249 23.7972 78.3034 25.8505 80.3579 27.9038C82.4124 29.957 83.7821 38.1701 84.4669 40.9078C85.1517 43.6455 88.5759 48.4365 89.2607 50.4897C89.8085 52.1324 91.3152 52.9993 92 53.2274V57.334C91.3152 57.7903 89.5346 58.7028 87.891 58.7028C86.2474 58.7028 82.1841 50.4897 80.3579 46.3832V54.5963C80.3579 57.334 77.1621 65.7752 75.5641 69.6536C75.7924 70.7943 76.112 73.3495 75.5641 74.4446C75.0163 75.5396 72.14 76.726 70.7703 77.1823C70.3138 76.726 69.1268 75.4028 68.031 73.7601C66.9353 72.1175 67.5745 69.8817 68.031 68.9692C67.1179 69.6536 62.6528 73.2704 61.1827 73.7601C58.713 74.5829 52.9648 76.4978 46.1165 76.4978C41.9844 78.0161 38.2994 82.1589 34.4745 83.3421C34.0179 83.7984 31.8721 84.3003 29.6807 85.3954C27.4892 86.4904 25.5717 85.8516 24.8869 85.3954L24.202 79.2355C24.202 78.7793 25.0238 77.5929 28.311 76.4978C31.5982 75.4028 35.1593 71.4787 36.5289 69.6536L27.6262 75.129L16.6689 77.8667C16.2124 78.323 15.0254 79.3724 13.9296 79.92C12.56 80.6044 10.5055 79.2355 8.45105 76.4978Z" fill="white"/>
<path id="Vector" d="M31.0678 62.6789C29.2827 64.3682 26.951 65.3128 24.9333 66.6809C24.2319 67.1564 23.6549 67.7819 22.9146 68.2064C21.6645 68.923 20.2628 69.3282 18.9164 69.8111C16.8925 70.537 14.8185 71.0408 12.7819 71.7229C11.446 72.1703 9.24552 72.8191 9.03844 74.5461C8.78635 76.6483 9.78705 78.1154 11.6647 79.0433C13.3233 79.8629 15.1244 79.5582 16.5253 78.4093C17.1665 77.8834 17.4826 77.6382 18.3284 77.2999C20.8282 76.2999 23.3415 76.6984 25.8545 75.7324C28.2652 74.8057 30.5081 73.4299 32.8121 72.2654C33.7539 71.7894 35.4804 71.3611 36.1832 70.6507M40.2402 68.028C37.495 70.8031 34.187 72.5948 31.1462 74.9819C29.6752 76.1366 27.5502 78.1616 25.5899 78.3598C25.1136 78.4079 24.6822 78.2797 24.5413 78.9244C24.1362 80.778 24.5779 83.5755 25.5017 85.2245C26.0271 86.1624 28.5632 86.0381 29.4803 85.9179C30.6873 85.7597 31.7417 85.067 32.6357 84.2636C32.904 84.0226 33.3659 82.9854 33.1845 83.7188M33.3609 83.5405C35.5112 82.5055 44.1845 77.5414 46.4408 76.8328C53.2061 74.7082 53.5617 76.966 60.1921 74.447C61.6431 73.8957 63.1948 73.2858 64.4647 72.347C65.6481 71.4721 66.34 69.4332 66.8656 68.1271C67.3554 66.91 68.0077 65.3996 67.5809 64.1054M47.6486 47.1665C48.4119 46.7256 49.0462 46.1039 49.6674 45.4825C54.3507 40.7976 57.0678 34.5111 61.3288 29.4648C63.0713 27.4012 65.7833 26.4581 68.2865 25.7105C70.9802 24.906 73.8075 24.7187 76.5377 25.4926C79.7675 26.4081 81.2977 28.7821 82.486 31.763C83.1405 33.4047 83.6309 35.123 83.9462 36.8645C84.8547 41.8829 87.0676 46.9454 89.5613 51.3566C90.0721 52.2602 91.2078 52.8166 91.6094 53.7637C92.0918 54.9015 92.3019 57.2383 91.188 58.0331C90.4256 58.5771 89.4926 58.8492 88.5618 58.7265C87.4515 58.5801 86.6049 57.0871 86.0825 56.3194C84.2873 53.6816 82.5959 50.8479 81.3003 47.9193C80.1196 45.2504 79.2102 42.4607 78.3408 39.6777M79.752 45.2051C80.1014 48.6977 80.6297 51.7919 79.8892 55.2694C79.3178 57.9526 78.439 60.5927 77.6549 63.2138C77.4215 63.9941 76.2356 67.8396 75.9301 69.0979C75.6992 70.0493 75.7248 69.8628 75.8811 70.5738C76.1399 71.751 76.6446 73.2055 76.0281 74.3479C75.2518 75.7866 72.2715 78.0185 70.5698 77.3395C69.4895 76.9084 68.6562 75.6066 68.1101 74.6253C67.0565 72.732 67.9584 70.2889 68.2865 68.7413M38.4282 47.4399C40.0254 47.0855 41.4189 46.9613 42.9342 47.689C43.6229 48.0198 44.3271 48.2742 44.8984 48.8025C45.1547 49.0395 45.3716 49.3269 45.6378 49.5421M46.6777 49.8925C47.2291 49.363 47.9804 49.0292 48.6226 48.6273C49.4046 48.1379 50.3615 47.3295 51.3108 47.2336C51.6628 47.198 51.7468 48.1074 51.7922 48.3353C52.0916 49.837 51.9026 51.3944 51.8077 52.9058M52.0156 54.3073C52.4715 55.2552 52.8139 56.2493 52.9785 57.2933C53.1682 58.4974 53.3097 59.994 52.9399 61.1747C52.5928 62.2831 51.7235 63.2053 50.7909 63.8414C50.5575 64.0006 50.368 64.1238 50.1355 64.2751L50.09 64.3047C48.9548 65.0431 47.9851 64.7874 46.4408 65.4491C44.0376 66.4788 41.2004 66.1688 38.9618 66.1364C37.7143 66.1183 34.5412 65.4434 33.4099 64.5928C30.6049 62.4838 28.2433 59.6013 27.941 55.9579C27.8025 54.2887 28.1356 52.763 28.9847 51.3252C29.8094 49.9286 31.1767 49.1974 32.5356 48.4209M33.2289 47.2997C33.4911 46.1997 33.8986 45.1483 34.3226 44.1035C34.5387 43.5711 34.632 42.9719 34.908 42.4645C35.0661 42.174 35.6229 42.694 35.7207 42.7877C36.9107 43.9273 37.4237 45.5202 37.8736 46.9494M49.104 57.3205C50.7227 57.1409 52.4496 57.0755 54.0453 57.4568C54.8001 57.6371 55.4849 57.9859 56.1365 58.4028C56.231 58.4632 56.6146 58.7551 56.3137 58.5118M49.8666 60.1936C51.334 60.3446 52.805 60.5403 53.9605 61.5484C54.038 61.616 54.3915 62.0856 54.5113 62.0856M48.0642 61.9455C49.1273 62.7484 50.3999 63.5454 51.0143 64.7874C51.1062 64.9733 51.2092 65.3277 51.1837 65.3792M31.5651 52.2751C30.536 50.5333 29.1833 48.9178 27.683 47.5722C27.2408 47.1757 26.7884 46.9016 26.2618 46.6457C26.1895 46.6105 25.9493 46.5295 26.0192 46.4588M29.9013 53.3262C28.3244 52.0882 26.6995 50.5864 24.7868 49.9003C24.5253 49.8065 24.1718 49.6122 24.0088 49.6122M29.4161 55.1482C28.2209 54.9942 27.1831 54.3627 26.0038 54.1827C25.5615 54.1152 25.1147 54.116 24.6712 54.1671C24.4364 54.1942 24.4699 54.234 24.4247 54.097M36.2791 52.7656C36.9477 52.8622 37.5883 53.6605 37.8736 54.2372M43.4888 55.6387C44.2231 55.2304 44.8079 55.1789 45.6378 55.2883M39.7792 57.6008C39.4957 58.1581 39.7457 58.8585 40.5079 59.2009C40.6655 59.2717 41.0625 59.2125 41.0625 59.2125M39.3894 57.5307C38.6265 58.0975 38.4323 58.6021 37.5578 57.811C37.4811 57.7417 37.4077 57.6008 37.319 57.6008" stroke="black" stroke-linecap="round"/>
<path id="Vector_2" d="M29.427 35.6448C29.1355 35.2471 28.4241 34.7481 27.9278 35.0093C27.2496 35.3662 26.4257 36.1714 25.5906 35.9417C25.1327 35.8158 24.848 35.4054 24.597 35.0419M25.65 33.6104C25.2853 33.6109 24.9382 33.7415 24.5954 33.8463M23.7306 35.7229C23.7713 35.9371 23.8184 36.1456 23.8721 36.3556M22.3588 35.4317L21.7971 36.0889M21.5954 34.2958L20.7631 34.2383M22.3322 33.1344C22.1752 32.7491 22.0237 32.3625 21.8735 31.9746M23.5039 32.828C23.6669 32.6148 23.8335 32.4092 24.0071 32.2061" stroke="white" stroke-linecap="round"/>
<path id="Vector_3" d="M40.6741 34.6358C40.6567 34.1638 40.4888 33.8079 40.0024 33.7122C39.8103 33.6744 39.5977 33.6058 39.4029 33.5976C39.1835 33.5883 39.0981 33.7119 38.8708 33.5644C38.084 33.0538 37.6273 32.0829 37.0545 31.3836M38.628 30.0601C38.3251 30.0461 37.9993 29.9723 37.7199 29.9332M37.9307 28.204C37.8473 28.1395 37.4347 28.5874 37.478 28.5728M35.4408 26.8067L35.7899 27.8431M34.5824 28.7548C34.2665 28.6608 33.9498 28.5797 33.6307 28.4984M34.2843 30.2248C34.0483 30.3164 33.8761 30.3952 33.7668 30.6155M35.0875 31.3248C35.0224 31.4628 34.9813 31.592 34.9375 31.7359" stroke="white" stroke-linecap="round"/>
</g>
</svg>
