<svg width="80" height="60" viewBox="0 0 80 60" fill="none" xmlns="http://www.w3.org/2000/svg">
<path opacity="0.95" d="M16 44.9996C11 43.9996 13.5 16.9996 14 16.4996C15.1667 15.3331 18.4 12.8 22 12C25.6 11.2 30.1667 12.3333 32 13L36 8.5C36 7.1665 36.4 4.2995 38 3.4995C39.6 2.6995 41.3333 5.83283 42 7.4995L46 7.99964C46.5 6.99964 48 5.19964 50 5.99964C52 6.79964 51.8333 10.6663 51.5 12.4996L52.5 15.9996V18.9996H55.5C56.7 18.9996 60.3333 19.9996 62 20.4996L65 26.4996L65.5 28.4996L67.5 30.4996L68 32.9996L66.5 35.4996H65V36.9996L63.5 39.9996L58 42.9996L56.5 42.4996L57.5 45.4996L56.5 46.9996C55.3333 47.1663 52.9 47.3996 52.5 46.9996C52.1 46.5996 52.3333 45.833 52.5 45.4996C52.1667 45.333 51.2 44.8996 50 44.4996C48.5 43.9996 46.5 39.9996 46 40.9996C45.5 41.9996 42 42.9996 39.5 43.4996C37.5 43.8996 34.3333 43.9996 33 43.9996L31.5 46.9996C31.1 47.7996 29.6667 47.9996 29 47.9996C29.5 48.4996 30.5 49.6996 30.5 50.4996C30.5 51.4996 28.5 50.9996 27 50.4996C25.5 49.9996 23.5 46.9996 22 45.9996C21 46.4996 21 45.9996 16 44.9996Z" fill="white"/>
<path d="M52 15C46.8 15 44.5 10.3333 44 8H46L46.5 7L50 5.5L51.5 8V13C51.6667 13.1667 52 13.8 52 15Z" fill="black"/>
<path d="M38.5 2.99977C39.7 2.59977 41.3333 5.8331 42 7.49977C40.8 9.49959 37.5 8.99985 36 8.5C36.3333 6.83326 37.3 3.39977 38.5 2.99977Z" fill="black"/>
<path d="M54.4106 18.5081C54.1389 18.5575 53.9587 18.8178 54.0081 19.0894C54.0575 19.3611 54.3178 19.5413 54.5894 19.4919L54.4106 18.5081ZM62.5 21.5L62.0931 21.7906L62.5 21.5ZM65 28.4998L64.5257 28.3417L64.4279 28.6349L64.6464 28.8534L65 28.4998ZM67.5 33.9998L67.9287 34.2571L67.5 33.9998ZM64.5 34.9998L64.8536 34.6463L64.0404 35.1968L64.5 34.9998ZM63 40.4998L63.2774 40.9158L63 40.4998ZM56.5 42.4998L56.8536 42.1463L55.5771 40.8698L56.0149 42.6211L56.5 42.4998ZM52 45.4998L52.4642 45.6855L52.6949 45.1087L52.0822 45.0066L52 45.4998ZM48 41.4998C48 41.2237 47.7761 40.9998 47.5 40.9998C47.2239 40.9998 47 41.2237 47 41.4998H48ZM49.697 23.9594C49.9508 23.8506 50.0683 23.5567 49.9596 23.3028C49.8508 23.049 49.5569 22.9315 49.303 23.0402L49.697 23.9594ZM46.5 22.4998L46.0097 22.4017L46.5 22.4998ZM50.5 32.4998V31.9998H50.1703L50.0405 32.3028L50.5 32.4998ZM43.5 42.4998L43.6374 42.9806L43.5 42.4998ZM25.6581 42.5255C25.3962 42.4381 25.113 42.5797 25.0257 42.8417C24.9384 43.1037 25.0799 43.3868 25.3419 43.4741L25.6581 42.5255ZM28.5 47.5L28.6213 47.0149L26.87 46.5771L28.1464 47.8536L28.5 47.5ZM23.416 46.2226C23.2628 45.9929 22.9524 45.9308 22.7227 46.084C22.4929 46.2372 22.4308 46.5476 22.584 46.7774L23.416 46.2226ZM24.3123 27.1096C24.0967 26.9371 23.7821 26.972 23.6096 27.1877C23.4371 27.4033 23.472 27.7179 23.6877 27.8904L24.3123 27.1096ZM26 32.5L26.4932 32.5822H26.4932L26 32.5ZM24 40.5L23.8787 40.0149L23.8787 40.0149L24 40.5ZM21 41V40.5H19.5L20.7 41.4L21 41ZM23 45.5L22.7 45.1L23 45.5ZM16.7031 44.5431C16.4507 44.4309 16.1552 44.5446 16.0431 44.7969C15.9309 45.0493 16.0446 45.3448 16.2969 45.4569L16.7031 44.5431ZM27.9569 23.7969C27.8448 23.5446 27.5493 23.4309 27.2969 23.5431C27.0446 23.6552 26.9309 23.9507 27.0431 24.2031L27.9569 23.7969ZM32.5 28.5L32.9851 28.3787L32.8904 28H32.5V28.5ZM36.5 26L36.0528 26.2236L36.5 26ZM31.765 21.076C31.5308 20.9296 31.2224 21.0008 31.076 21.235C30.9296 21.4692 31.0008 21.7776 31.235 21.924L31.765 21.076ZM52.005 18.4293C51.966 18.7027 52.1559 18.9559 52.4293 18.995C52.7027 19.034 52.9559 18.8441 52.995 18.5707L52.005 18.4293ZM51.5 13H51V13.1667L51.1 13.3L51.5 13ZM50 5.5L50.3536 5.14645L50.2071 5H50V5.5ZM46 8L45.9178 8.4932L46.2072 8.54143L46.3904 8.31235L46 8ZM42 7.5L41.5257 7.65811L41.6396 8H42V7.5ZM36 8.5L36.3254 8.87963L36.4602 8.7641L36.4919 8.58944L36 8.5ZM32 13C32 13.2761 32.2239 13.5 32.5 13.5C32.7761 13.5 33 13.2761 33 13H32ZM39.2507 14.2562C39.2507 13.9801 39.0269 13.7562 38.7507 13.7562C38.4746 13.7562 38.2507 13.9801 38.2507 14.2562H39.2507ZM39.1052 15.0077L39.4857 14.6833L39.1052 15.0077ZM39.6795 15.426L39.6661 14.9262L39.6795 15.426ZM41.4475 15.3488C41.6985 15.2337 41.8087 14.937 41.6937 14.6859C41.5786 14.4349 41.2819 14.3247 41.0308 14.4397L41.4475 15.3488ZM45.0472 14.8689C44.857 14.6687 44.5405 14.6606 44.3403 14.8508C44.1401 15.041 44.132 15.3575 44.3222 15.5577L45.0472 14.8689ZM45.975 16.0428L45.9828 16.5427H45.9828L45.975 16.0428ZM46.6591 15.8159L46.9424 16.2279L46.6591 15.8159ZM46.2903 15.7237C46.2903 15.9999 46.5141 16.2237 46.7903 16.2237C47.0664 16.2237 47.2903 15.9999 47.2903 15.7237H46.2903ZM42.6205 16.3171C42.5606 16.0476 42.2935 15.8776 42.024 15.9375C41.7544 15.9974 41.5844 16.2645 41.6443 16.5341L42.6205 16.3171ZM42.9619 16.2446C42.6858 16.2446 42.4619 16.4685 42.4619 16.7446C42.4619 17.0208 42.6858 17.2446 42.9619 17.2446V16.2446ZM40.6729 17.0852C40.4381 16.9398 40.1299 17.0123 39.9845 17.2471C39.8392 17.4819 39.9117 17.7901 40.1465 17.9354L40.6729 17.0852ZM41.1399 17.9499L41.0609 18.4436L41.1399 17.9499ZM41.8382 17.9499L41.7575 18.4433L41.8382 17.9499ZM44.219 18.7398C44.4399 18.5741 44.4847 18.2607 44.319 18.0398C44.1533 17.8189 43.8399 17.7741 43.619 17.9398L44.219 18.7398ZM54.5894 19.4919C55.4515 19.3352 56.886 19.2627 58.3356 19.5645C59.7852 19.8663 61.192 20.5291 62.0931 21.7906L62.9069 21.2094C61.808 19.6709 60.1314 18.917 58.5394 18.5855C56.9474 18.254 55.3818 18.3315 54.4106 18.5081L54.5894 19.4919ZM62.0931 21.7906C64.5875 25.2827 64.9414 27.0946 64.5257 28.3417L65.4743 28.6579C66.0586 26.905 65.4125 24.7173 62.9069 21.2094L62.0931 21.7906ZM64.6464 28.8534C65.0291 29.2361 65.4939 29.6362 65.8947 30.0073C66.3111 30.3929 66.6864 30.771 66.9681 31.1654C67.2479 31.557 67.4188 31.9422 67.4552 32.3419C67.4909 32.7352 67.401 33.1929 67.0713 33.7426L67.9287 34.2571C68.349 33.5567 68.5091 32.8894 68.4511 32.2514C68.3937 31.6199 68.1271 31.0676 67.7819 30.5842C67.4386 30.1036 67.0014 29.6692 66.5741 29.2736C66.1311 28.8634 65.7209 28.5136 65.3536 28.1463L64.6464 28.8534ZM67.0713 33.7426C66.5197 34.6618 66.0113 34.9021 65.6797 34.9407C65.3302 34.9813 65.0242 34.8169 64.8536 34.6463L64.1464 35.3534C64.4758 35.6827 65.0698 36.0183 65.7952 35.934C66.5387 35.8475 67.2803 35.3378 67.9287 34.2571L67.0713 33.7426ZM64.0404 35.1968C64.2607 35.7108 64.4657 36.5949 64.3419 37.5211C64.2206 38.429 63.7862 39.3748 62.7226 40.0838L63.2774 40.9158C64.6138 40.0248 65.1794 38.8039 65.3331 37.6535C65.4843 36.5214 65.2393 35.4555 64.9596 34.8028L64.0404 35.1968ZM62.7226 40.0838C61.1948 41.1024 60.0007 41.9367 58.9971 42.35C58.5046 42.5528 58.1049 42.6326 57.7703 42.6033C57.4515 42.5753 57.1525 42.4452 56.8536 42.1463L56.1464 42.8534C56.5975 43.3044 57.111 43.5493 57.6829 43.5995C58.2389 43.6482 58.8079 43.5093 59.3779 43.2746C60.4993 42.8129 61.8052 41.8972 63.2774 40.9158L62.7226 40.0838ZM56.0149 42.6211C56.1457 43.1442 56.3427 43.7031 56.5093 44.2105C56.6815 44.7347 56.8237 45.2106 56.8794 45.6284C56.9355 46.0493 56.8927 46.3358 56.7753 46.5302C56.6675 46.7084 56.4394 46.902 55.9019 47.0095L56.0981 47.9901C56.8106 47.8476 57.3325 47.5412 57.631 47.0476C57.9198 46.57 57.9395 46.0128 57.8706 45.4962C57.8013 44.9765 57.631 44.4211 57.4594 43.8985C57.2823 43.3591 57.1043 42.8554 56.9851 42.3785L56.0149 42.6211ZM55.9019 47.0095C55.2905 47.1318 54.6907 47.2211 54.1523 47.2506C53.6074 47.2804 53.1593 47.2468 52.8345 47.1469C52.5171 47.0492 52.377 46.9098 52.318 46.7571C52.2509 46.5834 52.2351 46.2583 52.4642 45.6855L51.5358 45.3141C51.2649 45.9914 51.1866 46.6037 51.3852 47.1175C51.5918 47.6523 52.0454 47.9504 52.5405 48.1027C53.0282 48.2528 53.6114 48.2817 54.207 48.2491C54.8093 48.2161 55.4595 48.1178 56.0981 47.9901L55.9019 47.0095ZM52.0822 45.0066C50.7334 44.7818 49.7055 43.9921 49.0046 43.1744C48.6554 42.767 48.3952 42.3613 48.2245 42.0341C48.1391 41.8704 48.0787 41.7313 48.041 41.6261C47.9974 41.5044 48 41.4712 48 41.4998H47C47 41.6534 47.0495 41.8233 47.0996 41.9633C47.1557 42.1198 47.2359 42.3011 47.338 42.4967C47.5423 42.8883 47.8446 43.3576 48.2454 43.8252C49.0445 44.7575 50.2666 45.7178 51.9178 45.993L52.0822 45.0066ZM49.303 23.0402C48.7423 23.2805 47.987 23.4899 47.4601 23.4396C47.205 23.4152 47.088 23.3389 47.0347 23.2685C46.9832 23.2004 46.9051 23.0236 46.9903 22.5979L46.0097 22.4017C45.8949 22.976 45.946 23.4867 46.2371 23.8717C46.5266 24.2544 46.9659 24.3969 47.3649 24.435C48.1463 24.5097 49.091 24.2191 49.697 23.9594L49.303 23.0402ZM46.9903 22.5979C47.2405 21.3468 47.4816 20.3985 47.7677 19.7692C48.0626 19.1204 48.3135 18.9998 48.5 18.9998V17.9998C47.6866 17.9998 47.1874 18.6292 46.8573 19.3554C46.5184 20.1011 46.2595 21.1528 46.0097 22.4017L46.9903 22.5979ZM48.5 18.9998C49.0029 18.9998 49.714 19.0007 50.4178 19.118C51.1331 19.2372 51.7573 19.4642 52.1465 19.8534L52.8536 19.1463C52.2427 18.5354 51.3669 18.2624 50.5822 18.1316C49.786 17.9989 48.9971 17.9998 48.5 17.9998V18.9998ZM52.1465 19.8534C52.7068 20.4137 53.7515 21.2101 54.6625 22.4248C55.5526 23.6116 56.2325 25.109 56.0039 26.9378L56.9961 27.0618C57.2675 24.8906 56.4474 23.1381 55.4625 21.8248C54.4985 20.5395 53.2932 19.5859 52.8536 19.1463L52.1465 19.8534ZM56.0039 26.9378C55.766 28.8405 55.0627 30.0872 54.1197 30.8638C53.171 31.6451 51.92 31.9998 50.5 31.9998V32.9998C52.0801 32.9998 53.5791 32.6045 54.7554 31.6358C55.9373 30.6624 56.734 29.1591 56.9961 27.0618L56.0039 26.9378ZM50.0405 32.3028C49.2805 34.0761 48.4227 36.283 47.3176 38.1862C46.2035 40.105 44.9135 41.576 43.3627 42.019L43.6374 42.9806C45.5866 42.4237 47.0465 40.6446 48.1824 38.6884C49.3273 36.7166 50.2196 34.4235 50.9596 32.6968L50.0405 32.3028ZM43.3627 42.019C41.3516 42.5936 37.0636 43.1816 32.959 43.2567L32.9773 44.2565C37.1323 44.1805 41.514 43.5873 43.6374 42.9806L43.3627 42.019ZM32.959 43.2567C30.1069 43.3088 27.415 43.1111 25.6581 42.5255L25.3419 43.4741C27.2692 44.1166 30.1049 44.309 32.9773 44.2565L32.959 43.2567ZM32.4735 43.6838C32.3555 44.4853 32.023 45.5084 31.402 46.2279C31.0968 46.5816 30.7291 46.8541 30.2872 47.0023C29.8472 47.1499 29.3016 47.185 28.6213 47.0149L28.3787 47.9851C29.2195 48.1953 29.9615 48.1663 30.6052 47.9504C31.247 47.7351 31.759 47.3448 32.1591 46.8813C32.9487 45.9663 33.3292 44.7374 33.4628 43.8294L32.4735 43.6838ZM28.1464 47.8536C28.3881 48.0952 28.7451 48.4201 29.0183 48.6862C29.3179 48.9782 29.587 49.2641 29.7779 49.5367C29.9749 49.8182 30.0428 50.0219 30.0392 50.1587C30.0367 50.2538 29.9988 50.3999 29.7226 50.584L30.2774 51.416C30.7512 51.1001 31.0258 50.6837 31.0389 50.185C31.0509 49.7281 30.8376 49.3068 30.5971 48.9633C30.3505 48.6109 30.0259 48.2718 29.7161 47.97C29.3799 47.6424 29.1119 47.4048 28.8536 47.1464L28.1464 47.8536ZM29.7226 50.584C29.5109 50.7252 29.1743 50.7784 28.6744 50.6552C28.1796 50.5332 27.5929 50.2527 26.9649 49.834C25.7107 48.9979 24.3818 47.6712 23.416 46.2226L22.584 46.7774C23.6182 48.3288 25.0393 49.7521 26.4101 50.666C27.0946 51.1223 27.7892 51.4668 28.435 51.6261C29.0757 51.7841 29.7391 51.7748 30.2774 51.416L29.7226 50.584ZM23.6877 27.8904C24.4518 28.5017 25.8644 30.2721 25.5068 32.4178L26.4932 32.5822C26.9356 29.9279 25.2149 27.8316 24.3123 27.1096L23.6877 27.8904ZM25.5068 32.4178C25.3771 33.1958 25.3134 34.063 25.2588 34.9133C25.2036 35.7733 25.1577 36.6142 25.0661 37.3779C24.9739 38.1464 24.8401 38.7881 24.6299 39.256C24.4231 39.7163 24.1755 39.9407 23.8787 40.0149L24.1213 40.9851C24.8245 40.8093 25.2644 40.2837 25.542 39.6658C25.8162 39.0557 25.9636 38.2911 26.0589 37.4971C26.1548 36.6983 26.2026 35.8204 26.2568 34.9774C26.3116 34.1245 26.3729 33.3042 26.4932 32.5822L25.5068 32.4178ZM23.8787 40.0149C22.3012 40.4093 21.2779 40.5 21 40.5V41.5C21.3888 41.5 22.4988 41.3907 24.1213 40.9851L23.8787 40.0149ZM20.7 41.4C21.3427 41.882 22.189 42.6639 22.6765 43.4407C22.9213 43.831 23.0445 44.1713 23.0501 44.4417C23.055 44.6772 22.9739 44.8946 22.7 45.1L23.3 45.9C23.8261 45.5054 24.0617 44.9853 24.0499 44.4208C24.0389 43.8912 23.812 43.369 23.5235 42.9093C22.9443 41.9861 21.9907 41.118 21.3 40.6L20.7 41.4ZM22.7 45.1C22.0739 45.5696 21.007 45.6445 19.789 45.4559C18.6043 45.2724 17.4221 44.8627 16.7031 44.5431L16.2969 45.4569C17.0779 45.804 18.3457 46.2443 19.636 46.4441C20.893 46.6388 22.3261 46.6304 23.3 45.9L22.7 45.1ZM27.0431 24.2031C27.3939 24.9924 28.0718 26.1664 28.9828 27.1519C29.883 28.1257 31.0907 29 32.5 29V28C31.5093 28 30.5503 27.3743 29.7172 26.4731C28.8949 25.5836 28.2727 24.5076 27.9569 23.7969L27.0431 24.2031ZM32.0149 28.6213C32.2814 29.6871 32.8127 30.7551 33.4255 31.5041C33.7306 31.877 34.0785 32.1987 34.4513 32.3901C34.8304 32.5848 35.2862 32.6659 35.7236 32.4472L35.2764 31.5528C35.2138 31.5841 35.1071 31.6027 34.9081 31.5005C34.7027 31.3951 34.4569 31.1855 34.1995 30.8709C33.6873 30.2449 33.2186 29.3129 32.9851 28.3787L32.0149 28.6213ZM35.7236 32.4472C36.1231 32.2475 36.4343 31.8115 36.6643 31.3597C36.9065 30.884 37.1069 30.2941 37.2393 29.6655C37.5 28.4269 37.5194 26.9208 36.9472 25.7764L36.0528 26.2236C36.4806 27.0792 36.5 28.3231 36.2607 29.4595C36.1431 30.0184 35.9685 30.5223 35.7732 30.906C35.5657 31.3135 35.3769 31.5025 35.2764 31.5528L35.7236 32.4472ZM36.9472 25.7764C36.4967 24.8753 35.5065 23.9018 34.5204 23.0787C33.517 22.241 32.4479 21.5028 31.765 21.076L31.235 21.924C31.8854 22.3305 32.9164 23.0423 33.8796 23.8463C34.8601 24.6649 35.7033 25.5247 36.0528 26.2236L36.9472 25.7764ZM52.995 18.5707C53.0839 17.948 53.1353 16.9296 53.0091 15.8542C52.8838 14.787 52.5765 13.6021 51.9 12.7L51.1 13.3C51.6235 13.9979 51.8995 14.9797 52.0159 15.9708C52.1313 16.9538 52.0827 17.8853 52.005 18.4293L52.995 18.5707ZM52 13C52 12.257 52.0308 11.5567 52.0467 10.8551C52.0625 10.1633 52.0632 9.48195 51.9975 8.82525C51.8646 7.49626 51.4575 6.25035 50.3536 5.14645L49.6464 5.85355C50.5425 6.74965 50.8854 7.75374 51.0025 8.92475C51.0618 9.51805 51.0625 10.1492 51.047 10.8324C51.0317 11.5058 51 12.243 51 13H52ZM50 5C49.0411 5 48.1016 5.49122 47.3561 6.03303C46.5985 6.58359 45.9669 7.24103 45.6096 7.68765L46.3904 8.31235C46.6998 7.92564 47.2682 7.33308 47.9439 6.84197C48.6318 6.34211 49.3589 6 50 6V5ZM46.0822 7.5068C45.5781 7.42279 44.7728 7.29696 43.9916 7.19196C43.2229 7.08863 42.4392 7 42 7V8C42.3608 8 43.0771 8.07804 43.8584 8.18304C44.6272 8.28637 45.4219 8.41054 45.9178 8.4932L46.0822 7.5068ZM42.4743 7.34189C42.2126 6.55666 41.6944 5.39025 41.041 4.41015C40.7145 3.92034 40.341 3.45693 39.9327 3.11081C39.5296 2.76901 39.0428 2.5 38.5 2.5V3.5C38.7072 3.5 38.9704 3.60599 39.286 3.87357C39.5965 4.13682 39.9105 4.51716 40.209 4.96485C40.8056 5.85975 41.2874 6.94334 41.5257 7.65811L42.4743 7.34189ZM38.5 2.5C37.9396 2.5 37.5235 2.9163 37.2424 3.31197C36.9416 3.73536 36.68 4.29687 36.4573 4.88563C36.0097 6.06925 35.678 7.47599 35.5081 8.41056L36.4919 8.58944C36.6553 7.69068 36.9736 6.34742 37.3927 5.23937C37.6033 4.6823 37.8292 4.21256 38.0576 3.89116C38.3056 3.54204 38.4604 3.5 38.5 3.5V2.5ZM35.6746 8.12037C35.0774 8.6323 34.1829 9.47528 33.433 10.3495C33.0585 10.7861 32.7101 11.2418 32.4526 11.6764C32.2045 12.0952 32 12.5608 32 13H33C33 12.8392 33.0872 12.5673 33.313 12.1861C33.5295 11.8207 33.8374 11.4139 34.192 11.0005C34.9004 10.1747 35.756 9.3677 36.3254 8.87963L35.6746 8.12037ZM38.2507 14.2562C38.2507 14.7721 38.5251 15.0979 38.7247 15.3321L39.4857 14.6833C39.2887 14.4522 39.2507 14.3747 39.2507 14.2562H38.2507ZM38.7247 15.3321C38.7583 15.3715 38.8916 15.5484 39.0087 15.6563C39.1582 15.7943 39.3829 15.9341 39.6928 15.9258L39.6661 14.9262C39.6747 14.9259 39.6884 14.9283 39.6999 14.9335C39.7082 14.9372 39.7042 14.9375 39.6867 14.9213C39.668 14.9041 39.6446 14.8784 39.6095 14.8354C39.5917 14.8137 39.5752 14.7929 39.5538 14.7662C39.5337 14.7411 39.5105 14.7124 39.4857 14.6833L38.7247 15.3321ZM39.6928 15.9258C40.0504 15.9163 40.3806 15.8167 40.6673 15.7031C40.9429 15.5938 41.2318 15.4476 41.4475 15.3488L41.0308 14.4397C40.7598 14.5639 40.5438 14.6763 40.2987 14.7735C40.0647 14.8663 39.8583 14.921 39.6661 14.9262L39.6928 15.9258ZM44.3222 15.5577C44.6228 15.8741 45.0667 16.557 45.9828 16.5427L45.9672 15.5428C45.6054 15.5485 45.5273 15.3743 45.0472 14.8689L44.3222 15.5577ZM45.9828 16.5427C46.3301 16.5373 46.6742 16.4123 46.9424 16.2279L46.3759 15.4039C46.2508 15.4898 46.0955 15.5408 45.9672 15.5428L45.9828 16.5427ZM46.9424 16.2279C47.0458 16.1569 47.1079 16.0667 47.134 16.027C47.1502 16.0025 47.1634 15.98 47.1722 15.9647C47.1852 15.9421 47.1834 15.9448 47.1878 15.9374C47.1946 15.9258 47.1774 15.9578 47.1453 15.9939C47.1328 16.0081 47.078 16.07 46.9824 16.1129C46.9284 16.1372 46.8479 16.1615 46.7493 16.1554C46.6459 16.1491 46.5546 16.1113 46.4832 16.0581C46.36 15.9662 46.3203 15.8482 46.3116 15.8223C46.2978 15.7813 46.2935 15.7492 46.2923 15.7393C46.2895 15.7178 46.2903 15.7078 46.2903 15.7237H47.2903C47.2903 15.6967 47.2897 15.6555 47.2842 15.6125C47.2816 15.5919 47.2755 15.5515 47.2597 15.5043C47.2489 15.4722 47.2068 15.3502 47.0809 15.2564C46.9056 15.1256 46.7045 15.1415 46.5724 15.2009C46.4734 15.2454 46.4149 15.3105 46.3982 15.3292C46.3578 15.3746 46.3311 15.4215 46.327 15.4284C46.3204 15.4396 46.3063 15.4644 46.3057 15.4655C46.3033 15.4695 46.3017 15.4723 46.3005 15.4744C46.2992 15.4764 46.2987 15.4772 46.2988 15.4771C46.2988 15.477 46.2999 15.4754 46.3019 15.4727C46.3039 15.47 46.3074 15.4655 46.3124 15.4597C46.3212 15.4495 46.3419 15.4272 46.3759 15.4039L46.9424 16.2279ZM41.6443 16.5341C41.6848 16.7161 41.7948 16.8375 41.8808 16.9083C41.9672 16.9794 42.0614 17.0267 42.1379 17.0587C42.2912 17.1229 42.462 17.1614 42.5917 17.1853C42.7265 17.2102 42.8477 17.2246 42.9046 17.2316C42.9118 17.2325 42.9173 17.2332 42.9217 17.2338C42.9263 17.2344 42.9279 17.2346 42.9277 17.2346C42.9275 17.2346 42.9258 17.2343 42.923 17.2339C42.9208 17.2335 42.9148 17.2324 42.9068 17.2307C42.9018 17.2297 42.8814 17.2254 42.8557 17.2169C42.8438 17.2129 42.8155 17.2032 42.7816 17.1854C42.7691 17.1789 42.6569 17.1242 42.5811 16.9931C42.5334 16.9107 42.4968 16.7906 42.5223 16.6522C42.5464 16.5214 42.6153 16.4335 42.6642 16.3857C42.7484 16.3033 42.8389 16.2745 42.8533 16.2696C42.9047 16.2522 42.9475 16.2478 42.9508 16.2473C42.9637 16.2458 42.9734 16.2451 42.9769 16.2449C42.9813 16.2447 42.9843 16.2446 42.9851 16.2445C42.9861 16.2445 42.9806 16.2446 42.9619 16.2446V17.2446C42.9802 17.2446 43.0012 17.2446 43.0192 17.2439C43.0251 17.2437 43.0468 17.2431 43.072 17.24C43.0772 17.2393 43.1214 17.2346 43.1737 17.2169C43.1885 17.2119 43.2793 17.1829 43.3636 17.1004C43.4126 17.0525 43.4816 16.9645 43.5057 16.8336C43.5312 16.6951 43.4945 16.575 43.4468 16.4925C43.3709 16.3613 43.2585 16.3063 43.2457 16.2996C43.2114 16.2817 43.1826 16.2717 43.1701 16.2676C43.1432 16.2587 43.1211 16.2539 43.1138 16.2524C43.0959 16.2486 43.0802 16.2463 43.0741 16.2454C43.0591 16.2432 43.0414 16.2409 43.028 16.2393C42.9673 16.2317 42.8746 16.2206 42.7731 16.2019C42.6664 16.1822 42.5783 16.159 42.5237 16.1362C42.4964 16.1247 42.4994 16.1223 42.5165 16.1364C42.5334 16.1502 42.5962 16.2074 42.6205 16.3171L41.6443 16.5341ZM40.1465 17.9354C40.1798 17.9561 40.2201 17.9853 40.277 18.0286C40.3277 18.0673 40.3983 18.1226 40.4668 18.1718C40.5986 18.2665 40.8059 18.4028 41.0609 18.4436L41.2189 17.4561C41.2191 17.4562 41.2154 17.4556 41.2074 17.4528C41.1993 17.4499 41.1878 17.4452 41.1725 17.4373C41.1404 17.421 41.1011 17.3962 41.0504 17.3597C40.9973 17.3216 40.949 17.2835 40.8834 17.2335C40.824 17.1882 40.7507 17.1333 40.6729 17.0852L40.1465 17.9354ZM41.0609 18.4436C41.2451 18.4731 41.4231 18.4566 41.5296 18.4482C41.6583 18.438 41.7138 18.4362 41.7575 18.4433L41.919 17.4564C41.7353 17.4264 41.557 17.4429 41.4509 17.4513C41.3228 17.4614 41.2653 17.4636 41.2189 17.4561L41.0609 18.4436ZM41.7575 18.4433C41.8373 18.4564 41.9531 18.4972 42.1294 18.5733C42.284 18.64 42.4985 18.7402 42.698 18.816C43.0767 18.9597 43.6904 19.1362 44.219 18.7398L43.619 17.9398C43.5516 17.9904 43.4188 18.02 43.053 17.8811C42.8803 17.8155 42.7231 17.7404 42.5256 17.6552C42.3498 17.5793 42.133 17.4915 41.919 17.4564L41.7575 18.4433Z" fill="black"/>
<path d="M17.9635 11.4996C21.6967 10.6996 30.926 10.5 33 12.9997C30.4075 13.4999 25.2225 12.9997 22.1115 15.9996C19.2479 18.7609 19.0005 20.4996 17.9635 23.9996C16.9264 27.4996 19.0005 28.4996 19.0005 31.4996C19.0005 34.4996 14.8525 37.9996 14.8525 39.9996C14.8525 41.9996 19.519 47.4996 22.1115 47.9996C24.704 48.4996 27.2965 48.9996 26.778 50.9996C26.2595 52.9996 23.1485 52.4996 19.519 51.9996C15.8895 51.4996 14.334 48.9996 10.7045 45.9996C7.07497 42.9996 7.07494 39.9996 6.55645 36.9996C4.48244 33.4996 4.80162 26.9996 5.5195 22.4996C6.55643 15.9996 13.297 12.4996 17.9635 11.4996Z" fill="black"/>
<path d="M67 11.0315C67.2915 10.6338 68.0029 10.1348 68.4992 10.396C69.1774 10.7529 70.0013 11.5581 70.8364 11.3285C71.2943 11.2025 71.579 10.7921 71.83 10.4286M70.777 8.99715C71.1417 8.99765 71.4888 9.12817 71.8316 9.23301M72.6964 11.1096C72.6557 11.3238 72.6086 11.5323 72.5549 11.7424M74.0682 10.8184L74.6299 11.4756M74.8316 9.68253L75.6639 9.62506M74.0948 8.52112C74.2518 8.13587 74.4033 7.74918 74.5535 7.36134M72.9231 8.21476C72.7601 8.00154 72.5935 7.79596 72.4199 7.59284" stroke="black" stroke-linecap="round"/>
<path d="M55.7521 11.0225C55.7695 10.5505 55.9373 10.1946 56.4238 10.0989C56.6158 10.0611 56.8284 9.99254 57.0233 9.9843C57.2426 9.97502 57.328 10.0986 57.5553 9.95115C58.3422 9.44049 58.7988 8.46957 59.3716 7.77033M57.7981 6.44679C58.101 6.43284 58.4268 6.35899 58.7063 6.31996M58.4954 4.59071C58.5789 4.52624 58.9915 4.97413 58.9482 4.95955M60.9853 3.19345L60.6363 4.22978M61.8437 5.14152C62.1597 5.04753 62.4763 4.96645 62.7955 4.88515M62.1418 6.61154C62.3778 6.70314 62.5501 6.78195 62.6593 7.0022M61.3387 7.71154C61.4038 7.84952 61.4449 7.97867 61.4887 8.12266" stroke="black" stroke-linecap="round"/>
</svg>
