<svg width="74" height="70" viewBox="0 0 74 70" fill="none" xmlns="http://www.w3.org/2000/svg">
<path opacity="0.95" d="M1.38661 53.8998C-0.0221777 52.0328 2.75627 50.7881 4.32159 50.3991L12.5395 47.4819L16.6485 44.5647L20.1704 42.231L18.4094 39.3137C18.2138 37.9524 17.9398 34.7629 18.4094 32.8959C18.879 31.0289 20.9531 30.1731 21.9314 29.9787L24.2794 25.3111L26.6274 29.3952C27.41 29.3952 29.3276 29.5119 30.7363 29.9787C32.4973 30.5621 31.9103 29.9787 34.2583 28.8118C36.6063 27.6449 40.7153 21.8104 43.6502 17.7263C46.5852 13.6422 48.9332 12.4753 54.2161 10.725C59.4991 8.97468 61.2601 10.725 63.0211 12.4753C64.7821 14.2257 65.9561 21.227 66.5431 23.5608C67.13 25.8945 70.065 29.9786 70.652 31.729C71.1216 33.1292 72.413 33.8683 73 34.0627V37.5634C72.413 37.9524 70.8868 38.7303 69.478 38.7303C68.0692 38.7303 64.5864 31.729 63.0211 28.2283V35.2296C63.0211 37.5634 60.2818 44.7592 58.9121 48.0654C59.1078 49.0378 59.3817 51.216 58.9121 52.1495C58.4425 53.083 55.9771 54.0943 54.8031 54.4832C54.4118 54.0943 53.3944 52.9663 52.4552 51.566C51.516 50.1658 52.0638 48.2598 52.4552 47.4819C51.6725 48.0654 47.8453 51.1485 46.5852 51.566C44.4683 52.2674 39.5413 53.8998 33.6713 53.8998C30.1295 55.1941 26.9709 58.7256 23.6924 59.7343C23.3011 60.1232 21.4618 60.551 19.5834 61.4846C17.705 62.4181 16.0615 61.8735 15.4745 61.4846L14.8875 56.2336C14.8875 55.8446 15.5919 54.8333 18.4094 53.8998C21.227 52.9663 24.2794 49.6212 25.4534 48.0654L17.8224 52.7329L8.43052 55.0667C8.03919 55.4556 7.02173 56.3503 6.08254 56.817C4.90855 57.4005 3.1476 56.2336 1.38661 53.8998Z" fill="white"/>
<path d="M20.8773 42.1197C19.3503 43.5598 17.3557 44.365 15.6297 45.5312C15.0297 45.9366 14.5361 46.4698 13.9028 46.8316C12.8335 47.4426 11.6344 47.7879 10.4827 48.1996C8.75141 48.8184 6.97723 49.2479 5.23509 49.8294C4.09237 50.2108 2.21002 50.7638 2.03288 52.236C1.81724 54.0281 2.67326 55.2787 4.27945 56.0697C5.69824 56.7684 7.23894 56.5086 8.4373 55.5292C8.98581 55.081 9.25616 54.8719 9.97972 54.5835C12.1181 53.731 14.268 54.0708 16.4177 53.2473C18.4798 52.4573 20.3985 51.2845 22.3694 50.2918C23.175 49.886 24.6519 49.521 25.2531 48.9154M28.7235 46.6796C26.3752 49.0452 23.5455 50.5726 20.9444 52.6075C19.6861 53.5919 17.8683 55.3181 16.1913 55.487C15.7839 55.5281 15.4149 55.4187 15.2944 55.9683C14.9478 57.5485 15.3257 59.9332 16.1159 61.3389C16.5653 62.1384 18.7348 62.0324 19.5193 61.93C20.5518 61.7952 21.4537 61.2046 22.2185 60.5198C22.448 60.3144 22.8431 59.4302 22.688 60.0554M22.8389 59.9034C24.6782 59.021 32.0976 54.7894 34.0277 54.1854C39.8149 52.3742 40.119 54.2989 45.7908 52.1515C47.0321 51.6816 48.3594 51.1616 49.4457 50.3614C50.458 49.6156 51.0499 47.8775 51.4995 46.7641C51.9184 45.7265 52.4765 44.439 52.1114 43.3357M35.0609 28.896C35.7138 28.5202 36.2563 27.9902 36.7877 27.4605C40.794 23.4668 43.1183 18.1078 46.7632 13.8061C48.2538 12.0469 50.5736 11.243 52.715 10.6057C55.0192 9.9199 57.4377 9.76019 59.7732 10.4199C62.536 11.2004 63.845 13.2241 64.8616 15.7652C65.4214 17.1646 65.8409 18.6294 66.1106 20.114C66.8878 24.392 68.7808 28.7075 70.9139 32.4679C71.3509 33.2382 72.3224 33.7125 72.6659 34.5199C73.0785 35.4898 73.2583 37.4818 72.3054 38.1594C71.6532 38.6231 70.8551 38.8551 70.0589 38.7505C69.1091 38.6257 68.3849 37.3529 67.938 36.6985C66.4024 34.4499 64.9556 32.0343 63.8472 29.5378C62.8372 27.2626 62.0594 24.8845 61.3156 22.5121M62.5228 27.224C62.8216 30.2013 63.2736 32.839 62.6401 35.8034C62.1514 38.0907 61.3996 40.3413 60.7289 42.5757C60.5292 43.2409 59.5148 46.519 59.2535 47.5916C59.0559 48.4027 59.0779 48.2437 59.2116 48.8498C59.4329 49.8533 59.8647 51.0932 59.3373 52.0671C58.6733 53.2935 56.1238 55.1961 54.6681 54.6173C53.744 54.2498 53.0312 53.1401 52.5641 52.3035C51.6628 50.6896 52.4343 48.6069 52.715 47.2876M27.1735 29.1291C28.5398 28.827 29.7318 28.7211 31.0281 29.3415C31.6172 29.6234 32.2196 29.8403 32.7083 30.2906C32.9275 30.4927 33.1131 30.7377 33.3408 30.9212M34.2303 31.2199C34.702 30.7685 35.3447 30.4839 35.894 30.1413C36.563 29.7241 37.3815 29.035 38.1936 28.9532C38.4947 28.9229 38.5666 29.6981 38.6054 29.8924C38.8615 31.1725 38.6998 32.5002 38.6186 33.7885M38.7965 34.9832C39.1864 35.7913 39.4794 36.6388 39.6201 37.5287C39.7824 38.5552 39.9035 39.8309 39.5872 40.8374C39.2902 41.7823 38.5466 42.5685 37.7488 43.1107C37.5492 43.2464 37.3871 43.3515 37.1882 43.4804L37.1492 43.5056C36.1782 44.1351 35.3487 43.9172 34.0277 44.4812C31.9719 45.359 29.545 45.0947 27.63 45.0671C26.5628 45.0517 23.8485 44.4763 22.8807 43.7512C20.4813 41.9534 18.4611 39.4962 18.2025 36.3904C18.0841 34.9674 18.369 33.6669 19.0954 32.4411C19.8008 31.2506 20.9704 30.6273 22.1329 29.9654M22.7259 29.0096C22.9502 28.0719 23.2988 27.1756 23.6615 26.285C23.8464 25.8311 23.9262 25.3203 24.1623 24.8878C24.2975 24.6401 24.7738 25.0834 24.8574 25.1633C25.8754 26.1347 26.3143 27.4927 26.6991 28.7109M36.3059 37.5519C37.6905 37.3988 39.1677 37.3431 40.5327 37.6681C41.1784 37.8218 41.7642 38.1191 42.3216 38.4745C42.4024 38.526 42.7306 38.7748 42.4732 38.5674M36.9582 40.0011C38.2134 40.1298 39.4717 40.2967 40.4602 41.156C40.5265 41.2136 40.8289 41.614 40.9313 41.614M35.4163 41.4945C36.3257 42.179 37.4144 42.8584 37.9399 43.9172C38.0186 44.0756 38.1067 44.3777 38.0849 44.4216M21.3027 33.2509C20.4224 31.7661 19.2652 30.3889 17.9818 29.2419C17.6036 28.9039 17.2166 28.6702 16.7661 28.4521C16.7042 28.4221 16.4988 28.353 16.5586 28.2928M19.8794 34.1469C18.5305 33.0916 17.1406 31.8113 15.5043 31.2265C15.2807 31.1466 14.9783 30.9809 14.8388 30.9809M19.4643 35.7001C18.442 35.5688 17.5542 35.0305 16.5454 34.877C16.167 34.8195 15.7848 34.8202 15.4055 34.8638C15.2046 34.8868 15.2333 34.9207 15.1947 34.804M25.3351 33.669C25.907 33.7513 26.455 34.4319 26.6991 34.9235M31.5025 36.1182C32.1306 35.7702 32.6309 35.7263 33.3408 35.8196M28.3292 37.7909C28.0866 38.2659 28.3005 38.8629 28.9525 39.1548C29.0873 39.2152 29.4269 39.1648 29.4269 39.1648M27.9958 37.7311C27.3432 38.2142 27.1771 38.6444 26.4289 37.9701C26.3634 37.911 26.3005 37.7909 26.2247 37.7909" stroke="black" stroke-linecap="round"/>
</svg>
