<svg width="66" height="62" viewBox="0 0 66 62" fill="none" xmlns="http://www.w3.org/2000/svg">
<g id="Group 34549">
<path id="Vector 756" opacity="0.95" d="M16 54.1129C20 57.5 21 61.5 16 59.1129C14.0724 58.1927 3.99997 51.6129 3.99997 45C2.29432 41.6129 1.0014 38 1 32C5.5 21.6133 13.899 21.3 17.499 20.5C21.099 19.7 26.527 19.5 29.527 21.6133L33.527 17.1133C33.527 15.7798 33.927 12.9128 35.527 12.1128C37.127 11.3128 38.8603 14.4461 39.527 16.1128L43.527 16.6129C44.027 15.6129 45.527 13.8129 47.527 14.6129C49.527 15.4129 49.3603 19.2796 49.027 21.1129L50.027 24.6129V27.6129H53.027C54.227 27.6129 57.8603 28.6129 59.527 29.1129L62.527 35.1129L63.027 37.1129L65.027 39.1129L65.527 41.6129L64.027 44.1129H62.527V45.6129L61.027 48.6129L55.527 51.6129L54.027 51.1129L55.027 54.1129L54.027 55.6129C52.8603 55.7796 50.427 56.0129 50.027 55.6129C49.627 55.2129 49.8603 54.4463 50.027 54.1129C49.6937 53.9463 48.727 53.5129 47.527 53.1129C46.027 52.6129 44.027 48.6129 43.527 49.6129C43.027 50.6129 39.527 51.6129 37.027 52.1129C35.027 52.5129 31.8603 52.6129 30.527 52.6129L29.027 55.6129C28.627 56.4129 27.1937 56.6129 26.527 56.6129C27.027 57.1129 28.027 58.3129 28.027 59.1129C28.027 60.1129 26.027 59.6129 24.527 59.1129C23.027 58.6129 20.5 53.1129 16 54.1129Z" fill="white"/>
<path id="Vector 757" d="M49.5273 23.6133C44.3273 23.6133 42.0273 18.9466 41.5273 16.6133H43.5273L44.0273 15.6133L47.5273 14.1133L49.0273 16.6133V21.6133C49.194 21.7799 49.5273 22.4133 49.5273 23.6133Z" fill="black"/>
<path id="Vector 758" d="M36.0273 11.6131C37.2273 11.2131 38.8607 14.4464 39.5273 16.1131C38.3273 18.1129 35.0273 17.6131 33.5273 17.1133C33.8607 15.4465 34.8273 12.0131 36.0273 11.6131Z" fill="black"/>
<path id="Vector" d="M51.9379 27.1213C51.6662 27.1707 51.486 27.431 51.5354 27.7027C51.5848 27.9744 51.8451 28.1546 52.1168 28.1052L51.9379 27.1213ZM60.0273 30.1133L59.6205 30.4039L60.0273 30.1133ZM62.5273 37.1131L62.053 36.955L61.9553 37.2481L62.1738 37.4666L62.5273 37.1131ZM65.0273 42.6131L65.4561 42.8703L65.0273 42.6131ZM62.0273 43.6131L62.3809 43.2595L61.5678 43.81L62.0273 43.6131ZM60.5273 49.1131L60.8047 49.5291L60.5273 49.1131ZM54.0273 51.1131L54.3809 50.7595L53.1045 49.4831L53.5423 51.2344L54.0273 51.1131ZM49.5273 54.1131L49.9916 54.2988L50.2223 53.722L49.6095 53.6199L49.5273 54.1131ZM45.5273 50.1131C45.5273 49.8369 45.3035 49.6131 45.0273 49.6131C44.7512 49.6131 44.5273 49.8369 44.5273 50.1131H45.5273ZM47.2243 32.5727C47.4781 32.4639 47.5957 32.1699 47.4869 31.9161C47.3781 31.6623 47.0842 31.5447 46.8304 31.6535L47.2243 32.5727ZM44.0273 31.1131L43.5371 31.015L44.0273 31.1131ZM48.0274 41.1131V40.6131H47.6977L47.5678 40.9161L48.0274 41.1131ZM41.0274 51.1131L41.1647 51.5938L41.0274 51.1131ZM23.1855 51.1387C22.9235 51.0514 22.6403 51.193 22.553 51.455C22.4657 51.7169 22.6073 52.0001 22.8693 52.0874L23.1855 51.1387ZM26.0273 56.1133L26.1486 55.6282L24.3974 55.1904L25.6738 56.4668L26.0273 56.1133ZM20.9434 54.8359C20.7902 54.6062 20.4798 54.5441 20.25 54.6973C20.0202 54.8504 19.9581 55.1609 20.1113 55.3906L20.9434 54.8359ZM21.8397 35.7228C21.6241 35.5503 21.3094 35.5853 21.1369 35.8009C20.9644 36.0166 20.9994 36.3312 21.215 36.5037L21.8397 35.7228ZM23.5273 41.1133L24.0205 41.1955H24.0205L23.5273 41.1133ZM21.5273 49.1133L21.4061 48.6282L21.4061 48.6282L21.5273 49.1133ZM18.5273 49.6133V49.1133H17.0273L18.2273 50.0133L18.5273 49.6133ZM20.5273 54.1133L20.2273 53.7133L20.5273 54.1133ZM14.2304 53.1564C13.9781 53.0442 13.6826 53.1579 13.5704 53.4102C13.4583 53.6626 13.5719 53.958 13.8243 54.0702L14.2304 53.1564ZM25.4842 32.4102C25.3721 32.1579 25.0766 32.0442 24.8243 32.1564C24.5719 32.2685 24.4583 32.564 24.5704 32.8164L25.4842 32.4102ZM30.0273 37.1133L30.5124 36.992L30.4177 36.6133H30.0273V37.1133ZM34.0273 34.6133L33.5801 34.8369L34.0273 34.6133ZM29.2923 29.6893C29.0582 29.5429 28.7497 29.6141 28.6033 29.8483C28.457 30.0825 28.5282 30.3909 28.7623 30.5373L29.2923 29.6893ZM49.5324 27.0426C49.4933 27.3159 49.6833 27.5692 49.9566 27.6083C50.23 27.6473 50.4833 27.4574 50.5223 27.184L49.5324 27.0426ZM49.0273 21.6133H48.5273V21.7799L48.6273 21.9133L49.0273 21.6133ZM47.5273 14.1133L47.8809 13.7597L47.7345 13.6133H47.5273V14.1133ZM43.5273 16.6133L43.4451 17.1065L43.7345 17.1547L43.9178 16.9256L43.5273 16.6133ZM39.5273 16.1133L39.053 16.2714L39.167 16.6133H39.5273V16.1133ZM33.5273 17.1133L33.8527 17.4929L33.9875 17.3774L34.0193 17.2027L33.5273 17.1133ZM29.5273 21.6133C29.5273 21.8894 29.7512 22.1133 30.0273 22.1133C30.3035 22.1133 30.5273 21.8894 30.5273 21.6133H29.5273ZM36.7781 22.8695C36.7781 22.5933 36.5542 22.3695 36.2781 22.3695C36.0019 22.3695 35.7781 22.5933 35.7781 22.8695H36.7781ZM36.6325 23.621L37.013 23.2966L36.6325 23.621ZM37.2068 24.0393L37.1935 23.5394L37.2068 24.0393ZM38.9748 23.9621C39.2259 23.847 39.3361 23.5502 39.221 23.2992C39.106 23.0482 38.8092 22.938 38.5582 23.053L38.9748 23.9621ZM42.5745 23.4822C42.3843 23.282 42.0679 23.2739 41.8677 23.4641C41.6675 23.6543 41.6593 23.9707 41.8495 24.1709L42.5745 23.4822ZM43.5023 24.6561L43.5101 25.156H43.5101L43.5023 24.6561ZM44.1865 24.4292L44.4697 24.8412L44.1865 24.4292ZM43.8176 24.337C43.8176 24.6132 44.0415 24.837 44.3176 24.837C44.5938 24.837 44.8176 24.6132 44.8176 24.337H43.8176ZM40.1479 24.9304C40.088 24.6609 39.8209 24.4909 39.5513 24.5508C39.2818 24.6107 39.1118 24.8778 39.1717 25.1474L40.1479 24.9304ZM40.4893 24.8579C40.2131 24.8579 39.9893 25.0818 39.9893 25.3579C39.9893 25.6341 40.2131 25.8579 40.4893 25.8579V24.8579ZM38.2002 25.6985C37.9654 25.5531 37.6572 25.6256 37.5119 25.8604C37.3665 26.0952 37.4391 26.4034 37.6738 26.5487L38.2002 25.6985ZM38.6672 26.5631L38.5883 27.0569L38.6672 26.5631ZM39.3656 26.5631L39.2848 27.0566L39.3656 26.5631ZM41.7464 27.3531C41.9673 27.1874 42.012 26.874 41.8464 26.6531C41.6807 26.4322 41.3673 26.3874 41.1464 26.5531L41.7464 27.3531ZM52.1168 28.1052C52.9789 27.9485 54.4133 27.8759 55.8629 28.1778C57.3126 28.4796 58.7194 29.1423 59.6205 30.4039L60.4342 29.8227C59.3353 28.2842 57.6588 27.5303 56.0668 27.1988C54.4747 26.8673 52.9091 26.9448 51.9379 27.1213L52.1168 28.1052ZM59.6205 30.4039C62.1148 33.896 62.4687 35.7079 62.053 36.955L63.0017 37.2712C63.586 35.5183 62.9399 33.3306 60.4342 29.8227L59.6205 30.4039ZM62.1738 37.4666C62.5565 37.8493 63.0213 38.2495 63.422 38.6206C63.8384 39.0062 64.2137 39.3843 64.4955 39.7787C64.7752 40.1703 64.9462 40.5555 64.9825 40.9552C65.0183 41.3485 64.9284 41.8062 64.5986 42.3558L65.4561 42.8703C65.8763 42.17 66.0364 41.5027 65.9784 40.8647C65.921 40.2332 65.6545 39.6809 65.3092 39.1975C64.9659 38.7169 64.5288 38.2825 64.1014 37.8868C63.6584 37.4766 63.2482 37.1268 62.8809 36.7595L62.1738 37.4666ZM64.5986 42.3558C64.047 43.2751 63.5386 43.5154 63.2071 43.5539C62.8576 43.5946 62.5516 43.4302 62.3809 43.2595L61.6738 43.9666C62.0031 44.296 62.5971 44.6316 63.3226 44.5472C64.0661 44.4608 64.8077 43.9511 65.4561 42.8703L64.5986 42.3558ZM61.5678 43.81C61.7881 44.3241 61.993 45.2081 61.8692 46.1344C61.7479 47.0423 61.3135 47.988 60.25 48.6971L60.8047 49.5291C62.1412 48.6381 62.7067 47.4172 62.8604 46.2668C63.0117 45.1347 62.7666 44.0688 62.4869 43.4161L61.5678 43.81ZM60.25 48.6971C58.7221 49.7156 57.5281 50.55 56.5245 50.9632C56.0319 51.1661 55.6322 51.2459 55.2976 51.2166C54.9789 51.1886 54.6798 51.0584 54.3809 50.7595L53.6738 51.4666C54.1249 51.9177 54.6383 52.1626 55.2102 52.2127C55.7662 52.2615 56.3353 52.1226 56.9052 51.8879C58.0266 51.4262 59.3326 50.5105 60.8047 49.5291L60.25 48.6971ZM53.5423 51.2344C53.673 51.7575 53.8701 52.3163 54.0367 52.8238C54.2088 53.348 54.351 53.8239 54.4067 54.2417C54.4628 54.6626 54.4201 54.9491 54.3026 55.1434C54.1948 55.3217 53.9667 55.5153 53.4293 55.6228L53.6254 56.6034C54.3379 56.4609 54.8599 56.1545 55.1583 55.6609C55.4471 55.1833 55.4668 54.6261 55.398 54.1095C55.3287 53.5898 55.1584 53.0344 54.9868 52.5118C54.8096 51.9723 54.6316 51.4687 54.5124 50.9918L53.5423 51.2344ZM53.4293 55.6228C52.8179 55.7451 52.218 55.8343 51.6797 55.8638C51.1347 55.8937 50.6867 55.8601 50.3619 55.7602C50.0444 55.6625 49.9043 55.5231 49.8453 55.3704C49.7782 55.1967 49.7625 54.8715 49.9916 54.2988L49.0631 53.9274C48.7922 54.6046 48.714 55.217 48.9125 55.7308C49.1191 56.2656 49.5727 56.5636 50.0678 56.716C50.5555 56.866 51.1387 56.895 51.7344 56.8623C52.3367 56.8293 52.9868 56.7311 53.6254 56.6034L53.4293 55.6228ZM49.6095 53.6199C48.2608 53.3951 47.2328 52.6053 46.532 51.7877C46.1828 51.3803 45.9226 50.9746 45.7519 50.6474C45.6664 50.4837 45.6061 50.3446 45.5684 50.2394C45.5248 50.1177 45.5273 50.0845 45.5273 50.1131H44.5273C44.5273 50.2667 44.5768 50.4366 44.6269 50.5766C44.683 50.7331 44.7632 50.9144 44.8653 51.11C45.0696 51.5016 45.3719 51.9709 45.7727 52.4385C46.5719 53.3708 47.7939 54.3311 49.4451 54.6063L49.6095 53.6199ZM46.8304 31.6535C46.2696 31.8938 45.5143 32.1032 44.9874 32.0529C44.7323 32.0285 44.6153 31.9522 44.5621 31.8818C44.5106 31.8137 44.4325 31.6369 44.5176 31.2111L43.5371 31.015C43.4222 31.5893 43.4733 32.1 43.7645 32.485C44.0539 32.8677 44.4932 33.0102 44.8923 33.0483C45.6737 33.123 46.6184 32.8323 47.2243 32.5727L46.8304 31.6535ZM44.5176 31.2111C44.7678 29.9601 45.009 29.0118 45.295 28.3825C45.59 27.7337 45.8408 27.6131 46.0274 27.6131V26.6131C45.214 26.6131 44.7148 27.2425 44.3847 27.9687C44.0457 28.7144 43.7868 29.7661 43.5371 31.015L44.5176 31.2111ZM46.0274 27.6131C46.5302 27.6131 47.2413 27.614 47.9452 27.7313C48.6605 27.8505 49.2847 28.0775 49.6738 28.4666L50.3809 27.7595C49.7701 27.1487 48.8942 26.8757 48.1096 26.7449C47.3134 26.6122 46.5245 26.6131 46.0274 26.6131V27.6131ZM49.6738 28.4666C50.2341 29.027 51.2789 29.8234 52.1899 31.0381C53.0799 32.2248 53.7598 33.7223 53.5312 35.5511L54.5235 35.6751C54.7949 33.5039 53.9748 31.7513 52.9899 30.4381C52.0259 29.1527 50.8206 28.1992 50.3809 27.7595L49.6738 28.4666ZM53.5312 35.5511C53.2934 37.4538 52.5901 38.7005 51.647 39.4771C50.6983 40.2584 49.4474 40.6131 48.0274 40.6131V41.6131C49.6074 41.6131 51.1064 41.2178 52.2827 40.2491C53.4646 39.2757 54.2613 37.7724 54.5235 35.6751L53.5312 35.5511ZM47.5678 40.9161C46.8078 42.6894 45.9501 44.8963 44.845 46.7995C43.7308 48.7183 42.4408 50.1892 40.89 50.6323L41.1647 51.5938C43.1139 51.0369 44.5739 49.2579 45.7098 47.3017C46.8547 45.3299 47.7469 43.0368 48.4869 41.31L47.5678 40.9161ZM40.89 50.6323C38.8789 51.2069 34.5909 51.7949 30.4864 51.87L30.5046 52.8698C34.6597 52.7938 39.0413 52.2005 41.1647 51.5938L40.89 50.6323ZM30.4864 51.87C27.6342 51.9221 24.9424 51.7244 23.1855 51.1387L22.8693 52.0874C24.7966 52.7299 27.6323 52.9223 30.5046 52.8698L30.4864 51.87ZM30.0008 52.2971C29.8829 53.0986 29.5504 54.1216 28.9294 54.8412C28.6241 55.1948 28.2564 55.4674 27.8145 55.6156C27.3745 55.7632 26.829 55.7983 26.1486 55.6282L25.9061 56.5984C26.7468 56.8085 27.4889 56.7796 28.1325 56.5637C28.7743 56.3484 29.2863 55.9581 29.6864 55.4945C30.476 54.5796 30.8565 53.3507 30.9902 52.4427L30.0008 52.2971ZM25.6738 56.4668C25.9155 56.7085 26.2725 57.0334 26.5456 57.2995C26.8452 57.5915 27.1144 57.8774 27.3052 58.15C27.5023 58.4315 27.5702 58.6352 27.5666 58.772C27.5641 58.8671 27.5262 59.0132 27.25 59.1973L27.8047 60.0293C28.2785 59.7134 28.5531 59.2969 28.5662 58.7983C28.5783 58.3414 28.3649 57.9201 28.1245 57.5765C27.8778 57.2242 27.5532 56.8851 27.2435 56.5833C26.9072 56.2557 26.6392 56.0181 26.3809 55.7597L25.6738 56.4668ZM27.25 59.1973C27.0382 59.3384 26.7017 59.3917 26.2017 59.2684C25.7069 59.1464 25.1203 58.866 24.4922 58.4473C23.238 57.6112 21.9091 56.2845 20.9434 54.8359L20.1113 55.3906C21.1456 56.942 22.5667 58.3654 23.9375 59.2793C24.6219 59.7356 25.3165 60.0801 25.9623 60.2394C26.603 60.3973 27.2665 60.3881 27.8047 60.0293L27.25 59.1973ZM21.215 36.5037C21.9791 37.115 23.3918 38.8854 23.0341 41.0311L24.0205 41.1955C24.4629 38.5412 22.7422 36.4449 21.8397 35.7228L21.215 36.5037ZM23.0341 41.0311C22.9045 41.8091 22.8408 42.6763 22.7862 43.5266C22.7309 44.3866 22.6851 45.2275 22.5934 45.9912C22.5012 46.7596 22.3674 47.4013 22.1572 47.8693C21.9504 48.3296 21.7029 48.554 21.4061 48.6282L21.6486 49.5984C22.3518 49.4225 22.7918 48.897 23.0694 48.2791C23.3435 47.669 23.491 46.9044 23.5863 46.1104C23.6821 45.3116 23.73 44.4337 23.7841 43.5906C23.8389 42.7378 23.9002 41.9174 24.0205 41.1955L23.0341 41.0311ZM21.4061 48.6282C19.8286 49.0226 18.8053 49.1133 18.5273 49.1133V50.1133C18.9161 50.1133 20.0261 50.004 21.6486 49.5984L21.4061 48.6282ZM18.2273 50.0133C18.87 50.4953 19.7164 51.2772 20.2038 52.054C20.4487 52.4443 20.5718 52.7846 20.5775 53.0549C20.5824 53.2905 20.5013 53.5078 20.2273 53.7133L20.8273 54.5133C21.3534 54.1187 21.589 53.5986 21.5772 53.0341C21.5662 52.5045 21.3393 51.9823 21.0509 51.5225C20.4716 50.5994 19.518 49.7313 18.8273 49.2133L18.2273 50.0133ZM20.2273 53.7133C19.6012 54.1829 18.5343 54.2578 17.3164 54.0692C16.1316 53.8857 14.9495 53.476 14.2304 53.1564L13.8243 54.0702C14.6052 54.4173 15.873 54.8576 17.1633 55.0574C18.4204 55.2521 19.8535 55.2437 20.8273 54.5133L20.2273 53.7133ZM24.5704 32.8164C24.9213 33.6057 25.5992 34.7797 26.5102 35.7652C27.4104 36.739 28.618 37.6133 30.0273 37.6133V36.6133C29.0366 36.6133 28.0776 35.9876 27.2445 35.0864C26.4222 34.1969 25.8001 33.1208 25.4842 32.4102L24.5704 32.8164ZM29.5423 37.2345C29.8087 38.3004 30.34 39.3684 30.9529 40.1174C31.258 40.4903 31.6059 40.812 31.9786 41.0034C32.3578 41.1981 32.8135 41.2792 33.2509 41.0605L32.8037 40.1661C32.7411 40.1974 32.6344 40.216 32.4354 40.1138C32.2301 40.0084 31.9842 39.7988 31.7268 39.4842C31.2146 38.8582 30.746 37.9262 30.5124 36.992L29.5423 37.2345ZM33.2509 41.0605C33.6504 40.8608 33.9616 40.4248 34.1917 39.9729C34.4338 39.4972 34.6343 38.9074 34.7666 38.2788C35.0274 37.0402 35.0468 35.5341 34.4746 34.3897L33.5801 34.8369C34.0079 35.6924 34.0273 36.9363 33.7881 38.0728C33.6704 38.6317 33.4958 39.1356 33.3005 39.5193C33.093 39.9268 32.9043 40.1158 32.8037 40.1661L33.2509 41.0605ZM34.4746 34.3897C34.024 33.4886 33.0339 32.5151 32.0478 31.6919C31.0443 30.8543 29.9753 30.1161 29.2923 29.6893L28.7623 30.5373C29.4127 30.9438 30.4437 31.6556 31.4069 32.4596C32.3875 33.2781 33.2307 34.1379 33.5801 34.8369L34.4746 34.3897ZM50.5223 27.184C50.6113 26.5613 50.6627 25.5428 50.5364 24.4675C50.4111 23.4003 50.1039 22.2153 49.4273 21.3133L48.6273 21.9133C49.1508 22.6112 49.4269 23.5929 49.5433 24.5841C49.6587 25.5671 49.6101 26.4986 49.5324 27.0426L50.5223 27.184ZM49.5273 21.6133C49.5273 20.8703 49.5581 20.17 49.5741 19.4684C49.5898 18.7766 49.5905 18.0952 49.5249 17.4385C49.392 16.1095 48.9848 14.8636 47.8809 13.7597L47.1738 14.4668C48.0699 15.3629 48.4127 16.367 48.5298 17.538C48.5892 18.1313 48.5899 18.7625 48.5743 19.4457C48.559 20.1191 48.5273 20.8563 48.5273 21.6133H49.5273ZM47.5273 13.6133C46.5685 13.6133 45.6289 14.1045 44.8834 14.6463C44.1258 15.1969 43.4942 15.8543 43.1369 16.3009L43.9178 16.9256C44.2271 16.5389 44.7955 15.9464 45.4713 15.4553C46.1591 14.9554 46.8862 14.6133 47.5273 14.6133V13.6133ZM43.6095 16.1201C43.1055 16.0361 42.3002 15.9102 41.5189 15.8052C40.7502 15.7019 39.9666 15.6133 39.5273 15.6133V16.6133C39.8881 16.6133 40.6045 16.6913 41.3857 16.7963C42.1545 16.8997 42.9492 17.0238 43.4451 17.1065L43.6095 16.1201ZM40.0017 15.9552C39.7399 15.1699 39.2218 14.0035 38.5684 13.0234C38.2418 12.5336 37.8683 12.0702 37.4601 11.7241C37.0569 11.3823 36.5701 11.1133 36.0273 11.1133V12.1133C36.2346 12.1133 36.4978 12.2193 36.8134 12.4868C37.1239 12.7501 37.4379 13.1304 37.7363 13.5781C38.3329 14.473 38.8147 15.5566 39.053 16.2714L40.0017 15.9552ZM36.0273 11.1133C35.467 11.1133 35.0509 11.5296 34.7697 11.9253C34.4689 12.3486 34.2073 12.9101 33.9847 13.4989C33.537 14.6825 33.2053 16.0893 33.0354 17.0238L34.0193 17.2027C34.1827 16.304 34.501 14.9607 34.92 13.8526C35.1307 13.2956 35.3566 12.8258 35.5849 12.5044C35.833 12.1553 35.9877 12.1133 36.0273 12.1133V11.1133ZM33.2019 16.7337C32.6047 17.2456 31.7103 18.0886 30.9603 18.9627C30.5858 19.3993 30.2374 19.8551 29.98 20.2897C29.7318 20.7085 29.5273 21.174 29.5273 21.6133H30.5273C30.5273 21.4525 30.6145 21.1805 30.8403 20.7994C31.0568 20.4339 31.3647 20.0272 31.7193 19.6138C32.4278 18.788 33.2833 17.981 33.8527 17.4929L33.2019 16.7337ZM35.7781 22.8695C35.7781 23.3854 36.0525 23.7112 36.252 23.9453L37.013 23.2966C36.816 23.0655 36.7781 22.988 36.7781 22.8695H35.7781ZM36.252 23.9453C36.2857 23.9848 36.419 24.1617 36.536 24.2696C36.6855 24.4075 36.9103 24.5473 37.2201 24.5391L37.1935 23.5394C37.202 23.5392 37.2157 23.5416 37.2272 23.5468C37.2355 23.5505 37.2316 23.5508 37.214 23.5346C37.1954 23.5174 37.172 23.4917 37.1368 23.4487C37.119 23.427 37.1026 23.4062 37.0811 23.3794C37.0611 23.3544 37.0378 23.3256 37.013 23.2966L36.252 23.9453ZM37.2201 24.5391C37.5778 24.5295 37.908 24.43 38.1946 24.3164C38.4702 24.2071 38.7592 24.0609 38.9748 23.9621L38.5582 23.053C38.2872 23.1772 38.0712 23.2896 37.8261 23.3867C37.592 23.4795 37.3857 23.5343 37.1935 23.5394L37.2201 24.5391ZM41.8495 24.1709C42.1502 24.4874 42.5941 25.1703 43.5101 25.156L43.4945 24.1561C43.1328 24.1618 43.0547 23.9876 42.5745 23.4822L41.8495 24.1709ZM43.5101 25.156C43.8574 25.1506 44.2015 25.0256 44.4697 24.8412L43.9032 24.0172C43.7782 24.1031 43.6229 24.1541 43.4945 24.1561L43.5101 25.156ZM44.4697 24.8412C44.5731 24.7701 44.6352 24.6799 44.6613 24.6403C44.6775 24.6158 44.6907 24.5933 44.6995 24.578C44.7125 24.5554 44.7108 24.5581 44.7151 24.5507C44.722 24.5391 44.7048 24.5711 44.6727 24.6072C44.6601 24.6213 44.6053 24.6833 44.5098 24.7262C44.4557 24.7505 44.3752 24.7748 44.2766 24.7687C44.1732 24.7624 44.0819 24.7246 44.0105 24.6713C43.8874 24.5795 43.8477 24.4615 43.8389 24.4356C43.8252 24.3945 43.8209 24.3624 43.8196 24.3526C43.8169 24.331 43.8176 24.3211 43.8176 24.337H44.8176C44.8176 24.31 44.817 24.2688 44.8115 24.2258C44.8089 24.2052 44.8029 24.1648 44.787 24.1176C44.7763 24.0855 44.7341 23.9635 44.6083 23.8697C44.4329 23.7389 44.2318 23.7548 44.0997 23.8141C44.0008 23.8586 43.9422 23.9238 43.9255 23.9425C43.8852 23.9879 43.8584 24.0348 43.8543 24.0417C43.8477 24.0529 43.8337 24.0777 43.833 24.0788C43.8307 24.0828 43.8291 24.0856 43.8278 24.0877C43.8266 24.0897 43.826 24.0905 43.8261 24.0904C43.8262 24.0903 43.8272 24.0887 43.8292 24.086C43.8312 24.0833 43.8347 24.0788 43.8397 24.073C43.8486 24.0628 43.8693 24.0405 43.9032 24.0172L44.4697 24.8412ZM39.1717 25.1474C39.2121 25.3294 39.3222 25.4507 39.4082 25.5216C39.4945 25.5927 39.5887 25.64 39.6652 25.672C39.8185 25.7361 39.9894 25.7746 40.119 25.7986C40.2539 25.8234 40.375 25.8378 40.432 25.8449C40.4392 25.8458 40.4446 25.8465 40.449 25.8471C40.4536 25.8477 40.4552 25.8479 40.455 25.8479C40.4548 25.8478 40.4531 25.8476 40.4504 25.8471C40.4481 25.8467 40.4422 25.8457 40.4342 25.844C40.4291 25.843 40.4088 25.8387 40.383 25.8302C40.3712 25.8262 40.3428 25.8165 40.3089 25.7987C40.2965 25.7922 40.1843 25.7374 40.1085 25.6064C40.0608 25.5239 40.0241 25.4039 40.0496 25.2655C40.0738 25.1347 40.1427 25.0468 40.1916 24.999C40.2757 24.9166 40.3662 24.8878 40.3806 24.8829C40.432 24.8655 40.4748 24.861 40.4781 24.8606C40.491 24.8591 40.5007 24.8584 40.5042 24.8582C40.5086 24.8579 40.5116 24.8578 40.5124 24.8578C40.5134 24.8578 40.508 24.8579 40.4893 24.8579V25.8579C40.5076 25.8579 40.5285 25.8578 40.5465 25.8572C40.5524 25.857 40.5741 25.8563 40.5993 25.8533C40.6046 25.8526 40.6488 25.8479 40.7011 25.8302C40.7159 25.8252 40.8067 25.7962 40.891 25.7137C40.9399 25.6658 41.0089 25.5778 41.033 25.4469C41.0586 25.3084 41.0219 25.1883 40.9741 25.1057C40.8982 24.9745 40.7858 24.9196 40.773 24.9129C40.7388 24.895 40.7099 24.885 40.6975 24.8809C40.6705 24.8719 40.6484 24.8672 40.6412 24.8657C40.6233 24.8619 40.6076 24.8596 40.6014 24.8587C40.5865 24.8564 40.5688 24.8542 40.5554 24.8526C40.4946 24.845 40.4019 24.8339 40.3004 24.8151C40.1937 24.7955 40.1056 24.7723 40.0511 24.7495C40.0237 24.738 40.0267 24.7355 40.0439 24.7497C40.0607 24.7635 40.1235 24.8207 40.1479 24.9304L39.1717 25.1474ZM37.6738 26.5487C37.7071 26.5693 37.7475 26.5985 37.8043 26.6419C37.855 26.6805 37.9256 26.7358 37.9941 26.7851C38.1259 26.8798 38.3333 27.0161 38.5883 27.0569L38.7462 26.0694C38.7464 26.0695 38.7428 26.0689 38.7348 26.0661C38.7267 26.0632 38.7152 26.0584 38.6998 26.0506C38.6678 26.0342 38.6285 26.0095 38.5777 25.973C38.5246 25.9348 38.4763 25.8968 38.4107 25.8468C38.3513 25.8014 38.278 25.7466 38.2002 25.6985L37.6738 26.5487ZM38.5883 27.0569C38.7724 27.0863 38.9504 27.0699 39.057 27.0615C39.1856 27.0513 39.2412 27.0494 39.2848 27.0566L39.4463 26.0697C39.2627 26.0397 39.0843 26.0562 38.9783 26.0646C38.8501 26.0747 38.7926 26.0768 38.7462 26.0694L38.5883 27.0569ZM39.2848 27.0566C39.3646 27.0696 39.4804 27.1105 39.6567 27.1866C39.8114 27.2533 40.0259 27.3535 40.2254 27.4292C40.604 27.573 41.2178 27.7495 41.7464 27.3531L41.1464 26.5531C41.0789 26.6037 40.9462 26.6333 40.5804 26.4944C40.4076 26.4288 40.2505 26.3537 40.053 26.2684C39.8771 26.1926 39.6604 26.1047 39.4463 26.0697L39.2848 27.0566Z" fill="black"/>
<path id="Vector_2" d="M55.9988 20.0315C56.2902 19.6338 57.0017 19.1348 57.498 19.396C58.1762 19.7529 59.0001 20.5581 59.8351 20.3285C60.2931 20.2025 60.5778 19.7921 60.8288 19.4286M59.7758 17.9971C60.1405 17.9976 60.4876 18.1282 60.8304 18.233M61.6952 20.1096C61.6544 20.3238 61.6074 20.5323 61.5537 20.7424M63.067 19.8184L63.6287 20.4756M63.8304 18.6825L64.6627 18.6251M63.0936 17.5211C63.2506 17.1359 63.402 16.7492 63.5523 16.3613M61.9219 17.2148C61.7588 17.0015 61.5923 16.796 61.4187 16.5928" stroke="white" stroke-linecap="round"/>
<path id="Vector_3" d="M56.0642 8.63582C56.0816 8.1638 56.2495 7.80787 56.7359 7.71217C56.9279 7.67439 57.1406 7.60582 57.3354 7.59758C57.5548 7.5883 57.6402 7.71192 57.8674 7.56443C58.6543 7.05377 59.111 6.08285 59.6838 5.38361M58.1103 4.06007C58.4132 4.04613 58.739 3.97227 59.0184 3.93324M58.8076 2.20399C58.891 2.13952 59.3036 2.58741 59.2603 2.57283M61.2975 0.806735L60.9484 1.84306M62.1559 2.7548C62.4718 2.66081 62.7885 2.57973 63.1076 2.49843M62.454 4.22483C62.6899 4.31643 62.8622 4.39524 62.9715 4.61548M61.6508 5.32482C61.7159 5.4628 61.757 5.59195 61.8008 5.73594" stroke="white" stroke-linecap="round"/>
<path id="Vector_4" d="M3.91391 45.7982C4.32036 48.553 5.78509 50.7378 7.53969 52.8562C8.82877 54.4125 10.441 55.6835 12.0945 56.8239C13.5391 57.8201 15.007 58.8642 16.6106 59.5916C17.7409 60.1043 19.6841 61.2044 20.8686 60.34C21.7536 59.6942 22.2098 57.6823 20.8428 57.3852C19.2159 57.0315 17.6898 56.0306 16.2493 55.2303C14.8197 54.4361 13.2945 53.445 12.0171 52.4175C10.706 51.3629 9.60459 50.0986 8.55903 48.7917C8.19915 48.3418 7.96773 47.8242 7.63001 47.3659C7.5874 47.3081 7.28162 46.8169 7.28162 46.9594M3.91391 44.6369C2.9155 43.0031 2.1938 41.4105 1.81715 39.5272C1.34921 37.1875 0.777496 34.9836 1.15264 32.566C1.86947 27.9464 5.38876 24.7543 9.4558 22.9467C13.6539 21.0809 18.1645 19.7621 22.7912 19.7855C24.3552 19.7934 26.2078 19.9619 27.6944 20.4822C28.2259 20.6683 28.7088 21.0053 29.2298 21.179M15.9912 21.5274C16.2833 21.6004 16.1687 22.5685 16.1525 22.7596C16.0503 23.9662 15.769 25.2286 15.159 26.2822C14.3465 27.6855 13.0216 28.6899 11.6751 29.5467C10.2095 30.4793 8.70053 31.407 7.04292 31.9596C5.85964 32.354 4.68602 32.455 3.4494 32.4434C2.97122 32.439 2.58267 32.2461 2.14618 32.2112C1.71984 32.1771 1.41512 31.6545 1.59135 32.095M14.3654 58.34C14.3317 58.3287 14.5229 58.2454 14.7922 58.1409M14.7922 58.1409C14.8114 58.1334 14.8311 58.1258 14.8511 58.1182M14.7922 58.1409C14.8528 58.1635 14.9086 58.1842 14.9461 58.1981C16.2044 58.6635 17.4383 59.244 18.7138 59.6561C19.4166 59.8832 20.5601 60.0297 20.8686 59.1529C20.9801 58.8361 21.1053 58.2007 20.9589 57.8755C20.5957 57.0684 19.2054 57.2948 18.559 57.2948C17.7277 57.2948 16.9554 57.4996 16.1461 57.669C16.0171 57.696 15.3336 57.9331 14.8511 58.1182M14.7922 58.1409C14.6068 58.0716 14.377 57.9838 14.4945 58.0174C14.6131 58.0513 14.732 58.0849 14.8511 58.1182M14.8511 58.1182C15.6524 58.3419 16.4624 58.5492 17.2751 58.7206C17.4056 58.7482 19.5787 58.987 19.1719 58.74C19.0525 58.6675 18.9209 58.6136 18.7823 58.5727M18.7823 58.5727C18.5618 58.5076 18.3235 58.4754 18.0883 58.4535M18.7823 58.5727C18.4978 58.5504 18.2136 58.5185 17.9302 58.484M18.7823 58.5727C19.2619 58.6104 19.7427 58.621 20.2235 58.5723C20.2629 58.5682 20.9848 58.5321 20.7912 58.2884C20.3969 57.7918 18.7038 57.9439 19.7589 58.2755C20.559 58.5269 19.7536 58.2811 19.1758 58.1211M18.0883 58.4535C17.8811 58.4343 17.6762 58.4231 17.488 58.4045C16.8672 58.3433 16.4438 58.2982 17.3977 58.4174C17.5749 58.4396 17.7524 58.4623 17.9302 58.484M18.0883 58.4535C18.5675 58.3586 19.1072 58.226 19.1758 58.1211M18.0883 58.4535C18.0346 58.4642 17.9816 58.4744 17.9302 58.484M17.9302 58.484C17.6903 58.5288 17.4833 58.5613 17.3848 58.5723M19.1758 58.1211C18.9813 58.0673 18.8126 58.0231 18.7396 58.011C18.634 57.9934 18.6543 57.9848 18.7378 57.9805M19.1758 58.1211C19.2131 58.0641 19.1112 58.0153 18.7848 57.9852C18.77 57.9838 18.7543 57.9822 18.7378 57.9805M18.7378 57.9805C19.039 57.965 20.1626 58.0049 19.1654 57.8755C18.5954 57.8015 17.9739 57.682 17.3977 57.6948C16.9402 57.705 18.2289 57.9271 18.7378 57.9805ZM19.1267 59.0368C19.0416 59.5189 20.0336 59.5553 20.5202 59.5013" stroke="black" stroke-linecap="round"/>
<path id="Vector 755" d="M11 30C15.4653 27.0232 16.5 24 15.5 21C6.7 23 2.5 26.5 1 32C2.33333 32.5 5 34 11 30Z" fill="black"/>
</g>
</svg>
