<svg width="75" height="54" viewBox="0 0 75 54" fill="none" xmlns="http://www.w3.org/2000/svg">
<g id="Group 34551">
<path id="Vector 751" d="M12.263 28.0457C13.5736 25.655 16.3041 24.6146 17.5056 24.3933C19.1439 24.0612 23.0105 23.3308 25.3697 23.0651C28.3186 22.7331 32.2506 23.7292 33.2336 24.7253C33.8889 24.3933 36.5102 25.3894 37.4932 26.0535C40.1145 25.3894 44.3742 25.7214 47.9785 25.7214C50.8619 25.7214 54.4225 27.0496 55.8424 27.7137L58.1361 29.0418L62.068 25.7214C61.9588 25.2787 61.8059 24.2605 62.068 23.7292C62.3957 23.0651 62.7234 23.3972 63.3787 23.3972C64.034 23.3972 64.034 25.3894 64.034 26.0535C64.034 26.7175 64.034 27.3816 63.3787 28.0457C62.8544 28.5769 60.5389 30.2593 59.4467 31.034C59.6652 31.8088 60.1021 33.4911 60.1021 34.0224C60.1021 34.5536 60.5389 37.3427 60.7574 38.6709C61.085 38.5602 62.068 38.2724 63.3787 38.0068C65.017 37.6748 66 40.6631 66 41.3272C66 41.9912 64.6894 43.3194 64.034 43.9834L64.034 43.9835C63.3787 44.6475 60.4297 44.6475 59.4467 44.6475C58.6603 44.6475 57.3715 43.7621 56.8254 43.3194C55.1871 43.7621 51.7139 44.714 50.9275 44.9796C50.1411 45.2452 49.0707 45.0903 48.6338 44.9796C48.4154 45.4223 47.5853 46.4405 46.0125 46.9718C44.4397 47.5031 42.7359 46.9718 42.0805 46.6398C41.316 46.0864 39.3937 44.9132 37.8209 44.6475C37.4932 45.3116 35.5272 46.3077 34.8719 46.3077C34.2166 46.3077 32.9059 45.6437 31.9229 44.6475C30.94 45.9757 21.11 48.3 15.2121 47.9679C9.31413 47.6359 9.31413 43.9835 8.98646 43.9835C8.6588 43.9835 7.348 42.6553 7.02033 39.3349C6.7582 36.6787 9.09554 35.3505 10.297 35.0185C10.4062 33.6903 10.9523 30.4364 12.263 28.0457Z" fill="white" fill-opacity="0.95"/>
<path id="Vector" d="M13.1184 34.1362C13.1456 32.9532 13.579 31.9015 13.9331 30.785C14.322 29.5586 14.564 27.994 15.4204 26.9625C16.6519 25.4793 18.0874 24.3462 20.0396 23.928C22.5335 23.3938 24.9637 23 27.5139 23C28.6536 23 29.7839 23.0976 30.8774 23.4272C31.0867 23.4903 32.3313 24.0478 32.0882 23.928M30.8011 25.4269C30.9595 25.3134 31.318 25.2764 31.5157 25.2223C31.7971 25.1453 32.0697 25.0303 32.3585 24.9816C33.5121 24.7869 34.6298 24.8574 35.7237 25.2524C37.294 25.8193 38.055 27.2209 38.8752 28.5595C39.8495 30.1495 40.6833 31.8258 41.4007 33.5427C42.0051 34.9891 42.5095 36.4803 42.6985 38.0384C42.9224 39.8834 42.4606 41.4252 40.5426 42.0858C40.0487 42.2559 39.4137 42.0987 38.9913 42.4469C38.3473 42.9776 37.8082 43.6443 37.2445 44.2524C36.9007 44.6233 36.5875 45.043 36.1574 45.3236C35.636 45.6638 34.9327 45.7665 34.319 45.7148C33.0327 45.6066 32.3704 44.5871 32.1234 43.4309C31.8253 42.036 31.5376 40.6019 31.6073 39.1699C31.6584 38.1187 31.8065 37.0732 31.8699 36.0223C31.9248 35.1123 31.9675 34.202 32.0379 33.2929C32.1189 32.2453 32.0974 31.2478 31.9279 30.2085C31.8874 29.9601 31.6431 28.9932 31.2958 29.1643M17.4439 24.8311C16.2308 24.4469 14.854 25.455 13.9138 26.0709C13.5467 26.3114 13.2814 26.5998 12.9854 26.9165C12.708 27.2135 12.3792 27.4709 12.1365 27.7982C11.7349 28.3397 11.4607 29.0606 11.2448 29.694C10.9468 30.5683 10.8293 31.4877 10.6524 32.3902C10.6286 32.5114 10.3012 34.6203 10.463 33.6601M11.5624 34.4725C10.3266 34.4725 9.29409 34.8665 8.27655 35.5558C7.74745 35.9143 7.51125 36.5854 7.3421 37.1688C7.12084 37.9319 6.97662 38.7373 7.00313 39.534C7.03095 40.3702 7.22025 41.0125 7.71466 41.6976C8.07768 42.2006 8.43656 42.716 8.87203 43.1631C9.26644 43.5679 9.92306 43.4001 10.405 43.2744C10.6496 43.2106 11.3016 42.8543 11.1227 43.0306M11.3425 42.8682C11.4525 43.3017 11.847 43.6488 12.167 43.9394C12.4497 44.1961 12.6756 44.5004 13.0343 44.6556C13.9584 45.0554 15.1222 44.8364 16.0514 44.5653C17.2906 44.2038 18.5493 43.6773 19.6854 43.0728C20.5528 42.6112 21.2512 41.7505 21.5115 40.8099M9.25375 43.7348C9.36901 43.749 9.4899 44.1944 9.53165 44.2795C9.72807 44.6795 9.96392 45.041 10.2432 45.3898C10.6497 45.8977 10.987 46.3274 11.6204 46.5544C12.5524 46.8883 13.7272 46.8745 14.7139 46.9426C16.5393 47.0686 18.4052 46.9685 20.229 46.8222C23.0403 46.5967 25.8787 46.2106 28.523 45.1973C29.4046 44.8594 30.3285 44.5382 31.1584 44.0839C31.2167 44.0519 31.7905 43.7741 31.7905 43.7348M38.1118 25.8603C38.1708 25.7673 38.4826 25.7654 38.576 25.7459C39.2769 25.5994 39.9895 25.5079 40.7014 25.4299C42.5184 25.231 44.3871 25.2404 46.2134 25.2674C49.0852 25.31 51.9812 25.9054 54.6265 26.9977C55.7077 27.4442 56.6911 27.9402 57.5093 28.7912C57.9428 29.2421 58.2658 29.7789 58.6239 30.2868C59.0924 30.9514 59.4283 31.5999 59.653 32.3812C60.0206 33.6591 60.2788 34.9521 60.4714 36.266C60.5374 36.7161 60.5352 37.1608 60.5386 37.6141C60.5394 37.7204 60.5905 38.1891 60.5386 37.8308M57.7902 28.6768C57.5969 28.9388 58.4311 28.4972 58.7094 28.3248C59.2268 28.0042 59.7073 27.6698 60.1905 27.2986C60.6775 26.9245 61.2829 26.4957 61.5463 25.9144C61.8837 25.1699 61.7101 24.2193 61.8884 23.4288C61.9663 23.0833 62.6149 23.1969 62.9022 23.2062C63.5253 23.2262 63.7792 23.7778 63.8794 24.3135C63.9958 24.9356 63.9521 25.5968 63.9893 26.2274C64.0328 26.9638 63.2037 27.8763 62.6884 28.3097C62.2545 28.6748 61.754 28.9553 61.3081 29.3058C60.8838 29.6393 60.4803 29.9981 60.0561 30.3319C59.9415 30.4221 59.4897 30.7937 59.4942 30.7893M57.8452 37.3975C58.1089 37.2775 58.6406 37.7178 58.8102 37.8849C59.1787 38.2481 59.211 38.7287 59.3537 39.1909C59.3727 39.2524 59.391 39.4122 59.4454 39.2782C59.604 38.8874 59.8454 38.5906 60.2088 38.3724C60.8333 37.9975 61.4546 37.9331 62.154 37.9331C62.1603 37.9331 62.3212 37.7057 62.3647 37.6803C62.8578 37.3932 63.59 37.5496 64.084 37.7315C64.8736 38.0222 65.6396 38.5578 65.8949 39.3895C66.1554 40.238 65.9197 41.2303 65.3208 41.8811C64.1342 43.1706 62.3125 43.6925 60.5997 43.813C59.8751 43.864 59.3157 43.8331 58.6483 43.5512C58.1195 43.3279 57.571 43.1048 57.0756 42.814C56.5648 42.5141 56.0335 42.1381 55.6007 41.7367C55.4661 41.6119 55.3416 41.3958 55.2067 41.3515M56.3611 42.7057C56.2024 42.7447 56.0603 42.8749 55.9152 42.9464C55.5502 43.1262 55.1496 43.2545 54.7639 43.3827C53.8551 43.685 52.9289 43.8635 51.9942 44.0718C51.2147 44.2455 50.3917 44.4272 49.5848 44.3818C49.2174 44.3611 48.7259 44.3002 48.3907 44.1681M38.1668 43.7348C38.6101 43.9417 38.9551 44.3534 39.3363 44.6586C39.8473 45.0677 40.4755 45.3123 41.0831 45.5463C41.7668 45.8097 42.4527 46.1153 43.1444 46.3528C45.429 47.1373 48.2336 45.7645 48.519 43.3105C48.6284 42.3698 48.2768 41.3913 47.4868 40.8219C46.9495 40.4346 46.0886 40.2443 45.4255 40.2171C44.8644 40.194 44.5703 40.5011 44.146 40.7978C43.9819 40.9126 43.7818 40.9856 43.6666 41.1559C43.6244 41.2183 43.6558 41.2821 43.6086 41.189M21.5665 33.7142C21.9125 34.146 22.3142 34.6245 22.8308 34.8577C23.4248 35.1258 24.1811 35.1075 24.8157 35.0443C25.5536 34.9708 27.0083 34.5774 27.0083 33.6601M14.0359 33.3892C14.6708 33.8584 15.3942 34.2045 16.2102 34.0934C16.5928 34.0413 16.953 33.9142 17.2546 33.6721C17.2905 33.6433 17.5654 33.3665 17.4989 33.4976M8.3193 35.5558C8.50032 35.4099 8.84277 35.4017 9.06442 35.3633C9.50162 35.2875 9.98417 35.3392 10.4264 35.3392H12.5213C13.1912 35.3392 13.9269 35.3024 14.5703 35.5167C15.3576 35.7789 16.2073 36.63 15.8102 37.5148C15.5838 38.0191 15.1943 38.44 14.8513 38.8689C14.3695 39.4716 13.8943 40.0396 13.2786 40.515C12.5641 41.0667 11.4184 41.7709 10.463 41.502C9.48548 41.2268 8.9202 40.5631 8.65216 39.6122C8.38081 38.6496 8.15255 37.597 8.21242 36.594C8.22298 36.4172 8.39796 35.7417 8.3193 35.6642M9.30872 35.7183C9.03405 35.7484 8.73823 36.161 8.60636 36.3683C8.3047 36.8425 8.69044 36.3147 8.8079 36.1818C8.97753 35.9898 9.1671 35.8019 9.39423 35.6762C9.41183 35.6665 9.60155 35.5626 9.54081 35.6551C9.19289 36.185 8.84453 36.7122 8.50864 37.25C8.29218 37.5966 8.64552 37.1279 8.64911 37.1236C8.9556 36.758 9.27864 36.4105 9.62937 36.0855C9.91714 35.8188 10.8126 35.0549 10.5333 35.3302C9.7502 36.1018 9.14586 37.1154 8.59414 38.0474M11.0127 35.8808C10.7113 36.0536 10.4913 36.266 10.2615 36.5248C9.81606 37.0264 9.34877 37.5164 8.92089 38.0324C8.74881 38.2399 8.57893 38.4713 8.47504 38.7215C8.45052 38.7806 8.77037 38.4696 8.81401 38.4266M11.7823 35.7183C10.8191 36.6675 9.82705 37.6525 9.0858 38.7847C8.94021 39.0071 8.49586 39.6609 8.68575 39.4738C9.27423 38.8939 9.69677 38.1645 10.3012 37.5931C10.8671 37.058 11.4544 36.4936 12.0876 36.0373C12.3497 35.8485 12.6354 35.6977 12.8999 35.5137C12.9324 35.4911 13.1295 35.3275 13.1137 35.3542C12.8692 35.7672 12.4292 36.1726 12.1121 36.5308C11.7068 36.9886 11.2484 37.3973 10.8478 37.8579C10.4996 38.2582 10.0743 38.5925 9.75762 39.0194C9.51923 39.3409 8.80954 40.3074 9.07053 40.0034C10.304 38.5669 11.8877 37.4942 13.3091 36.26C13.5504 36.0505 13.7961 35.7886 14.0634 35.613C14.3625 35.4166 13.9932 36.0085 13.9565 36.0614C13.7429 36.37 13.448 36.6247 13.1748 36.8799C12.6035 37.4133 12.0233 37.9339 11.4738 38.4898C10.8882 39.0823 10.1959 39.6696 9.72403 40.3585C9.62663 40.5007 9.05954 41.2539 9.5347 40.858C10.3291 40.1962 11.0058 39.4144 11.7395 38.6914C12.5255 37.9169 13.3552 37.1324 14.2008 36.4225C14.252 36.3795 14.8629 35.9423 14.8482 36.0072C14.7224 36.5654 13.9687 37.1173 13.5779 37.4817C12.9921 38.0279 12.4497 38.594 11.9014 39.1759C11.5141 39.5869 11.1655 40.0387 10.8051 40.4728C10.5995 40.7205 10.0163 41.4759 10.2676 41.2733C11.4021 40.3586 12.4575 39.3219 13.4985 38.3062C13.9193 37.8956 14.3821 37.5371 14.8299 37.1567C14.9254 37.0756 15.0217 37.0048 15.1292 36.9401C15.1824 36.908 15.2758 36.7643 15.2758 36.8257C15.2758 37.1467 14.7739 37.582 14.5826 37.7766C14.0364 38.3322 13.5161 38.9088 12.961 39.4557C12.2929 40.1141 11.6286 40.7555 10.9028 41.3515M14.9154 36.4766C14.9259 36.3122 15.0489 36.4122 15.1353 36.4887C15.2933 36.6285 15.3052 36.7975 15.3002 36.9942C15.2848 37.6013 14.6819 38.1655 14.3108 38.5921C13.8466 39.1257 13.379 39.6239 12.8328 40.0786C12.3037 40.5191 11.7881 41.2413 11.1227 41.4599M16.2896 25.5353C16.2249 25.5891 16.1626 25.6449 16.1025 25.7024M16.1025 25.7024C15.4793 26.2986 15.0913 27.0832 14.72 27.8523C14.404 28.5067 14.1226 29.1888 13.869 29.8782M16.1025 25.7024C15.9496 25.9809 15.7886 26.2533 15.6178 26.5223C14.9436 27.5838 14.3848 28.7258 13.869 29.8782M16.1025 25.7024C16.1264 25.6589 16.1501 25.6152 16.1736 25.5714C16.1885 25.5436 16.4327 25.1636 16.2408 25.2885C15.2931 25.9052 14.6717 26.98 14.1856 27.9577C14.0421 28.2462 13.9156 28.5433 13.7979 28.8445M13.869 29.8782C13.7178 30.2891 13.5764 30.7026 13.4435 31.1143C13.205 31.8529 12.955 32.5927 12.7289 33.3351C12.7223 33.3569 12.5794 34.2233 12.5518 34.2077C12.4196 34.1333 12.4591 33.4835 12.4783 33.3845L12.4785 33.3832C12.6258 32.6239 12.994 31.8955 13.2969 31.1895C13.4841 30.7535 13.6734 30.3151 13.869 29.8782ZM13.7979 28.8445C13.5819 29.3971 13.3953 29.9634 13.187 30.5155C12.8845 31.3173 12.7887 32.1481 12.5518 32.9649C12.4289 33.3888 12.2274 33.8755 11.9258 34.2077C11.8548 34.2859 11.4938 34.302 11.4647 34.1776C11.4015 33.908 11.5557 33.5358 11.6265 33.2869C11.7897 32.7135 11.9769 32.1501 12.1976 31.5958C12.5029 30.8286 12.8611 30.1274 13.3733 29.4713C13.5322 29.2677 13.6561 29.0529 13.7979 28.8445ZM13.7979 28.8445C13.8294 28.7982 13.8617 28.7523 13.8955 28.7069C13.9398 28.6474 14.0359 28.571 14.0359 28.5144M16.5095 25.2644C16.7289 25.0609 16.6056 25.2103 16.4087 25.3397C15.7963 25.742 15.1404 26.2844 14.6406 26.8172C14.103 27.3903 13.6445 28.073 13.2023 28.719C12.7425 29.3905 12.2304 30.0783 11.8701 30.8162M11.8701 30.8162C11.8239 30.9107 11.7803 31.006 11.7395 31.1023C11.512 31.6396 11.4809 32.2219 11.2845 32.7663C11.1754 33.0687 11.0157 33.793 10.9028 34.0934C10.7892 34.3956 10.8778 33.022 10.8845 32.971C11.017 31.9621 11.1571 30.9189 11.5319 29.9678C11.7827 29.3312 12.2295 28.7285 12.5762 28.1352C12.8481 27.6701 13.25 27.2838 13.6481 26.9225C13.9867 26.6152 14.3271 26.3055 14.6711 26.0047C14.7296 25.9535 14.7905 25.9052 14.8503 25.8557M11.8701 30.8162C11.9841 30.2615 12.1489 29.7322 12.4907 29.2576C12.6485 29.0386 12.8241 28.8317 12.9793 28.6106C13.4399 27.9551 13.7059 27.1682 14.1978 26.5343C14.3264 26.3685 14.6404 26.0568 14.8503 25.8557M11.8701 30.8162C11.8425 30.9503 11.8179 31.0859 11.7945 31.2226C11.7197 31.6594 11.5545 32.1974 11.6174 32.6309M14.8503 25.8557C14.902 25.8128 14.953 25.7691 15.0009 25.7218C15.1225 25.6021 15.0207 25.6924 14.8503 25.8557ZM12.1121 33.6601C12.2171 32.3142 13.1364 31.0698 13.7611 29.9227" stroke="black" stroke-linecap="round"/>
<path id="Vector_2" d="M8.00895 44.9054C7.51414 44.8159 7.02173 44.8692 6.52143 44.9105C5.04689 45.0323 4.30443 45.8495 4.00694 47.1683M2.67294 45.9011C1.12851 46.6346 0.497284 48.5199 1.4501 49.949C1.93503 50.6764 2.78325 50.8073 3.63638 50.7586C5.22289 50.6681 6.74106 50.1765 8.19952 49.6121M8.2948 51.8749C10.4263 52.4598 12.5385 52.8265 14.7637 52.5588C15.8835 52.4241 16.6407 52.106 17.347 51.3319M20.9678 52.237C22.7776 52.768 24.6409 53.1849 26.5473 52.9158C28.08 52.6995 29.3757 51.8578 30.7082 51.171C32.1146 50.446 33.3022 49.4216 34.8796 49.069M32.4974 51.5129C34.0711 52.0076 35.6651 52.3999 37.3305 52.4683C38.6795 52.5237 39.9321 52.2404 41.2425 51.9956C43.9298 51.4936 46.5967 51.7388 49.2889 52.0962C50.7476 52.2898 52.2175 52.6191 53.6932 52.6896C56.1595 52.8072 57.796 50.9627 59.6962 49.773C60.1089 49.5147 60.8744 49.0145 60.9879 48.9785M61.7502 36.2162C63.9898 36.0053 66.5135 35.6446 68.5049 36.885C69.9656 37.7949 72.013 39.577 71.9828 41.3805C71.9708 42.0975 72.2112 42.1651 72.7292 42.6326C73.6228 43.4389 74.0123 44.8888 73.9997 46.0218C73.9858 47.2787 73.0315 48.092 71.8822 48.5511C70.6238 49.0538 69.0758 49.421 67.7108 49.5065C65.7923 49.6267 63.8624 49.4904 61.9407 49.6121M24.125 17.6503C25.3272 17.0358 28.7044 14.8883 27.7498 15.843C26.838 16.7547 25.924 17.7346 25.2482 18.8449C24.579 19.9442 26.1734 18.7203 26.453 18.5692C27.1442 18.1958 29.3216 17.4665 28.536 17.4665M28.9062 10.85C29.1025 10.6919 32.4812 7.85349 32.0715 9.29802C31.8537 10.0663 31.5565 10.8296 31.2955 11.5852C31.2679 11.6651 30.8032 12.6466 30.9075 12.6675C31.2144 12.7289 32.1056 12.1837 32.2962 12.0957C33.2666 11.6479 34.2001 11.1438 35.1551 10.6662M33.8672 2.76324C34.5643 2.4622 37.6216 0.418979 37.5328 2.1506C37.4921 2.94473 37.3592 3.72243 37.3592 4.51946C37.3592 5.16017 37.1784 6.4323 38.1761 6.21442C39.6488 5.89279 41.0847 5.10853 42.5054 4.60114" stroke="white" stroke-linecap="round"/>
</g>
</svg>
