<svg width="70" height="50" viewBox="0 0 70 50" fill="none" xmlns="http://www.w3.org/2000/svg">
<g clip-path="url(#clip0_112_13696)">
<rect opacity="0.2" width="70" height="50" fill="#D9D9D9"/>
<path opacity="0.95" d="M10.5 49.5L10 53L48 50.5L47 47L46 45.5L48 44L47.5 42.5L49 42L50.5 40C50.5 39.3333 50.6 37.8 51 37C52.2 37.4 52.8333 36.8333 53 36.5C53.1667 35.8333 53.3 34.2 52.5 33C54 33 54 30 53 29C52.2 28.2 51 28.6667 50.5 29L49.5 27C49.6667 26.3333 50.2 24.4 51 22C52 19 50 16.5 49 16.5C48.2 16.5 45.3333 15.5 44 15C44.1667 14.1667 44.4 12.3 44 11.5C43.5 10.5 42 11 40.5 11C41.3 9.4 40.1667 8.66667 39.5 8.5L38 7L34.5 8.5L32 6.5L29.5 6L27 7L24.5 10V13C23.8333 12.5 22.3 11.7 21.5 12.5C20.7 13.3 20.1667 14.8333 20 15.5C18.8333 15.5 16.3 15.6 15.5 16C14.7 16.4 15.1667 19.5 15.5 21C14.3333 20.8333 11.9 20.9 11.5 22.5C11.1 24.1 12 26.1667 12.5 27C12 27.5 10.9 28.8 10.5 30C10.1 31.2 12 32.5 13 33H15C14.8333 33.8333 14.6 35.8 15 37C15.4 38.2 17.5 38.1667 18.5 38L20 37L21 38C20.6667 38.5 19.8 39.7 19 40.5C18.2 41.3 17.6667 43.1667 17.5 44C16.6667 43.8333 14.8 43.7 14 44.5C13.2 45.3 13 47.5 13 48.5L10.5 49.5Z" fill="white"/>
<path opacity="0.95" d="M59 5C60.2 4.2 61.1667 6.66667 61.5 8C62 8.5 63.9999 8 64.9999 8C65.9999 8 65.9999 8.5 65.9999 9.5C65.9999 10.5 62.5 13 60.5 13C58.5 13 57.5 6 59 5Z" fill="white"/>
<path d="M27.57 20.4303C27.6311 19.9418 29.0676 20.5819 29.251 20.7164C30.3718 21.5383 30.0868 23.9188 29.0436 24.6506C28.4268 25.0832 28.5848 25.0792 29.1222 25.5376C29.7429 26.0669 30.5353 27.0186 30.4956 27.891C30.4479 28.9412 28.6647 29.2811 27.7989 29.3144C27.5012 29.3259 28.4458 32.2863 28.3783 32.8194C28.2871 33.5398 27.3229 33.7687 26.7403 33.8853C26.3869 33.9559 26.1704 33.9228 25.8247 33.8495C25.4639 33.773 25.6442 34.9098 25.6387 35.137C25.5965 36.8871 22.7144 37.7704 21.261 37.7551C20.8122 37.7504 20.1873 36.7312 19.9019 36.8609C19.4187 37.0806 19.0882 37.5467 18.5857 37.7551C17.6728 38.1336 16.3311 38 15.2953 37.0398C14.6326 36.4254 14.3411 34.1224 14.8733 33.3774C15.1242 33.026 14.5 33.0004 13.5786 33.3345C12.1581 33.8495 9.5 31 11.0464 28.5848C11.6028 27.7158 12.9837 27.3889 12.6343 26.9897C12.1726 26.4619 11.6619 25.6649 11.5042 25C11.3208 24.2272 11.4126 23.4511 11.5042 22.6477C12 21.5 12.7631 21.2705 13.6358 21.0025C13.8745 20.9292 15.4858 20.8785 15.5313 20.6735C15.6443 20.1654 15.2764 19.3797 15.2309 18.8566C15.1864 18.3442 15.1801 17.7962 15.2238 17.2829C15.3651 15.6218 17.5575 15.1389 18.9148 15.3802C19.1632 15.4243 19.824 15.5245 19.9734 15.28C20.5349 14.3612 20.2093 12.8916 21.4684 12.5261C23.2805 12 23.891 12.9255 24.7374 13.3487M25.2525 13.6062C24.9729 13.5596 25.7692 13.3699 26.0393 13.2843C28.1098 12.6283 30.1865 11.9828 32.1981 11.1598C33.1812 10.7577 34.4832 9.9126 35.6137 9.76557M35.6137 9.76557C35.724 9.75123 35.8327 9.74353 35.9392 9.74353M35.6137 9.76557C36.4824 9.3471 37.3038 8.86439 38.0927 8.24423M35.6137 9.76557C34.7444 10.1844 33.8277 10.5388 32.8491 10.9023M36.9264 8.45599C37.1971 8.28745 37.6194 8.22367 38.0927 8.24423M38.0927 8.24423C39.2456 8.29433 40.7016 8.84481 41.0108 9.60049C41.2678 10.2288 41.0165 10.6873 40.7032 11.1885C40.5075 11.5016 41.271 11.1834 41.3756 11.1599C42.419 10.9251 43.2877 10.7913 44.0079 11.7464C44.4568 12.3417 44.9906 13.7093 44.1796 14.25M38.0927 8.24423C38.3632 8.03154 38.63 7.80267 38.8935 7.55469C39.4986 6.98511 41.3313 5.83427 40.6817 4.9295C40.0909 4.10653 39.8476 4.82777 39.3155 5.23708C38.7698 5.65684 38.4533 6.29659 37.842 6.68201C36.8662 7.29713 36.0341 8.0712 35.0165 8.63481C35.0098 8.63852 35.0031 8.64223 34.9964 8.64593M44.1796 14.765C43.9444 15.0674 45.5573 15.8624 45.8391 15.9524C47.4895 16.4799 49.1884 16.738 50.0952 18.3702C51.6541 21.1761 51.1357 24.1452 49.6022 26.842M49.6022 26.842C49.5973 26.8507 49.5923 26.8594 49.5873 26.8681M49.6022 26.842C48.84 26.1589 48.0123 25.6691 47.0408 26.2243M49.6022 26.842C49.6741 26.9064 49.7454 26.9726 49.8162 27.0397C50.2142 27.4173 50.3843 27.8266 50.4599 28.3559C50.4649 28.3904 50.4565 28.8507 50.5172 28.8709C50.5569 28.8842 50.7348 28.7845 50.7747 28.7708C51.2149 28.619 51.8344 28.6364 52.2973 28.7708C53.2102 29.0358 53.9437 29.597 54.0079 30.6234C54.086 31.8739 53.3531 32.3728 52.4843 33.0412C52.7378 33.8495 53.4009 34.3623 53.4857 34.7865C53.6635 35.6753 53.1786 36.3342 52.4485 36.7536C51.9085 37.0638 51.2622 37.0884 50.6745 36.911C49.8877 36.6735 50.5115 37.1913 50.6459 37.6978C52 40.5 49.5512 42.6131 47.7704 42.1185C47.141 41.9436 47.3526 42.2034 47.6631 42.705C48.0521 43.3334 48.4337 44.0318 47.8276 44.6864C47.355 45.1968 46.1614 45.07 45.8534 45.602C45.7298 45.8155 46.3513 46.2481 46.4471 46.3602C46.9312 46.9271 47.2922 47.5853 47.5629 48.2773C47.883 49.0951 47.9117 49.6614 47.5272 50.4304M31.304 38.9711C31.2217 37.9842 30.9788 36.9683 31.8333 36.21C32.7753 35.374 33.9543 35.1084 35.1667 35.1084M35.2954 34.9797C35.1327 32.9192 36.4542 31.2744 38.3283 31.7608C38.5368 31.755 38.5208 31.7764 38.6144 31.5891C39 30 40.088 29.0998 41.6187 28.3488C42 27.5 41.5165 26.8431 42.2053 26.2815C43.152 25.5096 45.408 25.3934 46 26.2815C46.8584 27.2815 46.6174 27.6176 46.4471 28.3559C46.2539 29.0998 46.1459 29.1966 46.2539 29.0998C46.8259 28.5873 47.9341 28.6816 48.6001 29.0998C49.4411 29.6279 49.5899 30.82 49.6022 32C49.6145 33.18 48.8626 33.1986 47.8777 33.9282C47.7128 34.0503 47.5231 34.1426 47.6845 34.3502C47.6845 34.3502 47.9958 36.21 47.6631 36.7536C46.8648 38.0579 45.8534 38.9711 43.7217 38.8996C43.5956 38.9677 43.6659 39.3444 43.6717 39.4504C43.7391 40.6975 43.3902 41.6662 42.52 42.6049C41.4289 43.7819 40.1685 43.7085 38.7503 43.1557C38.4868 43.0529 37.9761 42.6406 37.6917 42.6406C37.5653 42.6406 37.83 42.8533 37.9134 42.9482C38.1984 43.2728 38.4732 43.5894 38.643 43.9926C39.0931 45.0616 38.9061 46.6006 37.9063 47.3116C36.9597 47.9847 35.6433 47.5211 35.1666 46.5677M35.8105 9.61478C35.6724 9.43576 35.5287 9.25729 35.3796 9.08099M35.3796 9.08099C35.2555 8.93415 35.1277 8.78881 34.9964 8.64593M35.3796 9.08099C36.9501 7.94785 38.3419 6.55568 40.0594 5.62335M35.3796 9.08099C34.6733 9.59062 33.9309 10.0479 33.1066 10.3873M34.9964 8.64593C34.3999 7.99697 33.731 7.39866 33.0065 6.93952C32.3234 6.50667 31.5304 6.16278 30.7461 5.9667C29.4624 5.64577 28.1975 6.1784 27.0758 6.91095M34.9964 8.64593C32.7744 9.87542 30.6341 10.8665 28.2803 11.7612M27.0758 6.91095C26.4841 7.2974 25.9322 7.73949 25.4385 8.14124C24.2901 9.07567 24.183 10.2089 24.48 11.589C24.5615 11.9678 24.712 12.3266 24.7947 12.7049C24.9136 13.2482 24.8857 13.1394 25.2525 12.8337M27.0758 6.91095C26.9831 6.91085 26.8903 6.9109 26.7975 6.9109M27.0758 6.91095C28.0978 6.91206 29.1153 6.93184 30.1022 7.2471C31.4036 7.66281 31.9028 8.48307 32.5694 9.57851L32.5915 9.61477M25.51 12.8337C26.3962 12.7815 27.3361 12.1177 28.1495 11.8108C28.1932 11.7943 28.2368 11.7778 28.2803 11.7612M28.2803 11.7612C26.8218 10.7475 26.6127 9.10378 27.1838 7.42593M28.2803 11.7612C28.3009 11.7755 28.3216 11.7896 28.3426 11.8036M26.7975 6.39588C25.0494 6.59915 25.7852 4.49572 26.9763 5.06541C27.6099 5.36843 27.4179 7.79552 26.4112 5.49459M47.1409 19.1427C46.0436 19.9023 45.9766 21.3726 47.3698 21.8895C48.0521 22.1426 48.4892 21.1249 48.6001 20.6305C48.7807 19.8264 47.3103 18.6066 46.9549 19.4789C46.8037 19.8502 46.6726 20.3503 46.8119 20.745C46.9092 21.0209 47.2868 21.5436 47.5772 21.1241C47.7197 20.9183 47.7032 20.417 47.5272 20.23C47.435 20.1321 47.3621 20.384 47.2697 20.4303M39.9306 16.8251C39.9306 17.203 39.8912 17.6147 40.088 17.9553C40.3861 18.4713 41.011 18.681 40.882 17.8552C40.814 17.4202 40.6578 17.2948 40.3812 17.0182C40.1205 16.7575 39.9338 17.2049 40.0594 16.9539M36.4542 19.0139C36.0847 19.5219 36.7084 20.7178 37.3483 20.5948C37.9028 20.4881 37.7085 19.866 37.4771 19.5504C37.2314 19.2154 36.9973 19.2855 36.7117 19.1427M21.0036 38.4561C20.5 38.4561 19.4259 39.0991 19 39.5C17.7947 40.6344 17.6273 42 17.6273 43.6063C17.6273 43.6063 17.2 43.5879 17 43.6063C16.0136 43.6974 14.7447 43.449 13.5 45C12.8988 45.7492 12.8571 47.3345 13.2782 48.2558C13.4743 48.6847 11.6007 49.0376 11.2467 49.1857C10.4142 49.5341 10.4456 49.8953 10.4456 50.6879" stroke="black" stroke-linecap="round"/>
<ellipse cx="37" cy="20" rx="0.5" ry="1" fill="black"/>
<path d="M54.6747 24.9381C56.8916 22.6076 59.0901 19.9926 59.6095 16.7465M60.5714 9.21027C61.5834 8.6008 64.9916 6.67644 65.6976 8.80326C66.2729 10.5366 62.3417 13.0995 61.0001 13C58.5845 12.8209 58.5531 7.59855 58.6413 5.69072C58.6806 4.83962 59.5697 4.59994 60.1997 5.03493C61.1524 5.69268 61.3012 7.13338 61.5194 8.16763" stroke="black" stroke-linecap="round"/>
</g>
<defs>
<clipPath id="clip0_112_13696">
<rect width="70" height="50" fill="white"/>
</clipPath>
</defs>
</svg>
