<svg width="80" height="50" viewBox="0 0 80 50" fill="none" xmlns="http://www.w3.org/2000/svg">
<g clip-path="url(#clip0_112_13698)">
<rect opacity="0.2" width="80" height="50" fill="#D9D9D9"/>
<path opacity="0.95" d="M14.3171 6.07298L13.3333 8.90708L20.5825 10.8943C20.6788 11.6334 20.8058 13.3006 20.5434 14.0563C20.2155 15.001 18.3065 15.9262 16.2531 15.7426C14.6104 15.5958 13.6793 15.0256 13.419 14.7588L13.5439 17.4485L12.1073 18.5376L10.2179 17.8817L10.2374 16.3007L10.7294 14.8836L9.94862 14.0834L7.73129 14.3722L5.67792 14.1886L4.11646 12.5881L5.2447 10.8626L7.31762 9.46515L8.26232 9.79309L7.50116 7.41178L7.21234 5.19444L8.1766 3.94137L11.8306 2.56344L14.1923 3.3833L14.3171 6.07298Z" fill="white"/>
<path d="M8.85372 14.2837C8.10051 14.314 7.52392 14.9206 6.7301 14.7186C5.37133 14.3727 3.53535 12.6441 4.71594 11.1978C5.24761 10.5465 6.27761 9.72995 7.17779 9.74697C7.49258 9.75292 7.85327 9.94287 8.14964 10.0457C8.56385 10.1895 8.83654 10.4952 8.5543 9.94989C7.99589 8.87093 7.49612 7.82454 7.39553 6.59104C7.34891 6.01944 7.25636 5.07302 7.5361 4.54658C7.85784 3.94112 8.50036 3.63439 9.11499 3.41622C10.4434 2.94468 12.2843 2.51845 13.6826 2.97128C15.0948 3.4286 14.4436 5.85224 13.9673 6.75016C13.563 7.51229 13.1698 8.28451 12.7574 9.04076M10.6326 15.1617C10.1848 15.6321 9.9247 16.2639 9.95373 16.9228C10.0157 18.3307 11.5766 19.2741 12.7148 18.3058C13.4411 17.6878 13.6293 16.636 13.5219 15.7306C13.5124 15.6504 13.3226 15.0805 13.5099 15.0705C13.7834 15.0559 14.0758 15.3251 14.2773 15.472C16.0803 16.7864 19.1741 16.21 20.3525 14.3108C20.9154 13.4034 21.1411 12.2783 20.736 11.2606C20.0545 9.54834 18.0296 9.90477 16.5604 9.84003M14.5253 8.69951C13.8309 8.70813 13.3427 9.26128 12.8873 9.72251C12.3131 10.3039 11.7231 10.8696 11.1383 11.4401C10.582 11.9828 8.86559 14.6455 10.4061 14.7165C10.9451 14.7414 11.4482 14.0222 11.7949 13.689C12.4095 13.0983 13.049 12.5325 13.6468 11.9251C14.4407 11.1183 15.1569 10.3752 15.49 9.22731C15.5633 8.97494 15.3563 8.88484 15.1549 8.83122C14.7863 8.7331 14.4891 9.14228 14.2892 9.37961C13.8736 9.87325 13.3708 10.2703 12.9436 10.7549C11.9876 11.8397 11.017 12.943 10.2457 14.1641C9.76875 14.9192 10.9049 13.7376 11.0249 13.6146C11.6682 12.9556 12.253 12.3356 12.9716 11.7582C13.6603 11.2049 14.2037 10.4964 14.5922 9.70182C14.6156 9.65388 14.7063 9.1786 14.647 9.34945M16.6603 8.05155C17.7861 6.68416 19.7894 6.67131 21.3745 6.47581M15.71 7.28762C16.1136 6.12512 16.7755 5.03971 16.9979 3.82791M7.49975 17.7313C6.0708 18.5649 5.45173 21.0309 5.70029 22.5438C5.8511 23.4617 6.33731 24.7946 7.14756 25.5546M7.14756 25.5546C7.43647 25.8256 7.76657 26.0238 8.13736 26.1043C9.52184 26.4049 10.8952 24.3991 9.74249 23.3831C9.3576 23.0439 8.75549 23.0851 8.32126 23.3006C7.41841 23.7486 7.02659 24.6233 7.14756 25.5546ZM7.14756 25.5546C7.16535 25.6916 7.19423 25.8298 7.2342 25.968C7.68762 27.536 8.75419 28.4941 10.0068 29.4436C10.066 29.4885 10.8199 30.0822 10.5558 29.8114M13.7062 30.76C14.9978 31.1555 16.2388 31.0228 17.5592 30.9377M21.7267 30.2095C22.5105 29.9394 23.1525 29.4157 23.7789 28.8921M27.1439 26.9742C27.3092 26.8651 27.4682 26.7747 27.6417 26.6906M30.9547 26.1861L31.4505 26.0729" stroke="black" stroke-linecap="round"/>
<g opacity="0.95">
<path d="M45.4089 18.6781V22.0976L46.5488 23.8074C46.1689 23.6174 44.953 23.1235 43.1293 22.6675C41.3056 22.2116 39.3298 22.8575 38.5699 23.2374C38.19 23.6174 37.658 24.7192 38.5699 26.087C39.4818 27.4548 41.9894 28.1767 43.1293 28.3667C42.7493 28.9366 41.9894 30.3044 41.9894 31.2163C41.9894 32.3562 45.4089 34.0659 47.1187 33.496C48.4865 33.0401 49.2084 31.4063 49.3984 30.6464C50.3482 30.8364 52.4759 31.2163 53.3878 31.2163C54.5277 31.2163 55.6675 30.0765 56.2374 28.3667C56.6934 26.9989 54.1477 26.277 52.8179 26.087C53.5778 25.7071 55.0976 24.6052 55.0976 23.2374C55.0976 21.8696 51.6781 22.6675 49.9683 23.2374V20.3878L48.8285 18.1082L46.5488 17.5382L45.4089 18.6781Z" fill="white"/>
<path d="M55.0976 38.0554C53.7297 37.1435 51.1081 39.5751 49.9683 40.905C48.8284 39.7651 46.5488 38.6253 43.1293 39.1952C43.6991 42.6147 46.5488 44.3245 48.8285 44.8944C51.1081 45.4643 52.8179 44.3245 53.9578 43.1846C55.0977 42.0448 56.8074 39.1952 55.0976 38.0554Z" fill="white"/>
</g>
<g opacity="0.95">
<path d="M61.3667 7.27968L62.5065 5.56992C63.0764 5 63.6464 5 64.2163 5C64.7862 5 67.0659 6.70976 67.6358 8.41952C68.0917 9.78733 67.4458 12.029 67.0659 12.9789L63.0764 10.6992L61.3667 7.27968Z" fill="white"/>
<path d="M71.0553 11.2691C70.1434 12.181 69.5355 15.0686 69.3456 16.3984H72.1952C73.145 14.3087 74.9308 10.0153 74.4748 9.55936C73.9049 8.98944 72.1952 10.1293 71.0553 11.2691Z" fill="white"/>
<path d="M73.9049 19.8179C72.993 20.7298 72.0052 22.8575 71.6252 23.8074C73.145 23.4274 76.4126 22.4396 77.3244 21.5277C78.2363 20.6158 78.0843 18.4881 77.8944 17.5382C76.9445 17.9182 74.8168 18.906 73.9049 19.8179Z" fill="white"/>
<path d="M74.4748 28.3667C73.107 29.2786 72.0052 31.4063 71.6252 32.3562C75.0448 34.0659 77.3244 30.6464 77.8944 30.0765C78.4643 29.5066 79.0342 27.7968 78.4643 26.657C77.8944 25.5171 76.1846 27.2269 74.4748 28.3667Z" fill="white"/>
<path d="M62.5065 29.5066C63.8743 29.0506 68.3957 31.5963 70.4854 32.9261C69.9155 33.1161 68.3197 33.496 66.496 33.496C64.6722 33.496 63.0764 31.9762 62.5065 31.2163C61.9366 30.8364 61.1387 29.9625 62.5065 29.5066Z" fill="white"/>
<path d="M67.6358 27.2269C69.0036 27.2269 70.4854 25.3271 71.0553 24.3773L64.7862 22.0976C64.4062 21.9076 63.0764 21.8696 60.7968 23.2374C61.9366 27.2269 65.926 27.2269 67.6358 27.2269Z" fill="white"/>
<path d="M65.3561 19.8179C67.6358 19.8179 68.2057 17.5382 68.2057 16.9683L61.9366 14.6886C61.5566 15.2586 60.7968 16.5124 60.7968 16.9683C60.7968 17.5382 63.0764 19.8179 65.3561 19.8179Z" fill="white"/>
</g>
<path d="M70.3167 44.3747C70.3817 44.6265 70.4235 44.9327 70.5008 44.4799C70.6606 43.5443 70.7149 42.5844 70.7902 41.6393C71.0199 38.7549 70.9918 35.8729 71.1452 32.9858C71.3216 29.6679 71.3698 26.3436 70.8165 23.0566C70.1882 19.3245 68.2816 16.1536 66.7659 12.7723M66.2924 12.4172C64.7006 12.0605 63.3556 11.0609 62.4654 9.69494C61.7636 8.61793 60.9716 6.68264 62.2024 5.67066C63.4304 4.66098 65.1666 5.37893 66.1872 6.34137C67.9277 7.9827 67.5886 10.518 67.3577 12.654M69.2515 16.915C69.4412 14.7587 69.9344 12.8751 71.2767 11.135C71.8615 10.377 73.1099 9.14994 74.2226 9.51082C75.1349 9.8067 74.7907 10.9845 74.5777 11.6282C74.2632 12.5784 73.6233 13.8641 73.1311 14.7319C72.8404 15.2443 72.4364 16.0236 71.8488 16.3034C70.9892 16.7128 69.9301 16.8045 69.0147 17.0333M68.3046 17.1517C66.6284 16.2544 64.8316 15.1849 62.9849 14.6858C62.0511 14.4334 61.4357 14.7888 60.9267 15.6196C60.2691 16.6931 60.4004 17.6502 61.3081 18.48C62.5895 19.6513 64.7073 20.3276 66.3253 19.5058C67.319 19.001 67.8982 18.0283 68.778 17.3884M71.5003 23.8983C71.526 23.8153 71.5529 23.7328 71.5808 23.6508M71.5808 23.6508C72.556 20.7859 74.8641 18.4955 77.6222 17.2109C78.1126 16.9825 77.9978 17.8731 77.9905 18.138C77.9627 19.1358 77.7205 20.1613 77.2211 21.0313C76.3034 22.6301 74.8303 23.4308 73.039 23.5958C72.7152 23.6256 72.0926 23.6419 71.5808 23.6508ZM71.5808 23.6508C70.9743 23.6614 70.5232 23.6615 70.9085 23.6615M70.3167 24.0166C68.2129 23.2298 65.7619 22.073 63.4649 22.1426C62.4876 22.1722 60.8922 22.7079 61.2161 24.0035C61.7337 26.0739 64.5564 27.4342 66.5292 27.2255C68.2367 27.0449 69.6024 25.9906 70.6718 24.7268M71.5003 33.0121C71.5133 32.9696 71.5265 32.9274 71.54 32.8855M71.54 32.8855C72.1108 31.1088 73.1065 29.8008 74.5646 28.6064C75.2905 28.0118 77.1743 26.2524 78.2732 26.8441C78.9135 27.1889 78.7771 28.4419 78.6414 29.0141C77.9526 31.9202 74.2307 32.4079 71.54 32.8855ZM71.54 32.8855C71.0985 32.9639 70.6847 33.042 70.3167 33.1304M70.6718 33.1304C69.4825 32.2137 68.1701 31.4441 66.8514 30.7303C65.6252 30.0667 64.2411 29.3913 62.8074 29.4218C61.5713 29.4481 61.8901 30.5665 62.4523 31.263C63.2177 32.2111 64.3472 33.0247 65.4771 33.4724C67.2168 34.1616 68.5682 33.6768 70.3167 33.4855M49.9457 31.2367C49.9457 32.4912 50.0817 33.7357 50.1824 34.9848C50.4482 38.2837 49.9015 41.4605 49.4722 44.7298M49.9457 44.7298C50.006 43.2808 50.3443 41.6957 51.0898 40.4425C51.8181 39.2184 53.6708 37.5106 55.2522 38.0884C56.0661 38.3858 56.1024 39.4659 55.8374 40.1532C55.1269 41.996 53.0411 44.1558 51.1556 44.8482C50.7317 45.0038 49.8957 44.9665 49.5906 44.9665M49.1171 44.7298C47.507 44.3418 46.0882 43.7573 44.8824 42.5796C44.1801 41.8936 41.4243 38.7694 43.804 38.746C45.9851 38.7246 49.2029 39.1526 49.8667 41.5867C49.9965 42.0624 49.9258 42.6581 50.064 43.0728M47.4299 24.3916C46.3954 23.2992 45.2299 22.1855 45.0495 20.6107C44.9395 19.6507 45.1298 18.4042 45.9701 17.7963C46.7276 17.2483 47.7262 17.6774 48.4294 18.1185C49.3626 18.704 49.64 19.6472 49.8628 20.6698C50.0425 21.4942 50.1284 22.5088 49.8431 23.333C49.7792 23.5175 49.0893 24.524 49.4025 24.1681C50.3749 23.0631 51.7538 21.8128 53.3413 22.1757C53.9698 22.3193 54.8116 22.6863 55.1365 23.2869C55.7763 24.4701 54.3031 25.4663 53.44 25.9172C52.9175 26.1901 52.3921 26.3727 51.8355 26.5484C51.7732 26.5681 51.5794 26.5945 51.6448 26.5945C51.8503 26.5945 52.0461 26.5035 52.2498 26.4761C53.2803 26.3377 54.4212 26.4505 55.3206 27.0087C56.763 27.904 56.4404 29.6857 55.1496 30.5201C53.7281 31.4391 51.4697 31.0997 50.0667 30.2505C49.3981 29.8458 49.3963 30.5886 49.1527 31.1514C48.7588 32.0612 48.1668 32.9068 47.2589 33.3608C45.6135 34.1835 42.9379 33.4806 42.268 31.6051C41.7339 30.1095 43.4622 29.182 44.4445 28.4422C44.7649 28.2009 45.842 27.6581 45.4769 27.8241C44.3542 28.3344 43.3945 28.7288 42.1496 28.3633C40.7234 27.9446 36.6568 25.7323 38.4476 23.7341C39.5384 22.5169 41.9574 22.2992 43.4516 22.6359C44.7064 22.9187 45.8957 23.6845 46.9564 24.3916M49.3237 23.9182C48.0248 24.1071 45.7994 24.3057 46.1805 26.2591C46.3293 27.0217 46.849 27.6688 47.4299 28.1529C48.7774 29.2758 50.0135 27.8073 50.5993 26.5353C51.3628 24.8775 49.3638 24.3514 48.1664 24.602C47.7331 24.6927 47.5788 25.0186 47.5134 25.3995M47.5134 25.3995C47.4789 25.6006 47.4691 25.8171 47.4562 26.0224C47.4394 26.2897 47.4211 26.5951 47.4338 26.8928M47.5134 25.3995C46.7255 25.5912 46.1608 25.9244 46.7986 26.5484C46.9379 26.6847 47.1653 26.8034 47.4338 26.8928M47.5134 25.3995C47.8309 25.3223 48.1847 25.2681 48.5106 25.2271M47.4338 26.8928C47.443 27.1078 47.4683 27.3188 47.5219 27.5085C47.5291 27.534 47.6407 27.2658 47.7601 26.9825M47.4338 26.8928C47.5374 26.9273 47.647 26.9574 47.7601 26.9825M47.7601 26.9825C47.8706 26.7201 47.9878 26.4447 48.0348 26.3775C48.1142 26.2641 48.1995 26.6421 48.2681 27.0583M47.7601 26.9825C47.9249 27.0191 48.097 27.0451 48.2681 27.0583M48.2681 27.0583C48.3427 27.511 48.3974 28.0089 48.4031 27.9688C48.445 27.6702 48.4656 27.3695 48.4766 27.0681M48.2681 27.0583C48.3379 27.0637 48.4076 27.067 48.4766 27.0681M48.4766 27.0681C48.4905 26.6844 48.4888 26.2997 48.4951 25.9172C48.4954 25.9039 48.4697 25.4827 48.5106 25.2271M48.4766 27.0681C48.7789 27.0726 49.0668 27.0336 49.2925 26.9393M48.5106 25.2271C48.5415 25.0335 48.6107 24.9349 48.7582 25.1807C48.7613 25.186 48.7645 25.1912 48.7676 25.1965M48.5106 25.2271C48.5987 25.216 48.6848 25.2059 48.7676 25.1965M48.7676 25.1965C49.085 25.7365 49.1278 26.3669 49.2925 26.9393M48.7676 25.1965C49.1317 25.1554 49.4319 25.1293 49.5604 25.1018M49.2925 26.9393C49.3387 27.0996 49.3944 27.2553 49.4683 27.4033C49.5991 27.6649 49.5974 27.2198 49.5879 26.7453M49.2925 26.9393C49.4101 26.8902 49.5108 26.8261 49.5879 26.7453M49.5879 26.7453C49.5825 26.4774 49.5746 26.2002 49.5867 26.0355C49.6241 25.5237 49.6531 25.8551 49.705 26.0224C49.8046 26.3433 49.7461 26.5794 49.5879 26.7453Z" stroke="black" stroke-width="1.13984" stroke-linecap="round"/>
</g>
<defs>
<clipPath id="clip0_112_13698">
<rect width="80" height="50" fill="white"/>
</clipPath>
</defs>
</svg>
