<svg width="60" height="80" viewBox="0 0 60 80" fill="none" xmlns="http://www.w3.org/2000/svg">
<g clip-path="url(#clip0_110_13535)">
<path d="M12 49.5C13.6 48.7 15.6667 49.1667 16.5 49.5L20 46.5C20.5 45.6666 21.7 43.6 22.5 42C23.3 40.4 26.5 41.3333 28 42L26.5 39.5C26.1667 38.6666 26 36.4 28 34C30 31.6 31.1667 32 31.5 32.5H36.5V31C39 30 39.8968 30.8491 42.5 31.5C44.5 32.0001 52 33.5 54.5 38.5C56 43.5 57.5 51 57.5 54.5C56 56.5 55.5 58 52 57.5C51.3333 58.1666 47.5 60.8 45.5 62C43.5 63.2 40.3333 62.5 39 62L36.5 66L33 68L30 69C29.8333 69.6667 28.8 70.3 28 71.5C27.2 72.7 25.5 74.1666 24.5 74L22.5 76L19.5 77.5C17.5 78 16.5 76.5 16.5 73.5C16.5 70.9702 18.5 67.5 20 66C19.8333 65.5 18.1073 64.6789 16.5 62C15.0981 59.6635 14.5697 57.7638 14.9147 56.7089C14.6443 57.2829 13.9075 58.2962 12.5 59C10.5 60 7.50002 61 6.00002 60C4.50002 59 6.00003 55 8.00003 54C10 53 10 50.5 12 49.5Z" fill="white"/>
<path d="M27.4948 40.6768C27.2004 40.0585 26.8647 39.3237 26.7254 38.6505C26.5374 37.7417 26.7237 36.8489 26.9261 35.9504C27.1853 34.7997 27.4371 33.9335 28.3933 33.2598C29.8268 32.2498 31.6002 31.8662 33.3444 32.0937C33.7025 32.1404 34.0559 32.2182 34.4149 32.2657C35.105 32.357 35.7959 32.499 36.4747 32.648C37.1677 32.8002 38.1103 32.8958 38.587 33.4987C39.6082 34.7901 39.1646 36.4529 38.0757 37.5418C37.1628 38.4546 35.4643 38.9146 34.2046 38.9516C32.6095 38.9985 31.2304 38.7272 29.7314 38.1822M46.764 50.0534C47.228 49.1253 47.712 48.4987 48.5036 47.8168C48.8983 47.4767 49.3203 47.153 49.6888 46.7845C49.7995 46.6738 50.0696 46.433 50.0711 46.2588C50.0745 45.8612 49.7634 45.3791 49.5836 45.1023C48.943 44.1159 48.1668 43.1298 47.2945 42.3352C46.5052 41.6163 45.115 42.076 44.3601 42.6124C43.8014 43.0093 43.3742 43.4735 43.0315 44.07C42.831 44.4191 42.483 44.8407 42.5489 45.2361M41.8607 46.7845C41.1085 46.8651 40.48 47.9105 40.016 48.438C39.4365 49.0969 39.0358 49.7857 38.955 50.6746C38.8685 51.6265 39.0637 52.3824 39.6432 53.1502C41.0672 55.037 43.5541 54.4405 45.6457 54.4405M48.0543 50.6555C49.4717 50.2897 51.0599 51.1986 51.7438 52.4333C52.7625 54.2728 51.9402 56.6166 50.8549 58.2447C49.624 60.0909 47.7208 60.8939 45.703 61.7334C44.5336 62.2199 42.7784 63.1464 41.4162 62.995C41.1183 62.9619 40.8259 62.8999 40.5273 62.8708C40.2821 62.8469 40.0413 62.7992 39.7961 62.7848C39.7523 62.7822 39.7491 62.751 39.7604 62.7163M39.7604 62.7163C39.7858 62.6385 39.8844 62.5432 39.7604 62.7163ZM39.7604 62.7163C39.7465 62.7357 39.7299 62.7583 39.7101 62.7848M51.7533 57.3653C52.629 57.3848 53.4475 57.4711 54.3245 57.3127C55.8298 57.041 56.5379 56.0635 57.3448 54.8706M33.4304 39.5586C32.6067 40.239 32.1044 40.9925 31.5857 41.9003C31.5276 42.0019 31.0032 42.8274 31.1078 42.8274M23.4517 41.7091C22.6564 41.6254 21.6482 42.6098 21.1769 43.1811C20.4316 44.0845 20.3951 45.0454 20.3597 46.1775C20.3187 47.4886 20.4013 48.7967 20.4457 50.1059C20.503 51.795 20.8299 53.7073 21.3729 55.3008C21.5823 55.9154 22.0897 56.2262 22.6775 56.4143C23.5368 56.6892 24.3789 56.7235 25.2678 56.7679C26.0981 56.8094 27.1798 56.792 27.9345 57.1694C28.6637 57.534 29.2849 58.0841 30.0086 58.4597C31.6051 59.2882 33.5088 60.1304 35.3181 60.3283C36.6046 60.469 37.8924 60.0998 38.8403 59.2196C39.4859 58.6202 39.7015 57.829 39.7101 56.9639C39.7154 56.4327 39.7411 55.8765 39.605 55.3581C39.3662 54.4491 38.7937 53.5357 38.4006 52.7105C37.487 50.7925 36.3522 48.8581 35.906 46.7654C35.7675 46.1159 35.5637 45.4617 35.1509 44.9302C34.5217 44.1201 33.7801 43.4557 32.8283 43.0855C32.1581 42.8249 31.5569 42.7508 30.8497 42.7414C29.4835 42.7232 28.0913 42.2747 26.778 41.9481C26.1655 41.7957 25.5416 41.6916 24.9333 41.5371C24.5892 41.4497 24.2552 41.4388 23.901 41.4511C23.7258 41.4571 22.9197 41.8015 23.3657 41.6231M30.7637 44.892C31.249 45.1077 31.7307 45.3239 32.1353 45.6757C32.7361 46.1982 32.9301 46.8612 33.2584 47.5587M24.7421 44.6339C25.4976 44.9109 26.3643 45.4892 26.5677 46.3161C26.7599 47.0977 26.5371 48.2634 26.1854 48.9828C25.5444 50.294 24.3055 50.8981 23.2797 51.8598M26.2045 49.9673C27.8406 49.4518 29.7448 50.3197 30.9357 51.4775C31.7874 52.3055 33.478 52.4798 33.6694 53.8193C33.7954 54.7013 33.7434 55.4123 33.4304 56.247M21.7313 51.2577C21.6835 51.8308 21.3605 52.1863 21.6978 52.7583C22.0558 53.3653 22.7522 53.7554 23.3466 54.0964C23.5245 54.1985 23.7191 54.3579 23.9296 54.3832C25.0001 54.5116 23.2383 52.1542 23.1889 52.0988C22.8905 51.7643 22.5146 51.4019 22.1518 51.1191C22.0681 51.0538 21.9754 50.9598 21.9224 51.0856C21.9171 51.0983 21.9136 51.1127 21.9115 51.1278M21.9115 51.1278C21.8953 51.2442 21.9628 51.4011 21.9115 51.1278ZM21.9115 51.1278C21.9091 51.1147 21.9063 51.1007 21.9033 51.0856M21.9894 51.6018C22.2599 52.1143 22.5387 52.6283 22.9595 53.0355C23.1089 53.1801 23.2963 53.2994 23.4135 53.4752C23.6873 53.8859 22.7284 52.7582 22.3334 52.462M23.9679 60.5482C24.7719 60.3789 25.8659 60.1845 26.6155 60.6151C26.9 60.7785 27.161 60.9664 27.3037 61.2746C27.4078 61.4995 27.4088 62.2584 27.4088 62.0106M18.0323 49.4512C18.8657 49.6055 18.8167 50.7882 18.6775 51.3915C18.6027 51.7157 18.536 52.0267 18.3812 52.3234C18.3548 52.3739 18.1695 52.7898 18.2904 52.548M19.3226 55.0427C19.3538 55.8221 20.0979 56.5201 20.527 57.1072M18.1183 56.5051C18.2561 57.1213 18.3464 57.605 18.883 57.9627C18.9764 58.025 19.1375 58.0666 19.0646 58.1395M19.8388 46.6124C19.4286 46.8117 19.0522 47.0147 18.6679 47.2624C17.749 47.8546 17.2748 48.31 16.7419 49.3365C15.9573 50.8479 15.0613 52.3779 15.0167 54.0964C14.9772 55.6189 15.0202 57.0073 15.442 58.4836C16.2305 61.2431 18.2308 63.2715 19.7528 65.6235M30.7637 68.3763C31.4068 68.3227 32.0336 67.9996 32.6562 67.841C33.6005 67.6005 34.5037 67.35 35.3898 66.933C36.1629 66.5692 36.8614 66.0377 37.3875 65.3655C38.1617 64.3762 38.3854 62.9921 38.7017 61.8146C38.876 61.1657 39.366 59.7715 39.366 59.0858M29.7314 66.9999C29.542 68.0312 29.4781 69.0259 29.0815 70.0107C28.6873 70.9893 28.0982 71.907 27.2845 72.5914C26.5733 73.1897 25.782 73.622 24.9476 74.0155C23.606 74.6484 22.5639 75.8591 21.4159 76.7683C20.7391 77.3042 20.0124 77.8586 19.1076 77.8245C17.8677 77.7777 17.031 76.8933 16.4743 75.8603C15.768 74.5495 15.8268 73.2769 16.3118 71.9128C17.2868 69.1706 19.1484 67.2965 21.6453 65.8816M14.2473 57.9675C12.7056 59.5091 10.6951 60.2855 8.49808 60.1515C7.46997 60.0888 6.36972 59.8268 5.5255 59.2005C5.15934 58.9288 5.02063 58.2491 5.08105 57.8241C5.30934 56.2185 6.99906 54.7194 8.09186 53.6472C8.85719 52.8963 9.37054 52.1064 10.013 51.2577C10.5799 50.5088 11.3448 49.7088 12.2401 49.3652C13.6279 48.8325 14.7492 48.885 16.0538 49.5372" stroke="black" stroke-linecap="round"/>
<path d="M36.5272 31.0423C36.5272 31.0423 37.0346 29.5929 37.5834 29.0637M42.1952 26.4161C44.3633 25.6161 46.6824 25.158 48.9814 24.9824C49.8411 24.9168 50.7004 24.8731 51.5621 24.8486C53.7543 24.7864 55.7948 25.2672 57.947 25.6228" stroke="white" stroke-linecap="round"/>
<path d="M15 55.5C14.6 54.7 15 52.5 15.5 51.5C15.1667 51.3333 14.2 51.1 13 51.5C11.5 52 11.5 54 10.5 55.5C10.3828 55.6758 10.2499 55.8394 10.1063 55.9912C9.56125 56.5671 9.70708 58 10.5 58C11.5 58 14.5 57.5 15 55.5Z" fill="black"/>
<path d="M19 71.5C19.8 69.9 22 68.5 23 68C23.4 68 26.5 67.6667 28 67.5C28.1667 67.6667 28.2 68.4 27 70C25.5 72 24 71.5 22.5 73C21 74.5 19 75.5 18.5 74.5C18 73.5 18 73.5 19 71.5Z" fill="black"/>
<path d="M13.5536 37.745C13.0606 37.7394 12.2408 37.4512 12.1644 36.8955C12.0599 36.1363 12.2354 34.9977 11.5626 34.4523C11.1937 34.1532 10.6943 34.1604 10.2526 34.1679M9.70126 35.8572C9.48943 35.5603 9.3936 35.2021 9.27937 34.8623M10.3022 33.067C10.5001 32.9755 10.697 32.8924 10.8991 32.8138M9.26714 32.1208L9.47468 31.2816M7.8991 32.161L7.36803 31.5176M7.3834 33.4361C6.97872 33.5326 6.57613 33.6345 6.17329 33.738M7.81612 34.5673C7.73759 34.8239 7.66732 35.079 7.60317 35.3384" stroke="white" stroke-linecap="round"/>
<path d="M17.0666 27.0522C16.9778 26.5883 17.0616 26.2038 17.5142 26.0015C17.6929 25.9217 17.8848 25.8072 18.0728 25.7555C18.2845 25.6973 18.3955 25.7986 18.5839 25.604C19.2363 24.93 19.4638 23.8814 19.8653 23.0716M18.0353 22.1343C18.3274 22.0528 18.6283 21.9079 18.8919 21.8072M18.2989 20.1692C18.3658 20.0877 18.8682 20.4317 18.8228 20.4272M20.4124 18.2495L20.3044 19.3377M21.6855 19.9557C21.9723 19.7933 22.2628 19.6433 22.5556 19.4926M22.3054 21.3215C22.5559 21.3579 22.7415 21.3961 22.8973 21.5863M21.7692 22.5735C21.8636 22.6934 21.9325 22.8101 22.0075 22.9406" stroke="white" stroke-linecap="round"/>
<path d="M55.6204 39.4615C56.2935 41.1384 56.8042 42.7843 57.221 44.5522C57.5986 46.1537 58.1362 48.6763 58.4691 50.3017C58.602 50.9504 58.943 52.1955 58.943 52.9886C58.943 53.4813 58.7913 53.9722 58.8707 54.4649C58.9208 54.7751 58.8996 55.2768 59.0007 55.479" stroke="white" stroke-linecap="round"/>
</g>
<defs>
<clipPath id="clip0_110_13535">
<rect width="60" height="80" fill="white"/>
</clipPath>
</defs>
</svg>
