<svg width="200" height="100" viewBox="0 0 200 100" fill="none" xmlns="http://www.w3.org/2000/svg">
<g opacity="0.95">
<path d="M147 25.5002C148 22.5002 147.5 19.5002 151 20.0002C154.5 20.5002 155.5 22.4998 155.5 24C157.1 23.6 159.167 23.8333 160 24C160.85 24.17 161 25 161.5 26C162.5 26 165.912 25.9119 166.5 26.5C167.042 27.0416 167.339 28.5181 168.5 29C170.5 28 173.68 29.7225 174 31.0002C176 30 177.5 29 180 29.5C182.5 30 182.5 33 182 35.5C184.5 36 185 39.5 182.5 41C185.395 42.2865 185.5 45.5 182.5 47C183.5 48 183.838 50.3477 183 51.5C181.975 52.9098 180.5 53 179.5 53C179.5 54.5 179.5 57 175.5 57C176 58.5 175.388 59.6036 174 60C174.097 60.9663 175 63 173.5 66C176.5 66.5 174.575 70.5 173.5 70.5C175.5 72.5 174 76 175 78C174.892 79.6182 173.886 80.4291 173.5 81.5C173.023 82.8251 173.115 84.2827 172.5 85C171.758 85.866 170.555 85.3119 169.5 86C168 89.5 166.225 89.0309 165 87.5C163.497 87.6116 162.085 88.5426 161 88C160.009 87.5045 160.682 86.0145 160 85.5C157.5 85.5 156.335 84.5 156 84.5C155.5 84.5 153 85.5 152 84.5C150.5 86 148 85.5 146.5 84.5C143.5 86 142.5 85.2571 142.5 83C140.829 82.5581 137.489 83.3153 137 82.5C136.659 81.9314 137.818 80.0909 137.5 79.5C135 79.5 134.114 76.7726 134.5 76C136.5 76 138 75 138.5 74.5C139.5 76.3333 142.3 79.9 145.5 79.5C148.7 79.1 149.5 74.3333 149.5 72C151.667 71.8333 156 70.9 156 68.5C156 66.1 152.667 64.1667 151 63.5C150.333 60.6667 148.7 54.8 147.5 54C146.3 53.2 144 53.3335 143 53.5002C141.671 52.2818 138 49.5 138.5 46.5L137.993 45.8663C137.292 45.1649 136.5 44.8538 136.5 44C136.5 43.097 136.5 42 137.5 40.5C136.5 38.5 136.709 35.468 138 34.5C138.179 32.8463 137.228 31.909 138.5 31.0002C139.705 30.1396 141.663 31.279 142.5 30.5C142.5 26.5 144.377 25.8281 147 25.5002Z" fill="white"/>
<path d="M136.5 54.5C139.7 52.5 140.167 54.3333 140 55.5L136.5 59L134.5 57.5C133.833 57.3333 133.3 56.5 136.5 54.5Z" fill="white"/>
</g>
<path opacity="0.95" d="M146 52.9999C142.8 52.1999 138.667 56.6666 137 58.9999C135 57.6666 130.5 55.6 128.5 58C126.5 60.4 130.333 64.3333 132.5 66C131 67.6667 128.6 71.7 131 74.5C133.4 77.3 137.333 75.6667 139 74.5C140 76.3333 142.8 79.9 146 79.5C149.2 79.1 149.667 74.3333 149.5 72C151 72 154.4 71.4 156 69C157.6 66.6 153 64.3333 150.5 63.5C150.333 60.3333 149.2 53.7999 146 52.9999Z" fill="white" stroke="black"/>
<path d="M136.5 63C137.5 65.8333 140.9 70.3 146.5 65.5M140.901 62.1496C140.411 62.2586 140.472 63.1763 140.44 63.5336M143.208 62.611L143.208 62.6394C143.208 63.1244 143.208 63.5333 143.054 63.995M137 58.9999C138.667 56.6666 142.8 52.1999 146 52.9999C149.2 53.7999 150.333 60.3333 150.5 63.5C153 64.3333 157.6 66.6 156 69C154.4 71.4 151 72 149.5 72C149.667 74.3333 149.2 79.1 146 79.5C142.8 79.9 140 76.3333 139 74.5C137.333 75.6667 133.4 77.3 131 74.5C128.6 71.7 131 67.6667 132.5 66C130.333 64.3333 126.5 60.4 128.5 58C130.5 55.6 135 57.6666 137 58.9999Z" stroke="black" stroke-linecap="round"/>
<path opacity="0.95" d="M98.7904 64.4435C95.523 64.8957 93.3555 70.5823 92.6802 73.3691C90.3271 72.8786 85.3809 72.641 84.4213 75.614C83.4616 78.587 88.486 80.8054 91.1181 81.5429C90.3486 83.649 89.6274 88.2866 92.8991 89.9885C96.1707 91.6904 99.2102 88.707 100.321 87.0026C101.933 88.3302 105.862 90.594 108.681 89.0285C111.501 87.4631 110.155 82.8667 109.129 80.7642C110.521 80.2043 113.451 78.3787 114.04 75.5549C114.628 72.7312 109.515 72.3452 106.884 72.5052C105.548 69.6296 102.058 63.9913 98.7904 64.4435Z" fill="white" stroke="black"/>
<path d="M93.7094 77.2667C95.6946 79.5221 100.516 82.3969 103.92 75.8536M97.4751 74.8351C97.0608 75.1192 97.4604 75.9476 97.5637 76.2913M99.7873 74.4021L99.7979 74.4285C99.979 74.8784 100.132 75.2578 100.161 75.7435M92.6802 73.3691C93.3555 70.5823 95.523 64.8957 98.7904 64.4435C102.058 63.9913 105.548 69.6296 106.884 72.5052C109.515 72.3452 114.628 72.7312 114.04 75.5549C113.451 78.3787 110.521 80.2043 109.129 80.7642C110.155 82.8667 111.501 87.4631 108.681 89.0285C105.862 90.594 101.933 88.3302 100.321 87.0026C99.2102 88.707 96.1707 91.6904 92.8991 89.9885C89.6274 88.2866 90.3486 83.649 91.1181 81.5429C88.486 80.8054 83.4616 78.587 84.4213 75.614C85.3809 72.641 90.3271 72.8786 92.6802 73.3691Z" stroke="black" stroke-linecap="round"/>
<path opacity="0.95" d="M71.5515 53.6059C69.2179 51.2747 63.3765 52.9813 60.7474 54.126C59.7173 51.9543 56.9197 47.8684 53.9705 48.8989C51.0212 49.9295 52.2874 55.2738 53.2891 57.8172C51.1457 58.4757 47.0138 60.7017 47.6331 64.3371C48.2524 67.9726 52.4659 68.5935 54.4952 68.4495C54.4105 70.5361 54.9788 75.0348 57.9293 76.3366C60.8797 77.6385 63.7303 73.7897 64.7868 71.7026C66.0734 72.4736 69.2983 73.7067 71.9044 72.4706C74.5105 71.2344 71.73 66.9256 70.014 64.9256C71.4988 62.1237 73.8852 55.937 71.5515 53.6059Z" fill="white" stroke="black"/>
<path d="M58.2623 57.3001C57.6636 60.2445 58.2839 65.8236 65.5548 64.585M62.4747 58.8331C61.9979 58.6745 61.579 59.4933 61.3675 59.7831M64.2161 60.4146L64.2015 60.439C63.9522 60.855 63.7421 61.2058 63.3727 61.5227M60.7474 54.126C63.3765 52.9813 69.2179 51.2747 71.5515 53.6059C73.8852 55.937 71.4988 62.1237 70.014 64.9256C71.73 66.9256 74.5105 71.2344 71.9044 72.4706C69.2983 73.7067 66.0734 72.4736 64.7868 71.7026C63.7303 73.7897 60.8797 77.6385 57.9293 76.3366C54.9788 75.0348 54.4105 70.5361 54.4952 68.4495C52.4659 68.5935 48.2524 67.9726 47.6331 64.3371C47.0138 60.7017 51.1457 58.4757 53.2891 57.8172C52.2874 55.2738 51.0212 49.9295 53.9705 48.8989C56.9197 47.8684 59.7173 51.9543 60.7474 54.126Z" stroke="black" stroke-linecap="round"/>
<path opacity="0.95" d="M19.0339 63.0342C15.9167 64.1127 14.8956 70.1121 14.7747 72.977C12.3712 72.9531 7.47312 73.6812 7.10949 76.784C6.74586 79.8869 12.1055 81.0865 14.8308 81.2985C14.4852 83.514 14.6791 88.2034 18.2191 89.237C21.759 90.2707 24.1608 86.7535 24.9192 84.8657C26.7585 85.8548 31.0524 87.3119 33.5139 85.2284C35.9754 83.1449 33.7616 78.8977 32.3471 77.0346C33.6034 76.215 36.1231 73.8547 36.1517 70.9704C36.1803 68.0861 31.0892 68.7012 28.5401 69.3693C26.6702 66.8082 22.1511 61.9557 19.0339 63.0342Z" fill="white" stroke="black"/>
<path d="M16.5417 76.6003C18.9274 78.4269 24.2156 80.31 26.2829 73.23M19.7631 73.4832C19.4119 73.8425 19.9649 74.5774 20.133 74.8945M21.9471 72.6092L21.9627 72.633C22.2277 73.0391 22.4512 73.3816 22.5746 73.8524M14.7747 72.977C14.8956 70.1121 15.9167 64.1127 19.0339 63.0342C22.1511 61.9557 26.6702 66.8082 28.5401 69.3693C31.0892 68.7012 36.1803 68.0861 36.1517 70.9704C36.1231 73.8547 33.6034 76.215 32.3471 77.0346C33.7616 78.8977 35.9754 83.1449 33.5139 85.2284C31.0524 87.3119 26.7585 85.8548 24.9192 84.8657C24.1608 86.7535 21.759 90.2707 18.2191 89.237C14.6791 88.2034 14.4852 83.514 14.8308 81.2985C12.1055 81.0865 6.74586 79.8869 7.10949 76.784C7.47312 73.6812 12.3712 72.9531 14.7747 72.977Z" stroke="black" stroke-linecap="round"/>
<path d="M135.724 76.4472C135.971 76.3237 136.071 76.0234 135.947 75.7764C135.824 75.5294 135.523 75.4293 135.276 75.5528L135.724 76.4472ZM138.5 79L138.884 79.3201C139.055 79.1147 139.035 78.8111 138.837 78.6308C138.64 78.4505 138.336 78.4574 138.147 78.6465L138.5 79ZM137.5 83L137.777 82.584L137.5 83ZM143 83L143.447 83.2236C143.535 83.049 143.512 82.8395 143.39 82.6871C143.268 82.5348 143.068 82.4676 142.879 82.5149L143 83ZM146 83L146.474 82.8419C146.389 82.587 146.118 82.4448 145.86 82.52C145.602 82.5951 145.45 82.8606 145.515 83.1213L146 83ZM150 85.5L149.918 85.0068L150 85.5ZM152 83.5L152.416 83.2227C152.277 83.0142 152.005 82.9408 151.78 83.0509C151.555 83.1609 151.447 83.4205 151.526 83.6581L152 83.5ZM155.812 84.8904C156.028 84.7179 156.063 84.4033 155.89 84.1877C155.718 83.972 155.403 83.9371 155.188 84.1096L155.812 84.8904ZM161.723 77.584C161.493 77.7372 161.431 78.0476 161.584 78.2774C161.737 78.5071 162.048 78.5692 162.277 78.416L161.723 77.584ZM159 76.5H158.5C158.5 76.7022 158.622 76.8846 158.809 76.962C158.996 77.0393 159.211 76.9966 159.354 76.8536L159 76.5ZM155.5 76.5L155.2 76.9C155.337 77.003 155.518 77.0284 155.679 76.9671C155.839 76.9058 155.957 76.7665 155.99 76.5981L155.5 76.5ZM153.5 79.5005L153.621 79.9855C153.779 79.946 153.908 79.8324 153.966 79.6807C154.025 79.5291 154.006 79.3585 153.916 79.2232L153.5 79.5005ZM155.5 82.0005L155.974 82.1586C156.048 81.9387 155.96 81.6971 155.763 81.5752C155.566 81.4532 155.311 81.4829 155.147 81.6468L155.5 82.0005ZM157.5 85.5L157.582 85.0068L157.5 85.5ZM160.5 85.0005H161C161 84.7757 160.85 84.5786 160.634 84.5186C160.417 84.4586 160.187 84.5505 160.071 84.7432L160.5 85.0005ZM162 88.0005L161.918 88.4937L162 88.0005ZM165 87.0005L165.481 86.8631C165.412 86.6234 165.178 86.4707 164.931 86.5053C164.684 86.5399 164.5 86.7511 164.5 87.0005H165ZM168.5 88.0005L168.146 87.6469L168.5 88.0005ZM168.5 85.0005L168.598 84.5102C168.364 84.4634 168.129 84.5886 168.038 84.8092C167.947 85.0298 168.024 85.2842 168.223 85.4165L168.5 85.0005ZM173 84.5L173.429 84.7573L173 84.5ZM173 81.5005L172.646 81.147C172.524 81.2695 172.474 81.4467 172.513 81.6154C172.553 81.784 172.678 81.92 172.842 81.9748L173 81.5005ZM173 76V75.5C172.724 75.5 172.5 75.7238 172.5 76C172.5 76.2761 172.724 76.5 173 76.5L173 76ZM173 71.0005L172.879 70.5154C172.634 70.5766 172.473 70.8109 172.504 71.0616C172.535 71.3122 172.748 71.5005 173 71.5005V71.0005ZM173 66.0005L172.647 65.6469C172.488 65.8058 172.454 66.0512 172.565 66.2468C172.676 66.4424 172.903 66.54 173.121 66.4855L173 66.0005ZM174.354 62.6469C174.158 62.4516 173.842 62.4516 173.647 62.6469C173.451 62.8421 173.451 63.1587 173.647 63.354L174.354 62.6469ZM166.447 72.7236C166.571 72.4766 166.471 72.1763 166.224 72.0528C165.977 71.9293 165.676 72.0294 165.553 72.2764L166.447 72.7236ZM163.5 73.5L163.223 73.916V73.916L163.5 73.5ZM162.5 71.5L162.974 71.6581C163.057 71.4092 162.934 71.1385 162.691 71.0381C162.449 70.9377 162.17 71.0417 162.053 71.2764L162.5 71.5ZM160 73.5L160.277 73.084V73.084L160 73.5ZM158.5 71H159C159 70.7978 158.878 70.6155 158.691 70.5381C158.505 70.4607 158.29 70.5035 158.147 70.6465L158.5 71ZM157 68L157.416 68.2774C157.548 68.079 157.522 67.815 157.354 67.6465L157 68ZM159.5 65L159.188 65.3904C159.365 65.5323 159.616 65.5368 159.798 65.4016C159.98 65.2663 160.049 65.0251 159.964 64.8143L159.5 65ZM163.084 64.7226C162.931 64.9524 162.993 65.2628 163.223 65.416C163.452 65.5692 163.763 65.5072 163.916 65.2774L163.084 64.7226ZM134.276 57.9468C134.523 58.0703 134.824 57.9702 134.947 57.7232C135.071 57.4762 134.971 57.1759 134.724 57.0524L134.276 57.9468ZM137 55.4996L136.646 55.8532C136.82 56.0266 137.093 56.0486 137.292 55.9052C137.491 55.7618 137.557 55.4953 137.447 55.276L137 55.4996ZM139.5 55.0001C139.5 55.2763 139.724 55.5001 140 55.5001C140.276 55.5001 140.5 55.2763 140.5 55.0001H139.5ZM147 25.5001L146.918 25.9933C147.096 26.023 147.276 25.9543 147.39 25.8136C147.503 25.6729 147.531 25.4821 147.464 25.3144L147 25.5001ZM155.5 24.5001L155.004 24.5621C155.033 24.7939 155.218 24.9747 155.451 24.9977C155.683 25.0207 155.9 24.8798 155.974 24.6583L155.5 24.5001ZM161.5 26.0001L161.015 26.1214C161.08 26.3803 161.336 26.5428 161.598 26.4904L161.5 26.0001ZM168.5 29.0001L168.026 29.1582C168.108 29.4061 168.368 29.5486 168.621 29.4852L168.5 29.0001ZM174 31.5001L173.515 31.6214C173.562 31.8085 173.712 31.952 173.901 31.9902C174.09 32.0284 174.284 31.9544 174.4 31.8001L174 31.5001ZM180.5 29.5001L180.748 29.066L180.5 29.5001ZM181.5 35.5001L181.076 35.2351C180.98 35.3893 180.975 35.5835 181.063 35.7425C181.151 35.9015 181.318 36.0001 181.5 36.0001V35.5001ZM181.5 41.0001L181.562 40.504C181.292 40.4702 181.044 40.6587 181.005 40.928C180.966 41.1973 181.149 41.4486 181.418 41.4933L181.5 41.0001ZM185 44.0001L184.51 43.9021L185 44.0001ZM182 47.0001L181.902 46.5098C181.711 46.5479 181.56 46.6931 181.514 46.8819C181.468 47.0708 181.536 47.2691 181.688 47.3906L182 47.0001ZM179 52.0001L179.312 51.6097C179.133 51.4664 178.88 51.4634 178.697 51.6022C178.515 51.7411 178.45 51.9863 178.54 52.1971L179 52.0001ZM175 56.5001L175.277 56.084C175.072 55.9473 174.798 55.9806 174.631 56.1623C174.465 56.344 174.456 56.62 174.61 56.8125L175 56.5001ZM169.5 59.0001L169.9 58.7001C169.745 58.4931 169.457 58.4388 169.237 58.5748C169.017 58.7108 168.937 58.9923 169.053 59.2237L169.5 59.0001ZM168 62.5001L167.929 62.9951H167.929L168 62.5001ZM165 60.0001L165.493 60.0823C165.537 59.8176 165.365 59.5653 165.102 59.5106C164.839 59.4559 164.58 59.6185 164.515 59.8788L165 60.0001ZM162 62.0001L161.814 62.4644L162 62.0001ZM160 59.0001L160.485 59.1214C160.547 58.874 160.413 58.6197 160.174 58.5312C159.934 58.4427 159.667 58.5484 159.553 58.7765L160 59.0001ZM153.5 57.4996L153.964 57.6853C154.064 57.4364 153.949 57.1533 153.705 57.0435C153.46 56.9337 153.173 57.0363 153.053 57.276L153.5 57.4996ZM150.9 58.2001C150.734 57.9792 150.421 57.9344 150.2 58.1001C149.979 58.2658 149.934 58.5792 150.1 58.8001L150.9 58.2001ZM143 27.0001L142.553 26.7765V26.7765L143 27.0001ZM142.5 30.5001L142.363 30.9809C142.541 31.0318 142.733 30.9799 142.861 30.8459C142.989 30.7119 143.033 30.518 142.974 30.342L142.5 30.5001ZM138 31.5001L137.553 31.2765L138 31.5001ZM138.5 34.5001V35.0001C138.72 35.0001 138.915 34.8559 138.979 34.645C139.042 34.4341 138.961 34.2063 138.777 34.0841L138.5 34.5001ZM138 41.0001L138.224 41.4473C138.379 41.3698 138.482 41.2176 138.498 41.045C138.514 40.8724 138.439 40.7041 138.3 40.6001L138 41.0001ZM138.5 46.0001L138.916 46.2775C139.018 46.124 139.028 45.9268 138.941 45.7642C138.854 45.6016 138.684 45.5001 138.5 45.5001V46.0001ZM138.5 49.0001L138.084 49.2775L138.5 49.0001ZM141 50.5001H141.5C141.5 50.224 141.276 50.0001 141 50.0001V50.5001ZM143 54.0001C143.276 54.0001 143.5 53.7763 143.5 53.5001C143.5 53.224 143.276 53.0001 143 53.0001V54.0001ZM156.676 36.9117C156.944 36.8447 157.106 36.5732 157.039 36.3053C156.973 36.0375 156.701 35.8746 156.433 35.9415L156.676 36.9117ZM157.135 37.2307L156.711 36.965L157.135 37.2307ZM156.887 36.765C157.134 36.6415 157.234 36.3412 157.11 36.0942C156.987 35.8472 156.687 35.7471 156.44 35.8706L156.887 36.765ZM153.74 42.2831C153.97 42.1303 154.033 41.8199 153.88 41.5899C153.727 41.3599 153.417 41.2973 153.187 41.4501L153.74 42.2831ZM153.216 45.2034L152.885 45.5782L153.216 45.2034ZM156.728 47.2329L156.746 47.7326L156.728 47.2329ZM159.017 46.7817L158.854 46.3092L159.017 46.7817ZM159.778 45.2914L160.274 45.2215L159.778 45.2914ZM159.149 43.9839L159.484 43.6135L159.149 43.9839ZM155.507 41.6636L155.666 41.1896L155.507 41.6636ZM154.409 41.6104L154.278 41.1279L154.409 41.6104ZM154.161 42.1692C154.391 42.0164 154.453 41.7061 154.3 41.4761C154.148 41.2461 153.837 41.1835 153.607 41.3363L154.161 42.1692ZM160.5 39.7983C160.5 40.0744 160.724 40.2983 161 40.2983C161.276 40.2983 161.5 40.0744 161.5 39.7983H160.5ZM162.306 38.7343L161.887 39.0079L162.306 38.7343ZM161.163 40.1792L160.711 40.3932L161.163 40.1792ZM162.053 39.4454C162.219 39.2245 162.174 38.9111 161.953 38.7454C161.732 38.5797 161.419 38.6245 161.253 38.8454L162.053 39.4454ZM135.276 75.5528C134.866 75.7582 134.33 76.1902 134.082 76.8486C133.819 77.546 133.918 78.3901 134.6 79.3L135.4 78.7C134.882 78.0099 134.897 77.5207 135.018 77.2014C135.153 76.8431 135.468 76.5752 135.724 76.4472L135.276 75.5528ZM134.6 79.3C134.948 79.7643 135.348 80.0703 135.781 80.2358C136.212 80.4008 136.644 80.4138 137.039 80.3419C137.812 80.2014 138.475 79.7327 138.854 79.3536L138.147 78.6465C137.859 78.934 137.371 79.2653 136.861 79.3581C136.614 79.4029 136.371 79.3909 136.138 79.3018C135.906 79.213 135.652 79.0358 135.4 78.7L134.6 79.3ZM138.116 78.6799C137.68 79.2036 137.093 80.0515 136.77 80.8967C136.61 81.3177 136.498 81.7794 136.535 82.2193C136.573 82.6813 136.777 83.1186 137.223 83.416L137.777 82.584C137.624 82.4814 137.548 82.3437 137.531 82.137C137.512 81.9081 137.57 81.6073 137.705 81.2533C137.974 80.5485 138.487 79.7965 138.884 79.3201L138.116 78.6799ZM137.223 83.416C137.613 83.6761 138.109 83.8116 138.611 83.8798C139.12 83.949 139.679 83.9545 140.228 83.9243C141.324 83.8638 142.431 83.6577 143.121 83.4851L142.879 82.5149C142.236 82.6756 141.193 82.8695 140.173 82.9258C139.663 82.9539 139.171 82.9468 138.745 82.8889C138.312 82.8301 137.987 82.724 137.777 82.584L137.223 83.416ZM142.553 82.7764C142.416 83.0507 142.278 83.3874 142.182 83.7362C142.088 84.0789 142.024 84.4673 142.066 84.8315C142.108 85.2045 142.27 85.6032 142.67 85.8462C143.051 86.077 143.542 86.1015 144.098 85.9903L143.902 85.0097C143.458 85.0985 143.262 85.0355 143.189 84.9913C143.136 84.9593 143.079 84.8956 143.059 84.7186C143.038 84.5327 143.069 84.2836 143.146 84.0013C143.222 83.7251 143.334 83.4494 143.447 83.2236L142.553 82.7764ZM144.098 85.9903C145.218 85.7663 145.897 85.2324 146.251 84.5913C146.592 83.9712 146.594 83.3132 146.485 82.8787L145.515 83.1213C145.573 83.3535 145.575 83.7455 145.375 84.1088C145.186 84.4509 144.782 84.8337 143.902 85.0097L144.098 85.9903ZM145.526 83.1581C145.717 83.7312 146.164 84.5399 146.904 85.1587C147.661 85.7905 148.721 86.22 150.082 85.9932L149.918 85.0068C148.879 85.18 148.106 84.8595 147.546 84.3913C146.97 83.9101 146.617 83.2688 146.474 82.8419L145.526 83.1581ZM150.082 85.9932C151.082 85.8266 151.76 85.532 152.176 85.1346C152.616 84.7146 152.726 84.2139 152.644 83.7787L151.661 83.9655C151.683 84.0799 151.671 84.2342 151.486 84.4113C151.276 84.611 150.826 84.8555 149.918 85.0068L150.082 85.9932ZM152.644 83.7787C152.603 83.5652 152.518 83.3756 152.416 83.2227L151.584 83.7774C151.619 83.8295 151.648 83.8954 151.661 83.9655L152.644 83.7787ZM151.526 83.6581C151.572 83.7967 151.631 83.9431 151.703 84.0908L152.602 83.6534C152.549 83.5447 152.507 83.4389 152.474 83.3419L151.526 83.6581ZM151.703 84.0908C151.963 84.626 152.435 85.2648 153.161 85.5426C153.932 85.8373 154.836 85.6714 155.812 84.8904L155.188 84.1096C154.399 84.7402 153.864 84.7405 153.518 84.6085C153.129 84.4596 152.809 84.0786 152.602 83.6534L151.703 84.0908ZM162.277 78.416C162.577 78.2165 162.993 77.8255 163.123 77.2936C163.192 77.0107 163.176 76.6978 163.028 76.3871C162.883 76.0845 162.628 75.8178 162.277 75.584L161.723 76.416C161.972 76.5822 162.08 76.7239 162.126 76.8192C162.167 76.9064 162.17 76.981 162.152 77.0564C162.107 77.2412 161.923 77.4501 161.723 77.584L162.277 78.416ZM162.277 75.584C161.525 75.0825 160.738 75.089 160.093 75.2839C159.462 75.4745 158.943 75.8496 158.647 76.1465L159.354 76.8536C159.557 76.6504 159.938 76.3755 160.382 76.2411C160.812 76.1111 161.275 76.1175 161.723 76.416L162.277 75.584ZM159.5 76.5C159.5 76.0403 159.42 75.3424 159.159 74.7395C158.899 74.1387 158.392 73.5005 157.5 73.5005V74.5005C157.808 74.5005 158.051 74.6954 158.241 75.1361C158.431 75.5747 158.5 76.1265 158.5 76.5H159.5ZM157.5 73.5005C156.642 73.5005 156.052 74.0977 155.69 74.6706C155.32 75.2564 155.102 75.943 155.01 76.4019L155.99 76.5981C156.065 76.2239 156.247 75.6607 156.535 75.205C156.831 74.7365 157.158 74.5005 157.5 74.5005V73.5005ZM155.8 76.1C155.437 75.8277 154.839 75.4772 154.238 75.3702C153.932 75.3159 153.579 75.3162 153.251 75.4717C152.908 75.6347 152.661 75.9349 152.526 76.3419L153.474 76.6581C153.539 76.4651 153.622 76.4029 153.68 76.3752C153.754 76.3401 153.876 76.3216 154.062 76.3548C154.445 76.4228 154.896 76.6723 155.2 76.9L155.8 76.1ZM152.526 76.3419C152.286 77.0599 152.342 77.7871 152.49 78.383C152.637 78.9783 152.886 79.4813 153.084 79.7778L153.916 79.2232C153.78 79.0195 153.579 78.6223 153.46 78.1423C153.341 77.663 153.314 77.1402 153.474 76.6581L152.526 76.3419ZM153.379 79.0154C153.002 79.1097 152.412 79.3559 152.118 79.8616C151.957 80.1384 151.899 80.4719 151.995 80.834C152.087 81.1796 152.31 81.5181 152.647 81.8541L153.354 81.1469C153.09 80.883 152.992 80.6925 152.961 80.5766C152.935 80.4774 152.952 80.4171 152.982 80.3647C153.071 80.212 153.331 80.0581 153.621 79.9855L153.379 79.0154ZM152.647 81.8541C153.313 82.5204 153.968 82.8023 154.556 82.8249C155.133 82.8471 155.592 82.6155 155.854 82.3541L155.147 81.6468C155.075 81.7186 154.883 81.8368 154.594 81.8256C154.315 81.8149 153.887 81.6801 153.354 81.1469L152.647 81.8541ZM155.026 81.8423C154.836 82.4101 154.714 83.3031 155.002 84.1382C155.307 85.0203 156.047 85.7645 157.418 85.9932L157.582 85.0068C156.553 84.8352 156.126 84.3294 155.948 83.8118C155.753 83.2472 155.83 82.5905 155.974 82.1586L155.026 81.8423ZM157.418 85.9932C158.324 86.1443 159.011 86.1674 159.527 86.1067C160.037 86.0468 160.426 85.8999 160.683 85.6667L160.01 84.9266C159.968 84.9654 159.811 85.0665 159.411 85.1135C159.018 85.1597 158.431 85.1484 157.582 85.0068L157.418 85.9932ZM160.683 85.6667C160.876 85.4914 161 85.2576 161 85.0005H160C160 84.9639 160.009 84.9382 160.015 84.925C160.022 84.912 160.024 84.9139 160.01 84.9266L160.683 85.6667ZM160.071 84.7432C160.007 84.8497 159.946 84.9674 159.89 85.0934L160.803 85.4999C160.843 85.4109 160.886 85.3292 160.929 85.2577L160.071 84.7432ZM159.89 85.0934C159.664 85.5999 159.49 86.3337 159.752 87.0279C160.03 87.7666 160.734 88.2964 161.918 88.4937L162.082 87.5073C161.122 87.3473 160.8 86.9747 160.687 86.6755C160.558 86.3319 160.629 85.8924 160.803 85.4999L159.89 85.0934ZM161.918 88.4937C163.173 88.7028 164.048 88.5891 164.633 88.2802C165.233 87.9638 165.5 87.4518 165.5 87.0005H164.5C164.5 87.0492 164.467 87.2372 164.167 87.3958C163.852 87.5618 163.227 87.6981 162.082 87.5073L161.918 88.4937ZM164.519 87.1378C164.698 87.7647 165.121 88.6636 165.866 89.1155C166.259 89.3547 166.736 89.4622 167.269 89.3394C167.786 89.2202 168.314 88.894 168.854 88.354L168.146 87.6469C167.686 88.1071 167.318 88.3019 167.044 88.365C166.785 88.4246 166.574 88.3758 166.385 88.2608C165.962 88.0043 165.635 87.403 165.481 86.8631L164.519 87.1378ZM168.854 88.354C169.532 87.6753 169.92 87.0701 170.053 86.5208C170.193 85.9376 170.036 85.4526 169.717 85.1048L168.98 85.7805C169.075 85.8843 169.143 86.0285 169.08 86.2864C169.01 86.5783 168.767 87.0262 168.146 87.6469L168.854 88.354ZM169.717 85.1048C169.398 84.7569 168.953 84.5811 168.598 84.5102L168.402 85.4908C168.631 85.5365 168.852 85.6412 168.98 85.7805L169.717 85.1048ZM168.223 85.4165C168.477 85.5859 168.799 85.7609 169.162 85.9066L169.535 84.9787C169.236 84.8587 168.975 84.7158 168.777 84.5844L168.223 85.4165ZM169.162 85.9066C169.777 86.1539 170.552 86.3344 171.326 86.2172C172.124 86.0965 172.885 85.6631 173.429 84.7573L172.571 84.2427C172.186 84.8852 171.688 85.151 171.176 85.2285C170.64 85.3096 170.054 85.1873 169.535 84.9787L169.162 85.9066ZM173.429 84.7573C174.06 83.7055 174.248 82.8704 174.129 82.223C174.008 81.5583 173.575 81.1651 173.158 81.0261L172.842 81.9748C172.925 82.0025 173.092 82.1093 173.146 82.4027C173.202 82.7135 173.14 83.2949 172.571 84.2427L173.429 84.7573ZM173.354 81.854C173.892 81.3158 175.056 79.8391 175.485 78.1213L174.515 77.8787C174.144 79.3609 173.108 80.6849 172.646 81.147L173.354 81.854ZM175.485 78.1213C175.606 77.6398 175.587 77.2058 175.439 76.8289C175.29 76.4534 175.03 76.1792 174.742 75.9852C174.183 75.6092 173.472 75.5 173 75.5V76.5C173.362 76.5 173.851 76.5909 174.183 76.8148C174.341 76.9209 174.449 77.0466 174.508 77.1961C174.567 77.3442 174.595 77.5602 174.515 77.8787L175.485 78.1213ZM173 76.5C173.44 76.5001 174.064 76.3404 174.584 75.872C175.121 75.3892 175.5 74.6215 175.5 73.5005H174.5C174.5 74.3795 174.212 74.8616 173.916 75.1286C173.603 75.41 173.227 75.5001 173 75.5L173 76.5ZM175.5 73.5005C175.5 72.3795 175.121 71.6117 174.585 71.1288C174.064 70.6604 173.44 70.5005 173 70.5005V71.5005C173.227 71.5005 173.603 71.5906 173.916 71.8721C174.212 72.1392 174.5 72.6215 174.5 73.5005H175.5ZM173.121 71.4855C173.966 71.2744 175.5 70.2731 175.5 68.0005H174.5C174.5 69.7279 173.368 70.3932 172.879 70.5154L173.121 71.4855ZM175.5 68.0005C175.5 66.8842 175.12 66.1574 174.523 65.7687C173.956 65.4005 173.302 65.4095 172.879 65.5154L173.121 66.4855C173.364 66.4248 173.711 66.4338 173.978 66.6072C174.213 66.7602 174.5 67.1167 174.5 68.0005H175.5ZM173.354 66.354C173.712 65.9959 174.203 65.3995 174.502 64.7633C174.785 64.1626 174.996 63.2894 174.354 62.6469L173.647 63.354C173.804 63.5115 173.848 63.805 173.598 64.3376C173.364 64.8348 172.955 65.3383 172.647 65.6469L173.354 66.354ZM165.553 72.2764C165.412 72.5577 165.142 72.9219 164.813 73.1242C164.655 73.2212 164.498 73.2726 164.342 73.2751C164.19 73.2775 164.003 73.2342 163.777 73.084L163.223 73.916C163.597 74.1658 163.981 74.2809 164.358 74.2749C164.731 74.2691 165.061 74.1455 165.337 73.9758C165.875 73.6448 166.255 73.109 166.447 72.7236L165.553 72.2764ZM163.777 73.084C162.878 72.4844 162.891 71.9398 162.929 71.7787L161.956 71.5493C161.803 72.1956 162.048 73.1331 163.223 73.916L163.777 73.084ZM162.929 71.7787C162.936 71.7491 162.944 71.731 162.947 71.7236L162.053 71.2764C162.011 71.3596 161.979 71.4518 161.956 71.5493L162.929 71.7787ZM162.026 71.3419C162.01 71.389 161.993 71.4386 161.973 71.49L162.911 71.8379C162.934 71.7763 162.955 71.7162 162.974 71.6581L162.026 71.3419ZM161.973 71.49C161.795 71.9703 161.499 72.543 161.15 72.8967C160.978 73.0712 160.824 73.1599 160.698 73.1883C160.591 73.2125 160.459 73.2049 160.277 73.084L159.723 73.916C160.11 74.1741 160.52 74.2538 160.918 74.1638C161.298 74.0782 161.613 73.8513 161.862 73.5994C162.355 73.1001 162.711 72.3759 162.911 71.838L161.973 71.49ZM160.277 73.084C159.24 72.3923 159 71.3631 159 71H158C158 71.6369 158.36 73.0077 159.723 73.916L160.277 73.084ZM158.147 70.6465C157.922 70.8706 157.604 71.093 157.352 71.1498C157.24 71.1751 157.186 71.1581 157.159 71.1422C157.13 71.126 157.049 71.0652 156.974 70.8419L156.026 71.1581C156.151 71.5348 156.357 71.8365 156.663 72.0109C156.97 72.1857 157.297 72.1875 157.573 72.1252C158.096 72.007 158.578 71.6294 158.854 71.3536L158.147 70.6465ZM156.974 70.8419C156.814 70.3598 156.842 69.8371 156.96 69.3579C157.079 68.878 157.28 68.4809 157.416 68.2774L156.584 67.7227C156.386 68.0191 156.137 68.522 155.99 69.1171C155.842 69.713 155.786 70.4402 156.026 71.1581L156.974 70.8419ZM157.354 67.6465C157.152 67.4446 156.625 66.5612 156.985 65.1213L156.015 64.8787C155.575 66.6388 156.182 67.8887 156.647 68.3536L157.354 67.6465ZM156.985 65.1213C157.06 64.8199 157.177 64.7149 157.258 64.671C157.354 64.6194 157.507 64.5948 157.741 64.6407C158.222 64.7348 158.797 65.0778 159.188 65.3904L159.812 64.6096C159.37 64.2555 158.645 63.7986 157.934 63.6593C157.572 63.5886 157.157 63.5889 156.782 63.7915C156.394 64.0018 156.14 64.3801 156.015 64.8787L156.985 65.1213ZM159.964 64.8143C159.816 64.4445 159.78 64.0242 159.915 63.776C160.003 63.6123 160.298 63.3069 161.418 63.4936L161.582 62.5072C160.302 62.2938 159.43 62.5717 159.036 63.2994C158.687 63.9428 158.85 64.7223 159.036 65.1857L159.964 64.8143ZM161.418 63.4936C162.57 63.6856 162.974 64.0239 163.101 64.2273C163.21 64.4027 163.175 64.5862 163.084 64.7226L163.916 65.2774C164.158 64.9139 164.323 64.2976 163.949 63.6981C163.593 63.1266 162.83 62.7151 161.582 62.5072L161.418 63.4936ZM134.724 57.0524C134.689 57.0349 134.596 56.9629 134.567 56.7999C134.539 56.6382 134.561 56.31 134.916 55.777L134.084 55.2223C133.639 55.8892 133.495 56.4777 133.583 56.9744C133.671 57.4697 133.978 57.7976 134.276 57.9468L134.724 57.0524ZM134.916 55.777C135.07 55.5457 135.222 55.4373 135.347 55.3858C135.474 55.3337 135.614 55.324 135.77 55.3534C136.099 55.4158 136.438 55.6451 136.646 55.8532L137.354 55.1461C137.062 54.8541 136.551 54.4834 135.955 54.3708C135.648 54.3127 135.307 54.3217 134.968 54.4603C134.629 54.5995 134.33 54.8535 134.084 55.2223L134.916 55.777ZM137.447 55.276C137.301 54.983 137.208 54.6092 137.263 54.3574C137.286 54.2523 137.331 54.1821 137.407 54.1294C137.492 54.0703 137.665 54.0001 138 54.0001V53.0001C137.535 53.0001 137.141 53.0965 136.837 53.3082C136.523 53.5263 136.355 53.831 136.287 54.1425C136.159 54.7238 136.366 55.3498 136.553 55.7233L137.447 55.276ZM138 54.0001C138.689 54.0001 139.05 54.2115 139.239 54.4089C139.441 54.6189 139.5 54.8656 139.5 55.0001H140.5C140.5 54.6347 140.359 54.1313 139.961 53.7164C139.55 53.2887 138.911 53.0001 138 53.0001V54.0001ZM147.464 25.3144C147.202 24.6588 147.281 23.4491 147.927 22.3846C148.551 21.3573 149.686 20.5001 151.5 20.5001V19.5001C149.314 19.5001 147.866 20.5596 147.073 21.8656C146.302 23.1344 146.131 24.6748 146.536 25.6858L147.464 25.3144ZM151.5 20.5001C152.435 20.5001 153.083 20.6849 153.539 20.9486C153.991 21.2102 154.288 21.5684 154.49 21.9737C154.919 22.8306 154.91 23.8076 155.004 24.5621L155.996 24.4381C155.924 23.8593 155.915 22.5863 155.385 21.5265C155.108 20.9735 154.686 20.4567 154.039 20.0829C153.396 19.7112 152.565 19.5001 151.5 19.5001V20.5001ZM155.974 24.6583C155.962 24.696 155.952 24.6907 155.995 24.6465C156.034 24.6073 156.096 24.555 156.188 24.4949C156.371 24.375 156.637 24.2457 156.967 24.138C157.629 23.9227 158.499 23.8098 159.402 23.9904L159.598 23.0098C158.501 22.7904 157.455 22.9275 156.658 23.1872C156.259 23.317 155.91 23.4815 155.64 23.6584C155.505 23.7468 155.382 23.8437 155.28 23.9479C155.183 24.047 155.08 24.1793 155.026 24.342L155.974 24.6583ZM159.402 23.9904C160.263 24.1626 160.579 24.529 160.734 24.8614C160.821 25.0473 160.869 25.2502 160.905 25.4667C160.935 25.6472 160.968 25.9318 161.015 26.1214L161.985 25.8788C161.949 25.7351 161.94 25.5905 161.892 25.3023C161.85 25.0501 161.783 24.7446 161.641 24.4389C161.337 23.7879 160.737 23.2376 159.598 23.0098L159.402 23.9904ZM161.598 26.4904C161.973 26.4155 162.655 26.3433 163.435 26.3868C164.215 26.4304 165.058 26.5883 165.776 26.9473L166.224 26.0529C165.342 25.6119 164.351 25.4365 163.49 25.3884C162.628 25.3403 161.861 25.4181 161.402 25.5098L161.598 26.4904ZM165.776 26.9473C167.26 27.6892 167.902 28.7866 168.026 29.1582L168.974 28.842C168.765 28.2137 167.94 26.911 166.224 26.0529L165.776 26.9473ZM168.621 29.4852C168.923 29.4098 169.465 29.3147 170.073 29.2871C170.685 29.2593 171.324 29.302 171.842 29.4745L172.158 28.5258C171.476 28.2983 170.698 28.2577 170.027 28.2881C169.352 28.3188 168.744 28.4238 168.379 28.5151L168.621 29.4852ZM171.842 29.4745C172.297 29.6262 172.676 29.9868 172.972 30.4283C173.266 30.8674 173.444 31.3382 173.515 31.6214L174.485 31.3789C174.389 30.9954 174.167 30.4162 173.803 29.872C173.44 29.3301 172.903 28.774 172.158 28.5258L171.842 29.4745ZM174.4 31.8001C174.863 31.1834 175.727 30.3447 176.785 29.8537C177.828 29.3702 179.026 29.234 180.252 29.9342L180.748 29.066C179.174 28.1663 177.622 28.3633 176.365 28.9465C175.123 29.5222 174.137 30.4835 173.6 31.2001L174.4 31.8001ZM180.252 29.9342C181.478 30.6346 181.859 31.6241 181.863 32.602C181.866 33.6154 181.458 34.6236 181.076 35.2351L181.924 35.7651C182.375 35.0433 182.867 33.8515 182.862 32.5983C182.858 31.3095 182.322 29.9657 180.748 29.066L180.252 29.9342ZM181.5 36.0001C181.92 36.0001 182.561 36.1302 183.083 36.5059C183.579 36.8632 184 37.4631 184 38.5001H185C185 37.1372 184.421 36.2371 183.667 35.6944C182.939 35.17 182.08 35.0001 181.5 35.0001V36.0001ZM184 38.5001C184 39.488 183.621 39.9769 183.201 40.2356C182.743 40.5169 182.154 40.5742 181.704 40.5238L181.592 41.5175C182.179 41.5833 183.015 41.5236 183.725 41.0873C184.471 40.6284 185 39.7989 185 38.5001H184ZM181.704 40.5238C181.661 40.519 181.62 40.5133 181.582 40.5069L181.418 41.4933C181.474 41.5027 181.532 41.5108 181.592 41.5175L181.704 40.5238ZM181.438 41.4963C181.481 41.5017 181.526 41.5079 181.573 41.515L181.723 40.5263C181.668 40.518 181.614 40.5105 181.562 40.504L181.438 41.4963ZM181.573 41.515C182.215 41.6125 183.071 41.8584 183.703 42.2809C184.322 42.694 184.648 43.209 184.51 43.9021L185.49 44.0982C185.737 42.863 185.071 41.992 184.258 41.4493C183.46 40.9159 182.447 40.6362 181.723 40.5263L181.573 41.515ZM184.51 43.9021C184.165 45.6262 182.629 46.3644 181.902 46.5098L182.098 47.4904C183.038 47.3025 185.035 46.374 185.49 44.0982L184.51 43.9021ZM181.688 47.3906C182.048 47.6788 182.536 48.2335 182.794 48.9251C183.045 49.5971 183.081 50.393 182.571 51.2429L183.429 51.7574C184.119 50.6072 184.071 49.4865 183.731 48.5751C183.398 47.6834 182.785 46.9881 182.312 46.6097L181.688 47.3906ZM182.571 51.2429C182.068 52.0818 181.453 52.2823 180.89 52.2509C180.28 52.2168 179.676 51.9008 179.312 51.6097L178.688 52.3906C179.157 52.7661 179.954 53.2001 180.835 53.2493C181.764 53.3012 182.732 52.9184 183.429 51.7574L182.571 51.2429ZM178.54 52.1971C178.774 52.7413 179.026 53.6005 179.038 54.3949C179.049 55.199 178.82 55.781 178.276 56.0529L178.724 56.9474C179.78 56.4196 180.051 55.335 180.037 54.3807C180.024 53.4168 179.726 52.4258 179.46 51.8032L178.54 52.1971ZM178.276 56.0529C176.859 56.7613 175.65 56.3321 175.277 56.084L174.723 56.9162C175.35 57.3344 176.941 57.8381 178.724 56.9474L178.276 56.0529ZM174.61 56.8125C174.904 57.1808 175.175 57.738 175.151 58.2378C175.139 58.4723 175.063 58.698 174.883 58.907C174.699 59.1213 174.381 59.346 173.842 59.5258L174.158 60.4745C174.819 60.2543 175.309 59.9456 175.642 59.5589C175.979 59.1668 176.128 58.7238 176.149 58.2874C176.191 57.4456 175.762 56.6527 175.39 56.1878L174.61 56.8125ZM173.842 59.5258C171.672 60.2492 170.288 59.2173 169.9 58.7001L169.1 59.3001C169.712 60.1163 171.528 61.3511 174.158 60.4745L173.842 59.5258ZM169.053 59.2237C169.206 59.5307 169.357 59.9082 169.457 60.2912C169.557 60.6795 169.596 61.041 169.555 61.3294C169.515 61.6071 169.409 61.7809 169.242 61.8871C169.058 62.0034 168.71 62.0965 168.071 62.0051L167.929 62.9951C168.69 63.1038 169.313 63.026 169.777 62.7319C170.257 62.4276 170.476 61.9515 170.545 61.4708C170.612 61.001 170.543 60.4957 170.425 60.0403C170.305 59.5795 170.127 59.1362 169.947 58.7765L169.053 59.2237ZM168.071 62.0051C166.822 61.8268 166.162 61.4423 165.827 61.0905C165.495 60.7433 165.446 60.395 165.472 60.189L164.481 60.0595C164.416 60.5598 164.559 61.2111 165.103 61.7811C165.643 62.3465 166.541 62.7968 167.929 62.9951L168.071 62.0051ZM165.472 60.1891C165.476 60.1637 165.48 60.1411 165.485 60.1214L164.515 59.8788C164.5 59.937 164.489 59.9974 164.481 60.0595L165.472 60.1891ZM164.507 59.9179C164.501 59.9513 164.495 59.9861 164.487 60.0221L165.466 60.2265C165.476 60.1775 165.485 60.1293 165.493 60.0823L164.507 59.9179ZM164.487 60.0221C164.393 60.4738 164.163 61.0218 163.791 61.3627C163.612 61.5264 163.405 61.6391 163.161 61.6811C162.915 61.7232 162.596 61.7001 162.186 61.5359L161.814 62.4644C162.364 62.6841 162.87 62.7455 163.33 62.6667C163.79 62.5877 164.167 62.374 164.466 62.0998C165.05 61.5649 165.348 60.791 165.466 60.2265L164.487 60.0221ZM162.186 61.5359C160.44 60.8374 160.373 59.5689 160.485 59.1214L159.515 58.8789C159.294 59.7647 159.561 61.5628 161.814 62.4644L162.186 61.5359ZM159.553 58.7765C159.337 59.2092 158.869 59.8328 158.198 60.2507C157.545 60.6576 156.699 60.8727 155.658 60.5258L155.342 61.4745C156.701 61.9275 157.855 61.6427 158.727 61.0995C159.581 60.5675 160.164 59.791 160.447 59.2237L159.553 58.7765ZM155.658 60.5258C154.583 60.1673 154.128 59.6004 153.945 59.093C153.753 58.5589 153.834 58.0118 153.964 57.6853L153.036 57.314C152.833 57.8209 152.714 58.6241 153.005 59.4319C153.305 60.2663 154.017 61.0329 155.342 61.4745L155.658 60.5258ZM153.053 57.276C152.819 57.7435 152.422 58.2941 152.004 58.5471C151.807 58.6663 151.643 58.6971 151.502 58.669C151.361 58.6409 151.151 58.5354 150.9 58.2001L150.1 58.8001C150.449 59.2648 150.852 59.5593 151.307 59.6498C151.763 59.7405 152.181 59.6087 152.521 59.4028C153.178 59.0056 153.681 58.2559 153.947 57.7232L153.053 57.276ZM147.082 25.0069C146.528 24.9145 145.657 24.887 144.803 25.1029C143.946 25.3192 143.041 25.7998 142.553 26.7765L143.447 27.2237C143.759 26.6004 144.354 26.2477 145.047 26.0724C145.743 25.8966 146.472 25.9191 146.918 25.9933L147.082 25.0069ZM142.553 26.7765C141.695 28.4927 141.816 30.0299 142.026 30.6582L142.974 30.342C142.85 29.9704 142.705 28.7075 143.447 27.2237L142.553 26.7765ZM142.637 30.0194C142.01 29.8402 141.019 29.6778 140.061 29.7778C139.111 29.8768 138.065 30.2518 137.553 31.2765L138.447 31.7237C138.735 31.1484 139.356 30.8568 140.164 30.7724C140.964 30.6891 141.823 30.8267 142.363 30.9809L142.637 30.0194ZM137.553 31.2765C137.099 32.185 137.081 32.9863 137.286 33.6274C137.486 34.2514 137.885 34.6913 138.223 34.9161L138.777 34.0841C138.615 33.9756 138.364 33.7155 138.239 33.3229C138.119 32.9473 138.101 32.4152 138.447 31.7237L137.553 31.2765ZM138.5 34.0001C137.694 34.0001 136.442 34.7413 136.01 36.9021L136.99 37.0982C137.358 35.2589 138.306 35.0001 138.5 35.0001V34.0001ZM136.01 36.9021C135.558 39.1595 136.945 40.8335 137.7 41.4001L138.3 40.6001C137.722 40.1667 136.642 38.8408 136.99 37.0982L136.01 36.9021ZM137.776 40.5529C137.378 40.7521 136.832 41.1557 136.435 41.7462C136.029 42.35 135.775 43.1604 136.015 44.1214L136.985 43.8789C136.825 43.2399 136.988 42.7169 137.265 42.304C137.551 41.8779 137.955 41.5815 138.224 41.4473L137.776 40.5529ZM136.015 44.1214C136.471 45.9473 137.774 46.5001 138.5 46.5001V45.5001C138.226 45.5001 137.329 45.2529 136.985 43.8789L136.015 44.1214ZM138.084 45.7228C137.691 46.313 137.128 47.8434 138.084 49.2775L138.916 48.7228C138.272 47.7568 138.643 46.6873 138.916 46.2775L138.084 45.7228ZM138.084 49.2775C138.992 50.64 140.363 51.0001 141 51.0001V50.0001C140.637 50.0001 139.608 49.7603 138.916 48.7228L138.084 49.2775ZM140.5 50.5001V52.0001H141.5V50.5001H140.5ZM140.5 52.0001C140.5 52.8313 140.981 53.3529 141.512 53.6401C142.023 53.9155 142.611 54.0001 143 54.0001V53.0001C142.723 53.0001 142.311 52.9347 141.988 52.7602C141.686 52.5973 141.5 52.3689 141.5 52.0001H140.5ZM156.433 35.9415C156.195 36.0012 156.045 36.1673 155.961 36.2973C155.873 36.4321 155.818 36.5849 155.782 36.7251C155.713 37.0024 155.697 37.3333 155.754 37.6129C155.782 37.7498 155.836 37.9203 155.95 38.0649C156.079 38.2283 156.294 38.362 156.57 38.3348C156.804 38.3117 156.992 38.1786 157.128 38.0495C157.272 37.9128 157.414 37.7266 157.558 37.4963L156.711 36.965C156.652 37.0595 156.599 37.1353 156.552 37.1954C156.506 37.2558 156.468 37.2972 156.439 37.3245C156.41 37.3524 156.395 37.3604 156.397 37.3597C156.398 37.3588 156.424 37.3443 156.472 37.3396C156.496 37.3373 156.523 37.3377 156.553 37.3428C156.583 37.3479 156.612 37.3572 156.638 37.3697C156.69 37.3947 156.72 37.4268 156.735 37.4448C156.748 37.4619 156.75 37.4708 156.747 37.4627C156.744 37.4555 156.739 37.4397 156.734 37.4138C156.729 37.3883 156.724 37.3571 156.722 37.3207C156.719 37.2846 156.718 37.2453 156.72 37.2044C156.723 37.1214 156.735 37.0393 156.752 36.9692C156.761 36.9346 156.77 36.9057 156.78 36.8828C156.789 36.8595 156.796 36.8465 156.8 36.8415C156.803 36.836 156.798 36.8454 156.781 36.8601C156.762 36.8758 156.727 36.8989 156.676 36.9117L156.433 35.9415ZM157.558 37.4963C157.657 37.3391 157.836 37.0122 157.885 36.6876C157.91 36.5275 157.917 36.2695 157.756 36.0406C157.577 35.7865 157.295 35.709 157.044 35.709V36.709C157.106 36.709 157.014 36.7235 156.939 36.6165C156.881 36.5346 156.906 36.4786 156.897 36.5383C156.89 36.5858 156.867 36.6584 156.827 36.7469C156.79 36.8316 156.745 36.9104 156.711 36.965L157.558 37.4963ZM157.044 35.709C156.918 35.709 156.794 35.7455 156.727 35.7663C156.646 35.792 156.566 35.8229 156.508 35.8465C156.475 35.86 156.376 35.9022 156.404 35.8907C156.404 35.8903 156.407 35.8891 156.411 35.8876C156.412 35.8874 156.426 35.8816 156.445 35.8759C156.451 35.8741 156.46 35.8712 156.473 35.8682C156.482 35.8659 156.508 35.8596 156.543 35.8562C156.561 35.8548 156.607 35.854 156.634 35.8556C156.678 35.8613 156.792 35.8958 156.859 35.9313C156.952 36.0068 157.074 36.222 157.092 36.3508C157.084 36.4401 157.04 36.5749 157.015 36.6208C156.971 36.6905 156.919 36.7319 156.913 36.7368C156.897 36.7507 156.883 36.7605 156.876 36.765C156.862 36.7746 156.851 36.7813 156.847 36.7835C156.83 36.7939 156.813 36.8018 156.827 36.7949C156.837 36.7899 156.854 36.7815 156.887 36.765L156.44 35.8706C156.411 35.8848 156.388 35.8961 156.377 35.902C156.374 35.9036 156.37 35.9057 156.365 35.9078C156.363 35.9088 156.36 35.9104 156.357 35.9123C156.355 35.9135 156.347 35.9177 156.337 35.9234C156.333 35.9258 156.322 35.9326 156.308 35.9423C156.301 35.9469 156.287 35.9567 156.271 35.9706C156.265 35.9756 156.213 36.017 156.169 36.0867C156.143 36.1326 156.099 36.2675 156.092 36.3568C156.109 36.4856 156.232 36.7008 156.324 36.7763C156.391 36.8118 156.506 36.8463 156.55 36.852C156.577 36.8536 156.623 36.8528 156.641 36.8514C156.675 36.848 156.702 36.8417 156.711 36.8394C156.724 36.8363 156.733 36.8334 156.739 36.8316C156.758 36.8257 156.773 36.8197 156.775 36.8192C156.78 36.8173 156.784 36.8156 156.786 36.8147C156.835 36.7944 156.814 36.8017 156.886 36.7725C156.932 36.7536 156.983 36.7342 157.027 36.7203C157.087 36.7015 157.084 36.709 157.044 36.709V35.709ZM153.187 41.4501C152.456 41.9359 152.006 42.6441 151.941 43.4207C151.875 44.2009 152.204 44.9769 152.885 45.5782L153.547 44.8287C153.072 44.4093 152.902 43.9306 152.937 43.5045C152.974 43.0747 153.226 42.6249 153.74 42.2831L153.187 41.4501ZM152.885 45.5782C153.289 45.9356 153.877 46.4819 154.522 46.9246C155.157 47.3603 155.939 47.7612 156.746 47.7326L156.71 46.7332C156.236 46.75 155.679 46.5056 155.088 46.0999C154.506 45.7013 153.978 45.2102 153.547 44.8287L152.885 45.5782ZM156.746 47.7326C157.576 47.7032 158.417 47.5188 159.181 47.2541L158.854 46.3092C158.163 46.5483 157.422 46.708 156.71 46.7332L156.746 47.7326ZM159.181 47.2541C159.642 47.0945 159.974 46.8101 160.153 46.4119C160.323 46.0348 160.329 45.6149 160.274 45.2215L159.283 45.3613C159.326 45.6635 159.302 45.8674 159.241 46.001C159.191 46.1134 159.093 46.2263 158.854 46.3092L159.181 47.2541ZM160.274 45.2215C160.191 44.6398 159.991 44.0733 159.484 43.6135L158.813 44.3543C159.089 44.6047 159.221 44.9198 159.283 45.3613L160.274 45.2215ZM159.484 43.6135C158.469 42.6932 157.052 41.654 155.666 41.1896L155.348 42.1377C156.542 42.5378 157.838 43.4706 158.813 44.3543L159.484 43.6135ZM155.666 41.1896C155.197 41.0323 154.788 40.9896 154.278 41.1279L154.54 42.093C154.823 42.0164 155.027 42.03 155.348 42.1377L155.666 41.1896ZM154.278 41.1279C154.201 41.1489 154.095 41.19 154.019 41.2203C153.926 41.257 153.845 41.2904 153.772 41.3182C153.736 41.3317 153.713 41.3401 153.7 41.3444C153.692 41.3467 153.695 41.3456 153.704 41.3434C153.709 41.3423 153.72 41.3398 153.736 41.3377C153.749 41.3359 153.782 41.3317 153.826 41.3343C153.853 41.3359 153.977 41.3433 154.097 41.4369C154.168 41.4916 154.232 41.5719 154.265 41.676C154.298 41.7758 154.292 41.8654 154.28 41.9278C154.257 42.0379 154.203 42.1087 154.19 42.1259C154.17 42.1527 154.152 42.1703 154.144 42.1771C154.123 42.1971 154.117 42.1982 154.161 42.1692L153.607 41.3363C153.565 41.3642 153.505 41.4051 153.457 41.4509C153.443 41.4641 153.42 41.4873 153.395 41.5189C153.379 41.5409 153.323 41.6156 153.3 41.7288C153.287 41.7928 153.281 41.8838 153.314 41.9848C153.348 42.0901 153.413 42.1714 153.484 42.227C153.607 42.3223 153.734 42.3306 153.766 42.3325C153.849 42.3374 153.917 42.3207 153.931 42.3174C153.959 42.3109 153.985 42.3031 154.004 42.2968C154.045 42.284 154.089 42.2677 154.129 42.2523C154.208 42.2221 154.31 42.1804 154.387 42.1502C154.428 42.134 154.464 42.1201 154.493 42.1092C154.508 42.1038 154.52 42.0997 154.529 42.0967C154.538 42.0934 154.541 42.0926 154.54 42.093L154.278 41.1279ZM161.5 39.7983C161.5 39.8087 161.499 39.7888 161.516 39.7316C161.531 39.6798 161.554 39.6147 161.587 39.5419C161.654 39.3937 161.746 39.2422 161.841 39.1296C161.95 39.001 162.004 38.9929 161.98 38.9975C161.952 39.003 161.912 39.0001 161.876 38.9822C161.848 38.9679 161.856 38.9606 161.887 39.0079L162.724 38.4607C162.627 38.3112 162.498 38.1759 162.328 38.0899C162.151 38.0004 161.964 37.982 161.789 38.016C161.472 38.0776 161.232 38.3023 161.079 38.4831C160.912 38.6799 160.774 38.9144 160.676 39.1299C160.586 39.3289 160.5 39.5791 160.5 39.7983H161.5ZM161.887 39.0079C161.878 38.9933 161.913 39.0415 161.869 39.2097C161.83 39.3627 161.742 39.5374 161.631 39.6819C161.577 39.7527 161.523 39.8079 161.477 39.8461C161.428 39.8864 161.403 39.8953 161.405 39.8947C161.411 39.8926 161.467 39.8783 161.539 39.9104C161.61 39.942 161.626 39.9872 161.615 39.9651L160.711 40.3932C160.793 40.5663 160.927 40.7324 161.132 40.8237C161.338 40.9155 161.543 40.8997 161.707 40.8481C162.007 40.7529 162.255 40.5117 162.425 40.2899C162.605 40.0545 162.759 39.7609 162.837 39.462C162.911 39.1781 162.94 38.7906 162.724 38.4607L161.887 39.0079ZM161.615 39.9651C161.594 39.9209 161.605 39.9203 161.601 39.944C161.598 39.9608 161.593 39.9543 161.624 39.9142C161.658 39.869 161.706 39.8211 161.789 39.7383C161.862 39.6656 161.964 39.5642 162.053 39.4454L161.253 38.8454C161.213 38.8982 161.161 38.9518 161.083 39.0301C161.014 39.0983 160.913 39.1973 160.829 39.3076C160.741 39.423 160.647 39.5807 160.614 39.7827C160.58 39.9916 160.619 40.1974 160.711 40.3932L161.615 39.9651Z" fill="black"/>
<path d="M154.5 46C152.5 44.8 152.667 43.1667 153 42.5C153.5 41.5 154.5 42 157.5 42.5C159.9 42.9 160.167 45.3333 160 46.5C159 46.8333 156.5 47.2 154.5 46Z" fill="black"/>
</svg>
